<svg width="40" height="40" viewBox="0 0 40 40" fill="none" xmlns="http://www.w3.org/2000/svg">
<path d="M12.1915 9.48257C11.6013 9.14269 10.9005 9.05059 10.2426 9.22645C9.58466 9.4023 9.02325 9.83177 8.68137 10.4208C8.51226 10.7122 8.4024 11.0342 8.35812 11.3682C8.31384 11.7022 8.336 12.0417 8.42334 12.3671C8.51067 12.6926 8.66146 12.9975 8.86703 13.2645C9.0726 13.5315 9.3289 13.7552 9.62121 13.9228L13.905 16.3904C14.1526 16.5334 14.3583 16.739 14.5012 16.9866C14.6442 17.2342 14.7194 17.5151 14.7195 17.801V23.5606C14.7194 23.8465 14.6442 24.1274 14.5012 24.375L10.579 31.1542C10.4098 31.4456 10.3 31.7676 10.2557 32.1016C10.2114 32.4356 10.2336 32.7751 10.3209 33.1005C10.4083 33.426 10.559 33.7309 10.7646 33.9979C10.9702 34.2649 11.2265 34.4886 11.5188 34.6562C12.1091 34.9966 12.8103 35.0889 13.4686 34.9131C14.127 34.7372 14.6887 34.3074 15.0306 33.718L20.3373 24.5493H20.7575L26.0643 33.718C26.4062 34.3074 26.9679 34.7372 27.6262 34.9131C28.2845 35.0889 28.9857 34.9966 29.576 34.6562C29.8683 34.4886 30.1246 34.2649 30.3302 33.9979C30.5358 33.7309 30.6866 33.426 30.7739 33.1005C30.8612 32.7751 30.8834 32.4356 30.8391 32.1016C30.7948 31.7676 30.685 31.4456 30.5159 31.1542L26.6034 24.3945C26.4593 24.1461 26.3835 23.864 26.3835 23.5769V17.801C26.3837 17.5149 26.4592 17.234 26.6025 16.9863C26.7457 16.7387 26.9517 16.5332 27.1996 16.3904L31.4834 13.9244C31.7757 13.7568 32.032 13.5331 32.2376 13.2661C32.4431 12.9991 32.5939 12.6942 32.6813 12.3688C32.7686 12.0433 32.7908 11.7039 32.7465 11.3698C32.7022 11.0358 32.5923 10.7138 32.4232 10.4224C32.0816 9.83313 31.5203 9.40331 30.8624 9.22714C30.2044 9.05097 29.5034 9.14283 28.9131 9.48257L22.9907 12.8933C22.249 13.3204 21.4081 13.5452 20.5523 13.5452C19.6965 13.5452 18.8556 13.3204 18.1139 12.8933L12.1915 9.48257Z" stroke="#58595A" stroke-width="1.14018" stroke-linecap="round" stroke-linejoin="round"/>
<path d="M24.8183 9.27243C24.8183 10.4055 24.3682 11.4923 23.5669 12.2935C22.7657 13.0947 21.679 13.5449 20.5459 13.5449C19.4127 13.5449 18.326 13.0947 17.5248 12.2935C16.7236 11.4923 16.2734 10.4055 16.2734 9.27243C16.2734 8.13931 16.7236 7.0526 17.5248 6.25137C18.326 5.45013 19.4127 5 20.5459 5C21.679 5 22.7657 5.45013 23.5669 6.25137C24.3682 7.0526 24.8183 8.13931 24.8183 9.27243Z" stroke="#58595A" stroke-width="1.14018" stroke-linecap="round" stroke-linejoin="round"/>
</svg>
