<svg width="40" height="40" viewBox="0 0 40 40" fill="none" xmlns="http://www.w3.org/2000/svg">
<path d="M7.79492 31.5379V8.46175C7.79492 7.36688 8.23004 6.31602 9.00423 5.54183C9.77842 4.76764 10.8293 4.33252 11.9242 4.33252H19.0449C19.8333 4.33264 20.5902 4.64599 21.1478 5.20329V5.20492L31.335 15.3905C31.8924 15.948 32.2055 16.7049 32.2057 17.4933V31.5379C32.2057 32.6328 31.7706 33.6837 30.9964 34.4578C30.2224 35.2317 29.1726 35.667 28.0781 35.6672H11.9242C10.8293 35.6672 9.77842 35.232 9.00423 34.4578C8.23004 33.6837 7.79492 32.6328 7.79492 31.5379ZM9.12956 31.5379C9.12956 32.2792 9.4241 32.9897 9.94824 33.5138C10.4724 34.038 11.1829 34.3325 11.9242 34.3325H28.0781C28.8192 34.3324 29.53 34.0379 30.054 33.5138C30.5779 32.9897 30.8727 32.279 30.8727 31.5379V17.4933C30.8725 17.0587 30.6997 16.642 30.3926 16.3345L20.2054 6.1473C19.8977 5.83969 19.48 5.66722 19.0449 5.66715H11.9242C11.1829 5.66715 10.4724 5.9617 9.94824 6.48584C9.4241 7.00998 9.12956 7.72051 9.12956 8.46175V31.5379Z" fill="#EC1C24"/>
<path d="M19.332 14.23V5.57601C19.332 5.20782 19.6312 4.90869 19.9993 4.90869C20.3675 4.90869 20.6667 5.20782 20.6667 5.57601V14.23C20.6667 14.6652 20.8391 15.0827 21.1468 15.3905C21.4545 15.6981 21.8722 15.8706 22.3073 15.8706H30.9613C31.3293 15.8708 31.627 16.1699 31.627 16.5379C31.6267 16.9058 31.3292 17.2034 30.9613 17.2036H22.3073C21.5185 17.2036 20.7622 16.8905 20.2044 16.3328C19.6467 15.7751 19.3321 15.0188 19.332 14.23Z" fill="#EC1C24"/>
</svg>
