<svg width="40" height="40" viewBox="0 0 40 40" fill="none" xmlns="http://www.w3.org/2000/svg">
<path d="M24.7398 33.8549C24.802 34.0488 24.6922 34.2537 24.502 34.3122C23.0495 34.7695 21.5385 35 20.002 35C15.2422 35 10.8702 32.8159 8.00561 29.0037C6.04098 26.3915 5.00195 23.278 5.00195 20C5.00195 15.6061 6.88244 11.5159 10.1861 8.65854H7.56293C7.36171 8.65854 7.19708 8.4939 7.19708 8.29268C7.19708 8.09146 7.36171 7.92683 7.56293 7.92683H11.2215C11.4227 7.92683 11.5873 8.09146 11.5873 8.29268V11.9512C11.5873 12.1524 11.4227 12.3171 11.2215 12.3171C11.0202 12.3171 10.8556 12.1524 10.8556 11.9512V9.05732C7.59586 11.7793 5.73366 15.7378 5.73366 20C5.73366 23.1171 6.72147 26.0805 8.59098 28.5646C11.3129 32.1902 15.4727 34.2683 20.002 34.2683C21.4617 34.2683 22.9032 34.0488 24.2824 33.6134C24.4763 33.5549 24.6812 33.661 24.7398 33.8549ZM32.441 31.3415H29.8178C33.1215 28.4841 35.002 24.3939 35.002 20C35.002 16.722 33.9629 13.6085 31.9983 10.9963C29.1337 7.18415 24.7617 5 20.002 5C18.4654 5 16.9544 5.23049 15.502 5.6878C15.3081 5.75 15.202 5.95488 15.2641 6.14512C15.3227 6.33902 15.5276 6.44512 15.7215 6.38293C17.1007 5.95122 18.5422 5.73171 20.002 5.73171C24.5312 5.73171 28.691 7.80976 31.4129 11.4354C33.2824 13.9195 34.2702 16.8829 34.2702 20C34.2702 24.2622 32.4081 28.2207 29.1483 30.9427V28.0488C29.1483 27.8476 28.9837 27.6829 28.7824 27.6829C28.5812 27.6829 28.4166 27.8476 28.4166 28.0488V31.7073C28.4166 31.9085 28.5812 32.0732 28.7824 32.0732H32.441C32.6422 32.0732 32.8068 31.9085 32.8068 31.7073C32.8068 31.5061 32.6422 31.3415 32.441 31.3415ZM24.0263 20C24.0263 22.2207 22.2227 24.0244 20.002 24.0244C17.7812 24.0244 15.9776 22.2207 15.9776 20C15.9776 17.7793 17.7812 15.9756 20.002 15.9756C22.2227 15.9756 24.0263 17.7793 24.0263 20ZM23.2946 20C23.2946 18.1854 21.8166 16.7073 20.002 16.7073C18.1873 16.7073 16.7093 18.1854 16.7093 20C16.7093 21.8146 18.1873 23.2927 20.002 23.2927C21.8166 23.2927 23.2946 21.8146 23.2946 20ZM27.6922 24.8915C28.0068 25.3963 27.9337 26.0402 27.5129 26.461L26.4593 27.5146C26.0385 27.9354 25.3946 28.0085 24.8898 27.6939L23.7702 26.9878C23.6166 26.8927 23.43 26.878 23.2727 26.9512C23.0568 27.0537 22.8337 27.1451 22.6068 27.2293C22.4459 27.2878 22.3215 27.4305 22.2812 27.6061L21.9812 28.8939C21.8495 29.4756 21.341 29.878 20.7483 29.878H19.2556C18.6629 29.878 18.1544 29.4756 18.019 28.8939L17.719 27.6061C17.6788 27.4305 17.5544 27.2878 17.3934 27.2293C17.1666 27.1488 16.9398 27.0537 16.7239 26.9512C16.5666 26.878 16.38 26.889 16.2263 26.9878L15.1068 27.6902C14.602 28.0049 13.9581 27.9317 13.5373 27.511L12.4837 26.461C12.0629 26.0402 11.9898 25.3963 12.3044 24.8915L13.0032 23.7683C13.0983 23.6146 13.1129 23.428 13.0398 23.2707C12.9373 23.0512 12.8422 22.828 12.7617 22.6049C12.7032 22.4439 12.5605 22.3195 12.3849 22.2793L11.0971 21.9829C10.5263 21.8476 10.1239 21.339 10.1239 20.7463V19.2537C10.1239 18.661 10.5263 18.1524 11.1081 18.0171L12.3959 17.7207C12.5751 17.6805 12.7141 17.5598 12.7727 17.3951C12.8532 17.1683 12.9483 16.9451 13.0507 16.7256C13.1239 16.572 13.1093 16.3817 13.0141 16.228L12.3117 15.1085C11.9971 14.6037 12.0702 13.9598 12.491 13.539L13.541 12.489C13.9617 12.0683 14.6056 11.9951 15.1105 12.3098L16.23 13.0122C16.3837 13.1073 16.5702 13.122 16.7276 13.0488C16.9434 12.9463 17.1702 12.8512 17.3971 12.7707C17.5581 12.7122 17.6824 12.5695 17.7227 12.3939L18.0227 11.1024C18.1544 10.5244 18.6629 10.122 19.2556 10.122H20.7483C21.341 10.122 21.8495 10.5244 21.9849 11.1061L22.2849 12.3939C22.3251 12.5695 22.4495 12.7122 22.6105 12.7707C22.8373 12.8512 23.0605 12.9463 23.2763 13.0488C23.4337 13.122 23.6166 13.1073 23.7739 13.0122L24.8971 12.3134C25.402 11.9988 26.0459 12.072 26.4666 12.4927L27.5202 13.5463C27.941 13.9671 28.0142 14.611 27.6995 15.1159L26.9898 16.2317C26.8946 16.3854 26.88 16.5756 26.9532 16.7293C27.0556 16.9451 27.1507 17.172 27.2312 17.3988C27.2898 17.5598 27.4288 17.6841 27.6081 17.7244L28.8959 18.0207C29.4776 18.1524 29.88 18.661 29.88 19.2537V20.7463C29.88 21.339 29.4776 21.8476 28.8959 21.9829L27.6081 22.2793C27.4324 22.3195 27.2898 22.4439 27.2312 22.6049C27.1507 22.828 27.0593 23.0549 26.9532 23.2707C26.88 23.428 26.891 23.6146 26.9898 23.7683L27.6922 24.8915ZM27.0702 25.2793L26.3678 24.1561C26.1373 23.7902 26.1117 23.3402 26.291 22.9598C26.3824 22.7622 26.4666 22.561 26.5398 22.3598C26.6824 21.961 27.019 21.6646 27.4398 21.5695L28.7276 21.2732C28.9727 21.2183 29.1446 21.0024 29.1446 20.75V19.2573C29.1446 19.0049 28.9727 18.7927 28.7276 18.7341L27.4398 18.4378C27.019 18.339 26.6824 18.0463 26.5398 17.6476C26.4666 17.4427 26.3824 17.2415 26.291 17.0476C26.1081 16.6634 26.1373 16.2171 26.3678 15.8476L27.0702 14.728C27.2056 14.5159 27.1727 14.2415 26.9934 14.0659L25.9398 13.0122C25.7605 12.8329 25.4898 12.8037 25.2776 12.9354L24.1544 13.6378C23.7885 13.8683 23.3385 13.8939 22.9581 13.7146C22.7641 13.6232 22.5593 13.539 22.3581 13.4659C21.9593 13.3232 21.6629 12.9866 21.5678 12.5659L21.2678 11.278C21.2129 11.0256 21.0007 10.8537 20.7483 10.8537H19.2556C19.0032 10.8537 18.791 11.0256 18.7324 11.2707L18.4324 12.5622C18.3337 12.9829 18.041 13.3195 17.6422 13.4622C17.4373 13.5354 17.2361 13.6195 17.0422 13.711C16.6581 13.8939 16.2117 13.8646 15.8422 13.6341L14.7227 12.9317C14.5105 12.7963 14.2361 12.8293 14.0568 13.0085L13.0068 14.0585C12.8276 14.2378 12.7983 14.5085 12.93 14.7207L13.6324 15.8402C13.8629 16.2098 13.8922 16.6561 13.7093 17.0402C13.6178 17.2341 13.5337 17.439 13.4605 17.6402C13.3178 18.0354 12.9812 18.3317 12.5605 18.4305L11.2727 18.7268C11.0276 18.789 10.8556 19.0012 10.8556 19.2537V20.7463C10.8556 20.9988 11.0276 21.211 11.2727 21.2695L12.5605 21.5659C12.9812 21.6646 13.3178 21.9573 13.4605 22.3561C13.5337 22.5573 13.6178 22.7585 13.7093 22.9561C13.8885 23.3402 13.8629 23.7866 13.6324 24.1524L12.9337 25.2756C12.802 25.4878 12.8312 25.7622 13.0105 25.9378L14.0641 26.9878C14.2434 27.1671 14.5141 27.1963 14.73 27.0646L15.8495 26.3622C16.0581 26.2341 16.2885 26.1683 16.5227 26.1683C16.702 26.1683 16.8812 26.2085 17.0495 26.2854C17.2434 26.3768 17.4446 26.461 17.6495 26.5341C18.0483 26.6768 18.341 27.0134 18.4398 27.4341L18.7398 28.7219C18.7946 28.9671 19.0105 29.139 19.2629 29.139H20.7556C21.0081 29.139 21.2202 28.9671 21.2788 28.7219L21.5788 27.4341C21.6776 27.0134 21.9702 26.6768 22.369 26.5341C22.5739 26.461 22.7751 26.3768 22.969 26.2854C23.3532 26.1024 23.7995 26.1317 24.1654 26.3622L25.2885 27.0646C25.5007 27.1963 25.7751 27.1671 25.9507 26.9878L27.0044 25.9341C27.1727 25.7622 27.2056 25.4915 27.0702 25.2793Z" fill="#58595A"/>
<path d="M4.66797 19.9999C4.66797 15.8011 6.34945 11.8726 9.3278 8.99243H7.56185C7.17688 8.99202 6.86361 8.67763 6.86361 8.29256C6.86363 7.90752 7.17689 7.5931 7.56185 7.59269V7.92635C7.36099 7.92676 7.19729 8.09161 7.19727 8.29256L7.20378 8.3658C7.23299 8.50835 7.34619 8.62106 7.48861 8.65064L7.56185 8.65877H10.1855C6.88207 11.5161 5.00163 15.6061 5.00163 19.9999L5.01302 20.6119C5.13424 23.6647 6.16267 26.5548 8.00456 29.0038C10.7798 32.6971 14.9705 34.8619 19.5573 34.9934L20.0016 34.9999C21.5382 34.9999 23.0495 34.7688 24.502 34.3114C24.6919 34.2527 24.8017 34.0478 24.7396 33.8541C24.6808 33.6606 24.4759 33.5548 24.2822 33.6132C22.903 34.0486 21.4614 34.2675 20.0016 34.2675V33.9355C21.4277 33.9355 22.8352 33.7207 24.1813 33.2958L24.1862 33.2942C24.5492 33.1848 24.9416 33.3813 25.057 33.7532L25.0863 33.8931C25.1208 34.2189 24.9197 34.5301 24.5996 34.6288L24.6012 34.6305C23.1162 35.098 21.5716 35.3336 20.0016 35.3336C15.1371 35.3336 10.6668 33.0997 7.73926 29.204C5.73107 26.5339 4.66797 23.3501 4.66797 19.9999ZM35.0016 19.9999C35.0016 16.9269 34.088 13.9988 32.3551 11.4924L31.9987 10.996C29.2234 7.30276 25.0327 5.13794 20.446 5.00643L20.0016 4.99992C18.465 4.99992 16.9537 5.23108 15.5013 5.6884C15.3077 5.75078 15.2015 5.95567 15.2637 6.14575C15.3224 6.33918 15.5274 6.44534 15.721 6.38338C17.1003 5.95167 18.5419 5.73234 20.0016 5.73234L20.8464 5.75513C25.0453 5.99672 28.8609 8.03647 31.4128 11.4355C33.2822 13.9196 34.2692 16.8829 34.2692 19.9999L34.248 20.7958C34.0314 24.7522 32.2043 28.3906 29.1488 30.9423V28.0484C29.1486 27.8725 29.0219 27.7247 28.8558 27.6903L28.7826 27.6822C28.5814 27.6822 28.4165 27.8473 28.4163 28.0484V31.7073L28.4245 31.7805C28.4539 31.9233 28.5665 32.0362 28.7093 32.0653L28.7826 32.0735H32.4414C32.6172 32.0731 32.7654 31.9467 32.7995 31.7805L32.806 31.7073C32.806 31.5314 32.6807 31.3837 32.5146 31.3492L32.4414 31.3411V31.0074C32.8264 31.0078 33.1396 31.3222 33.1396 31.7073C33.1396 32.0923 32.8264 32.4067 32.4414 32.4071H28.7826C28.3973 32.4071 28.0827 32.0926 28.0827 31.7073V28.0484C28.0828 27.6632 28.3973 27.3502 28.7826 27.3502C29.1676 27.3504 29.4806 27.6634 29.4808 28.0484V30.2034C32.3248 27.5703 33.9372 23.9179 33.9372 19.9999C33.9372 17.1451 33.0883 14.4244 31.4779 12.0963L31.1458 11.6357C28.4868 8.09389 24.426 6.06437 20.0016 6.06437C18.5759 6.06437 17.1682 6.27794 15.8219 6.69914C15.4553 6.81639 15.0616 6.61816 14.9463 6.24666C14.8257 5.87685 15.0347 5.48829 15.4004 5.37101L15.402 5.36938C16.8871 4.90186 18.4317 4.66626 20.0016 4.66626C24.8662 4.66626 29.3365 6.90016 32.264 10.7958C34.2722 13.4659 35.3353 16.6498 35.3353 19.9999C35.3353 24.1987 33.6538 28.1272 30.6755 31.0074H32.4414V31.3411H29.8177C32.9147 28.6624 34.7617 24.9003 34.9805 20.8202L35.0016 19.9999ZM9.79004 20.747V19.2528C9.79037 18.5054 10.2998 17.8624 11.0319 17.692L12.321 17.3958C12.3943 17.3793 12.4394 17.3346 12.4577 17.2834L12.596 16.9286C12.6447 16.8123 12.6964 16.698 12.749 16.5852V16.582C12.7692 16.5396 12.7711 16.47 12.7311 16.4045L12.0296 15.2864L12.028 15.2847C11.6318 14.6488 11.7244 13.8345 12.2542 13.304L13.3057 12.2525C13.8362 11.7226 14.6505 11.6301 15.2865 12.0263L15.2881 12.0279L16.4062 12.7294C16.4711 12.7696 16.5383 12.7683 16.5869 12.7457C16.8112 12.6394 17.0476 12.5403 17.2852 12.456C17.3343 12.4371 17.3816 12.3883 17.3975 12.3193L17.6969 11.0269C17.8639 10.2969 18.5083 9.78866 19.2546 9.78833V10.122L19.0381 10.1399C18.5418 10.2246 18.1379 10.5961 18.0225 11.1018L17.723 12.3941L17.6774 12.5178C17.6181 12.6349 17.5181 12.726 17.3975 12.7701L17.0573 12.9019C16.9455 12.9485 16.8346 12.9973 16.7269 13.0484C16.6091 13.1031 16.4753 13.1085 16.3509 13.068L16.2305 13.0126L15.1107 12.3095C14.6058 11.9949 13.9608 12.0678 13.54 12.4885L12.4902 13.5383C12.0695 13.9591 11.9966 14.6041 12.3112 15.109L13.0143 16.2288C13.109 16.3822 13.1231 16.5718 13.0501 16.7252C12.9477 16.9447 12.8523 17.1689 12.7718 17.3958L12.7132 17.5097C12.641 17.6148 12.5301 17.6911 12.3958 17.7213L11.1084 18.0175L10.8984 18.0842C10.4318 18.2802 10.124 18.7345 10.1237 19.2528V20.747L10.1416 20.9635C10.2262 21.46 10.5974 21.8638 11.097 21.9823L12.3844 22.2786C12.5599 22.3188 12.7034 22.4433 12.762 22.6041C12.8425 22.8273 12.9363 23.0519 13.0387 23.2714C13.1117 23.4285 13.0978 23.6143 13.0029 23.7678L12.3047 24.8909L12.2038 25.0862C12.0127 25.5534 12.1155 26.0933 12.4837 26.4615L13.5368 27.5113C13.9051 27.8796 14.4447 27.9811 14.9121 27.7896L15.1058 27.6903L16.2256 26.9872C16.3792 26.8884 16.5663 26.8782 16.7236 26.9514C16.9394 27.0538 17.1659 27.1493 17.3926 27.2297C17.5534 27.2882 17.6778 27.4303 17.7181 27.6057L18.0192 28.8931C18.1545 29.4746 18.6622 29.8775 19.2546 29.8778H20.7487L20.9652 29.8599C21.4616 29.7752 21.8655 29.4023 21.9808 28.8931L22.2803 27.6057C22.3105 27.4741 22.3888 27.3614 22.4935 27.2883L22.6058 27.2297C22.8326 27.1456 23.0573 27.0539 23.2731 26.9514C23.4301 26.8786 23.6161 26.8925 23.7695 26.9872L24.8893 27.6936C25.3309 27.9688 25.8787 27.9473 26.2907 27.6562L26.4583 27.5146L27.513 26.4615C27.8813 26.0933 27.9826 25.5535 27.7913 25.0862L27.6921 24.8909L26.9889 23.7678C26.8906 23.6144 26.8803 23.4284 26.9531 23.2714C27.0061 23.1637 27.0551 23.0524 27.1012 22.941L27.2314 22.6041C27.2901 22.4435 27.4322 22.3188 27.6074 22.2786L28.8949 21.9823C29.4041 21.8638 29.7769 21.46 29.8617 20.9635L29.8796 20.747V19.2528C29.8793 18.7346 29.5713 18.2811 29.1048 18.0875L28.8949 18.0208L27.6074 17.7245C27.4284 17.6843 27.2901 17.5597 27.2314 17.399C27.151 17.1722 27.0556 16.9443 26.9531 16.7284C26.8803 16.575 26.8942 16.3854 26.9889 16.232L27.6986 15.1155C27.9738 14.6738 27.9526 14.1261 27.6611 13.7141L27.5195 13.5465L26.4665 12.4934C26.046 12.0729 25.4022 11.9987 24.8975 12.3127L23.7728 13.0126L23.6523 13.068C23.5688 13.0953 23.482 13.1023 23.3984 13.0875L23.2764 13.0484C23.1686 12.9973 23.0585 12.9485 22.9476 12.9019L22.6107 12.7701C22.4897 12.7261 22.3886 12.6352 22.3291 12.5178L22.2852 12.3941L21.984 11.1067C21.8656 10.5975 21.4617 10.2247 20.9652 10.1399L20.7487 10.122V9.78833C21.4962 9.78866 22.1391 10.298 22.3096 11.0302L22.609 12.3176C22.625 12.3872 22.6734 12.4374 22.723 12.456C22.9613 12.5406 23.1937 12.6401 23.4163 12.7457C23.4636 12.7677 23.5304 12.7694 23.6019 12.7262L24.7201 12.0295C25.3563 11.6331 26.1719 11.7269 26.7025 12.2574L27.7555 13.3105C28.286 13.8409 28.3779 14.6551 27.9818 15.2913L27.9801 15.2945L27.2705 16.4111C27.2517 16.4428 27.2433 16.4755 27.2412 16.5055L27.2542 16.5852C27.3609 16.81 27.461 17.0485 27.5456 17.2867C27.5651 17.338 27.6112 17.3834 27.6807 17.399L28.9697 17.6952L29.2334 17.7799C29.8227 18.0247 30.2129 18.5991 30.2132 19.2528V20.747C30.2129 21.4945 29.7035 22.1374 28.9714 22.3079L27.6823 22.6041C27.6475 22.6121 27.6177 22.628 27.5944 22.648L27.5439 22.718C27.4617 22.9462 27.3658 23.1819 27.2542 23.4097C27.2419 23.4363 27.2375 23.4674 27.2396 23.4976L27.2705 23.5872L27.2721 23.592L27.9753 24.7151C28.3714 25.351 28.2789 26.1654 27.749 26.6959L26.6943 27.7506C26.1639 28.2808 25.3496 28.373 24.7135 27.9768L24.7119 27.9752L23.5921 27.2704C23.5281 27.232 23.461 27.2318 23.4131 27.2542L23.4115 27.2525C23.1859 27.3594 22.9554 27.456 22.723 27.5422H22.7197C22.6699 27.5606 22.6218 27.6106 22.6058 27.6806L22.3063 28.9696C22.1393 29.7028 21.4952 30.2112 20.7487 30.2115H19.2546C18.5071 30.2112 17.8641 29.7018 17.6937 28.9696L17.3942 27.6822C17.3781 27.612 17.3287 27.5604 17.2786 27.5422C17.0422 27.4582 16.8069 27.36 16.5837 27.2542L16.4958 27.2379C16.4657 27.2401 16.4351 27.2503 16.4062 27.2688L16.403 27.2704L15.2832 27.9719C14.647 28.3684 13.8314 28.2778 13.3008 27.7473L12.2477 26.6975C11.7174 26.1669 11.6251 25.3512 12.0215 24.7151L12.7197 23.592L12.7523 23.496L12.7376 23.4114C12.6849 23.2983 12.6333 23.1838 12.5846 23.068L12.4479 22.718C12.4388 22.6932 12.4224 22.6682 12.3991 22.648L12.3096 22.6041L11.0221 22.3079C10.3006 22.1367 9.79037 21.493 9.79004 20.747ZM20.7552 28.8053V29.1389H19.2627V28.8053H20.7552ZM10.8545 20.747V19.2528C10.8548 19.0007 11.0279 18.7893 11.2728 18.7271L12.5602 18.4309C12.981 18.3321 13.3176 18.035 13.4603 17.6399C13.5334 17.4389 13.618 17.2346 13.7093 17.0409C13.8694 16.7046 13.867 16.3197 13.7093 15.9814L13.6328 15.8398L12.9297 14.72C12.8147 14.5343 12.8221 14.3038 12.946 14.1292L13.0062 14.0592L14.056 13.0077C14.2351 12.8287 14.5096 12.7964 14.7217 12.9312L15.8415 13.6344C16.211 13.8648 16.6585 13.8938 17.0426 13.7109C17.2363 13.6195 17.437 13.5349 17.6416 13.4618C17.9903 13.3371 18.2576 13.0642 18.3854 12.7164L18.4326 12.5618L18.7321 11.2711C18.7906 11.0262 19.0024 10.8531 19.2546 10.8528H20.7487C21.0007 10.8531 21.213 11.0255 21.2679 11.2776L21.5674 12.565C21.6625 12.9858 21.9596 13.3224 22.3584 13.4651C22.5593 13.5382 22.7637 13.6228 22.9574 13.7141C23.3378 13.8933 23.7878 13.868 24.1536 13.6376L25.2767 12.9345C25.4889 12.8028 25.7599 12.8333 25.9391 13.0126L26.9938 14.0657C27.1728 14.2413 27.2055 14.5161 27.0703 14.7281L26.3672 15.8479C26.1369 16.2173 26.1078 16.6635 26.2907 17.0474C26.3822 17.2413 26.4665 17.4432 26.5397 17.648C26.6825 18.0465 27.0192 18.3387 27.4398 18.4374L28.7272 18.7336C28.9723 18.7922 29.1439 19.0053 29.1439 19.2577V20.7502L29.1357 20.843C29.0993 21.0539 28.9415 21.2247 28.7272 21.2727L27.4398 21.5689L27.2852 21.6145C26.9372 21.7405 26.6645 22.0112 26.5397 22.3599L26.4225 22.6611C26.381 22.7611 26.3363 22.8603 26.2907 22.9589L26.2337 23.1054C26.1216 23.4515 26.1655 23.8367 26.3672 24.1568L27.0703 25.2799C27.2052 25.492 27.1717 25.7624 27.0036 25.9342L25.9505 26.9872C25.797 27.144 25.5681 27.186 25.3711 27.106L25.2881 27.0653L24.165 26.3622C23.7992 26.1317 23.3529 26.1028 22.9688 26.2857L22.6725 26.4159C22.5724 26.4575 22.4706 26.4982 22.3682 26.5347L22.2249 26.5966C21.9002 26.7623 21.6652 27.0665 21.5788 27.4348L21.2777 28.7222L21.25 28.8101C21.1668 29.0074 20.9762 29.1389 20.7552 29.1389V28.8053C20.8493 28.8053 20.9301 28.7432 20.9538 28.6441L21.2533 27.3583L21.3118 27.1663C21.472 26.7291 21.8099 26.3804 22.2559 26.2206C22.4493 26.1515 22.641 26.0716 22.8255 25.9846L23.0127 25.9097C23.455 25.7653 23.9387 25.8264 24.3408 26.079L25.4655 26.7821C25.5485 26.8335 25.6495 26.8192 25.7129 26.7545L25.7145 26.7512L26.7676 25.6982C26.8266 25.6357 26.839 25.538 26.7887 25.4589L26.7871 25.4556L26.0856 24.3326C25.7951 23.8715 25.7607 23.3026 25.988 22.8189C26.0758 22.6291 26.1561 22.437 26.2256 22.246C26.4075 21.739 26.8358 21.3651 27.3649 21.245L28.6523 20.9488L28.654 20.9472C28.7454 20.9267 28.8101 20.8478 28.8102 20.7502V19.2577C28.8102 19.1644 28.7499 19.0836 28.6523 19.0592L27.3649 18.7629C26.8391 18.6395 26.4081 18.2699 26.2256 17.7603C26.1565 17.5668 26.0766 17.3752 25.9896 17.1907C25.7562 16.7004 25.7954 16.1331 26.084 15.6705L26.7871 14.5507L26.7887 14.5491C26.8385 14.4711 26.8272 14.3697 26.7594 14.3033L25.7031 13.2486C25.6343 13.1798 25.5354 13.1679 25.4541 13.2177L24.3311 13.9208L24.3294 13.9192C23.8682 14.2091 23.2991 14.2444 22.8158 14.0168C22.6323 13.9303 22.4369 13.8492 22.2445 13.7792C21.7374 13.5972 21.3617 13.1692 21.2419 12.6399L20.9424 11.3541V11.3492C20.9202 11.2472 20.8409 11.1868 20.7487 11.1864H19.2546C19.1609 11.1868 19.0797 11.249 19.056 11.3476L18.7565 12.6383C18.633 13.1643 18.2637 13.5936 17.7539 13.776C17.5604 13.8451 17.3688 13.9233 17.1842 14.0103C16.6941 14.2437 16.1282 14.2059 15.6657 13.9176L15.6641 13.9159L14.5459 13.2144L14.5426 13.2128C14.4659 13.164 14.3636 13.1722 14.292 13.2437L13.2422 14.2935C13.1732 14.3625 13.1627 14.4628 13.2129 14.5442L13.9144 15.6624C14.203 16.125 14.2439 16.6938 14.0104 17.1842C13.9243 17.3669 13.8426 17.5605 13.7728 17.7522C13.5907 18.2563 13.1638 18.6309 12.6367 18.7548L11.3542 19.0494C11.2507 19.0757 11.1885 19.1598 11.1882 19.2528V20.747C11.1885 20.8396 11.2495 20.9192 11.346 20.9439L12.6351 21.2402L12.6367 21.2418C13.1625 21.3654 13.5921 21.7347 13.7744 22.2444C13.8438 22.4351 13.9243 22.6262 14.012 22.8157C14.2389 23.302 14.205 23.8676 13.9144 24.3293L13.9128 24.3277L13.2161 25.4524C13.178 25.5146 13.176 25.587 13.2048 25.6461L13.2438 25.6998L13.2454 25.7014L14.2985 26.7512C14.3664 26.8192 14.4684 26.8335 14.5557 26.7805L15.6722 26.079L15.6755 26.0774C15.9343 25.9187 16.2245 25.835 16.5218 25.8349C16.751 25.8349 16.978 25.8858 17.1875 25.9814L17.1908 25.983C17.3756 26.0702 17.5682 26.1514 17.762 26.2206C18.2715 26.4032 18.6412 26.8325 18.7646 27.3583L19.0641 28.6458V28.649C19.0846 28.7406 19.165 28.8053 19.2627 28.8053V29.1389L19.1699 29.1308C18.989 29.0997 18.8378 28.979 18.7679 28.8101L18.7402 28.7222L18.4391 27.4348C18.3527 27.0665 18.1177 26.7623 17.793 26.5966L17.6497 26.5347C17.4449 26.4616 17.243 26.3772 17.0492 26.2857C16.923 26.2281 16.7908 26.19 16.6569 26.1751L16.5218 26.1685C16.2879 26.1686 16.0579 26.2344 15.8496 26.3622L14.7298 27.0653L14.6468 27.106C14.4763 27.1749 14.2857 27.1536 14.1357 27.0474L14.0641 26.9872L13.0094 25.9374C12.8306 25.7618 12.8014 25.487 12.9329 25.275L13.6328 24.1519C13.8343 23.8318 13.8785 23.4499 13.7663 23.1021L13.7093 22.9556C13.618 22.7583 13.5334 22.5576 13.4603 22.3567C13.3176 21.9579 12.9809 21.6645 12.5602 21.5657L11.2728 21.2695C11.0581 21.2182 10.8986 21.049 10.8626 20.8381L10.8545 20.747ZM24.0267 19.9999C24.0267 17.9182 22.4411 16.2026 20.4134 15.996L20.0016 15.9749C17.7809 15.9749 15.9766 17.7792 15.9766 19.9999L15.9977 20.4117C16.1905 22.304 17.6975 23.8111 19.5898 24.0038L20.0016 24.025C22.0834 24.025 23.799 22.4394 24.0055 20.4117L24.0267 19.9999ZM22.9606 19.9999C22.9606 18.3694 21.6322 17.0409 20.0016 17.0409C18.3711 17.0409 17.0426 18.3694 17.0426 19.9999C17.0426 21.6305 18.3711 22.9589 20.0016 22.9589V23.2926L19.6663 23.2763C18.1186 23.1188 16.8827 21.8829 16.7253 20.3352L16.709 19.9999C16.709 18.1853 18.187 16.7073 20.0016 16.7073L20.3369 16.7236C21.9949 16.8922 23.2943 18.2984 23.2943 19.9999L23.278 20.3352C23.1093 21.9932 21.7031 23.2926 20.0016 23.2926V22.9589C21.6322 22.9589 22.9606 21.6305 22.9606 19.9999ZM10.5225 11.9514V9.79484C7.67798 12.4279 6.06608 16.0815 6.06608 19.9999C6.06608 23.045 7.03157 25.938 8.85742 28.3642L9.37174 29.0103C12.0251 32.1517 15.8536 33.9355 20.0016 33.9355V34.2675L19.1569 34.2447C14.9579 34.0031 11.1423 31.9634 8.59049 28.5644C6.83794 26.2356 5.86083 23.4855 5.74544 20.5826L5.73405 19.9999C5.73405 15.738 7.59512 11.7795 10.8545 9.05754V11.9514L10.8626 12.0247C10.892 12.1671 11.005 12.2801 11.1475 12.3095L11.2207 12.3176C11.3967 12.3176 11.5444 12.1909 11.5788 12.0247L11.5869 11.9514V8.29256C11.5869 8.09136 11.4219 7.92635 11.2207 7.92635V7.59269C11.606 7.59269 11.9206 7.90727 11.9206 8.29256V11.9514C11.9204 12.3366 11.6059 12.6497 11.2207 12.6497C10.8357 12.6494 10.5226 12.3365 10.5225 11.9514ZM20.7487 9.78833V10.122H19.2546V9.78833H20.7487ZM11.2207 7.59269V7.92635H7.56185V7.59269H11.2207ZM24.3587 19.9999C24.3587 22.4047 22.4065 24.357 20.0016 24.357C17.5968 24.357 15.6445 22.4047 15.6445 19.9999C15.6445 17.5951 17.5968 15.6428 20.0016 15.6428C22.4065 15.6428 24.3587 17.5951 24.3587 19.9999Z" fill="#58595A"/>
</svg>
