<svg width="120" height="120" viewBox="0 0 120 120" fill="none" xmlns="http://www.w3.org/2000/svg">
<path d="M102.373 33.9062H16.377V86.8408C16.377 95.4192 23.3308 102.373 31.9092 102.373H86.8408C95.4192 102.373 102.373 95.4192 102.373 86.8408V33.9062ZM31.9092 16.377C24.0088 16.377 17.4905 22.274 16.5088 29.9072H102.241C101.259 22.274 94.7412 16.377 86.8408 16.377H31.9092ZM106.377 86.8408C106.377 97.6283 97.6283 106.377 86.8408 106.377H31.9092C21.1217 106.377 12.373 97.6283 12.373 86.8408V31.9092C12.373 21.1217 21.1217 12.373 31.9092 12.373H86.8408C97.6283 12.373 106.377 21.1217 106.377 31.9092V86.8408Z" fill="#58595A"/>
<path d="M49.1958 53.8658C49.9764 53.0861 51.2421 53.0867 52.023 53.8658C52.804 54.6469 52.804 55.9168 52.023 56.6978L41.647 67.0738C41.0589 67.662 41.0593 68.6143 41.647 69.2027L52.023 79.5836C52.804 80.3646 52.804 81.6297 52.023 82.4107C51.2419 83.1908 49.9766 83.1914 49.1958 82.4107L38.8199 72.0348C36.6694 69.8843 36.6694 66.3971 38.8199 64.2467L49.1958 53.8658ZM67.897 53.8658C68.6775 53.086 69.9432 53.0868 70.7242 53.8658L81.105 64.2467C83.2541 66.3972 83.255 69.8848 81.105 72.0348L70.7242 82.4107C69.943 83.1907 68.6777 83.1914 67.897 82.4107C67.1163 81.63 67.117 80.3647 67.897 79.5836L78.273 69.2027C78.8614 68.6144 78.8614 67.6622 78.273 67.0738L67.897 56.6978C67.116 55.9168 67.116 54.6469 67.897 53.8658Z" fill="#58595A"/>
</svg>
