<svg width="40" height="40" viewBox="0 0 40 40" fill="none" xmlns="http://www.w3.org/2000/svg">
<path d="M34.125 11.302H5.45964V28.9469C5.45964 31.8063 7.77758 34.1243 10.637 34.1243H28.9476C31.8071 34.1243 34.125 31.8063 34.125 28.9469V11.302ZM10.637 5.4589C8.0036 5.4589 5.83083 7.42459 5.50358 9.96899H34.0811C33.7538 7.42459 31.581 5.4589 28.9476 5.4589H10.637ZM35.4596 28.9469C35.4596 32.5427 32.5434 35.4589 28.9476 35.4589H10.637C7.04121 35.4589 4.125 32.5427 4.125 28.9469V10.6363C4.125 7.04047 7.04121 4.12427 10.637 4.12427H28.9476C32.5434 4.12427 35.4596 7.04047 35.4596 10.6363V28.9469Z" fill="#58595A"/>
<path d="M16.3986 17.9551C16.6588 17.6952 17.0807 17.6954 17.341 17.9551C17.6013 18.2155 17.6013 18.6388 17.341 18.8991L13.8823 22.3578C13.6863 22.5538 13.6864 22.8713 13.8823 23.0674L17.341 26.5277C17.6013 26.7881 17.6013 27.2097 17.341 27.4701C17.0806 27.7301 16.6589 27.7303 16.3986 27.4701L12.94 24.0114C12.2231 23.2946 12.2231 22.1322 12.94 21.4154L16.3986 17.9551ZM22.6323 17.9551C22.8925 17.6952 23.3144 17.6954 23.5747 17.9551L27.035 21.4154C27.7514 22.1323 27.7517 23.2948 27.035 24.0114L23.5747 27.4701C23.3143 27.7301 22.8926 27.7303 22.6323 27.4701C22.3721 27.2099 22.3723 26.7881 22.6323 26.5277L26.091 23.0674C26.2871 22.8713 26.2871 22.5539 26.091 22.3578L22.6323 18.8991C22.372 18.6388 22.372 18.2155 22.6323 17.9551Z" fill="#58595A"/>
</svg>
