<svg width="40" height="40" viewBox="0 0 40 40" fill="none" xmlns="http://www.w3.org/2000/svg">
<path d="M7.79688 31.5379V8.46175C7.79688 7.36688 8.232 6.31602 9.00618 5.54183C9.78037 4.76764 10.8312 4.33252 11.9261 4.33252H19.0469C19.8353 4.33264 20.5921 4.64599 21.1497 5.20329V5.20492L31.3369 15.3905C31.8944 15.948 32.2075 16.7049 32.2077 17.4933V31.5379C32.2077 32.6328 31.7726 33.6837 30.9984 34.4578C30.2243 35.2317 29.1746 35.667 28.0801 35.6672H11.9261C10.8312 35.6672 9.78037 35.232 9.00618 34.4578C8.232 33.6837 7.79688 32.6328 7.79688 31.5379ZM9.13151 31.5379C9.13151 32.2792 9.42606 32.9897 9.9502 33.5138C10.4743 34.038 11.1849 34.3325 11.9261 34.3325H28.0801C28.8211 34.3324 29.532 34.0379 30.056 33.5138C30.5799 32.9897 30.8747 32.279 30.8747 31.5379V17.4933C30.8745 17.0587 30.7016 16.642 30.3945 16.3345L20.2074 6.1473C19.8997 5.83969 19.482 5.66722 19.0469 5.66716H11.9261C11.1849 5.66716 10.4743 5.9617 9.9502 6.48584C9.42606 7.00998 9.13151 7.72051 9.13151 8.46175V31.5379Z" fill="#58595A"/>
<path d="M19.3359 14.23V5.57601C19.3359 5.20782 19.6351 4.90869 20.0033 4.90869C20.3714 4.90869 20.6706 5.20782 20.6706 5.57601V14.23C20.6706 14.6652 20.843 15.0827 21.1507 15.3905C21.4585 15.6981 21.8761 15.8706 22.3112 15.8706H30.9652C31.3332 15.8708 31.6309 16.1699 31.6309 16.5379C31.6307 16.9058 31.3331 17.2034 30.9652 17.2036H22.3112C21.5224 17.2036 20.7661 16.8905 20.2083 16.3328C19.6506 15.7751 19.336 15.0188 19.3359 14.23Z" fill="#58595A"/>
</svg>
