<svg width="40" height="40" viewBox="0 0 40 40" fill="none" xmlns="http://www.w3.org/2000/svg">
<path d="M17.637 7.14603C18.4151 4.75113 21.8035 4.75113 22.5816 7.14603L24.3411 12.5594C24.6675 13.5632 25.5647 14.2631 26.6035 14.3466L26.8134 14.3547H32.5051C35.0228 14.3549 36.0696 17.5765 34.0335 19.0568L29.4273 22.4032C28.5164 23.0652 28.1354 24.2391 28.4833 25.3101L30.2428 30.7235C31.0204 33.1182 28.2792 35.1088 26.2421 33.6288L21.6376 30.284C20.7266 29.6221 19.4921 29.6221 18.581 30.284L13.9765 33.6288L13.7828 33.7574C11.8356 34.9442 9.38684 33.1652 9.914 30.9465L9.97585 30.7235L11.7353 25.3101C12.0615 24.3061 11.7468 23.2117 10.9557 22.5334L10.7913 22.4032L6.18516 19.0568C4.14902 17.5765 5.19583 14.3549 7.71348 14.3547H13.4052C14.4613 14.3547 15.4056 13.7174 15.8059 12.7548L15.8775 12.5594L17.637 7.14603ZM21.3137 7.55781C20.9347 6.39133 19.2839 6.39132 18.9049 7.55781L17.1454 12.9712C16.6188 14.5913 15.1088 15.6877 13.4052 15.6877H7.71348C6.48716 15.6879 5.97746 17.2585 6.96966 17.9794L11.5742 21.3241C12.9525 22.3255 13.5297 24.1015 13.0032 25.7219L11.2438 31.1353C10.8652 32.3014 12.1999 33.2712 13.192 32.5513L17.7981 29.2049C19.1764 28.2038 21.0422 28.2038 22.4205 29.2049L27.0266 32.5513C28.0187 33.2712 29.3535 32.3014 28.9749 31.1353L27.2154 25.7219C26.6889 24.1015 27.2661 22.3255 28.6445 21.3241L33.249 17.9794C34.2412 17.2585 33.7315 15.6879 32.5051 15.6877H26.8134C25.1098 15.6877 23.5998 14.5913 23.0732 12.9712L21.3137 7.55781Z" fill="#2B2828"/>
<path d="M17.637 7.14603C18.4151 4.75113 21.8035 4.75113 22.5816 7.14603L24.3411 12.5594C24.6675 13.5632 25.5647 14.2631 26.6035 14.3466L26.8134 14.3547H32.5051C35.0228 14.3549 36.0696 17.5765 34.0335 19.0568L29.4273 22.4032C28.5164 23.0652 28.1354 24.2391 28.4833 25.3101L30.2428 30.7235C31.0204 33.1182 28.2792 35.1088 26.2421 33.6288L21.6376 30.284C20.7266 29.6221 19.4921 29.6221 18.581 30.284L13.9765 33.6288L13.7828 33.7574C11.8356 34.9442 9.38684 33.1652 9.914 30.9465L9.97585 30.7235L11.7353 25.3101C12.0615 24.3061 11.7468 23.2117 10.9557 22.5334L10.7913 22.4032L6.18516 19.0568C4.14902 17.5765 5.19583 14.3549 7.71348 14.3547H13.4052C14.4613 14.3547 15.4056 13.7174 15.8059 12.7548L15.8775 12.5594L17.637 7.14603ZM21.3137 7.55781C20.9347 6.39133 19.2839 6.39132 18.9049 7.55781L17.1454 12.9712C16.6188 14.5913 15.1088 15.6877 13.4052 15.6877H7.71348C6.48716 15.6879 5.97746 17.2585 6.96966 17.9794L11.5742 21.3241C12.9525 22.3255 13.5297 24.1015 13.0032 25.7219L11.2438 31.1353C10.8652 32.3014 12.1999 33.2712 13.192 32.5513L17.7981 29.2049C19.1764 28.2038 21.0422 28.2038 22.4205 29.2049L27.0266 32.5513C28.0187 33.2712 29.3535 32.3014 28.9749 31.1353L27.2154 25.7219C26.6889 24.1015 27.2661 22.3255 28.6445 21.3241L33.249 17.9794C34.2412 17.2585 33.7315 15.6879 32.5051 15.6877H26.8134C25.1098 15.6877 23.5998 14.5913 23.0732 12.9712L21.3137 7.55781Z" fill="black" fill-opacity="0.2"/>
<path d="M17.637 7.14603C18.4151 4.75113 21.8035 4.75113 22.5816 7.14603L24.3411 12.5594C24.6675 13.5632 25.5647 14.2631 26.6035 14.3466L26.8134 14.3547H32.5051C35.0228 14.3549 36.0696 17.5765 34.0335 19.0568L29.4273 22.4032C28.5164 23.0652 28.1354 24.2391 28.4833 25.3101L30.2428 30.7235C31.0204 33.1182 28.2792 35.1088 26.2421 33.6288L21.6376 30.284C20.7266 29.6221 19.4921 29.6221 18.581 30.284L13.9765 33.6288L13.7828 33.7574C11.8356 34.9442 9.38684 33.1652 9.914 30.9465L9.97585 30.7235L11.7353 25.3101C12.0615 24.3061 11.7468 23.2117 10.9557 22.5334L10.7913 22.4032L6.18516 19.0568C4.14902 17.5765 5.19583 14.3549 7.71348 14.3547H13.4052C14.4613 14.3547 15.4056 13.7174 15.8059 12.7548L15.8775 12.5594L17.637 7.14603ZM21.3137 7.55781C20.9347 6.39133 19.2839 6.39132 18.9049 7.55781L17.1454 12.9712C16.6188 14.5913 15.1088 15.6877 13.4052 15.6877H7.71348C6.48716 15.6879 5.97746 17.2585 6.96966 17.9794L11.5742 21.3241C12.9525 22.3255 13.5297 24.1015 13.0032 25.7219L11.2438 31.1353C10.8652 32.3014 12.1999 33.2712 13.192 32.5513L17.7981 29.2049C19.1764 28.2038 21.0422 28.2038 22.4205 29.2049L27.0266 32.5513C28.0187 33.2712 29.3535 32.3014 28.9749 31.1353L27.2154 25.7219C26.6889 24.1015 27.2661 22.3255 28.6445 21.3241L33.249 17.9794C34.2412 17.2585 33.7315 15.6879 32.5051 15.6877H26.8134C25.1098 15.6877 23.5998 14.5913 23.0732 12.9712L21.3137 7.55781Z" fill="black" fill-opacity="0.2"/>
</svg>
