<svg width="40" height="40" viewBox="0 0 40 40" fill="none" xmlns="http://www.w3.org/2000/svg">
<path d="M22.4848 23.203C22.4853 22.2553 22.837 21.3406 23.4728 20.6379L34.8774 8.02393C34.9951 7.89336 35.0725 7.73195 35.1004 7.55843C35.1282 7.38437 35.1051 7.20526 35.0337 7.04411C34.9623 6.88309 34.8459 6.74649 34.6984 6.65023C34.5878 6.57807 34.4634 6.53109 34.3338 6.51188L34.202 6.50212H5.78399C5.60782 6.50218 5.43533 6.5527 5.28757 6.6486C5.13966 6.74477 5.02229 6.88288 4.95065 7.04411C4.87928 7.20506 4.85628 7.38291 4.88392 7.5568C4.91159 7.73043 4.98776 7.89319 5.10527 8.02393L16.5148 20.6379H16.5132C17.149 21.3406 17.5023 22.2552 17.5027 23.203V32.6772C17.5028 32.8464 17.5506 33.0118 17.6395 33.1558C17.7286 33.3 17.8556 33.4169 18.0073 33.4927L21.1648 35.0715C21.304 35.141 21.4587 35.1745 21.6141 35.1675C21.7691 35.1604 21.9198 35.1139 22.0519 35.0324C22.184 34.9507 22.2936 34.836 22.3693 34.7004C22.4449 34.5647 22.4848 34.4113 22.4848 34.256V23.203ZM23.8178 34.2544C23.818 34.637 23.7208 35.0138 23.5346 35.3481C23.3484 35.6826 23.079 35.9638 22.7534 36.1652C22.4279 36.3665 22.0566 36.4815 21.6743 36.4989C21.2919 36.5162 20.9115 36.4356 20.5691 36.2645L17.4116 34.6857C17.0384 34.4992 16.7244 34.2122 16.505 33.8573C16.2857 33.5023 16.1695 33.0929 16.1697 32.6756V23.203C16.1695 22.6628 15.9932 22.1395 15.6717 21.7104L15.5252 21.533L4.11732 8.91911V8.91748C3.82651 8.59514 3.63552 8.19549 3.56719 7.76676C3.49892 7.3381 3.55539 6.89882 3.73158 6.50212C3.90791 6.10525 4.19594 5.76717 4.56003 5.53044C4.92404 5.29383 5.34983 5.16764 5.78399 5.16748H34.2052C34.6391 5.1685 35.0641 5.29662 35.4275 5.53369C35.7905 5.77066 36.077 6.10745 36.2527 6.50374C36.4285 6.90044 36.4856 7.33994 36.4171 7.76839C36.3486 8.19663 36.1575 8.59548 35.867 8.91748V8.91911L24.4624 21.533C24.0482 21.9908 23.8182 22.5857 23.8178 23.203V34.2544Z" fill="#58595A"/>
</svg>
