<svg width="40" height="40" viewBox="0 0 40 40" fill="none" xmlns="http://www.w3.org/2000/svg">
<path d="M16.9993 25.332L17.1051 25.3418C17.3469 25.3807 17.5513 25.5501 17.6309 25.7878L20.4808 34.3327H25.9984C26.3666 34.3327 26.6657 34.6318 26.6657 35C26.6653 35.3679 26.3663 35.6657 25.9984 35.6657H7.9987C7.71188 35.6656 7.45789 35.4821 7.36719 35.21L4.36588 26.2109C4.29816 26.0078 4.33354 25.7842 4.45866 25.6104C4.58396 25.4365 4.78473 25.332 4.99902 25.332H16.9993ZM8.48047 34.3327H19.0729L16.5176 26.6667H5.92513L8.48047 34.3327ZM19.3317 21.499V20.7487C19.3317 19.3162 19.3315 18.309 19.2292 17.5472C19.1293 16.8045 18.9432 16.3953 18.6481 16.1003C18.353 15.8052 17.9438 15.6191 17.2012 15.5192C16.4394 15.4168 15.4322 15.4167 13.9997 15.4167C12.5666 15.4167 11.5585 15.4168 10.7965 15.5192C10.0539 15.6191 9.64469 15.8052 9.34961 16.1003C9.05462 16.3953 8.87007 16.8047 8.77018 17.5472C8.66778 18.309 8.66601 19.3161 8.66601 20.7487V21.499C8.66601 21.8672 8.36689 22.1663 7.9987 22.1663C7.63066 22.1662 7.33301 21.8671 7.33301 21.499V20.7487C7.33301 19.3534 7.33134 18.2396 7.44857 17.3682C7.56844 16.4776 7.82344 15.74 8.40723 15.1562C8.99104 14.5728 9.72864 14.319 10.6191 14.1992C11.4906 14.0821 12.6044 14.082 13.9997 14.082C15.395 14.082 16.5088 14.082 17.3802 14.1992C18.2708 14.3191 19.0083 14.5725 19.5921 15.1562C20.1759 15.74 20.4293 16.4776 20.5492 17.3682C20.6664 18.2396 20.6663 19.3534 20.6663 20.7487V21.499C20.6663 21.8672 20.3672 22.1663 19.999 22.1663C19.6308 22.1663 19.3317 21.8672 19.3317 21.499Z" fill="#2B2828"/>
<path d="M16.9993 25.332L17.1051 25.3418C17.3469 25.3807 17.5513 25.5501 17.6309 25.7878L20.4808 34.3327H25.9984C26.3666 34.3327 26.6657 34.6318 26.6657 35C26.6653 35.3679 26.3663 35.6657 25.9984 35.6657H7.9987C7.71188 35.6656 7.45789 35.4821 7.36719 35.21L4.36588 26.2109C4.29816 26.0078 4.33354 25.7842 4.45866 25.6104C4.58396 25.4365 4.78473 25.332 4.99902 25.332H16.9993ZM8.48047 34.3327H19.0729L16.5176 26.6667H5.92513L8.48047 34.3327ZM19.3317 21.499V20.7487C19.3317 19.3162 19.3315 18.309 19.2292 17.5472C19.1293 16.8045 18.9432 16.3953 18.6481 16.1003C18.353 15.8052 17.9438 15.6191 17.2012 15.5192C16.4394 15.4168 15.4322 15.4167 13.9997 15.4167C12.5666 15.4167 11.5585 15.4168 10.7965 15.5192C10.0539 15.6191 9.64469 15.8052 9.34961 16.1003C9.05462 16.3953 8.87007 16.8047 8.77018 17.5472C8.66778 18.309 8.66601 19.3161 8.66601 20.7487V21.499C8.66601 21.8672 8.36689 22.1663 7.9987 22.1663C7.63066 22.1662 7.33301 21.8671 7.33301 21.499V20.7487C7.33301 19.3534 7.33134 18.2396 7.44857 17.3682C7.56844 16.4776 7.82344 15.74 8.40723 15.1562C8.99104 14.5728 9.72864 14.319 10.6191 14.1992C11.4906 14.0821 12.6044 14.082 13.9997 14.082C15.395 14.082 16.5088 14.082 17.3802 14.1992C18.2708 14.3191 19.0083 14.5725 19.5921 15.1562C20.1759 15.74 20.4293 16.4776 20.5492 17.3682C20.6664 18.2396 20.6663 19.3534 20.6663 20.7487V21.499C20.6663 21.8672 20.3672 22.1663 19.999 22.1663C19.6308 22.1663 19.3317 21.8672 19.3317 21.499Z" fill="black" fill-opacity="0.2"/>
<path d="M16.9993 25.332L17.1051 25.3418C17.3469 25.3807 17.5513 25.5501 17.6309 25.7878L20.4808 34.3327H25.9984C26.3666 34.3327 26.6657 34.6318 26.6657 35C26.6653 35.3679 26.3663 35.6657 25.9984 35.6657H7.9987C7.71188 35.6656 7.45789 35.4821 7.36719 35.21L4.36588 26.2109C4.29816 26.0078 4.33354 25.7842 4.45866 25.6104C4.58396 25.4365 4.78473 25.332 4.99902 25.332H16.9993ZM8.48047 34.3327H19.0729L16.5176 26.6667H5.92513L8.48047 34.3327ZM19.3317 21.499V20.7487C19.3317 19.3162 19.3315 18.309 19.2292 17.5472C19.1293 16.8045 18.9432 16.3953 18.6481 16.1003C18.353 15.8052 17.9438 15.6191 17.2012 15.5192C16.4394 15.4168 15.4322 15.4167 13.9997 15.4167C12.5666 15.4167 11.5585 15.4168 10.7965 15.5192C10.0539 15.6191 9.64469 15.8052 9.34961 16.1003C9.05462 16.3953 8.87007 16.8047 8.77018 17.5472C8.66778 18.309 8.66601 19.3161 8.66601 20.7487V21.499C8.66601 21.8672 8.36689 22.1663 7.9987 22.1663C7.63066 22.1662 7.33301 21.8671 7.33301 21.499V20.7487C7.33301 19.3534 7.33134 18.2396 7.44857 17.3682C7.56844 16.4776 7.82344 15.74 8.40723 15.1562C8.99104 14.5728 9.72864 14.319 10.6191 14.1992C11.4906 14.0821 12.6044 14.082 13.9997 14.082C15.395 14.082 16.5088 14.082 17.3802 14.1992C18.2708 14.3191 19.0083 14.5725 19.5921 15.1562C20.1759 15.74 20.4293 16.4776 20.5492 17.3682C20.6664 18.2396 20.6663 19.3534 20.6663 20.7487V21.499C20.6663 21.8672 20.3672 22.1663 19.999 22.1663C19.6308 22.1663 19.3317 21.8672 19.3317 21.499Z" fill="black" fill-opacity="0.2"/>
<path d="M29.8324 21.5007C29.8324 20.8819 29.5863 20.2879 29.1488 19.8503C28.7113 19.413 28.1185 19.1669 27.5 19.1667C26.8812 19.1667 26.2872 19.4128 25.8496 19.8503C25.412 20.2879 25.166 20.8819 25.166 21.5007C25.1662 22.1193 25.4123 22.7121 25.8496 23.1495C26.2872 23.5871 26.8812 23.8331 27.5 23.8331C28.1186 23.8329 28.7113 23.5869 29.1488 23.1495C29.5862 22.7121 29.8322 22.1193 29.8324 21.5007ZM16.333 7.99976C16.3329 7.38104 16.0869 6.78687 15.6494 6.34937C15.2119 5.91198 14.6177 5.6674 13.999 5.6674C13.3803 5.66749 12.7861 5.91186 12.3486 6.34937C11.9111 6.78687 11.6668 7.38103 11.6667 7.99976C11.6667 8.61844 11.9113 9.21259 12.3486 9.65015C12.7861 10.0877 13.3803 10.3337 13.999 10.3337C14.6179 10.3337 15.2118 10.0877 15.6494 9.65015C16.087 9.21256 16.333 8.61859 16.333 7.99976ZM31.1654 21.5007C31.1652 22.473 30.7803 23.406 30.0928 24.0935C29.4053 24.781 28.4722 25.1659 27.5 25.1661C26.5278 25.1661 25.5948 24.7807 24.9072 24.0935C24.2197 23.406 23.8332 22.473 23.833 21.5007C23.833 20.5283 24.2196 19.5956 24.9072 18.908C25.5949 18.2203 26.5275 17.8337 27.5 17.8337C28.4722 17.8339 29.4053 18.2205 30.0928 18.908C30.78 19.5955 31.1654 20.5286 31.1654 21.5007ZM17.666 7.99976C17.666 8.97222 17.2794 9.9049 16.5918 10.5925C15.9042 11.2802 14.9715 11.6667 13.999 11.6667C13.0267 11.6667 12.0938 11.2801 11.4062 10.5925C10.7188 9.90493 10.332 8.97206 10.332 7.99976C10.3321 7.02741 10.7187 6.09454 11.4062 5.40698C12.0938 4.71943 13.0267 4.33285 13.999 4.33276C14.9713 4.33276 15.9042 4.71955 16.5918 5.40698C17.2794 6.09454 17.6659 7.02741 17.666 7.99976Z" fill="#2B2828"/>
<path d="M29.8324 21.5007C29.8324 20.8819 29.5863 20.2879 29.1488 19.8503C28.7113 19.413 28.1185 19.1669 27.5 19.1667C26.8812 19.1667 26.2872 19.4128 25.8496 19.8503C25.412 20.2879 25.166 20.8819 25.166 21.5007C25.1662 22.1193 25.4123 22.7121 25.8496 23.1495C26.2872 23.5871 26.8812 23.8331 27.5 23.8331C28.1186 23.8329 28.7113 23.5869 29.1488 23.1495C29.5862 22.7121 29.8322 22.1193 29.8324 21.5007ZM16.333 7.99976C16.3329 7.38104 16.0869 6.78687 15.6494 6.34937C15.2119 5.91198 14.6177 5.6674 13.999 5.6674C13.3803 5.66749 12.7861 5.91186 12.3486 6.34937C11.9111 6.78687 11.6668 7.38103 11.6667 7.99976C11.6667 8.61844 11.9113 9.21259 12.3486 9.65015C12.7861 10.0877 13.3803 10.3337 13.999 10.3337C14.6179 10.3337 15.2118 10.0877 15.6494 9.65015C16.087 9.21256 16.333 8.61859 16.333 7.99976ZM31.1654 21.5007C31.1652 22.473 30.7803 23.406 30.0928 24.0935C29.4053 24.781 28.4722 25.1659 27.5 25.1661C26.5278 25.1661 25.5948 24.7807 24.9072 24.0935C24.2197 23.406 23.8332 22.473 23.833 21.5007C23.833 20.5283 24.2196 19.5956 24.9072 18.908C25.5949 18.2203 26.5275 17.8337 27.5 17.8337C28.4722 17.8339 29.4053 18.2205 30.0928 18.908C30.78 19.5955 31.1654 20.5286 31.1654 21.5007ZM17.666 7.99976C17.666 8.97222 17.2794 9.9049 16.5918 10.5925C15.9042 11.2802 14.9715 11.6667 13.999 11.6667C13.0267 11.6667 12.0938 11.2801 11.4062 10.5925C10.7188 9.90493 10.332 8.97206 10.332 7.99976C10.3321 7.02741 10.7187 6.09454 11.4062 5.40698C12.0938 4.71943 13.0267 4.33285 13.999 4.33276C14.9713 4.33276 15.9042 4.71955 16.5918 5.40698C17.2794 6.09454 17.6659 7.02741 17.666 7.99976Z" fill="black" fill-opacity="0.2"/>
<path d="M29.8324 21.5007C29.8324 20.8819 29.5863 20.2879 29.1488 19.8503C28.7113 19.413 28.1185 19.1669 27.5 19.1667C26.8812 19.1667 26.2872 19.4128 25.8496 19.8503C25.412 20.2879 25.166 20.8819 25.166 21.5007C25.1662 22.1193 25.4123 22.7121 25.8496 23.1495C26.2872 23.5871 26.8812 23.8331 27.5 23.8331C28.1186 23.8329 28.7113 23.5869 29.1488 23.1495C29.5862 22.7121 29.8322 22.1193 29.8324 21.5007ZM16.333 7.99976C16.3329 7.38104 16.0869 6.78687 15.6494 6.34937C15.2119 5.91198 14.6177 5.6674 13.999 5.6674C13.3803 5.66749 12.7861 5.91186 12.3486 6.34937C11.9111 6.78687 11.6668 7.38103 11.6667 7.99976C11.6667 8.61844 11.9113 9.21259 12.3486 9.65015C12.7861 10.0877 13.3803 10.3337 13.999 10.3337C14.6179 10.3337 15.2118 10.0877 15.6494 9.65015C16.087 9.21256 16.333 8.61859 16.333 7.99976ZM31.1654 21.5007C31.1652 22.473 30.7803 23.406 30.0928 24.0935C29.4053 24.781 28.4722 25.1659 27.5 25.1661C26.5278 25.1661 25.5948 24.7807 24.9072 24.0935C24.2197 23.406 23.8332 22.473 23.833 21.5007C23.833 20.5283 24.2196 19.5956 24.9072 18.908C25.5949 18.2203 26.5275 17.8337 27.5 17.8337C28.4722 17.8339 29.4053 18.2205 30.0928 18.908C30.78 19.5955 31.1654 20.5286 31.1654 21.5007ZM17.666 7.99976C17.666 8.97222 17.2794 9.9049 16.5918 10.5925C15.9042 11.2802 14.9715 11.6667 13.999 11.6667C13.0267 11.6667 12.0938 11.2801 11.4062 10.5925C10.7188 9.90493 10.332 8.97206 10.332 7.99976C10.3321 7.02741 10.7187 6.09454 11.4062 5.40698C12.0938 4.71943 13.0267 4.33285 13.999 4.33276C14.9713 4.33276 15.9042 4.71955 16.5918 5.40698C17.2794 6.09454 17.6659 7.02741 17.666 7.99976Z" fill="black" fill-opacity="0.2"/>
<path d="M34.3363 32.0003V31.25C34.3362 30.6313 34.0902 30.0371 33.6527 29.5996C33.2153 29.1626 32.6222 28.9178 32.0039 28.9176H23.0033C22.6351 28.9176 22.3359 28.6185 22.3359 28.2503C22.3359 27.8821 22.6351 27.583 23.0033 27.583H32.0039C32.9761 27.5832 33.9092 27.9697 34.5967 28.6572C35.2841 29.3448 35.6692 30.2777 35.6693 31.25V32.0003C35.6693 32.9726 35.2841 33.9055 34.5967 34.5931C33.9092 35.2806 32.9761 35.6671 32.0039 35.6673H30.5033C30.1351 35.6673 29.8359 35.3682 29.8359 35C29.8361 34.632 30.1352 34.3343 30.5033 34.3343H32.0039C32.6223 34.3341 33.2153 34.0878 33.6527 33.6507C34.0903 33.2131 34.3363 32.6192 34.3363 32.0003Z" fill="#2B2828"/>
<path d="M34.3363 32.0003V31.25C34.3362 30.6313 34.0902 30.0371 33.6527 29.5996C33.2153 29.1626 32.6222 28.9178 32.0039 28.9176H23.0033C22.6351 28.9176 22.3359 28.6185 22.3359 28.2503C22.3359 27.8821 22.6351 27.583 23.0033 27.583H32.0039C32.9761 27.5832 33.9092 27.9697 34.5967 28.6572C35.2841 29.3448 35.6692 30.2777 35.6693 31.25V32.0003C35.6693 32.9726 35.2841 33.9055 34.5967 34.5931C33.9092 35.2806 32.9761 35.6671 32.0039 35.6673H30.5033C30.1351 35.6673 29.8359 35.3682 29.8359 35C29.8361 34.632 30.1352 34.3343 30.5033 34.3343H32.0039C32.6223 34.3341 33.2153 34.0878 33.6527 33.6507C34.0903 33.2131 34.3363 32.6192 34.3363 32.0003Z" fill="black" fill-opacity="0.2"/>
<path d="M34.3363 32.0003V31.25C34.3362 30.6313 34.0902 30.0371 33.6527 29.5996C33.2153 29.1626 32.6222 28.9178 32.0039 28.9176H23.0033C22.6351 28.9176 22.3359 28.6185 22.3359 28.2503C22.3359 27.8821 22.6351 27.583 23.0033 27.583H32.0039C32.9761 27.5832 33.9092 27.9697 34.5967 28.6572C35.2841 29.3448 35.6692 30.2777 35.6693 31.25V32.0003C35.6693 32.9726 35.2841 33.9055 34.5967 34.5931C33.9092 35.2806 32.9761 35.6671 32.0039 35.6673H30.5033C30.1351 35.6673 29.8359 35.3682 29.8359 35C29.8361 34.632 30.1352 34.3343 30.5033 34.3343H32.0039C32.6223 34.3341 33.2153 34.0878 33.6527 33.6507C34.0903 33.2131 34.3363 32.6192 34.3363 32.0003Z" fill="black" fill-opacity="0.2"/>
</svg>
