<svg width="40" height="40" viewBox="0 0 40 40" fill="none" xmlns="http://www.w3.org/2000/svg">
<path d="M32.6667 34.9998V31.6665C32.6667 30.0752 32.0357 28.5486 30.9105 27.4233C29.8557 26.3685 28.448 25.7473 26.9652 25.6737L26.6673 25.6672H25.0007C24.3818 25.6672 23.7878 25.4211 23.3503 24.9836C22.9127 24.546 22.6667 23.952 22.6667 23.3332V14.9998C22.6667 14.2926 22.3871 13.6135 21.887 13.1134C21.4495 12.6759 20.8747 12.4075 20.2643 12.3468L20.0007 12.3338C19.2934 12.3338 18.6144 12.6133 18.1143 13.1134C17.6142 13.6135 17.3346 14.2926 17.3346 14.9998V29.9998C17.3346 30.2866 17.1509 30.5421 16.8789 30.633C16.6067 30.7237 16.3056 30.6298 16.1335 30.4002L12.1344 25.0666C11.8862 24.7356 11.5637 24.4672 11.1937 24.2821C10.9161 24.1433 10.6166 24.0542 10.3099 24.0184L10.0007 24.0005H9.27799C8.20452 24.0005 7.33464 24.8704 7.33464 25.9438C7.33476 26.2966 7.42926 26.6427 7.6097 26.9432H7.61133L12.2386 34.6564C12.428 34.972 12.3261 35.3816 12.0107 35.5711C11.6952 35.7605 11.2856 35.6586 11.096 35.3433L6.46712 27.63C6.16126 27.121 6.00012 26.5372 6 25.9438C6 24.134 7.46814 22.6659 9.27799 22.6659H10.0007C10.6216 22.6659 11.234 22.8113 11.7894 23.089C12.3446 23.3666 12.828 23.7692 13.2005 24.2658L16 27.9979V14.9998C16 13.939 16.4217 12.9212 17.1719 12.1711C17.922 11.4209 18.9398 10.9992 20.0007 10.9992L20.3962 11.0187C21.3118 11.1097 22.1731 11.5147 22.8294 12.1711C23.5796 12.9212 24.0013 13.939 24.0013 14.9998V23.3332C24.0013 23.5984 24.1067 23.852 24.2943 24.0396C24.4818 24.2271 24.7354 24.3325 25.0007 24.3325H26.6673C28.6122 24.3325 30.4776 25.1057 31.8529 26.481C33.2281 27.8562 34.0013 29.7216 34.0013 31.6665V34.9998C34.0013 35.368 33.7022 35.6672 33.334 35.6672C32.9658 35.6672 32.6667 35.368 32.6667 34.9998ZM10.0007 15.9992C10.3688 15.9992 10.668 16.2983 10.668 16.6665C10.668 17.0347 10.3688 17.3338 10.0007 17.3338H8.33398C7.96579 17.3338 7.66667 17.0347 7.66667 16.6665C7.66667 16.2983 7.96579 15.9992 8.33398 15.9992H10.0007ZM31.6673 15.9992C32.0355 15.9992 32.3346 16.2983 32.3346 16.6665C32.3346 17.0347 32.0355 17.3338 31.6673 17.3338H30.0007C29.6325 17.3338 29.3333 17.0347 29.3333 16.6665C29.3333 16.2983 29.6325 15.9992 30.0007 15.9992H31.6673ZM10.5898 7.2557C10.8502 6.99535 11.2719 6.99535 11.5322 7.2557L12.7106 8.43408C12.9705 8.69447 12.9708 9.11626 12.7106 9.37647C12.4504 9.63667 12.0286 9.63638 11.7682 9.37647L10.5898 8.19808C10.3295 7.93773 10.3295 7.51605 10.5898 7.2557ZM28.4691 7.2557C28.7294 6.99535 29.1511 6.99535 29.4115 7.2557C29.6718 7.51605 29.6718 7.93773 29.4115 8.19808L28.2331 9.37647C27.9727 9.63638 27.5509 9.63667 27.2907 9.37647C27.0305 9.11626 27.0308 8.69447 27.2907 8.43408L28.4691 7.2557ZM19.3333 6.6665V4.99984C19.3333 4.63165 19.6325 4.33252 20.0007 4.33252C20.3688 4.33252 20.668 4.63165 20.668 4.99984V6.6665C20.668 7.03469 20.3688 7.33382 20.0007 7.33382C19.6325 7.33382 19.3333 7.03469 19.3333 6.6665Z" fill="#58595A"/>
</svg>
