<svg width="40" height="40" viewBox="0 0 40 40" fill="none" xmlns="http://www.w3.org/2000/svg">
<path d="M30.582 23.8223C30.582 22.3278 30.5093 20.7504 29.6836 18.2689C29.2555 16.9824 29.0067 16.2833 28.7575 15.712C28.7168 15.6186 28.674 15.5293 28.6322 15.4402C27.8243 17.712 26.2412 18.7603 25.8132 19.0892C25.6119 19.2439 25.341 19.2713 25.1133 19.1592C24.8857 19.0471 24.7408 18.8156 24.7406 18.5619C24.7406 18.5939 24.7393 18.5473 24.6982 18.3601C24.6634 18.2016 24.6116 17.9862 24.5404 17.7253C24.3978 17.2033 24.1863 16.5125 23.917 15.7478C23.3745 14.2073 22.6106 12.4167 21.7116 11.0993C20.2834 9.00822 18.4525 7.49492 16.9948 6.33534C16.9226 7.21805 16.7869 8.16446 16.6009 9.07622C16.318 10.4631 15.9091 11.8275 15.4014 12.7823C14.9333 13.6626 14.6382 14.1544 14.2995 14.5954C13.9753 15.0175 13.6049 15.3979 13.0511 16.018C11.856 17.3562 11.391 17.6888 10.4632 19.1967C9.59769 20.6035 9.41667 22.5398 9.41667 24.0632C9.417 29.9482 14.1623 34.3318 19.9993 34.3318C25.8173 34.3318 30.582 29.7264 30.582 23.8223ZM31.9167 23.8223C31.9167 30.4823 26.5339 35.6664 19.9993 35.6664C13.4843 35.6664 8.08237 30.7416 8.08203 24.0632C8.08203 22.5026 8.25468 20.2416 9.32715 18.4984C10.337 16.8571 10.9345 16.3858 12.0566 15.1293C12.6609 14.4527 12.9574 14.1531 13.2415 13.7833C13.5112 13.4321 13.7658 13.0188 14.2246 12.1556C14.6445 11.3659 15.023 10.1454 15.2956 8.8093C15.5663 7.48182 15.722 6.09622 15.722 4.99907C15.722 4.74153 15.8702 4.5072 16.1029 4.39686C16.3354 4.28673 16.61 4.32045 16.8092 4.48312C18.2495 5.66055 20.8839 7.52202 22.8135 10.3474L23.1781 10.9154C24.0079 12.2821 24.6886 13.9235 25.1751 15.3051C25.4525 16.0926 25.6704 16.8082 25.8213 17.3591C26.5557 16.6717 27.4846 15.4829 27.7223 13.4919L27.7435 13.3861C27.8112 13.1498 28.0063 12.9673 28.2529 12.9174C28.5349 12.8604 28.8217 12.9898 28.9642 13.2396C29.4147 14.0307 29.7009 14.5404 29.9798 15.1797C30.2561 15.8131 30.5215 16.565 30.9482 17.8474C31.8323 20.5043 31.9167 22.233 31.9167 23.8223Z" fill="#2B2828"/>
<path d="M30.582 23.8223C30.582 22.3278 30.5093 20.7504 29.6836 18.2689C29.2555 16.9824 29.0067 16.2833 28.7575 15.712C28.7168 15.6186 28.674 15.5293 28.6322 15.4402C27.8243 17.712 26.2412 18.7603 25.8132 19.0892C25.6119 19.2439 25.341 19.2713 25.1133 19.1592C24.8857 19.0471 24.7408 18.8156 24.7406 18.5619C24.7406 18.5939 24.7393 18.5473 24.6982 18.3601C24.6634 18.2016 24.6116 17.9862 24.5404 17.7253C24.3978 17.2033 24.1863 16.5125 23.917 15.7478C23.3745 14.2073 22.6106 12.4167 21.7116 11.0993C20.2834 9.00822 18.4525 7.49492 16.9948 6.33534C16.9226 7.21805 16.7869 8.16446 16.6009 9.07622C16.318 10.4631 15.9091 11.8275 15.4014 12.7823C14.9333 13.6626 14.6382 14.1544 14.2995 14.5954C13.9753 15.0175 13.6049 15.3979 13.0511 16.018C11.856 17.3562 11.391 17.6888 10.4632 19.1967C9.59769 20.6035 9.41667 22.5398 9.41667 24.0632C9.417 29.9482 14.1623 34.3318 19.9993 34.3318C25.8173 34.3318 30.582 29.7264 30.582 23.8223ZM31.9167 23.8223C31.9167 30.4823 26.5339 35.6664 19.9993 35.6664C13.4843 35.6664 8.08237 30.7416 8.08203 24.0632C8.08203 22.5026 8.25468 20.2416 9.32715 18.4984C10.337 16.8571 10.9345 16.3858 12.0566 15.1293C12.6609 14.4527 12.9574 14.1531 13.2415 13.7833C13.5112 13.4321 13.7658 13.0188 14.2246 12.1556C14.6445 11.3659 15.023 10.1454 15.2956 8.8093C15.5663 7.48182 15.722 6.09622 15.722 4.99907C15.722 4.74153 15.8702 4.5072 16.1029 4.39686C16.3354 4.28673 16.61 4.32045 16.8092 4.48312C18.2495 5.66055 20.8839 7.52202 22.8135 10.3474L23.1781 10.9154C24.0079 12.2821 24.6886 13.9235 25.1751 15.3051C25.4525 16.0926 25.6704 16.8082 25.8213 17.3591C26.5557 16.6717 27.4846 15.4829 27.7223 13.4919L27.7435 13.3861C27.8112 13.1498 28.0063 12.9673 28.2529 12.9174C28.5349 12.8604 28.8217 12.9898 28.9642 13.2396C29.4147 14.0307 29.7009 14.5404 29.9798 15.1797C30.2561 15.8131 30.5215 16.565 30.9482 17.8474C31.8323 20.5043 31.9167 22.233 31.9167 23.8223Z" fill="black" fill-opacity="0.2"/>
<path d="M30.582 23.8223C30.582 22.3278 30.5093 20.7504 29.6836 18.2689C29.2555 16.9824 29.0067 16.2833 28.7575 15.712C28.7168 15.6186 28.674 15.5293 28.6322 15.4402C27.8243 17.712 26.2412 18.7603 25.8132 19.0892C25.6119 19.2439 25.341 19.2713 25.1133 19.1592C24.8857 19.0471 24.7408 18.8156 24.7406 18.5619C24.7406 18.5939 24.7393 18.5473 24.6982 18.3601C24.6634 18.2016 24.6116 17.9862 24.5404 17.7253C24.3978 17.2033 24.1863 16.5125 23.917 15.7478C23.3745 14.2073 22.6106 12.4167 21.7116 11.0993C20.2834 9.00822 18.4525 7.49492 16.9948 6.33534C16.9226 7.21805 16.7869 8.16446 16.6009 9.07622C16.318 10.4631 15.9091 11.8275 15.4014 12.7823C14.9333 13.6626 14.6382 14.1544 14.2995 14.5954C13.9753 15.0175 13.6049 15.3979 13.0511 16.018C11.856 17.3562 11.391 17.6888 10.4632 19.1967C9.59769 20.6035 9.41667 22.5398 9.41667 24.0632C9.417 29.9482 14.1623 34.3318 19.9993 34.3318C25.8173 34.3318 30.582 29.7264 30.582 23.8223ZM31.9167 23.8223C31.9167 30.4823 26.5339 35.6664 19.9993 35.6664C13.4843 35.6664 8.08237 30.7416 8.08203 24.0632C8.08203 22.5026 8.25468 20.2416 9.32715 18.4984C10.337 16.8571 10.9345 16.3858 12.0566 15.1293C12.6609 14.4527 12.9574 14.1531 13.2415 13.7833C13.5112 13.4321 13.7658 13.0188 14.2246 12.1556C14.6445 11.3659 15.023 10.1454 15.2956 8.8093C15.5663 7.48182 15.722 6.09622 15.722 4.99907C15.722 4.74153 15.8702 4.5072 16.1029 4.39686C16.3354 4.28673 16.61 4.32045 16.8092 4.48312C18.2495 5.66055 20.8839 7.52202 22.8135 10.3474L23.1781 10.9154C24.0079 12.2821 24.6886 13.9235 25.1751 15.3051C25.4525 16.0926 25.6704 16.8082 25.8213 17.3591C26.5557 16.6717 27.4846 15.4829 27.7223 13.4919L27.7435 13.3861C27.8112 13.1498 28.0063 12.9673 28.2529 12.9174C28.5349 12.8604 28.8217 12.9898 28.9642 13.2396C29.4147 14.0307 29.7009 14.5404 29.9798 15.1797C30.2561 15.8131 30.5215 16.565 30.9482 17.8474C31.8323 20.5043 31.9167 22.233 31.9167 23.8223Z" fill="black" fill-opacity="0.2"/>
</svg>
