<svg width="40" height="40" viewBox="0 0 40 40" fill="none" xmlns="http://www.w3.org/2000/svg">
<path d="M20.1484 3.42877C20.9612 3.17082 21.8408 3.21931 22.6208 3.56386C23.4007 3.90857 24.0286 4.52593 24.3851 5.30052C24.7416 6.07529 24.8016 6.9545 24.556 7.77122L22.7819 13.6859C22.7652 13.7418 22.762 13.8011 22.7721 13.8585C22.7822 13.9157 22.806 13.9697 22.8405 14.0163C22.8753 14.0632 22.9218 14.1024 22.974 14.1286C23.0259 14.1547 23.0835 14.1676 23.1416 14.1677H31.0843L31.3219 14.1758C31.8763 14.2079 32.4195 14.3504 32.9186 14.5974C33.4888 14.8795 33.9859 15.2897 34.3721 15.7953C34.7581 16.3008 35.0231 16.8882 35.1452 17.5124C35.252 18.059 35.2472 18.6213 35.1322 19.1645L35.0768 19.3956L31.7598 31.5473C31.5212 32.4224 31.0024 33.1951 30.2819 33.7462C29.6508 34.2287 28.8943 34.5176 28.1074 34.5827L27.7689 34.5974H6.29102C5.83815 34.5974 5.40365 34.4178 5.08333 34.0977C4.76315 33.7775 4.58223 33.3428 4.58203 32.89V15.8767C4.58203 15.4236 4.76297 14.9894 5.08333 14.669C5.40369 14.3486 5.83796 14.1677 6.29102 14.1677H11.0957C11.5798 14.1677 12.0562 14.0431 12.4775 13.8048C12.8989 13.5662 13.2521 13.2221 13.5013 12.807L18.2067 4.96523L18.3825 4.69993C18.8194 4.10177 19.4372 3.65466 20.1484 3.42877ZM5.91667 32.89C5.91687 32.989 5.95583 33.0836 6.02572 33.1537C6.09603 33.224 6.19158 33.2644 6.29102 33.2644H27.7673C28.3825 33.2639 28.9831 33.0614 29.4714 32.6882C29.9598 32.3148 30.3121 31.7905 30.474 31.1973L33.7894 19.044C33.9026 18.6284 33.9191 18.1924 33.8366 17.7696C33.7539 17.3463 33.5742 16.947 33.3125 16.6042C33.0508 16.2617 32.7142 15.9833 32.3278 15.7921C31.9413 15.6008 31.5155 15.5025 31.0843 15.5023H23.14C22.874 15.502 22.611 15.438 22.3734 15.3184C22.136 15.1988 21.9298 15.0255 21.7712 14.8122C21.6125 14.5988 21.5048 14.3515 21.4587 14.0896C21.4126 13.8277 21.4296 13.5582 21.5059 13.3034L23.2799 7.38711L23.3271 7.19505C23.4186 6.74603 23.3654 6.27817 23.1725 5.85879C22.9519 5.37947 22.5646 4.99626 22.082 4.78294C21.5994 4.56974 21.055 4.54036 20.5521 4.69993C20.049 4.85971 19.6206 5.19767 19.3493 5.65045L14.6455 13.4923C14.2778 14.1051 13.757 14.6131 13.1351 14.9652C12.5133 15.3172 11.8102 15.5023 11.0957 15.5023H6.29102C6.19158 15.5023 6.09603 15.5411 6.02572 15.6114C5.9554 15.6817 5.91667 15.7773 5.91667 15.8767V32.89Z" fill="#EC1C24"/>
<path d="M10.6582 33.9323V14.8372C10.6582 14.469 10.9573 14.1699 11.3255 14.1699C11.6937 14.1699 11.9928 14.469 11.9928 14.8372V33.9323C11.9928 34.3005 11.6937 34.5996 11.3255 34.5996C10.9573 34.5996 10.6582 34.3005 10.6582 33.9323Z" fill="#EC1C24"/>
</svg>
