<svg width="40" height="40" viewBox="0 0 40 40" fill="none" xmlns="http://www.w3.org/2000/svg">
<path d="M32.6465 13.4618C32.6464 13.1046 32.4545 12.7745 32.1452 12.5959L20.4785 5.85923C20.1691 5.68061 19.7869 5.68059 19.4775 5.85923L7.81087 12.5959C7.50178 12.7745 7.31132 13.1048 7.3112 13.4618V26.5379C7.3113 26.8951 7.50156 27.2252 7.81087 27.4038L19.4775 34.1405C19.7869 34.3191 20.1691 34.3191 20.4785 34.1405L32.1452 27.4038C32.4545 27.2253 32.6464 26.8951 32.6465 26.5379V13.4618ZM33.9795 26.5379C33.9794 27.3713 33.5342 28.141 32.8125 28.5578L21.1442 35.2945C20.4224 35.711 19.5336 35.7111 18.8118 35.2945L7.14355 28.5578C6.42202 28.141 5.97667 27.3712 5.97656 26.5379L5.97819 13.4618C5.97831 12.6283 6.42338 11.8587 7.14518 11.4419L18.8118 4.70526C19.5336 4.28862 20.4224 4.28873 21.1442 4.70526L32.8125 11.4419C33.5342 11.8587 33.9794 12.6284 33.9795 13.4618V26.5379Z" fill="#58595A"/>
<path d="M19.3117 34.9994V20.5821L7.1437 13.5573C6.82531 13.3733 6.7161 12.9662 6.89956 12.6475C7.08365 12.3287 7.49215 12.2193 7.81101 12.4034L19.9774 19.4265L32.9803 11.9216C33.2989 11.738 33.706 11.8474 33.8901 12.1657C34.0742 12.4846 33.9648 12.8931 33.646 13.0772L20.6463 20.5821V34.9994C20.6463 35.3676 20.3472 35.6667 19.979 35.6667C19.6108 35.6667 19.3117 35.3676 19.3117 34.9994Z" fill="#58595A"/>
<path d="M30.4794 24.0364C30.7982 23.8523 31.2067 23.9617 31.3908 24.2806C31.5743 24.5992 31.4651 25.0063 31.1467 25.1904L26.1467 28.0778C25.8278 28.2618 25.4193 28.1524 25.2352 27.8336C25.0511 27.5148 25.1605 27.1063 25.4794 26.9222L30.4794 24.0364ZM25.4794 7.55692C25.7982 7.37282 26.2067 7.48223 26.3908 7.80106C26.5749 8.11991 26.4655 8.52841 26.1467 8.71252L12.8133 16.4111C12.4945 16.5952 12.086 16.4858 11.9019 16.1669C11.7178 15.8481 11.8272 15.4396 12.146 15.2555L25.4794 7.55692Z" fill="#58595A"/>
</svg>
