<svg width="41" height="32" viewBox="0 0 41 32" fill="none" xmlns="http://www.w3.org/2000/svg">
<path d="M9.23711 32C6.45132 32 4.21535 31.047 2.52921 29.1409C0.84307 27.1615 0 24.5223 0 21.2234C0 17.2646 1.28293 13.4891 3.8488 9.89691C6.41466 6.3047 10.3001 3.00573 15.5052 0L18.9141 3.95876C16.2749 6.15808 14.0023 8.24743 12.0962 10.2268C10.2635 12.1329 9.27377 13.8557 9.12715 15.3952L9.56701 15.7251C10.0802 15.2852 10.8866 15.0653 11.9863 15.0653C13.6724 15.0653 15.1019 15.7984 16.2749 17.2646C17.4479 18.7308 18.0344 20.7102 18.0344 23.2027C18.0344 25.7686 17.2279 27.8946 15.6151 29.5808C14.0023 31.1936 11.8763 32 9.23711 32ZM31.2302 32C28.4444 32 26.2085 31.047 24.5223 29.1409C22.8362 27.1615 21.9931 24.5223 21.9931 21.2234C21.9931 17.2646 23.2761 13.4891 25.8419 9.89691C28.4078 6.3047 32.2932 3.00573 37.4983 0L40.9072 3.95876C38.268 6.15808 35.9954 8.24743 34.0893 10.2268C32.2566 12.1329 31.2669 13.8557 31.1203 15.3952L31.5601 15.7251C32.0733 15.2852 32.8797 15.0653 33.9794 15.0653C35.6655 15.0653 37.0951 15.7984 38.268 17.2646C39.441 18.7308 40.0275 20.7102 40.0275 23.2027C40.0275 25.7686 39.2211 27.8946 37.6082 29.5808C35.9954 31.1936 33.8694 32 31.2302 32Z" fill="#A6A6A6"/>
</svg>
