<svg width="40" height="40" viewBox="0 0 40 40" fill="none" xmlns="http://www.w3.org/2000/svg">
<path d="M17.635 7.14627C18.4132 4.75137 21.8015 4.75137 22.5797 7.14627L24.3391 12.5597C24.6656 13.5635 25.5628 14.2633 26.6015 14.3468L26.8115 14.3549H32.5032C35.0208 14.3552 36.0677 17.5768 34.0315 19.0571L29.4254 22.4034C28.5145 23.0654 28.1334 24.2394 28.4814 25.3103L30.2408 30.7237C31.0185 33.1184 28.2773 35.1091 26.2402 33.629L21.6357 30.2843C20.7246 29.6224 19.4901 29.6224 18.579 30.2843L13.9745 33.629L13.7809 33.7576C11.8336 34.9444 9.38489 33.1654 9.91205 30.9467L9.9739 30.7237L11.7333 25.3103C12.0596 24.3063 11.7449 23.2119 10.9537 22.5336L10.7893 22.4034L6.18321 19.0571C4.14707 17.5768 5.19388 14.3552 7.71153 14.3549H13.4033C14.4593 14.3549 15.4037 13.7177 15.804 12.755L15.8756 12.5597L17.635 7.14627ZM21.3118 7.55806C20.9328 6.39157 19.2819 6.39157 18.9029 7.55806L17.1435 12.9715C16.6168 14.5916 15.1069 15.6879 13.4033 15.6879H7.71153C6.4852 15.6882 5.97551 17.2587 6.96771 17.9796L11.5722 21.3243C12.9506 22.3258 13.5277 24.1017 13.0012 25.7221L11.2418 31.1355C10.8632 32.3016 12.1979 33.2714 13.19 32.5515L17.7962 29.2052C19.1744 28.204 21.0403 28.204 22.4186 29.2052L27.0247 32.5515C28.0168 33.2714 29.3515 32.3016 28.9729 31.1355L27.2135 25.7221C26.687 24.1017 27.2641 22.3258 28.6425 21.3243L33.247 17.9796C34.2392 17.2587 33.7295 15.6882 32.5032 15.6879H26.8115C25.1079 15.6879 23.5979 14.5916 23.0712 12.9715L21.3118 7.55806Z" fill="#EC1C24"/>
</svg>
