<svg width="120" height="120" viewBox="0 0 120 120" fill="none" xmlns="http://www.w3.org/2000/svg">
<path d="M64.48 29.1578C65.4484 29.3506 66.3399 29.8273 67.0386 30.525L89.0601 52.5562L89.5142 53.0787C89.9307 53.6304 90.233 54.2662 90.3931 54.9439C90.6058 55.8469 90.5594 56.7934 90.2661 57.6734L80.7446 86.2477C80.4911 87.0099 80.0566 87.7001 79.48 88.2594C78.903 88.8188 78.1993 89.2306 77.4292 89.4605H77.4243L19.0356 106.814V106.819C18.159 107.079 17.2248 107.09 16.3403 106.858C15.4567 106.626 14.6514 106.157 14.0161 105.501C13.3808 104.844 12.9395 104.024 12.7368 103.132C12.5342 102.241 12.5794 101.309 12.8686 100.442L31.8286 43.5719L32.0239 43.0738C32.2462 42.5872 32.5466 42.139 32.9126 41.7457C33.4014 41.221 33.998 40.804 34.6606 40.5299H34.6655L61.5991 29.441L62.2974 29.2115C63.0093 29.0341 63.7544 29.0137 64.48 29.1578ZM63.1226 33.1373L36.189 44.231V44.2262C36.0569 44.2809 35.9398 44.3658 35.8423 44.4703C35.7931 44.523 35.7469 44.5795 35.7104 44.6412L35.6225 44.8365L17.5171 99.1383L46.8872 69.773C47.6679 68.9937 48.9336 68.9938 49.7143 69.773C50.4954 70.5541 50.4954 71.824 49.7143 72.6051L19.939 102.371L76.2866 85.6275L76.5063 85.5299C76.5742 85.4898 76.6398 85.4435 76.6968 85.3883C76.812 85.2764 76.8952 85.1355 76.9458 84.983H76.9507L86.4722 56.4088C86.5308 56.2328 86.5391 56.0425 86.4966 55.8619C86.4752 55.7715 86.4438 55.6835 86.3989 55.6031L86.2329 55.3834L64.2114 33.3521C64.0726 33.2142 63.8954 33.1223 63.7036 33.0836C63.6073 33.0644 63.5073 33.0596 63.4106 33.0689L63.1226 33.1373Z" fill="#A6A6A6"/>
<path d="M59.1113 65.8643C59.1104 64.4068 58.5305 63.0082 57.5 61.9775C56.9892 61.4669 56.3802 61.0624 55.7129 60.7861C55.0457 60.5099 54.3305 60.3661 53.6084 60.3662C52.8864 60.3664 52.1709 60.5098 51.5039 60.7861C50.8366 61.0627 50.2275 61.4666 49.7168 61.9775C49.2061 62.4884 48.8017 63.0972 48.5254 63.7646C48.2494 64.4318 48.1102 65.1471 48.1104 65.8691C48.1105 66.5911 48.2491 67.3067 48.5254 67.9736C48.802 68.6409 49.2108 69.2501 49.7217 69.7607C50.7529 70.7905 52.1511 71.367 53.6084 71.3672C55.0673 71.3668 56.4687 70.7877 57.5 69.7559C58.531 68.7241 59.1117 67.3228 59.1113 65.8643ZM104.033 34.0479C104.033 31.9275 103.193 29.8936 101.694 28.3936H101.689L91.0938 17.7832C90.3508 17.04 89.4669 16.4472 88.4961 16.0449C87.5257 15.643 86.485 15.4395 85.4346 15.4395C84.3843 15.4395 83.3434 15.6431 82.373 16.0449C81.4022 16.4472 80.5183 17.04 79.7754 17.7832L65.6348 31.9287C64.854 32.7081 63.5883 32.7084 62.8076 31.9287C62.0264 31.1478 62.0267 29.8779 62.8076 29.0967L76.9482 14.9561C78.0622 13.8416 79.3842 12.9569 80.8398 12.3535C82.2961 11.7502 83.8583 11.4355 85.4346 11.4355C87.0107 11.4356 88.5732 11.7502 90.0293 12.3535C91.4846 12.9569 92.8071 13.8418 93.9209 14.9561L104.517 25.5615C106.766 27.8119 108.032 30.8659 108.032 34.0479C108.032 37.2298 106.771 40.2838 104.521 42.5342L90.3809 56.6748C89.6005 57.4554 88.335 57.4588 87.5537 56.6797C86.7725 55.8988 86.7728 54.6288 87.5537 53.8477L101.694 39.7021C103.193 38.2021 104.033 36.1682 104.033 34.0479ZM63.1104 65.8643C63.1109 68.384 62.1084 70.8009 60.3271 72.583C58.5463 74.3646 56.1322 75.3651 53.6133 75.3662C51.0941 75.3668 48.6766 74.3685 46.8945 72.5879C46.0125 71.7063 45.3117 70.6588 44.834 69.5068C44.3563 68.3543 44.1067 67.1168 44.1064 65.8691C44.1063 64.6227 44.3527 63.3881 44.8291 62.2363C45.3063 61.0835 46.0076 60.0328 46.8896 59.1504C47.7715 58.2683 48.8184 57.5675 49.9707 57.0898C51.1233 56.6121 52.3608 56.3675 53.6084 56.3672C54.8551 56.3671 56.0892 56.6132 57.2412 57.0898C58.394 57.567 59.4447 58.2684 60.3271 59.1504C62.1078 60.9312 63.1094 63.3459 63.1104 65.8643Z" fill="#A6A6A6"/>
</svg>
