<svg width="40" height="40" viewBox="0 0 40 40" fill="none" xmlns="http://www.w3.org/2000/svg">
<path d="M21.4923 9.71902C21.8152 9.78329 22.1123 9.94218 22.3452 10.1748L29.6857 17.5185L29.8371 17.6927C29.9759 17.8766 30.0767 18.0885 30.13 18.3144C30.2009 18.6154 30.1855 18.9309 30.0877 19.2242L26.9139 28.749C26.8294 29.003 26.6846 29.2331 26.4923 29.4195C26.3 29.606 26.0654 29.7433 25.8088 29.8199H25.8071L6.34424 35.6044V35.6061C6.05202 35.6928 5.74063 35.6965 5.4458 35.6191C5.15125 35.5416 4.88282 35.3855 4.67106 35.1666C4.45928 34.9476 4.3122 34.6743 4.24463 34.3772C4.17708 34.08 4.19216 33.7696 4.28857 33.4804L10.6086 14.5237L10.6737 14.3577C10.7478 14.1955 10.8479 14.0461 10.9699 13.915C11.1328 13.7401 11.3317 13.6011 11.5526 13.5097H11.5542L20.5321 9.81342L20.7648 9.73693C21.0021 9.67779 21.2505 9.671 21.4923 9.71902ZM21.0399 11.0455L12.062 14.7434V14.7418C12.018 14.76 11.979 14.7884 11.9464 14.8232C11.9301 14.8408 11.9147 14.8596 11.9025 14.8802L11.8732 14.9453L5.83805 33.0458L15.6281 23.2574C15.8883 22.9977 16.3102 22.9977 16.5705 23.2574C16.8308 23.5178 16.8308 23.9411 16.5705 24.2014L6.64534 34.1233L25.4279 28.5423L25.5011 28.5097C25.5238 28.4964 25.5456 28.4809 25.5646 28.4625C25.603 28.4252 25.6308 28.3782 25.6476 28.3274H25.6493L28.8231 18.8027C28.8426 18.744 28.8454 18.6806 28.8312 18.6204C28.8241 18.5902 28.8136 18.5609 28.7987 18.5341L28.7433 18.4609L21.4028 11.1171C21.3566 11.0712 21.2975 11.0405 21.2336 11.0276C21.2015 11.0212 21.1681 11.0196 21.1359 11.0227L21.0399 11.0455Z" fill="#58595A"/>
<path d="M19.7028 21.9544C19.7025 21.4686 19.5092 21.0024 19.1657 20.6589C18.9954 20.4887 18.7924 20.3538 18.57 20.2617C18.3476 20.1697 18.1092 20.1217 17.8685 20.1217C17.6278 20.1218 17.3893 20.1696 17.167 20.2617C16.9446 20.3539 16.7415 20.4886 16.5713 20.6589C16.4011 20.8292 16.2662 21.0321 16.1742 21.2546C16.0821 21.4769 16.0358 21.7154 16.0358 21.9561C16.0359 22.1967 16.0821 22.4352 16.1742 22.6576C16.2664 22.88 16.4026 23.083 16.5729 23.2533C16.9166 23.5965 17.3827 23.7887 17.8685 23.7887C18.3548 23.7886 18.8219 23.5956 19.1657 23.2516C19.5093 22.9077 19.7029 22.4406 19.7028 21.9544ZM34.6768 11.349C34.6768 10.6422 34.3967 9.9642 33.8971 9.46419H33.8955L30.3636 5.92741C30.116 5.67967 29.8213 5.48206 29.4977 5.34798C29.1742 5.214 28.8273 5.14618 28.4772 5.14616C28.1271 5.14616 27.7802 5.21406 27.4567 5.34798C27.1331 5.48206 26.8385 5.67967 26.5908 5.92741L21.8773 10.6426C21.617 10.9024 21.1951 10.9025 20.9349 10.6426C20.6745 10.3823 20.6746 9.95896 20.9349 9.69857L25.6484 4.98503C26.0198 4.61355 26.4604 4.31863 26.9456 4.11751C27.431 3.91639 27.9518 3.81152 28.4772 3.81152C29.0026 3.81155 29.5234 3.91642 30.0088 4.11751C30.4939 4.31863 30.9347 4.61362 31.306 4.98503L34.8379 8.52018C35.5878 9.27029 36.0098 10.2883 36.0098 11.349C36.0098 12.4096 35.5894 13.4276 34.8395 14.1777L30.126 18.8913C29.8659 19.1515 29.444 19.1526 29.1836 18.8929C28.9232 18.6326 28.9233 18.2093 29.1836 17.9489L33.8971 13.2337C34.3966 12.7337 34.6768 12.0558 34.6768 11.349ZM21.0358 21.9544C21.036 22.7943 20.7018 23.6 20.1081 24.194C19.5145 24.7879 18.7098 25.1214 17.8701 25.1217C17.0304 25.1219 16.2245 24.7892 15.6305 24.1956C15.3365 23.9018 15.1029 23.5526 14.9437 23.1686C14.7844 22.7844 14.7013 22.3719 14.7012 21.9561C14.7011 21.5406 14.7833 21.1291 14.9421 20.7451C15.1011 20.3609 15.3349 20.0106 15.6289 19.7165C15.9229 19.4224 16.2718 19.1888 16.6559 19.0296C17.0401 18.8704 17.4526 18.7888 17.8685 18.7887C18.284 18.7887 18.6954 18.8707 19.0794 19.0296C19.4637 19.1887 19.8139 19.4225 20.1081 19.7165C20.7016 20.3101 21.0355 21.115 21.0358 21.9544Z" fill="#58595A"/>
</svg>
