<svg width="160" height="120" viewBox="0 0 160 120" fill="none" xmlns="http://www.w3.org/2000/svg">
<path d="M150.018 12H87.4052C86.9074 12 86.5039 12.4035 86.5039 12.9013V74.0572C86.5039 74.5549 86.9074 74.9585 87.4052 74.9585H150.018C150.516 74.9585 150.919 74.5549 150.919 74.0572V12.9013C150.919 12.4035 150.516 12 150.018 12Z" fill="#58595A"/>
<path d="M152.483 12H89.87C89.3723 12 88.9688 12.4035 88.9688 12.9013V74.0572C88.9688 74.5549 89.3723 74.9585 89.87 74.9585H152.483C152.981 74.9585 153.384 74.5549 153.384 74.0572V12.9013C153.384 12.4035 152.981 12 152.483 12Z" fill="#A6A6A6"/>
<path d="M120.991 62.2204C131.443 62.2204 139.916 53.7476 139.916 43.2958C139.916 32.844 131.443 24.3711 120.991 24.3711C110.539 24.3711 102.066 32.844 102.066 43.2958C102.066 53.7476 110.539 62.2204 120.991 62.2204Z" fill="#FDFDFD"/>
<path d="M113.147 45.4586C114.255 45.4586 115.153 44.5603 115.153 43.4522C115.153 42.3441 114.255 41.4458 113.147 41.4458C112.039 41.4458 111.141 42.3441 111.141 43.4522C111.141 44.5603 112.039 45.4586 113.147 45.4586Z" fill="#A6A6A6"/>
<path d="M129.206 45.4586C130.314 45.4586 131.212 44.5603 131.212 43.4522C131.212 42.3441 130.314 41.4458 129.206 41.4458C128.098 41.4458 127.199 42.3441 127.199 43.4522C127.199 44.5603 128.098 45.4586 129.206 45.4586Z" fill="#A6A6A6"/>
<path d="M96.2605 69.9656H75.9774C74.7457 69.9656 73.75 68.9678 73.75 67.7382C73.75 66.5086 74.7478 65.5107 75.9774 65.5107H96.2605C97.4922 65.5107 98.4879 66.5086 98.4879 67.7382C98.4879 68.9678 97.4901 69.9656 96.2605 69.9656Z" fill="#E2E2E2"/>
<path d="M96.2605 85.9134H75.9774C74.7457 85.9134 73.75 84.9155 73.75 83.6859C73.75 82.4563 74.7478 81.4585 75.9774 81.4585H96.2605C97.4922 81.4585 98.4879 82.4563 98.4879 83.6859C98.4879 84.9155 97.4901 85.9134 96.2605 85.9134Z" fill="#E2E2E2"/>
<path d="M11.1437 94.0055L7 92.3661C11.5901 80.7653 21.1694 74.5315 35.4675 73.8384L35.6842 78.289C23.1157 78.8984 15.0879 84.04 11.1437 94.0055Z" fill="#E2E2E2"/>
<path d="M36.9761 71.2959H45.2142C45.4138 71.2959 45.5769 71.459 45.5769 71.6586V80.4696C45.5769 80.6692 45.4138 80.8323 45.2142 80.8323H36.9761C35.2143 80.8323 33.7852 79.4031 33.7852 77.6413V74.4868C33.7852 72.7251 35.2143 71.2959 36.9761 71.2959Z" fill="#A6A6A6"/>
<path d="M51.4126 58.7058H81.3994C82.129 58.7058 82.7191 59.298 82.7191 60.0255V92.0981C82.7191 92.8277 82.1268 93.4178 81.3994 93.4178H51.4126C45.0028 93.4178 39.7969 88.214 39.7969 81.802V70.3194C39.7969 63.9096 45.0007 58.7036 51.4126 58.7036V58.7058Z" fill="#A6A6A6"/>
</svg>
