<svg width="40" height="40" viewBox="0 0 40 40" fill="none" xmlns="http://www.w3.org/2000/svg">
<path d="M11 13.8L18 15.2M18 15.2L25 13.8M18 15.2V19.4M18 19.4L15.2 26.4M18 19.4L20.8 26.4M18 32C25.7322 32 32 25.7322 32 18C32 10.2678 25.7322 4 18 4C10.2678 4 4 10.2678 4 18C4 25.7322 10.2678 32 18 32Z" stroke="#EC1C24" stroke-width="1.5" stroke-linecap="round" stroke-linejoin="round"/>
<path d="M17.9969 11.0006C17.8112 11.0006 17.6332 10.9268 17.5019 10.7956C17.3706 10.6643 17.2969 10.4862 17.2969 10.3006C17.2969 10.1149 17.3706 9.93689 17.5019 9.80561C17.6332 9.67434 17.8112 9.60059 17.9969 9.60059C18.1825 9.60059 18.3606 9.67434 18.4919 9.80561C18.6231 9.93689 18.6969 10.1149 18.6969 10.3006C18.6969 10.4862 18.6231 10.6643 18.4919 10.7956C18.3606 10.9268 18.1825 11.0006 17.9969 11.0006Z" fill="#EC1C24" stroke="#EC1C24" stroke-width="1.5" stroke-linecap="round" stroke-linejoin="round"/>
</svg>
