<svg width="40" height="40" viewBox="0 0 40 40" fill="none" xmlns="http://www.w3.org/2000/svg">
<path d="M30.758 32.3335H9.23871C8.87283 32.3333 8.52199 32.1878 8.26333 31.929C8.00468 31.6702 7.85937 31.3193 7.85938 30.9535V15.8535C7.85955 15.4876 8.00502 15.1367 8.2638 14.8781C8.52258 14.6194 8.87349 14.4741 9.23938 14.4741H30.7574C31.1233 14.4743 31.4741 14.6198 31.7328 14.8785C31.9914 15.1373 32.1367 15.4882 32.1367 15.8541V30.9541C32.1365 31.32 31.9911 31.6708 31.7323 31.9295C31.4735 32.1882 31.1226 32.3335 30.7567 32.3335" stroke="#EC1C24" stroke-linecap="round" stroke-linejoin="round"/>
<path d="M12.334 23.6076V18.3502H17.8573M21.9986 28.4362H27.548V23.1336M9.64062 14.4756V12.0416C9.64151 11.6856 9.78332 11.3444 10.0351 11.0927C10.2868 10.8409 10.628 10.6991 10.984 10.6982H29.0146C29.3706 10.6991 29.7118 10.8409 29.9635 11.0927C30.2153 11.3444 30.3571 11.6856 30.358 12.0416V14.4749" stroke="#EC1C24" stroke-linecap="round" stroke-linejoin="round"/>
<path d="M11.6797 10.6978V9.00984C11.6806 8.65383 11.8224 8.31266 12.0741 8.06093C12.3258 7.8092 12.667 7.66738 13.023 7.6665H26.9777C27.3337 7.66738 27.6749 7.8092 27.9266 8.06093C28.1783 8.31266 28.3201 8.65383 28.321 9.00984V10.6978" stroke="#EC1C24" stroke-linecap="round" stroke-linejoin="round"/>
</svg>
