<svg width="40" height="40" viewBox="0 0 40 40" fill="none" xmlns="http://www.w3.org/2000/svg">
<path d="M7.43583 31.6668C6.75306 31.6668 6.17639 31.4316 5.70583 30.961C5.23528 30.4904 5 29.9138 5 29.231V10.7693C5 10.0866 5.23528 9.50989 5.70583 9.03933C6.17639 8.56877 6.75306 8.3335 7.43583 8.3335H32.5642C33.2469 8.3335 33.8236 8.56877 34.2942 9.03933C34.7647 9.50989 35 10.0866 35 10.7693V29.231C35 29.9138 34.7647 30.4904 34.2942 30.961C33.8236 31.4316 33.2469 31.6668 32.5642 31.6668H7.43583ZM7.43583 30.2564H32.5642C32.8206 30.2564 33.0556 30.1496 33.2692 29.936C33.4828 29.7224 33.5896 29.4874 33.5896 29.231V13.1239H6.41042V29.231C6.41042 29.4874 6.51722 29.7224 6.73083 29.936C6.94444 30.1496 7.17944 30.2564 7.43583 30.2564ZM18.25 26.1902L13.6625 21.6027L14.6858 20.5793L18.25 24.1435L25.3142 17.0793L26.3375 18.1027L18.25 26.1902ZM7.43583 30.2564H6.41042V9.74391H7.43583C7.17944 9.74391 6.94444 9.85072 6.73083 10.0643C6.51722 10.2779 6.41042 10.5129 6.41042 10.7693V29.231C6.41042 29.4874 6.51722 29.7224 6.73083 29.936C6.94444 30.1496 7.17944 30.2564 7.43583 30.2564Z" fill="#EC1C24"/>
</svg>
