<svg width="40" height="40" viewBox="0 0 40 40" fill="none" xmlns="http://www.w3.org/2000/svg">
<path d="M34.3365 17.7507C34.3363 17.3312 34.1691 16.9292 33.8726 16.6325C33.5757 16.3356 33.1727 16.1686 32.7528 16.1686C32.3329 16.1686 31.9299 16.3356 31.633 16.6325C31.3365 16.9292 31.1693 17.3312 31.1691 17.7507V24.502C31.1688 24.8696 30.8711 25.1673 30.5034 25.1676C30.1355 25.1676 29.8365 24.8698 29.8361 24.502V17.7507C29.8363 16.9773 30.1438 16.2353 30.6906 15.6885C31.2376 15.1417 31.9794 14.834 32.7528 14.834C33.5262 14.834 34.268 15.1417 34.815 15.6885C35.3618 16.2353 35.6693 16.9773 35.6695 17.7507V25.6299L35.6613 25.7845C35.6255 26.1428 35.4674 26.4798 35.2105 26.7367L29.4748 32.4723C29.2145 32.7327 28.7911 32.7327 28.5308 32.4723C28.271 32.212 28.2709 31.7902 28.5308 31.5299L34.2681 25.7943C34.3116 25.7508 34.3361 25.6913 34.3365 25.6299V17.7507Z" fill="#EC1C24"/>
<path d="M23.0859 32.002V27.2428C23.0862 26.2706 23.4726 25.3375 24.1602 24.6501L25.5029 23.3089L25.7145 23.1136C26.2237 22.6789 26.8436 22.3896 27.5081 22.2819C28.2674 22.1589 29.0467 22.2782 29.7347 22.6221L30.3988 22.9541L30.4036 22.9557C30.6326 23.0721 30.8251 23.25 30.9603 23.4684C31.0616 23.6323 31.1281 23.8146 31.1556 24.0039L31.1702 24.1943V24.196C31.1711 24.38 31.1348 24.563 31.0645 24.7331C30.9944 24.9023 30.8899 25.0547 30.7601 25.1839L30.7617 25.1855L29.4743 26.473C29.214 26.733 28.7922 26.7331 28.5319 26.473C28.2717 26.2127 28.2719 25.791 28.5319 25.5306L29.821 24.2415C29.8259 24.2366 29.8296 24.2301 29.8324 24.2236C29.8347 24.218 29.8369 24.2118 29.8372 24.2057L29.8258 24.1699C29.8201 24.1606 29.8125 24.1527 29.8031 24.1471L29.139 23.8151C28.7011 23.5962 28.2046 23.5203 27.7214 23.5986C27.2386 23.677 26.7914 23.9041 26.4453 24.2497L25.1042 25.5941C24.6667 26.0314 24.4209 26.6243 24.4206 27.2428V32.002C24.4202 32.3698 24.1212 32.6676 23.7533 32.6676C23.3853 32.6676 23.0863 32.3698 23.0859 32.002ZM8.83626 24.502V17.7507C8.83609 17.331 8.66907 16.9293 8.3724 16.6325C8.07546 16.3356 7.67253 16.1686 7.2526 16.1686C6.83291 16.1688 6.43122 16.3357 6.13444 16.6325C5.83766 16.9293 5.67075 17.331 5.67057 17.7507V25.6283L5.68848 25.7178C5.70011 25.7458 5.71707 25.7724 5.73893 25.7943L11.4746 31.5299C11.7349 31.7902 11.7348 32.212 11.4746 32.4723C11.2143 32.7327 10.7926 32.7327 10.5322 32.4723L4.79655 26.7367C4.50266 26.4431 4.3363 26.0452 4.33594 25.6299V17.7507C4.33611 16.9773 4.6436 16.2353 5.19043 15.6885C5.73726 15.1416 6.47929 14.8342 7.2526 14.834C8.02615 14.834 8.76943 15.1415 9.31641 15.6885C9.86313 16.2353 10.1691 16.9774 10.1693 17.7507V24.502C10.1689 24.8697 9.8714 25.1675 9.50358 25.1676C9.13561 25.1676 8.83661 24.8698 8.83626 24.502Z" fill="#EC1C24"/>
<path d="M15.5872 32.002V27.2428C15.5869 26.6245 15.3408 26.0314 14.9036 25.5941L13.5609 24.2513C13.2146 23.9053 12.768 23.677 12.2848 23.5986C11.862 23.5301 11.4296 23.5801 11.0348 23.7402L10.8672 23.8151L10.2064 24.1455L10.1787 24.1699C10.1738 24.1778 10.1714 24.1863 10.1706 24.1943C10.1715 24.2145 10.1794 24.2334 10.1934 24.248H10.1917L11.4743 25.5306C11.7345 25.791 11.7346 26.2127 11.4743 26.473C11.214 26.733 10.7922 26.7331 10.5319 26.473L9.24447 25.1855L9.23958 25.179C8.98576 24.9187 8.84036 24.5709 8.83594 24.2074V24.1992C8.83616 23.6696 9.13776 23.1918 9.60417 22.9557L10.2715 22.6221C10.9595 22.2781 11.7387 22.1589 12.498 22.2819C13.2574 22.405 13.959 22.7652 14.5033 23.3089L15.8444 24.6501H15.846C16.5336 25.3375 16.92 26.2706 16.9202 27.2428V32.002C16.9199 32.3698 16.6209 32.6676 16.2529 32.6676C15.8851 32.6675 15.5876 32.3697 15.5872 32.002ZM22.5046 7.33398C22.8724 7.33442 23.1702 7.63338 23.1702 8.0013V10.8333H26.0039C26.3717 10.8337 26.6695 11.1327 26.6696 11.5007V16.5023C26.6693 16.87 26.3716 17.1676 26.0039 17.168H23.1702V20.0016C23.1701 20.3694 22.8723 20.6669 22.5046 20.6673H17.5029C17.1348 20.6673 16.8358 20.3697 16.8356 20.0016V17.168H14.0036C13.6355 17.168 13.3365 16.8702 13.3363 16.5023V11.5007C13.3363 11.1325 13.6354 10.8333 14.0036 10.8333H16.8356V8.0013C16.8356 7.63311 17.1347 7.33398 17.5029 7.33398H22.5046ZM18.1686 11.5007C18.1686 11.8688 17.871 12.1679 17.5029 12.168H14.6693V15.835H17.5029C17.871 15.8351 18.1686 16.1341 18.1686 16.5023V19.3343H21.8372V16.5023C21.8372 16.1341 22.1364 15.835 22.5046 15.835H25.3366V12.168H22.5046C22.1364 12.168 21.8372 11.8688 21.8372 11.5007V8.66862H18.1686V11.5007Z" fill="#EC1C24"/>
</svg>
