<svg width="40" height="40" viewBox="0 0 40 40" fill="none" xmlns="http://www.w3.org/2000/svg">
<path d="M5.27344 34.9998V28.4373C5.27344 28.0691 5.57257 27.77 5.94076 27.77C6.30895 27.77 6.60807 28.0691 6.60807 28.4373V34.9998C6.60807 35.368 6.30895 35.6671 5.94076 35.6671C5.57257 35.6671 5.27344 35.368 5.27344 34.9998ZM13.7109 34.9998V21.8748C13.7109 21.5066 14.0101 21.2075 14.3783 21.2075C14.7464 21.2075 15.0456 21.5066 15.0456 21.8748V34.9998C15.0456 35.368 14.7464 35.6671 14.3783 35.6671C14.0101 35.6671 13.7109 35.368 13.7109 34.9998ZM22.1484 34.9998V25.6248C22.1484 25.2566 22.4476 24.9575 22.8158 24.9575C23.1839 24.9575 23.4831 25.2566 23.4831 25.6248V34.9998C23.4831 35.368 23.1839 35.6671 22.8158 35.6671C22.4476 35.6671 22.1484 35.368 22.1484 34.9998ZM30.5859 34.9998V17.1873C30.5859 16.8191 30.8851 16.52 31.2533 16.52C31.6214 16.52 31.9206 16.8191 31.9206 17.1873V34.9998C31.9206 35.368 31.6214 35.6671 31.2533 35.6671C30.8851 35.6671 30.5859 35.368 30.5859 34.9998ZM33.5938 4.52778C33.8541 4.26743 34.2774 4.26743 34.5378 4.52778C34.7981 4.78813 34.7981 5.21144 34.5378 5.47179L24.6126 15.3953C23.6201 16.3877 22.0114 16.3877 21.0189 15.3953L17.1077 11.4842C16.6359 11.0125 15.8706 11.0125 15.3988 11.4842L6.41276 20.4718C6.15241 20.7321 5.7291 20.7321 5.46875 20.4718C5.2084 20.2114 5.2084 19.7881 5.46875 19.5278L14.4564 10.5418C15.4489 9.54938 17.0576 9.54939 18.0501 10.5418L21.9613 14.4529C22.4331 14.9246 23.1984 14.9246 23.6702 14.4529L33.5938 4.52778Z" fill="#EC1C24"/>
<path d="M33.3984 11.5623V5.66715H26.5658C26.1976 5.66715 25.8984 5.36803 25.8984 4.99984C25.8984 4.63165 26.1976 4.33252 26.5658 4.33252H34.7331V11.5623C34.7331 11.9305 34.4339 12.2297 34.0658 12.2297C33.6976 12.2297 33.3984 11.9305 33.3984 11.5623Z" fill="#EC1C24"/>
</svg>
