<svg width="40" height="41" viewBox="0 0 40 41" fill="none" xmlns="http://www.w3.org/2000/svg">
<path d="M17.5621 26.9187L28.2288 16.252L27.1775 15.207L17.5621 24.8437L12.7308 20.0124L11.7071 21.0574L17.5621 26.9187ZM20.0054 35.4399C17.9357 35.4399 15.9913 35.0463 14.1721 34.2591C12.3532 33.4719 10.7638 32.399 9.40375 31.0404C8.04375 29.6815 6.96986 28.0934 6.18208 26.2762C5.39403 24.459 5 22.5154 5 20.4454C5 18.3712 5.39361 16.4211 6.18083 14.5949C6.96806 12.7691 8.04097 11.1808 9.39958 9.82994C10.7585 8.47911 12.3465 7.4098 14.1637 6.62202C15.981 5.83397 17.9246 5.43994 19.9946 5.43994C22.0688 5.43994 24.0189 5.83355 25.845 6.62078C27.6708 7.408 29.2592 8.47633 30.61 9.82578C31.9608 11.1752 33.0301 12.7622 33.8179 14.5866C34.606 16.4108 35 18.3601 35 20.4345C35 22.5042 34.6064 24.4487 33.8192 26.2679C33.0319 28.0867 31.9636 29.6762 30.6142 31.0362C29.2647 32.3962 27.6778 33.4701 25.8533 34.2579C24.0292 35.0459 22.0799 35.4399 20.0054 35.4399ZM20 34.0295C23.785 34.0295 26.9963 32.7098 29.6338 30.0704C32.271 27.4306 33.5896 24.2205 33.5896 20.4399C33.5896 16.6549 32.271 13.4437 29.6338 10.8062C26.9963 8.16897 23.785 6.85036 20 6.85036C16.2194 6.85036 13.0093 8.16897 10.3696 10.8062C7.73014 13.4437 6.41042 16.6549 6.41042 20.4399C6.41042 24.2205 7.73014 27.4306 10.3696 30.0704C13.0093 32.7098 16.2194 34.0295 20 34.0295Z" fill="#EC1C24"/>
</svg>
