<svg width="40" height="41" viewBox="0 0 40 41" fill="none" xmlns="http://www.w3.org/2000/svg">
<path d="M34.125 11.7422H5.45964V29.387C5.45964 32.2465 7.77758 34.5645 10.637 34.5645H28.9476C31.8071 34.5645 34.125 32.2465 34.125 29.387V11.7422ZM10.637 5.89909C8.0036 5.89909 5.83083 7.86478 5.50358 10.4092H34.0811C33.7538 7.86478 31.581 5.89909 28.9476 5.89909H10.637ZM35.4596 29.387C35.4596 32.9829 32.5434 35.8991 28.9476 35.8991H10.637C7.04121 35.8991 4.125 32.9829 4.125 29.387V11.0765C4.125 7.48066 7.04121 4.56445 10.637 4.56445H28.9476C32.5434 4.56445 35.4596 7.48066 35.4596 11.0765V29.387Z" fill="#EC1C24"/>
<path d="M16.4025 18.3955C16.6627 18.1356 17.0846 18.1358 17.3449 18.3955C17.6053 18.6559 17.6053 19.0792 17.3449 19.3395L13.8862 22.7982C13.6902 22.9943 13.6903 23.3117 13.8862 23.5078L17.3449 26.9681C17.6052 27.2285 17.6052 27.6502 17.3449 27.9105C17.0845 28.1705 16.6628 28.1707 16.4025 27.9105L12.9439 24.4519C12.227 23.735 12.227 22.5726 12.9439 21.8558L16.4025 18.3955ZM22.6362 18.3955C22.8964 18.1356 23.3183 18.1359 23.5786 18.3955L27.0389 21.8558C27.7553 22.5727 27.7556 23.7352 27.0389 24.4519L23.5786 27.9105C23.3183 28.1705 22.8965 28.1707 22.6362 27.9105C22.376 27.6503 22.3763 27.2285 22.6362 26.9681L26.0949 23.5078C26.291 23.3117 26.291 22.9943 26.0949 22.7982L22.6362 19.3395C22.3759 19.0792 22.3759 18.6559 22.6362 18.3955Z" fill="#EC1C24"/>
</svg>
