<svg width="40" height="40" viewBox="0 0 40 40" fill="none" xmlns="http://www.w3.org/2000/svg">
<path d="M4.28906 31.0258V28.5041C4.28906 27.7263 4.49045 27.0591 4.89323 26.5025C5.29601 25.9461 5.85601 25.5034 6.57323 25.1745C8.10879 24.482 9.5667 23.9379 10.947 23.542C12.3273 23.1465 14.0003 22.9487 15.9661 22.9487C17.932 22.9487 19.6005 23.1465 20.9716 23.542C22.3427 23.9379 23.8031 24.482 25.3528 25.1745C26.0559 25.5034 26.6099 25.9461 27.0149 26.5025C27.4199 27.0591 27.6224 27.7263 27.6224 28.5041V31.0258H4.28906ZM30.6991 31.0258V28.5429C30.6991 27.4104 30.4698 26.4154 30.0111 25.5579C29.5525 24.7004 28.9421 23.9802 28.1799 23.3975C29.1463 23.5869 30.0786 23.8318 30.977 24.132C31.875 24.432 32.693 24.765 33.4307 25.1308C34.111 25.4894 34.6599 25.9666 35.0774 26.5625C35.4946 27.158 35.7032 27.8181 35.7032 28.5429V31.0258H30.6991ZM15.9661 18.9679C14.5842 18.9679 13.4249 18.4997 12.4882 17.5633C11.5518 16.6269 11.0836 15.4676 11.0836 14.0854C11.0836 12.7031 11.5518 11.5475 12.4882 10.6183C13.4249 9.68884 14.5842 9.22412 15.9661 9.22412C17.3484 9.22412 18.5041 9.68884 19.4332 10.6183C20.3627 11.5475 20.8274 12.7031 20.8274 14.0854C20.8274 15.4676 20.3627 16.6269 19.4332 17.5633C18.5041 18.4997 17.3484 18.9679 15.9661 18.9679ZM27.5582 14.0854C27.5582 15.4676 27.0935 16.6269 26.1641 17.5633C25.2349 18.4997 24.0767 18.9679 22.6895 18.9679C22.617 18.9679 22.5443 18.962 22.4716 18.9504C22.3988 18.9384 22.3273 18.9208 22.257 18.8975C22.7945 18.2644 23.2034 17.5388 23.4836 16.7208C23.7639 15.903 23.9041 15.0268 23.9041 14.092C23.9041 13.1573 23.7534 12.2969 23.452 11.5108C23.1503 10.7244 22.752 9.97857 22.257 9.27329C22.3195 9.26412 22.391 9.2537 22.4716 9.24204C22.5521 9.23009 22.6236 9.22412 22.6861 9.22412C24.0756 9.22412 25.2349 9.68884 26.1641 10.6183C27.0935 11.5475 27.5582 12.7031 27.5582 14.0854ZM5.69906 29.6154H26.212V28.5041C26.212 28.0775 26.0985 27.6943 25.8716 27.3545C25.6449 27.0148 25.2605 26.7022 24.7182 26.4166C23.3124 25.7022 21.9474 25.1806 20.6232 24.852C19.2991 24.5234 17.7467 24.3591 15.9661 24.3591C14.1856 24.3591 12.6323 24.5234 11.3061 24.852C9.97976 25.1806 8.61365 25.7022 7.20781 26.4166C6.66559 26.7022 6.27865 27.0148 6.04698 27.3545C5.81503 27.6943 5.69906 28.0775 5.69906 28.5041V29.6154ZM15.9557 17.5575C16.9263 17.5575 17.7459 17.2233 18.4145 16.555C19.0828 15.8866 19.417 15.067 19.417 14.0962C19.417 13.1254 19.0828 12.3056 18.4145 11.637C17.7459 10.9687 16.9263 10.6345 15.9557 10.6345C14.9849 10.6345 14.1652 10.9687 13.4966 11.637C12.8282 12.3056 12.4941 13.1254 12.4941 14.0962C12.4941 15.067 12.8282 15.8866 13.4966 16.555C14.1652 17.2233 14.9849 17.5575 15.9557 17.5575Z" fill="#EC1C24"/>
</svg>
