<svg width="40" height="40" viewBox="0 0 40 40" fill="none" xmlns="http://www.w3.org/2000/svg">
<g clip-path="url(#clip0_1792_13573)">
<path d="M11.1242 31.9995C10.254 31.9995 9.51441 31.6928 8.90552 31.0795C8.29663 30.4662 7.99219 29.7217 7.99219 28.8462C7.99219 28.0995 8.22952 27.4373 8.70419 26.8595C9.17797 26.2817 9.76997 25.9191 10.4802 25.7715V22.5115C10.4802 21.6404 10.7917 20.8928 11.4149 20.2688C12.0389 19.6448 12.7869 19.3328 13.6589 19.3328H19.3255V14.2275C18.6162 14.0808 18.0242 13.7186 17.5495 13.1408C17.0749 12.5631 16.838 11.9008 16.8389 11.1542C16.8389 10.2777 17.1433 9.53285 17.7522 8.91951C18.3611 8.30618 19.1002 7.99951 19.9695 7.99951C20.8389 7.99951 21.5855 8.30618 22.2095 8.91951C22.8335 9.53285 23.146 10.2777 23.1469 11.1542C23.1469 11.9008 22.9095 12.5631 22.4349 13.1408C21.9602 13.7186 21.3682 14.0804 20.6589 14.2262V19.3328H26.3255C27.1966 19.3328 27.9446 19.6448 28.5695 20.2688C29.1926 20.8928 29.5042 21.6408 29.5042 22.5128V25.7715C30.2144 25.9182 30.8064 26.2804 31.2802 26.8582C31.7549 27.436 31.9922 28.0982 31.9922 28.8448C31.9922 29.7213 31.6802 30.4662 31.0562 31.0795C30.4322 31.6928 29.6855 31.9995 28.8162 31.9995C27.9469 31.9995 27.2073 31.6928 26.5975 31.0795C25.9877 30.4662 25.6833 29.7217 25.6842 28.8462C25.6842 28.0995 25.9215 27.4373 26.3962 26.8595C26.8709 26.2817 27.4629 25.9191 28.1722 25.7715V22.5115C28.1722 21.9888 27.9953 21.5506 27.6415 21.1968C27.2877 20.8431 26.8491 20.6662 26.3255 20.6662H20.6589V25.7715C21.3682 25.9182 21.9602 26.2804 22.4349 26.8582C22.9095 27.436 23.1464 28.0982 23.1455 28.8448C23.1455 29.7213 22.8335 30.4662 22.2095 31.0795C21.5855 31.6928 20.8389 31.9995 19.9695 31.9995C19.1002 31.9995 18.3606 31.6928 17.7509 31.0795C17.1411 30.4662 16.8366 29.7217 16.8375 28.8462C16.8375 28.0995 17.0749 27.4373 17.5495 26.8595C18.0242 26.2817 18.6162 25.9191 19.3255 25.7715V20.6662H13.6589C13.1362 20.6662 12.698 20.8431 12.3442 21.1968C11.9895 21.5506 11.8122 21.9893 11.8122 22.5128V25.7715C12.5215 25.9182 13.1135 26.2804 13.5882 26.8582C14.0629 27.436 14.3002 28.0982 14.3002 28.8448C14.3002 29.7213 13.9882 30.4662 13.3642 31.0795C12.7402 31.6928 11.9935 31.9995 11.1242 31.9995ZM11.1335 30.6662C11.6393 30.6662 12.0713 30.492 12.4295 30.1435C12.7877 29.7942 12.9669 29.3622 12.9669 28.8475C12.9669 28.332 12.79 27.8991 12.4362 27.5488C12.0824 27.1995 11.6437 27.0248 11.1202 27.0248C10.6224 27.0248 10.1989 27.204 9.84952 27.5622C9.50019 27.9204 9.32552 28.348 9.32552 28.8448C9.32552 29.3417 9.50019 29.7697 9.84952 30.1288C10.1989 30.488 10.6269 30.6671 11.1335 30.6662ZM19.9802 30.6662C20.486 30.6662 20.918 30.492 21.2762 30.1435C21.6344 29.7951 21.8135 29.3631 21.8135 28.8475C21.8135 28.332 21.6362 27.8991 21.2815 27.5488C20.9269 27.1986 20.4886 27.024 19.9669 27.0248C19.4691 27.0248 19.0455 27.204 18.6962 27.5622C18.3469 27.9204 18.1722 28.3484 18.1722 28.8462C18.1722 29.344 18.3469 29.7715 18.6962 30.1288C19.0455 30.4871 19.4735 30.6662 19.9802 30.6662ZM28.8255 30.6662C29.3322 30.6662 29.7642 30.492 30.1215 30.1435C30.4797 29.7951 30.6589 29.3631 30.6589 28.8475C30.6589 28.332 30.482 27.8991 30.1282 27.5488C29.7744 27.1986 29.3362 27.024 28.8135 27.0248C28.3157 27.0248 27.8922 27.204 27.5429 27.5622C27.1926 27.9204 27.0175 28.3484 27.0175 28.8462C27.0175 29.344 27.1926 29.7715 27.5429 30.1288C27.8931 30.4862 28.3206 30.6653 28.8255 30.6662ZM19.9802 12.9728C20.486 12.9728 20.918 12.7991 21.2762 12.4515C21.6344 12.104 21.8135 11.672 21.8135 11.1555C21.8135 10.6391 21.6362 10.2062 21.2815 9.85685C20.9269 9.50751 20.4886 9.33285 19.9669 9.33285C19.4691 9.33285 19.0455 9.51196 18.6962 9.87018C18.3469 10.2284 18.1722 10.6564 18.1722 11.1542C18.1722 11.652 18.3469 12.0795 18.6962 12.4368C19.0455 12.7942 19.4735 12.972 19.9802 12.9728Z" fill="#EC1C24"/>
</g>
<defs>
<clipPath id="clip0_1792_13573">
<rect width="32" height="32" fill="white" transform="translate(3.99219 4)"/>
</clipPath>
</defs>
</svg>
