<svg width="40" height="40" viewBox="0 0 40 40" fill="none" xmlns="http://www.w3.org/2000/svg">
<path d="M19.8255 6.56006C13.1065 6.56006 7.84375 9.58116 7.84375 13.4409V25.6772C7.84375 29.537 13.1045 32.5601 19.8236 32.5601C26.5426 32.5601 31.8053 29.537 31.8053 25.6772V13.4429C31.8053 9.58313 26.5426 6.56203 19.8236 6.56203M19.8236 8.09133C25.4889 8.09133 30.2741 10.5421 30.2741 13.4429C30.2741 16.3436 25.4889 18.7964 19.8236 18.7964C14.1583 18.7964 9.37107 16.3456 9.37107 13.4429C9.37107 10.5402 14.1583 8.08935 19.8255 8.08935M30.2761 25.6772C30.2761 28.5799 25.4908 31.0308 19.8255 31.0308C14.1602 31.0308 9.37305 28.5799 9.37305 25.6792V22.9758C11.4114 25.0635 15.285 26.4429 19.8255 26.4429C24.3661 26.4429 28.2396 25.0635 30.2761 22.9758V25.6772ZM30.2761 19.562C30.2761 22.4628 25.4908 24.9136 19.8255 24.9136C14.1602 24.9136 9.37305 22.4628 9.37305 19.562V16.8547C11.4114 18.9404 15.285 20.3217 19.8255 20.3217C24.3661 20.3217 28.2396 18.9404 30.2761 16.8547V19.562Z" fill="#EC1C24"/>
</svg>
