<svg width="40" height="40" viewBox="0 0 40 40" fill="none" xmlns="http://www.w3.org/2000/svg">
<path d="M20 32C19.6433 32 19.2994 31.9291 18.9684 31.7873C18.6373 31.6465 18.3473 31.4283 18.0982 31.1325L6.57348 17.466C6.38284 17.2462 6.23935 17.0057 6.143 16.7444C6.04665 16.4831 5.99899 16.2046 6.00002 15.9088C6.00002 15.7195 6.0241 15.5341 6.07228 15.3528C6.12147 15.1705 6.19015 14.9877 6.27829 14.8044L9.01341 9.35055C9.23583 8.94037 9.54486 8.61274 9.94049 8.36764C10.3361 8.12255 10.7692 8 11.2396 8H28.7604C29.2319 8 29.6649 8.12255 30.0595 8.36764C30.4541 8.61274 30.7632 8.93987 30.9866 9.34903L33.7217 14.8029C33.8109 14.9872 33.8796 15.1705 33.9277 15.3528C33.9759 15.5351 34 15.7205 34 15.9088C34 16.2046 33.9518 16.4831 33.8555 16.7444C33.7591 17.0057 33.6156 17.2462 33.425 17.466L21.9018 31.1325C21.6528 31.4283 21.3627 31.647 21.0316 31.7888C20.7006 31.9296 20.3567 32 20 32ZM15.1063 15.5959H24.8937L21.8188 9.51918H18.1812L15.1063 15.5959ZM19.2313 30.1193V17.1151H8.30311L19.2313 30.1193ZM20.7687 30.1193L31.6969 17.1151H20.7687V30.1193ZM26.5987 15.5959H32.3888L29.5783 10.0448C29.4994 9.88885 29.381 9.76225 29.2232 9.66502C29.0653 9.56779 28.8977 9.51918 28.7204 9.51918H23.5238L26.5987 15.5959ZM7.61126 15.5959H13.4013L16.4762 9.51918H11.2781C11.1008 9.51918 10.9332 9.56779 10.7753 9.66502C10.6175 9.76225 10.4996 9.88885 10.4217 10.0448L7.61126 15.5959Z" fill="#EC1C24"/>
</svg>
