<svg width="40" height="40" viewBox="0 0 40 40" fill="none" xmlns="http://www.w3.org/2000/svg">
<path d="M8 11.8042H12C12.5304 11.8042 13.0391 11.5935 13.4142 11.2184C13.7893 10.8433 14 10.3346 14 9.8042V5.8042C14 5.27377 13.7893 4.76506 13.4142 4.38999C13.0391 4.01491 12.5304 3.8042 12 3.8042H8C7.46957 3.8042 6.96086 4.01491 6.58579 4.38999C6.21071 4.76506 6 5.27377 6 5.8042V9.8042C6 10.3346 6.21071 10.8433 6.58579 11.2184C6.96086 11.5935 7.46957 11.8042 8 11.8042ZM8 5.8042H12V9.8042H8V5.8042ZM32 23.8042H28C27.4696 23.8042 26.9609 24.0149 26.5858 24.39C26.2107 24.7651 26 25.2738 26 25.8042V29.8042C26 30.3346 26.2107 30.8433 26.5858 31.2184C26.9609 31.5935 27.4696 31.8042 28 31.8042H32C32.5304 31.8042 33.0391 31.5935 33.4142 31.2184C33.7893 30.8433 34 30.3346 34 29.8042V25.8042C34 25.2738 33.7893 24.7651 33.4142 24.39C33.0391 24.0149 32.5304 23.8042 32 23.8042ZM32 29.8042H28V25.8042H32V29.8042ZM25.414 14.3902L24 15.8042L30 21.8042L36 15.8042L34.586 14.3902L31 17.9762V8.8042C31 8.27377 30.7893 7.76506 30.4142 7.38999C30.0391 7.01491 29.5304 6.8042 29 6.8042H16V8.8042H29V17.9762L25.414 14.3902ZM11 17.6322L14.586 21.2182L16 19.8042L10 13.8042L4 19.8042L5.414 21.2182L9 17.6322V26.8042C9 27.3346 9.21071 27.8433 9.58579 28.2184C9.96086 28.5935 10.4696 28.8042 11 28.8042H24V26.8042H11V17.6322Z" fill="#EC1C24"/>
</svg>
