<svg width="40" height="40" viewBox="0 0 40 40" fill="none" xmlns="http://www.w3.org/2000/svg">
<g clip-path="url(#clip0_1751_14442)">
<path fill-rule="evenodd" clip-rule="evenodd" d="M18.1285 6.56261C18.7002 6.47587 19.2818 6.47587 19.8535 6.56261C20.4972 6.66261 21.116 6.91136 22.1535 7.32761L31.141 10.9526C31.8335 11.2326 32.391 11.4576 32.8035 11.6651C33.1997 11.8676 33.596 12.1189 33.7997 12.5151C33.9385 12.7839 34.0072 13.0776 34.0072 13.3714V23.3714C34.0072 23.5371 33.9414 23.6961 33.8242 23.8133C33.707 23.9305 33.548 23.9964 33.3822 23.9964C33.2165 23.9964 33.0575 23.9305 32.9403 23.8133C32.8231 23.6961 32.7572 23.5371 32.7572 23.3714V15.0964C32.3522 15.2989 31.8085 15.5176 31.1447 15.7864L30.2597 16.1426V23.3676C30.2597 25.7676 28.7097 27.4926 26.6097 28.5926C24.5097 29.6926 21.7347 30.2426 19.0097 30.2426C16.2847 30.2426 13.5222 29.6964 11.4222 28.5926C9.30974 27.4926 7.75974 25.7551 7.75974 23.3676V16.1426L6.87349 15.7851C6.18099 15.5051 5.62349 15.2801 5.21099 15.0714C4.81474 14.8701 4.41974 14.6189 4.21474 14.2214C4.07875 13.9564 4.00781 13.6629 4.00781 13.3651C4.00781 13.0673 4.07875 12.7738 4.21474 12.5089C4.41849 12.1139 4.81474 11.8626 5.21099 11.6614C5.62099 11.4526 6.17974 11.2264 6.87349 10.9476L15.8485 7.32261C16.8822 6.90511 17.4985 6.65636 18.1485 6.55636L18.1285 6.56261ZM19.6535 7.79636C19.2103 7.72781 18.7592 7.72781 18.316 7.79636C17.8322 7.87136 17.356 8.05886 16.216 8.51761L7.34099 12.0926C6.61224 12.3864 6.10599 12.5926 5.75349 12.7726C5.37849 12.9639 5.30974 13.0639 5.30099 13.0801C5.25559 13.1685 5.23191 13.2664 5.23191 13.3657C5.23191 13.4651 5.25559 13.563 5.30099 13.6514C5.30974 13.6676 5.37849 13.7689 5.75349 13.9589C6.10849 14.1401 6.61474 14.3464 7.34099 14.6389L16.216 18.2139C17.3497 18.6714 17.8285 18.8601 18.316 18.9351C18.7592 19.0037 19.2103 19.0037 19.6535 18.9351C20.1372 18.8601 20.6135 18.6726 21.7535 18.2151L30.6285 14.6401C31.3572 14.3464 31.8647 14.1401 32.216 13.9601C32.591 13.7689 32.6597 13.6689 32.6685 13.6526C32.7139 13.5642 32.7376 13.4663 32.7376 13.367C32.7376 13.2676 32.7139 13.1697 32.6685 13.0814C32.6597 13.0651 32.591 12.9651 32.216 12.7739C31.861 12.5926 31.3535 12.3876 30.6285 12.0939L21.7535 8.51886C20.6197 8.06136 20.141 7.87386 19.6535 7.79886V7.79636ZM22.141 19.4089L28.991 16.6464V23.3714C28.991 25.1339 27.881 26.5214 26.0035 27.4964C24.1285 28.4764 21.5785 28.9964 18.991 28.9964C16.4035 28.9964 13.8535 28.4726 11.9785 27.4964C10.1035 26.5189 8.99099 25.1339 8.99099 23.3714V16.6589L15.8285 19.4214C16.8622 19.8389 17.4785 20.0876 18.1285 20.1876C18.6985 20.2751 19.2797 20.2751 19.8535 20.1876C20.4972 20.0876 21.116 19.8389 22.1535 19.4226L22.141 19.4089Z" fill="#EC1C24"/>
</g>
<defs>
<clipPath id="clip0_1751_14442">
<rect width="30" height="30" fill="white" transform="translate(4 4)"/>
</clipPath>
</defs>
</svg>
