<svg width="40" height="40" viewBox="0 0 40 40" fill="none" xmlns="http://www.w3.org/2000/svg">
<path d="M22.1068 31.077V22.3037C21.6598 22.3016 21.2138 22.2622 20.7734 22.1857V30.4103H18.1068V21.1937C17.6268 20.907 17.1801 20.5697 16.7734 20.1903V31.077C16.7734 31.2538 16.8437 31.4234 16.9687 31.5484C17.0937 31.6734 17.2633 31.7437 17.4401 31.7437H21.4401C21.6169 31.7437 21.7865 31.6734 21.9115 31.5484C22.0365 31.4234 22.1068 31.2538 22.1068 31.077ZM22.1068 18.425C21.6519 18.4214 21.201 18.3402 20.7734 18.185V17.077H19.1494C18.8055 16.6874 18.5408 16.2345 18.3701 15.7437H21.4401C21.6169 15.7437 21.7865 15.8139 21.9115 15.9389C22.0365 16.0639 22.1068 16.2335 22.1068 16.4103V18.425Z" fill="#EC1C24"/>
<path fill-rule="evenodd" clip-rule="evenodd" d="M22.1068 21.077C21.6588 21.0759 21.2121 21.0297 20.7734 20.939V20.9297C17.7661 20.301 15.5068 17.6343 15.5068 14.4403C15.5068 10.7783 18.4754 7.81032 22.1368 7.81032C25.7981 7.81032 28.7668 10.779 28.7668 14.4403C28.7691 15.8102 28.345 17.1469 27.5534 18.265L27.5201 18.311L31.3461 22.1363L30.3474 23.1343L26.5768 19.3643L26.5301 19.4057C25.3194 20.4806 23.7558 21.0731 22.1368 21.0703H22.1068V21.077ZM27.3548 14.4403C27.3548 15.8242 26.805 17.1514 25.8265 18.13C24.8479 19.1086 23.5207 19.6583 22.1368 19.6583C20.7529 19.6583 19.4257 19.1086 18.4471 18.13C17.4685 17.1514 16.9188 15.8242 16.9188 14.4403C16.9188 13.0564 17.4685 11.7292 18.4471 10.7506C19.4257 9.77207 20.7529 9.22232 22.1368 9.22232C23.5207 9.22232 24.8479 9.77207 25.8265 10.7506C26.805 11.7292 27.3548 13.0564 27.3548 14.4403ZM9.4401 7.74365C9.26329 7.74365 9.09372 7.81389 8.9687 7.93891C8.84368 8.06394 8.77344 8.23351 8.77344 8.41032V31.077C8.77344 31.2538 8.84368 31.4234 8.9687 31.5484C9.09372 31.6734 9.26329 31.7437 9.4401 31.7437H13.4401C13.6169 31.7437 13.7865 31.6734 13.9115 31.5484C14.0365 31.4234 14.1068 31.2538 14.1068 31.077V8.41032C14.1068 8.23351 14.0365 8.06394 13.9115 7.93891C13.7865 7.81389 13.6169 7.74365 13.4401 7.74365H9.4401ZM10.1068 30.4103V9.07699H12.7734V30.4103H10.1068ZM24.7734 25.077C24.7734 24.9002 24.8437 24.7306 24.9687 24.6056C25.0937 24.4806 25.2633 24.4103 25.4401 24.4103H29.4401C29.6169 24.4103 29.7865 24.4806 29.9115 24.6056C30.0365 24.7306 30.1068 24.9002 30.1068 25.077V31.077C30.1068 31.2538 30.0365 31.4234 29.9115 31.5484C29.7865 31.6734 29.6169 31.7437 29.4401 31.7437H25.4401C25.2633 31.7437 25.0937 31.6734 24.9687 31.5484C24.8437 31.4234 24.7734 31.2538 24.7734 31.077V25.077ZM26.1068 25.7437V30.4103H28.7734V25.7437H26.1068Z" fill="#EC1C24"/>
</svg>
