<svg width="40" height="40" viewBox="0 0 40 40" fill="none" xmlns="http://www.w3.org/2000/svg">
<path d="M13.5 23.25C12.6594 23.25 11.8377 23.4993 11.1388 23.9663C10.4399 24.4332 9.89519 25.097 9.57351 25.8736C9.25184 26.6502 9.16768 27.5047 9.33166 28.3291C9.49565 29.1536 9.90042 29.9108 10.4948 30.5052C11.0892 31.0996 11.8464 31.5043 12.6709 31.6683C13.4953 31.8323 14.3498 31.7482 15.1264 31.4265C15.903 31.1048 16.5668 30.5601 17.0337 29.8612C17.5007 29.1623 17.75 28.3406 17.75 27.5C17.75 26.3728 17.3022 25.2918 16.5052 24.4948C15.7082 23.6978 14.6272 23.25 13.5 23.25ZM13.5 30.25C12.9561 30.25 12.4244 30.0887 11.9722 29.7865C11.5199 29.4844 11.1675 29.0549 10.9593 28.5524C10.7512 28.0499 10.6967 27.4969 10.8028 26.9635C10.909 26.4301 11.1709 25.9401 11.5555 25.5555C11.9401 25.1709 12.4301 24.909 12.9635 24.8028C13.497 24.6967 14.0499 24.7512 14.5524 24.9593C15.0549 25.1675 15.4844 25.5199 15.7865 25.9722C16.0887 26.4244 16.25 26.9561 16.25 27.5C16.25 27.8611 16.1789 28.2187 16.0407 28.5524C15.9025 28.886 15.6999 29.1892 15.4445 29.4445C15.1892 29.6999 14.886 29.9025 14.5524 30.0407C14.2187 30.1789 13.8611 30.25 13.5 30.25ZM9.47 17.47L11.44 15.5L9.47 13.53C9.33752 13.3878 9.2654 13.1998 9.26883 13.0055C9.27226 12.8112 9.35097 12.6258 9.48838 12.4884C9.62579 12.351 9.81118 12.2723 10.0055 12.2688C10.1998 12.2654 10.3878 12.3375 10.53 12.47L12.5 14.44L14.47 12.47C14.6122 12.3375 14.8002 12.2654 14.9945 12.2688C15.1888 12.2723 15.3742 12.351 15.5116 12.4884C15.649 12.6258 15.7277 12.8112 15.7312 13.0055C15.7346 13.1998 15.6625 13.3878 15.53 13.53L13.56 15.5L15.53 17.47C15.6037 17.5387 15.6628 17.6215 15.7038 17.7135C15.7448 17.8055 15.7668 17.9048 15.7686 18.0055C15.7704 18.1062 15.7518 18.2062 15.7141 18.2996C15.6764 18.393 15.6203 18.4778 15.549 18.549C15.4778 18.6203 15.393 18.6764 15.2996 18.7141C15.2062 18.7518 15.1062 18.7704 15.0055 18.7686C14.9048 18.7668 14.8055 18.7448 14.7135 18.7038C14.6215 18.6628 14.5387 18.6037 14.47 18.53L12.5 16.56L10.53 18.53C10.3878 18.6625 10.1998 18.7346 10.0055 18.7312C9.81118 18.7277 9.62579 18.649 9.48838 18.5116C9.35097 18.3742 9.27226 18.1888 9.26883 17.9945C9.2654 17.8002 9.33752 17.6122 9.47 17.47ZM32.53 29.47C32.6037 29.5387 32.6628 29.6215 32.7038 29.7135C32.7448 29.8055 32.7668 29.9048 32.7686 30.0055C32.7704 30.1062 32.7518 30.2062 32.7141 30.2996C32.6764 30.393 32.6203 30.4778 32.549 30.549C32.4778 30.6203 32.393 30.6764 32.2996 30.7141C32.2062 30.7518 32.1062 30.7704 32.0055 30.7686C31.9048 30.7668 31.8055 30.7448 31.7135 30.7038C31.6215 30.6628 31.5387 30.6037 31.47 30.53L29.5 28.56L27.53 30.53C27.3878 30.6625 27.1998 30.7346 27.0055 30.7312C26.8112 30.7277 26.6258 30.649 26.4884 30.5116C26.351 30.3742 26.2723 30.1888 26.2688 29.9945C26.2654 29.8002 26.3375 29.6122 26.47 29.47L28.44 27.5L26.47 25.53C26.3375 25.3878 26.2654 25.1998 26.2688 25.0055C26.2723 24.8112 26.351 24.6258 26.4884 24.4884C26.6258 24.351 26.8112 24.2723 27.0055 24.2688C27.1998 24.2654 27.3878 24.3375 27.53 24.47L29.5 26.44L31.47 24.47C31.6122 24.3375 31.8002 24.2654 31.9945 24.2688C32.1888 24.2723 32.3742 24.351 32.5116 24.4884C32.649 24.6258 32.7277 24.8112 32.7312 25.0055C32.7346 25.1998 32.6625 25.3878 32.53 25.53L30.56 27.5L32.53 29.47ZM26.8188 18.0375C26.0688 20.745 23.75 23.085 21.1825 23.7275C21.1228 23.7425 21.0615 23.75 21 23.75C20.817 23.75 20.6403 23.6832 20.5031 23.562C20.366 23.4407 20.2779 23.2736 20.2555 23.0919C20.2331 22.9103 20.2778 22.7267 20.3813 22.5758C20.4848 22.4249 20.64 22.317 20.8175 22.2725C22.8538 21.7637 24.77 19.8137 25.3725 17.6362C25.7888 16.1362 25.7963 13.8563 23.47 11.53L22.75 10.81V14C22.75 14.1989 22.671 14.3897 22.5303 14.5303C22.3897 14.671 22.1989 14.75 22 14.75C21.8011 14.75 21.6103 14.671 21.4697 14.5303C21.329 14.3897 21.25 14.1989 21.25 14V9C21.25 8.80109 21.329 8.61032 21.4697 8.46967C21.6103 8.32902 21.8011 8.25 22 8.25H27C27.1989 8.25 27.3897 8.32902 27.5303 8.46967C27.671 8.61032 27.75 8.80109 27.75 9C27.75 9.19891 27.671 9.38968 27.5303 9.53033C27.3897 9.67098 27.1989 9.75 27 9.75H23.81L24.53 10.47C26.75 12.6837 27.5563 15.375 26.8188 18.0375Z" fill="#EC1C24"/>
</svg>
