<svg width="40" height="40" viewBox="0 0 40 40" fill="none" xmlns="http://www.w3.org/2000/svg">
<path d="M34.9814 34.5966C35.3493 34.5969 35.647 34.8944 35.6471 35.2622C35.6471 35.6302 35.3494 35.9292 34.9814 35.9296H5.01888C4.65069 35.9296 4.35156 35.6304 4.35156 35.2622C4.3517 34.8942 4.65077 34.5966 5.01888 34.5966H34.9814ZM12.5335 9.66166C13.2076 9.72628 13.8502 9.97637 14.3906 10.3843L20.4128 14.8781L20.4193 14.8814C20.7648 15.1443 21.1769 15.3057 21.6091 15.3469C22.0408 15.3879 22.4754 15.3084 22.8639 15.1158L22.8672 15.1141L29.1432 12.0282C29.9735 11.6097 30.9143 11.4761 31.8223 11.6408L32.2096 11.7287L32.2145 11.7303L33.668 12.1503C34.0615 12.2604 34.4237 12.4569 34.7324 12.7248C35.0425 12.9939 35.289 13.3285 35.4535 13.7046C35.6179 14.0808 35.6976 14.489 35.6846 14.8993C35.6716 15.3072 35.566 15.7063 35.3802 16.0695L35.3818 16.0712L34.8138 17.2089C34.4068 18.0229 33.7506 18.6975 32.9176 19.1229L32.9095 19.1262L13.6745 28.6688C13.0469 28.9797 12.3447 29.1009 11.6514 29.0253C11.5817 29.036 11.5108 29.0405 11.4398 29.0285L7.90299 28.4296C7.69364 28.3939 7.51461 28.2598 7.4196 28.0699L4.42318 22.077C4.25879 21.7478 4.39183 21.3481 4.72103 21.1835L6.36654 20.3599C6.8778 20.1023 7.4428 19.9693 8.0153 19.9693C8.51591 19.9693 9.01062 20.0707 9.46875 20.2688L9.66406 20.3599L9.7015 20.3811L9.92285 20.5113C10.2468 20.6737 10.6037 20.7586 10.9661 20.7587C11.3302 20.7587 11.6892 20.6735 12.0143 20.5096L12.0225 20.5064L13.1097 19.9758L8.91699 11.5904C8.83819 11.4324 8.82544 11.25 8.88119 11.0826C8.93707 10.9149 9.05681 10.7759 9.21484 10.6968L10.5674 10.0214C11.1767 9.72164 11.8576 9.59698 12.5335 9.66166ZM12.4066 10.9882C11.9767 10.947 11.5424 11.027 11.1549 11.2177L11.1533 11.216L10.4079 11.5904L14.6038 19.9839C14.6832 20.1429 14.695 20.3267 14.638 20.495C14.5809 20.6635 14.4594 20.8028 14.2995 20.8807L12.6133 21.6994C12.1022 21.9569 11.5385 22.0933 10.9661 22.0933C10.3937 22.0933 9.82859 21.9586 9.31738 21.7011C9.30464 21.6946 9.29225 21.6871 9.27995 21.6799L9.05697 21.5481C8.73354 21.3863 8.37698 21.3023 8.0153 21.3023C7.65125 21.3023 7.29224 21.3875 6.96712 21.5513L5.91243 22.077L8.45801 27.1698L11.4772 27.6809C11.5379 27.6741 11.5996 27.6738 11.6611 27.6841C12.145 27.7656 12.6423 27.6919 13.082 27.4742L32.3171 17.9315C32.889 17.6377 33.3398 17.175 33.6208 16.6132L34.1937 15.4673C34.291 15.2784 34.3448 15.0694 34.3516 14.857C34.3583 14.6446 34.3179 14.4332 34.2327 14.2385C34.1476 14.0438 34.0205 13.8699 33.86 13.7307C33.6996 13.5915 33.5096 13.4897 33.305 13.4328L33.2985 13.4312L31.8499 13.0129C31.1451 12.8159 30.3919 12.8908 29.7389 13.2212L29.7324 13.2245L23.4548 16.3104L23.4531 16.3088C22.8424 16.6111 22.1605 16.7396 21.4821 16.675C20.8049 16.6105 20.159 16.3583 19.6169 15.9475L13.5931 11.452L13.5898 11.4504C13.2457 11.1899 12.8362 11.0294 12.4066 10.9882Z" fill="#EC1C24"/>
</svg>
