<svg width="40" height="40" viewBox="0 0 40 40" fill="none" xmlns="http://www.w3.org/2000/svg">
<path d="M29.3307 10.2333C28.8003 10.2333 28.2916 10.444 27.9165 10.819C27.5414 11.1941 27.3307 11.7028 27.3307 12.2333C27.3307 12.7637 27.5414 13.2724 27.9165 13.6475C28.2916 14.0225 28.8003 14.2333 29.3307 14.2333C29.8612 14.2333 30.3699 14.0225 30.7449 13.6475C31.12 13.2724 31.3307 12.7637 31.3307 12.2333C31.3307 11.7028 31.12 11.1941 30.7449 10.819C30.3699 10.444 29.8612 10.2333 29.3307 10.2333ZM25.3307 12.2333C25.331 11.4151 25.5821 10.6166 26.0502 9.94563C26.5184 9.27462 27.1811 8.76331 27.9489 8.48065C28.7167 8.198 29.5527 8.15759 30.3442 8.36489C31.1357 8.57218 31.8445 9.0172 32.3752 9.63994C32.9059 10.2627 33.2328 11.0332 33.312 11.8475C33.3911 12.6619 33.2186 13.4809 32.8178 14.1941C32.4169 14.9074 31.807 15.4806 31.0702 15.8364C30.3334 16.1922 29.5053 16.3135 28.6974 16.1839L25.9801 20.6613C26.5558 21.5053 26.7868 22.5377 26.6255 23.5466C26.4643 24.5555 25.923 25.4645 25.1129 26.0871C24.3027 26.7096 23.285 26.9985 22.2686 26.8946C21.2522 26.7906 20.3141 26.3016 19.6467 25.5279L14.6587 28.0212C14.6623 28.0906 14.6641 28.1613 14.6641 28.2333C14.6635 29.1966 14.3153 30.1274 13.6835 30.8546C13.0516 31.5817 12.1786 32.0565 11.2247 32.1915C10.2709 32.3265 9.30039 32.1128 8.49153 31.5896C7.68266 31.0663 7.0898 30.2688 6.82188 29.3434C6.55395 28.4181 6.62898 27.4272 7.03316 26.5527C7.43735 25.6783 8.14354 24.9791 9.02196 24.5836C9.90038 24.1881 10.892 24.1229 11.8146 24.4C12.7373 24.6771 13.5289 25.2779 14.0441 26.0919L18.7521 23.7386C18.5937 23.0016 18.6467 22.2348 18.9052 21.5266C19.1637 20.8185 19.617 20.1978 20.2129 19.7361C20.8088 19.2744 21.5231 18.9905 22.2733 18.9171C23.0236 18.8437 23.7793 18.9838 24.4534 19.3213L26.8507 15.3719C26.3769 14.9975 25.9939 14.5205 25.7307 13.977C25.4674 13.4334 25.3307 12.8372 25.3307 12.2333ZM22.6641 20.8999C22.1336 20.8999 21.6249 21.1106 21.2499 21.4857C20.8748 21.8608 20.6641 22.3695 20.6641 22.8999C20.6641 23.4304 20.8748 23.9391 21.2499 24.3141C21.6249 24.6892 22.1336 24.8999 22.6641 24.8999C23.1945 24.8999 23.7032 24.6892 24.0783 24.3141C24.4534 23.9391 24.6641 23.4304 24.6641 22.8999C24.6641 22.3695 24.4534 21.8608 24.0783 21.4857C23.7032 21.1106 23.1945 20.8999 22.6641 20.8999ZM10.6641 26.2333C10.1336 26.2333 9.62492 26.444 9.24985 26.819C8.87478 27.1941 8.66406 27.7028 8.66406 28.2333C8.66406 28.7637 8.87478 29.2724 9.24985 29.6475C9.62492 30.0225 10.1336 30.2332 10.6641 30.2332C11.1945 30.2332 11.7032 30.0225 12.0783 29.6475C12.4534 29.2724 12.6641 28.7637 12.6641 28.2333C12.6641 27.7028 12.4534 27.1941 12.0783 26.819C11.7032 26.444 11.1945 26.2333 10.6641 26.2333Z" fill="#EC1C24"/>
</svg>
