<svg width="40" height="40" viewBox="0 0 40 40" fill="none" xmlns="http://www.w3.org/2000/svg">
<path d="M33.9932 35.0001L29.5445 30.5622C29.0303 30.9261 28.4817 31.2012 27.8986 31.3876C27.3156 31.5737 26.7117 31.6668 26.087 31.6668C24.5523 31.6668 23.2391 31.1206 22.1474 30.0281C21.056 28.9358 20.5103 27.6217 20.5103 26.0856C20.5103 24.5492 21.0564 23.2364 22.1486 22.1472C23.2411 21.0578 24.5555 20.5131 26.0916 20.5131C27.6277 20.5131 28.9405 21.0588 30.0299 22.1501C31.1193 23.2418 31.6641 24.555 31.6641 26.0897C31.6641 26.7053 31.5816 27.3168 31.4166 27.9243C31.2518 28.5318 30.9555 29.0728 30.5274 29.5472L34.9974 33.996L33.9932 35.0001ZM26.0753 30.2564C27.2384 30.2564 28.2256 29.8549 29.037 29.0518C29.8481 28.2485 30.2536 27.2651 30.2536 26.1018C30.2536 24.9385 29.8521 23.9512 29.0491 23.1401C28.2457 22.3287 27.2624 21.9231 26.0991 21.9231C24.9357 21.9231 23.9485 22.3247 23.1374 23.1281C22.326 23.9314 21.9203 24.9147 21.9203 26.0781C21.9203 27.2411 22.322 28.2283 23.1253 29.0397C23.9286 29.8508 24.912 30.2564 26.0753 30.2564ZM33.3307 18.2051H31.9203V9.10264C31.9203 8.84625 31.8135 8.61125 31.5999 8.39764C31.3863 8.18403 31.1513 8.07722 30.8949 8.07722H27.177V11.4106H12.8178V8.07722H9.0999C8.84351 8.07722 8.60851 8.18403 8.3949 8.39764C8.18128 8.61125 8.07448 8.84625 8.07448 9.10264V30.8976C8.07448 31.154 8.18128 31.389 8.3949 31.6026C8.60851 31.8162 8.84351 31.9231 9.0999 31.9231H17.882V33.3335H9.0999C8.41795 33.3335 7.84142 33.0981 7.37031 32.6272C6.89948 32.1561 6.66406 31.5796 6.66406 30.8976V9.10264C6.66406 8.42069 6.89948 7.84417 7.37031 7.37305C7.84142 6.90222 8.41795 6.6668 9.0999 6.6668H17.287C17.3973 6.01514 17.7039 5.46764 18.207 5.0243C18.7098 4.58069 19.3066 4.35889 19.9974 4.35889C20.6996 4.35889 21.2999 4.58069 21.7982 5.0243C22.2963 5.46764 22.6006 6.01514 22.7111 6.6668H30.8949C31.5768 6.6668 32.1534 6.90222 32.6245 7.37305C33.0953 7.84417 33.3307 8.42069 33.3307 9.10264V18.2051ZM20.0028 8.4618C20.3859 8.4618 20.7052 8.33222 20.9607 8.07305C21.216 7.81389 21.3436 7.49278 21.3436 7.10972C21.3436 6.72694 21.2141 6.40778 20.9549 6.15222C20.6957 5.89694 20.3748 5.7693 19.992 5.7693C19.6089 5.7693 19.2896 5.89889 19.0341 6.15805C18.7788 6.41722 18.6511 6.73819 18.6511 7.12097C18.6511 7.50403 18.7807 7.82319 19.0399 8.07847C19.2991 8.33403 19.62 8.4618 20.0028 8.4618Z" fill="#EC1C24"/>
</svg>
