<svg width="40" height="40" viewBox="0 0 40 40" fill="none" xmlns="http://www.w3.org/2000/svg">
<path d="M17.637 7.14627C18.4151 4.75137 21.8035 4.75137 22.5816 7.14627L24.3411 12.5597C24.6675 13.5635 25.5647 14.2633 26.6035 14.3468L26.8134 14.3549H32.5051C35.0228 14.3552 36.0696 17.5768 34.0335 19.0571L29.4273 22.4034C28.5164 23.0654 28.1354 24.2394 28.4833 25.3103L30.2428 30.7237C31.0204 33.1184 28.2792 35.1091 26.2421 33.629L21.6376 30.2843C20.7266 29.6224 19.4921 29.6224 18.581 30.2843L13.9765 33.629L13.7828 33.7576C11.8356 34.9444 9.38684 33.1654 9.914 30.9467L9.97585 30.7237L11.7353 25.3103C12.0615 24.3063 11.7468 23.2119 10.9557 22.5336L10.7913 22.4034L6.18516 19.0571C4.14902 17.5768 5.19583 14.3552 7.71348 14.3549H13.4052C14.4613 14.3549 15.4056 13.7177 15.8059 12.755L15.8775 12.5597L17.637 7.14627ZM21.3137 7.55806C20.9347 6.39157 19.2839 6.39157 18.9049 7.55806L17.1454 12.9715C16.6188 14.5916 15.1088 15.6879 13.4052 15.6879H7.71348C6.48716 15.6882 5.97746 17.2587 6.96966 17.9796L11.5742 21.3243C12.9525 22.3258 13.5297 24.1017 13.0032 25.7221L11.2438 31.1355C10.8652 32.3016 12.1999 33.2714 13.192 32.5515L17.7981 29.2052C19.1764 28.204 21.0422 28.204 22.4205 29.2052L27.0266 32.5515C28.0187 33.2714 29.3535 32.3016 28.9749 31.1355L27.2154 25.7221C26.6889 24.1017 27.2661 22.3258 28.6445 21.3243L33.249 17.9796C34.2412 17.2587 33.7315 15.6882 32.5051 15.6879H26.8134C25.1098 15.6879 23.5998 14.5916 23.0732 12.9715L21.3137 7.55806Z" fill="#EC1C24"/>
</svg>
