<svg width="40" height="40" viewBox="0 0 40 40" fill="none" xmlns="http://www.w3.org/2000/svg">
<path d="M8.33018 33.6176H31.6689V31.4296C31.6689 30.9758 31.523 30.603 31.2313 30.3113C30.9396 30.0195 30.5668 29.8737 30.113 29.8737H9.88609C9.43228 29.8737 9.05951 30.0195 8.76778 30.3113C8.47604 30.603 8.33018 30.9758 8.33018 31.4296V33.6176ZM13.1924 28.5122H26.8067L25.3966 18.7391H14.6025L13.1924 28.5122ZM6.96875 34.979V31.4296C6.96875 30.6273 7.25449 29.9404 7.82596 29.369C8.39711 28.7978 9.08382 28.5122 9.88609 28.5122H11.831L13.241 18.7391H8.91364V17.3777H31.0854V18.7391H26.7581L28.1681 28.5122H30.1013C30.9195 28.5122 31.6122 28.7978 32.1794 29.369C32.7467 29.9404 33.0303 30.6273 33.0303 31.4296V34.979H6.96875ZM13.1924 17.3777L10.4696 5.02763C11.3448 5.54626 12.1318 5.91093 12.8307 6.12163C13.5299 6.33233 14.2987 6.43767 15.1373 6.43767C16.1422 6.43767 17.0498 6.30802 17.8602 6.0487C18.6705 5.78938 19.3837 5.43281 19.9995 4.979C20.6154 5.43281 21.3294 5.78938 22.1414 6.0487C22.953 6.30802 23.8436 6.43767 24.8132 6.43767C25.5587 6.43767 26.2637 6.34043 26.9282 6.14594C27.5927 5.95145 28.476 5.57868 29.5781 5.02763L26.8067 17.3777H25.3966L27.6819 7.26426C27.1957 7.42633 26.7013 7.55599 26.1989 7.65323C25.6965 7.75048 25.1697 7.7991 24.6187 7.7991C23.7963 7.7991 22.991 7.70186 22.2026 7.50737C21.4146 7.31288 20.6803 7.02114 19.9995 6.63216C19.3188 7.02114 18.5793 7.31288 17.7809 7.50737C16.9825 7.70186 16.1662 7.7991 15.3318 7.7991C14.8132 7.7991 14.3107 7.76669 13.8245 7.70186C13.3383 7.63703 12.8521 7.52357 12.3658 7.3615L14.6025 17.3777H13.1924Z" fill="#EC1C24"/>
</svg>
