<svg width="40" height="41" viewBox="0 0 40 41" fill="none" xmlns="http://www.w3.org/2000/svg">
<path d="M10.998 18.4489C10.998 17.7919 10.9641 17.4446 10.7327 17.1745L10.6204 17.0638C10.4974 16.9573 10.3242 16.8719 9.71871 16.5951V16.5934C8.92168 16.2313 8.67568 16.13 8.44918 16.1117C7.73936 16.0542 7.35747 16.4798 6.66858 17.3194L6.66695 17.321C5.87404 18.2827 5.30276 18.9769 4.89124 19.5606C4.48461 20.1373 4.26303 20.5673 4.14742 20.9896C3.94702 21.7215 3.947 22.494 4.14742 23.2259C4.3243 23.8723 4.70184 24.4981 5.18746 25.1335C5.69169 25.7932 6.21237 26.3445 6.74508 26.9922C7.39088 27.7755 7.77511 28.1561 8.44918 28.1022L8.63147 28.0697C8.83394 28.0162 9.12235 27.8911 9.71871 27.6188L9.72034 27.6172C10.3219 27.3447 10.4974 27.2566 10.6204 27.1501L10.7327 27.0378C10.9636 26.7678 10.998 26.4214 10.998 25.7666V18.4489ZM31.4407 14.7819C31.9879 14.7387 32.5411 14.8559 33.0195 15.1237C33.3544 15.3111 33.6167 15.5702 33.8235 15.8073C34.0072 16.0179 34.2323 16.3173 34.359 16.4714C35.1382 17.4183 35.7467 18.1567 36.1933 18.7907C36.6443 19.4309 36.9605 20.005 37.1325 20.6348L37.2187 20.9994C37.3926 21.853 37.3645 22.7338 37.1325 23.5775C36.89 24.4663 36.3948 25.2523 35.8678 25.9424C35.3591 26.6084 34.7273 27.2956 34.2793 27.8402C33.8127 28.406 33.472 28.8346 33.0211 29.0886L33.0179 29.0918C32.5368 29.3586 31.9873 29.4756 31.4391 29.4304V29.432C30.9225 29.3903 30.4226 29.1513 29.722 28.8314V28.8298C29.1149 28.5537 28.1458 28.1645 27.7867 27.0996C27.6568 26.7146 27.6647 26.2947 27.6647 25.765V18.4489C27.6647 17.9194 27.6569 17.4992 27.7867 17.1143C28.1462 16.0478 29.1192 15.6566 29.7252 15.3809V15.3825C30.424 15.0627 30.9225 14.8236 31.4391 14.7819H31.4407ZM12.331 25.7666C12.331 26.4676 12.335 27.4252 11.4944 28.1559V28.1576C11.1908 28.4208 10.8013 28.5926 10.2705 28.833C9.57124 29.1523 9.07252 29.3903 8.5566 29.432C7.28895 29.5335 6.51774 28.788 5.94918 28.1201L5.71643 27.8402C5.26951 27.2967 4.63666 26.6081 4.12789 25.9424C3.6003 25.2521 3.10471 24.466 2.86161 23.5775C2.59818 22.6153 2.59824 21.6002 2.86161 20.638C3.03428 20.0073 3.35061 19.4331 3.80237 18.7923C4.24955 18.1581 4.85803 17.4194 5.63831 16.473C6.22914 15.7528 7.04391 14.6595 8.5566 14.7819C8.94397 14.8132 9.32274 14.9562 9.78219 15.1595L10.2721 15.3809L10.2737 15.3825C10.7975 15.622 11.1909 15.7931 11.4944 16.0563C12.3351 16.7871 12.331 17.7465 12.331 18.4489V25.7666ZM28.9977 25.765C28.9977 26.3884 29.0065 26.545 29.0498 26.6732C29.1938 27.1004 29.5506 27.2883 30.277 27.6188C31.0724 27.982 31.3199 28.0839 31.5465 28.1022H31.5481C31.8339 28.1259 32.1209 28.0639 32.3717 27.9248C32.5523 27.8216 32.7184 27.6376 33.2506 26.9922C33.7838 26.3441 34.3048 25.7911 34.8082 25.1319C35.2932 24.4968 35.6705 23.8712 35.8466 23.2243V23.2227C36.048 22.4904 36.0482 21.7224 35.8466 20.988V20.9864C35.7318 20.5653 35.5108 20.1358 35.1045 19.5589C34.6933 18.9753 34.1223 18.2817 33.3304 17.3194H33.3287C33.1155 17.0601 33.0047 16.8973 32.8177 16.683C32.6539 16.4953 32.5101 16.3667 32.3685 16.2875C32.1271 16.1523 31.8373 16.0868 31.5449 16.1101C31.3188 16.1286 31.0709 16.2325 30.2786 16.5951H30.277C29.5501 16.9258 29.1938 17.1127 29.0498 17.5391V17.5407C29.0066 17.6689 28.9977 17.8262 28.9977 18.4489V25.765Z" fill="#EC1C24"/>
<path d="M30.9974 15.4398C30.9974 10.3774 26.1733 6.1071 19.998 6.1071C13.8228 6.1071 8.9987 10.3774 8.9987 15.4398V16.1071H7.66406V15.4398C7.66406 9.45553 13.2867 4.77246 19.998 4.77246C26.7094 4.77246 32.332 9.45553 32.332 15.4398V16.1071H30.9974V15.4398Z" fill="#EC1C24"/>
<path d="M31 30.1063V28.7733C31 28.4051 31.2991 28.106 31.6673 28.106C32.0355 28.106 32.3346 28.4051 32.3346 28.7733V30.1063C32.3346 33.5505 28.9058 36.1073 25.0007 36.1073H21.6673C21.2991 36.1073 21 35.8081 21 35.4399C21 35.0718 21.2991 34.7726 21.6673 34.7726H25.0007C28.4622 34.7726 31 32.5521 31 30.1063Z" fill="#EC1C24"/>
</svg>
