<svg width="40" height="40" viewBox="0 0 40 40" fill="none" xmlns="http://www.w3.org/2000/svg">
<path d="M31.0714 9H33V19.5609H31.0714V9ZM26.25 10.9213H28.1786V19.5609H26.25V10.9213ZM21.4286 13.8013H23.3571V19.5609H21.4286V13.8013ZM19.5 33H17.5714V27.2404C17.5707 26.4768 17.2656 25.7448 16.7233 25.2049C16.1809 24.665 15.4456 24.3613 14.6786 24.3606H10.8214C10.0544 24.3613 9.31907 24.665 8.77672 25.2049C8.23437 25.7448 7.92934 26.4768 7.92857 27.2404V33H6V27.2404C6.00153 25.9679 6.50999 24.748 7.41385 23.8482C8.31772 22.9484 9.54318 22.4422 10.8214 22.4407H14.6786C15.9568 22.4422 17.1823 22.9484 18.0861 23.8482C18.99 24.748 19.4985 25.9679 19.5 27.2404V33ZM12.75 12.8413C13.3222 12.8413 13.8815 13.0102 14.3572 13.3267C14.8329 13.6431 15.2037 14.0929 15.4227 14.6191C15.6416 15.1453 15.6989 15.7243 15.5873 16.283C15.4757 16.8416 15.2001 17.3547 14.7956 17.7575C14.391 18.1602 13.8755 18.4345 13.3144 18.5456C12.7532 18.6567 12.1716 18.5997 11.643 18.3817C11.1144 18.1638 10.6625 17.7947 10.3447 17.3211C10.0268 16.8475 9.85714 16.2907 9.85714 15.7211C9.85714 14.9574 10.1619 14.2249 10.7044 13.6848C11.247 13.1447 11.9828 12.8413 12.75 12.8413ZM12.75 10.9215C11.7964 10.9215 10.8642 11.203 10.0714 11.7304C9.27848 12.2577 8.6605 13.0074 8.29558 13.8844C7.93066 14.7614 7.83518 15.7265 8.02121 16.6575C8.20725 17.5886 8.66645 18.4438 9.34074 19.115C10.015 19.7863 10.8741 20.2434 11.8094 20.4286C12.7447 20.6138 13.7141 20.5187 14.5951 20.1555C15.4761 19.7922 16.2291 19.177 16.7589 18.3877C17.2887 17.5984 17.5714 16.6704 17.5714 15.7211C17.5714 15.0908 17.4467 14.4667 17.2044 13.8844C16.9621 13.3021 16.607 12.7729 16.1593 12.3273C15.7116 11.8816 15.18 11.528 14.5951 11.2868C14.0101 11.0456 13.3832 10.9215 12.75 10.9215Z" fill="#EC1C24"/>
</svg>
