<svg width="40" height="40" viewBox="0 0 40 40" fill="none" xmlns="http://www.w3.org/2000/svg">
<path d="M25.7139 30.5107H32.5713C33.4209 30.5107 34.2361 30.8484 34.8369 31.4492C35.4375 32.0499 35.7753 32.8645 35.7754 33.7139V35.7754H33.9395V33.7139C33.9393 33.3513 33.7954 33.0035 33.5391 32.7471C33.2825 32.4905 32.9341 32.3467 32.5713 32.3467H25.7139C25.3512 32.3468 25.0035 32.4906 24.7471 32.7471C24.4906 33.0035 24.3468 33.3512 24.3467 33.7139V35.7754H22.5107V33.7139C22.5109 32.8644 22.8485 32.0499 23.4492 31.4492C24.0499 30.8485 24.8644 30.5109 25.7139 30.5107ZM8.34668 24.7969V25.7139C8.34668 27.2891 8.97211 28.8002 10.0859 29.9141C11.1998 31.0279 12.7109 31.6533 14.2861 31.6533H17.4893V33.4893H14.2861C12.2241 33.4893 10.2462 32.67 8.78809 31.2119C7.32999 29.7538 6.51074 27.7759 6.51074 25.7139V24.7969H8.34668ZM29.1426 20.2246C30.0021 20.2246 30.8429 20.4795 31.5576 20.957C32.2724 21.4346 32.8292 22.114 33.1582 22.9082C33.4871 23.7023 33.5738 24.576 33.4062 25.4189C33.2385 26.2621 32.8237 27.0367 32.2158 27.6445C31.6081 28.2522 30.8341 28.6662 29.9912 28.834C29.1481 29.0017 28.2737 28.9159 27.4795 28.5869C26.6854 28.258 26.0069 27.7009 25.5293 26.9863C25.0517 26.2716 24.7969 25.4309 24.7969 24.5713C24.7969 23.4186 25.2543 22.3131 26.0693 21.498C26.8844 20.683 27.9899 20.2247 29.1426 20.2246ZM29.1426 22.0605C28.6462 22.0606 28.1608 22.2077 27.748 22.4834C27.3352 22.7592 27.0133 23.1517 26.8232 23.6104C26.6332 24.0691 26.5838 24.5745 26.6807 25.0615C26.7776 25.5483 27.0163 25.9957 27.3672 26.3467C27.7183 26.6978 28.1663 26.9373 28.6533 27.0342C29.1403 27.131 29.6448 27.0806 30.1035 26.8906C30.5623 26.7006 30.9546 26.3787 31.2305 25.9658C31.5062 25.553 31.6533 25.0677 31.6533 24.5713C31.6533 23.9055 31.3888 23.2667 30.918 22.7959C30.4471 22.3252 29.8084 22.0605 29.1426 22.0605ZM7.42871 14.5107H14.2861C15.1356 14.5109 15.9501 14.8485 16.5508 15.4492C17.1515 16.0499 17.4891 16.8644 17.4893 17.7139V19.7754H15.6533V17.7139C15.6532 17.3512 15.5094 17.0035 15.2529 16.7471C14.9965 16.4906 14.6488 16.3468 14.2861 16.3467H7.42871C7.06593 16.3467 6.71746 16.4905 6.46094 16.7471C6.20464 17.0035 6.06066 17.3513 6.06055 17.7139V19.7754H4.22461V17.7139C4.22472 16.8645 4.56253 16.0499 5.16309 15.4492C5.76387 14.8484 6.57907 14.5107 7.42871 14.5107ZM23.4287 6.51074C25.4907 6.51078 27.4687 7.33002 28.9268 8.78809C30.3847 10.2462 31.2031 12.2242 31.2031 14.2861V15.2031H29.3682V14.2861C29.3682 13.5062 29.2145 12.7333 28.916 12.0127C28.6175 11.2921 28.1794 10.6374 27.6279 10.0859C27.0765 9.53452 26.4217 9.09727 25.7012 8.79883C24.9807 8.5004 24.2086 8.3467 23.4287 8.34668H20.2246V6.51074H23.4287ZM9.19336 4.55566C9.98757 4.22669 10.862 4.14089 11.7051 4.30859C12.5482 4.4763 13.3228 4.89019 13.9307 5.49805C14.5385 6.1059 14.9524 6.88054 15.1201 7.72363C15.2878 8.56656 15.2019 9.44033 14.873 10.2344C14.5441 11.0286 13.9863 11.708 13.2715 12.1855C12.5569 12.6629 11.7168 12.9179 10.8574 12.918C9.70471 12.918 8.59929 12.4596 7.78418 11.6445C6.96907 10.8294 6.51074 9.72403 6.51074 8.57129C6.51077 7.7117 6.7656 6.87098 7.24316 6.15625C7.72068 5.44172 8.3994 4.88461 9.19336 4.55566ZM10.8574 6.06055C10.1916 6.06055 9.55286 6.32518 9.08203 6.7959C8.61121 7.26672 8.34672 7.90546 8.34668 8.57129C8.34668 9.06772 8.4938 9.55301 8.76953 9.96582C9.04541 10.3787 9.43772 10.7006 9.89648 10.8906C10.3552 11.0806 10.8597 11.131 11.3467 11.0342C11.8337 10.9373 12.2817 10.6978 12.6328 10.3467C12.9837 9.99566 13.2224 9.54833 13.3193 9.06152C13.4162 8.57449 13.3668 8.06912 13.1768 7.61035C12.9867 7.15167 12.6648 6.75923 12.252 6.4834C11.8392 6.20768 11.3538 6.0606 10.8574 6.06055Z" fill="#EC1C24" stroke="#FDFDFD" stroke-width="0.45"/>
</svg>
