<svg width="96" height="21" viewBox="0 0 96 21" fill="none" xmlns="http://www.w3.org/2000/svg">
<path d="M0.319602 20V0.363636H13.0909V3.34553H3.87678V8.67649H12.4293V11.6584H3.87678V17.0181H13.1676V20H0.319602ZM29.0982 0.363636H32.6554V13.1925C32.6554 14.5987 32.323 15.8356 31.6582 16.9031C30.9998 17.9705 30.073 18.8047 28.8777 19.4055C27.6824 20 26.2857 20.2972 24.6877 20.2972C23.0833 20.2972 21.6834 20 20.4881 19.4055C19.2928 18.8047 18.3659 17.9705 17.7076 16.9031C17.0492 15.8356 16.72 14.5987 16.72 13.1925V0.363636H20.2772V12.8952C20.2772 13.7134 20.4561 14.4421 20.8141 15.0813C21.1784 15.7205 21.6898 16.2223 22.3482 16.5866C23.0066 16.9446 23.7864 17.1236 24.6877 17.1236C25.589 17.1236 26.3688 16.9446 27.0272 16.5866C27.6919 16.2223 28.2033 15.7205 28.5613 15.0813C28.9192 14.4421 29.0982 13.7134 29.0982 12.8952V0.363636ZM53.3296 6.98899H49.7437C49.6414 6.40092 49.4529 5.87997 49.178 5.42614C48.9031 4.96591 48.5612 4.57599 48.1521 4.25639C47.743 3.93679 47.2764 3.69709 46.7522 3.53729C46.2345 3.37109 45.6752 3.288 45.0743 3.288C44.0068 3.288 43.0608 3.55646 42.2362 4.09339C41.4117 4.62393 40.7661 5.40376 40.2994 6.43288C39.8328 7.45561 39.5995 8.70526 39.5995 10.1818C39.5995 11.6839 39.8328 12.9496 40.2994 13.9787C40.7725 15.0014 41.4181 15.7749 42.2362 16.299C43.0608 16.8168 44.0036 17.0756 45.0647 17.0756C45.6528 17.0756 46.2025 16.9989 46.7139 16.8455C47.2316 16.6857 47.695 16.4524 48.1041 16.1456C48.5196 15.8388 48.868 15.4616 49.1492 15.0142C49.4369 14.5668 49.635 14.0554 49.7437 13.4801L53.3296 13.4993C53.1954 14.4325 52.9046 15.3082 52.4571 16.1264C52.0161 16.9446 51.4376 17.6669 50.7217 18.2933C50.0058 18.9134 49.1684 19.3991 48.2096 19.7507C47.2508 20.0959 46.1865 20.2685 45.0168 20.2685C43.2909 20.2685 41.7504 19.869 40.3953 19.07C39.0402 18.271 37.9727 17.1172 37.1929 15.6087C36.4131 14.1001 36.0232 12.2912 36.0232 10.1818C36.0232 8.06605 36.4163 6.2571 37.2025 4.75497C37.9887 3.24645 39.0594 2.09268 40.4145 1.29368C41.7696 0.494672 43.3037 0.0951697 45.0168 0.0951697C46.1098 0.0951697 47.1262 0.248579 48.0658 0.555397C49.0054 0.862216 49.8428 1.31286 50.5779 1.90732C51.3129 2.49538 51.917 3.21768 52.39 4.07422C52.8694 4.92436 53.1826 5.89595 53.3296 6.98899ZM56.5872 20V0.363636H60.1444V17.0181H68.7928V20H56.5872ZM75.4373 0.363636V20H71.8801V0.363636H75.4373ZM85.9434 20H79.2893V0.363636H86.0777C88.0273 0.363636 89.702 0.756747 91.1018 1.54297C92.5081 2.3228 93.5883 3.4446 94.3426 4.90838C95.0969 6.37216 95.474 8.12358 95.474 10.1626C95.474 12.2081 95.0937 13.9659 94.333 15.4361C93.5787 16.9062 92.4889 18.0344 91.0635 18.8207C89.6444 19.6069 87.9378 20 85.9434 20ZM82.8465 16.9222H85.7709C87.1388 16.9222 88.2797 16.6729 89.1938 16.1744C90.1079 15.6694 90.795 14.9183 91.2552 13.9212C91.7155 12.9176 91.9456 11.6648 91.9456 10.1626C91.9456 8.66051 91.7155 7.41406 91.2552 6.42329C90.795 5.42614 90.1143 4.68146 89.213 4.18928C88.3181 3.6907 87.2059 3.44141 85.8763 3.44141H82.8465V16.9222Z" fill="#007AD9"/>
</svg>
