<svg width="121" height="56" viewBox="0 0 121 56" fill="none" xmlns="http://www.w3.org/2000/svg">
<path d="M23.3519 36.433C23.3519 37.389 23.1959 38.274 22.8859 39.089C22.5749 39.904 22.1299 40.611 21.5519 41.212L24.1669 43.762L22.0949 45.448L19.2529 42.692C18.8619 42.829 18.4569 42.936 18.0379 43.012C17.6179 43.088 17.1839 43.126 16.7359 43.126C14.7899 43.126 13.2099 42.493 11.9949 41.227C10.7799 39.961 10.1719 38.359 10.1719 36.421V33.578C10.1719 31.647 10.7779 30.047 11.9889 28.777C13.1999 27.508 14.7789 26.873 16.7249 26.873C18.6709 26.873 20.2799 27.508 21.5099 28.779C22.7399 30.05 23.3539 31.652 23.3539 33.585V36.431L23.3519 36.433ZM20.1839 33.566C20.1839 32.334 19.8759 31.323 19.2619 30.533C18.6469 29.743 17.8009 29.348 16.7229 29.348C15.6449 29.348 14.8099 29.741 14.2169 30.527C13.6239 31.313 13.3269 32.326 13.3269 33.565V36.4351C13.3269 37.689 13.6269 38.71 14.2279 39.5C14.8279 40.29 15.6639 40.6851 16.7339 40.6851C17.8039 40.6851 18.6649 40.29 19.2729 39.5C19.8809 38.71 20.1839 37.688 20.1839 36.4351V33.565V33.566Z" fill="#1C2035"/>
<path d="M38.6954 27.1016V37.5816C38.6954 39.3536 38.1094 40.7206 36.9374 41.6826C35.7654 42.6446 34.2324 43.1256 32.3374 43.1256C30.4424 43.1256 28.9254 42.6446 27.7644 41.6826C26.6034 40.7206 26.0234 39.3536 26.0234 37.5816V27.1016H29.2024V37.5736C29.2024 38.6146 29.4804 39.3936 30.0374 39.9096C30.5944 40.4266 31.3614 40.6846 32.3374 40.6846C33.3134 40.6846 34.1054 40.4286 34.6704 39.9146C35.2344 39.4016 35.5164 38.6206 35.5164 37.5726V27.1006H38.6954V27.1016Z" fill="#1C2035"/>
<path d="M51.1709 35.9546H44.6289V40.4566H52.2779V42.8976H41.4609V27.1016H52.2559V29.5426H44.6289V33.5136H51.1709V35.9546Z" fill="#1C2035"/>
<path d="M66.7189 27.1016V37.5816C66.7189 39.3536 66.1329 40.7206 64.9609 41.6826C63.7889 42.6446 62.2559 43.1256 60.3609 43.1256C58.4659 43.1256 56.9489 42.6446 55.7879 41.6826C54.6269 40.7206 54.0469 39.3536 54.0469 37.5816V27.1016H57.2259V37.5736C57.2259 38.6146 57.5039 39.3936 58.0609 39.9096C58.6179 40.4266 59.3849 40.6846 60.3609 40.6846C61.3369 40.6846 62.1289 40.4286 62.6939 39.9146C63.2579 39.4016 63.5399 38.6206 63.5399 37.5726V27.1006H66.7189V27.1016Z" fill="#1C2035"/>
<path d="M79.1944 35.9546H72.6524V40.4566H80.3014V42.8976H69.4844V27.1016H80.2794V29.5426H72.6524V33.5136H79.1944V35.9546Z" fill="#1C2035"/>
<path d="M90.7707 38.775C90.7707 38.168 90.5557 37.679 90.1257 37.31C89.6957 36.941 88.9407 36.594 87.8637 36.269C85.9827 35.726 84.5617 35.083 83.5997 34.338C82.6377 33.593 82.1567 32.573 82.1567 31.278C82.1567 29.983 82.7087 28.926 83.8107 28.105C84.9137 27.284 86.3227 26.874 88.0367 26.874C89.7507 26.874 91.1867 27.335 92.2787 28.257C93.3707 29.179 93.8987 30.317 93.8627 31.669L93.8407 31.734H90.7707C90.7707 31.003 90.5267 30.412 90.0387 29.96C89.5507 29.508 88.8647 29.282 87.9827 29.282C87.1007 29.282 86.4817 29.47 86.0187 29.846C85.5557 30.222 85.3247 30.703 85.3247 31.289C85.3247 31.824 85.5727 32.264 86.0677 32.607C86.5627 32.95 87.4187 33.314 88.6337 33.697C90.3767 34.181 91.6967 34.822 92.5937 35.617C93.4907 36.413 93.9387 37.458 93.9387 38.752C93.9387 40.046 93.4057 41.171 92.3387 41.953C91.2717 42.734 89.8637 43.125 88.1127 43.125C86.3617 43.125 84.8907 42.682 83.6097 41.796C82.3297 40.91 81.7077 39.668 81.7437 38.069L81.7657 38.004H84.8467C84.8467 38.944 85.1337 39.633 85.7087 40.071C86.2837 40.509 87.0847 40.727 88.1117 40.727C88.9717 40.727 89.6307 40.55 90.0867 40.195C90.5427 39.841 90.7697 39.367 90.7697 38.774" fill="#1C2035"/>
<path d="M10.8828 23.0057V9.99268H14.6628C16.2538 9.99268 17.5678 10.5227 18.6038 11.5837C19.6408 12.6447 20.1588 14.0057 20.1588 15.6687V17.3397C20.1588 19.0087 19.6408 20.3697 18.6038 21.4247C17.5668 22.4797 16.2538 23.0067 14.6628 23.0067H10.8828V23.0057ZM11.9458 10.9047V22.0947H14.6628C15.9498 22.0947 17.0088 21.6457 17.8398 20.7467C18.6708 19.8477 19.0868 18.7107 19.0868 17.3357V15.6387C19.0868 14.2807 18.6698 13.1527 17.8358 12.2537C17.0018 11.3547 15.9438 10.9057 14.6628 10.9057H11.9458V10.9047Z" fill="#1C2035"/>
<path d="M23.9302 17.124V23.005H22.8672V10.001H27.2732C28.6672 10.001 29.7372 10.306 30.4812 10.917C31.2262 11.528 31.5982 12.42 31.5982 13.594C31.5982 14.285 31.3982 14.903 30.9992 15.449C30.6002 15.994 30.0372 16.392 29.3102 16.642C30.1142 16.845 30.6942 17.206 31.0482 17.728C31.4022 18.25 31.5802 18.903 31.5802 19.69V20.914C31.5802 21.319 31.6282 21.682 31.7232 22.004C31.8182 22.326 31.9762 22.588 32.1972 22.79V23.005H31.1072C30.8872 22.79 30.7322 22.49 30.6422 22.102C30.5532 21.715 30.5082 21.313 30.5082 20.896V19.707C30.5082 18.909 30.2502 18.279 29.7352 17.817C29.2202 17.355 28.5002 17.124 27.5772 17.124H23.9302ZM23.9302 16.212H27.1392C28.3132 16.212 29.1712 15.975 29.7132 15.501C30.2552 15.027 30.5262 14.388 30.5262 13.584C30.5262 12.726 30.2572 12.066 29.7172 11.604C29.1782 11.142 28.3632 10.911 27.2722 10.911H23.9292V16.211L23.9302 16.212Z" fill="#1C2035"/>
<path d="M103.865 10.4224H97.5938V16.7154H103.865V10.4224Z" fill="#5FBEAC"/>
<path d="M103.865 23.0059H97.5938V29.2909H103.865V23.0059Z" fill="#5FBEAC"/>
<path d="M110.173 16.7207H103.883V22.9917H110.173V16.7207Z" fill="#5FBEAC"/>
<path d="M97.5869 16.7207H91.2969V22.9917H97.5869V16.7207Z" fill="#5FBEAC"/>
<path d="M85.0166 16.7153H78.7266V23.0053H85.0166V16.7153Z" fill="#5FBEAC"/>
<path d="M72.4453 16.7153H66.1562V23.0053H72.4453V16.7153Z" fill="#87D3C7"/>
<path opacity="0.6" d="M53.5703 23.0053H59.8603V16.7153H53.5703V23.0053Z" fill="#C3E9E3"/>
<mask id="mask0_2273_20046" style="mask-type:luminance" maskUnits="userSpaceOnUse" x="53" y="16" width="7" height="8">
<path d="M53.5703 23.0053H59.8603V16.7153H53.5703V23.0053Z" fill="white"/>
</mask>
<g mask="url(#mask0_2273_20046)">
<path d="M59.8603 16.7153H53.5703V23.0053H59.8603V16.7153Z" fill="#C3E9E3"/>
</g>
<path d="M40.9844 23.0053H47.2744V16.7153H40.9844V23.0053Z" fill="#E1F4F1"/>
</svg>
