<svg width="131" height="31" viewBox="0 0 131 31" fill="none" xmlns="http://www.w3.org/2000/svg">
<path d="M116.958 14.0786H119.772C120.501 14.0786 121.091 14.6701 121.091 15.3979C121.091 15.4897 121.081 15.5815 121.061 15.672L119.954 20.8842C119.824 21.4935 119.286 21.9282 118.664 21.9294H115.851C115.121 21.9294 114.531 21.338 114.531 20.6101C114.531 20.5183 114.541 20.4266 114.561 20.3361L115.67 15.1239C115.798 14.5146 116.336 14.0786 116.958 14.0786Z" fill="#49C1C2"/>
<path d="M119.794 0.720215H122.607C123.337 0.720215 123.927 1.31167 123.927 2.03952C123.927 2.1313 123.917 2.22307 123.897 2.31358L122.788 7.52578C122.66 8.13508 122.122 8.56975 121.5 8.56975H118.686C117.959 8.56975 117.368 7.98085 117.367 7.253C117.367 7.16122 117.377 7.06817 117.397 6.97767L118.504 1.76419C118.634 1.15616 119.172 0.720215 119.794 0.720215Z" fill="#49C1C2"/>
<path d="M130.081 10.1627L129.473 13.0346C129.344 13.6439 128.806 14.0798 128.183 14.0785H123.029C122.3 14.0785 121.71 13.4871 121.711 12.758C121.711 12.6662 121.721 12.5757 121.739 12.4865L122.35 9.61458C122.48 9.00528 123.017 8.57061 123.64 8.56934H128.793C129.522 8.57061 130.111 9.16334 130.11 9.89119C130.11 9.98169 130.1 10.0735 130.081 10.1627Z" fill="#4F4F4F"/>
<path d="M116.729 10.1627L116.118 13.0346C115.988 13.6439 115.45 14.0785 114.828 14.0785H45.4521C44.7243 14.0785 44.1341 13.4896 44.1328 12.7618C44.1328 12.67 44.143 12.577 44.1621 12.4865L44.7727 9.61459C44.9014 9.00528 45.4394 8.56934 46.0627 8.56934H115.435C116.164 8.56806 116.756 9.15697 116.758 9.88482C116.758 9.97787 116.749 10.0709 116.729 10.1627Z" fill="url(#paint0_linear_2273_20021)"/>
<path d="M11.0537 26.3401L7.35582 19.0488H2.8243L0.34375 30.7186H4.09261L5.63116 23.4784L9.27168 30.7186H10.9912L17.6936 23.4784L16.1537 30.7186H19.9192L22.3997 19.0488H17.8682L11.0537 26.3401Z" fill="#49C1C2"/>
<path d="M54.617 20.0445C54.2167 19.6978 53.7438 19.4441 53.2327 19.3039C52.6081 19.1255 51.9605 19.0401 51.3104 19.049H41.3946L40.8439 21.6391H50.1122C50.6922 21.6391 51.1077 21.7641 51.3614 22.0139C51.6151 22.2637 51.689 22.6334 51.5858 23.1216L50.8362 26.6474C50.7598 27.0935 50.5099 27.4925 50.1415 27.7551C49.7821 28.0049 49.313 28.1299 48.733 28.1299H39.4647L38.9141 30.72H48.8299C49.5131 30.7239 50.1951 30.641 50.8579 30.4727C51.4596 30.3236 52.0344 30.0763 52.5558 29.7411C53.0453 29.4237 53.4697 29.0158 53.8075 28.5403C54.1543 28.0496 54.3952 27.4912 54.515 26.9023L55.3729 22.8641C55.5042 22.33 55.5003 21.7704 55.3614 21.2376C55.2301 20.7775 54.9726 20.3645 54.617 20.0445Z" fill="#49C1C2"/>
<path d="M28.1773 22.0124C28.5368 21.7626 29.0058 21.6377 29.5858 21.6377H38.8541L39.4048 19.0475H29.489C28.8057 19.0437 28.1238 19.1265 27.4609 19.2948C26.858 19.4439 26.2844 19.6925 25.763 20.0277C25.2736 20.3451 24.8491 20.753 24.5113 21.2285C24.1658 21.7192 23.9249 22.2763 23.8051 22.8639L22.9472 26.9021C22.816 27.4362 22.8198 27.9958 22.9587 28.5286C23.09 28.9875 23.3475 29.4018 23.7019 29.7217C24.1021 30.0685 24.575 30.3221 25.0862 30.4623C25.7108 30.6408 26.3583 30.7262 27.0084 30.7173H36.9268L37.4774 28.1271H28.2066C27.6266 28.1271 27.2111 28.0022 26.9574 27.7523C26.7038 27.5025 26.6286 27.1341 26.7293 26.6459L26.8261 26.187H37.8522L38.473 23.5969H27.3806L27.4826 23.1201C27.5591 22.674 27.8089 22.2763 28.1773 22.0124Z" fill="#49C1C2"/>
<path d="M80.4769 19.3032C79.8739 19.4574 79.3003 19.7073 78.7777 20.0438C78.2895 20.3599 77.8663 20.764 77.5272 21.2369C77.1831 21.7238 76.946 22.2783 76.83 22.8634L75.9708 26.9016C75.8395 27.4395 75.8434 28.0004 75.981 28.537C76.111 29.001 76.3711 29.4179 76.7318 29.7378C77.1359 30.0845 77.6126 30.3344 78.1263 30.4708C78.7586 30.6441 79.4112 30.727 80.0664 30.718H85.0759C85.7592 30.7219 86.4411 30.639 87.104 30.4708C87.7043 30.3216 88.2754 30.0743 88.7955 29.7404C89.285 29.423 89.7094 29.0151 90.0472 28.5396C90.3939 28.0488 90.6336 27.4918 90.7534 26.9042L91.3436 24.1266H87.5947L87.0594 26.648C86.9752 27.0826 86.7292 27.4701 86.3697 27.7302C86.0065 27.9979 85.5348 28.1317 84.9548 28.1304H81.2417C80.6617 28.1304 80.2449 28.0055 79.9925 27.7557C79.7401 27.5058 79.6649 27.1362 79.7681 26.648L80.575 22.8494C80.8491 22.0425 81.5259 21.6397 82.6043 21.6397H91.8713L92.4207 19.0495H82.5074C81.8229 19.0444 81.1397 19.1298 80.4769 19.3032Z" fill="#49C1C2"/>
<path d="M108.561 21.2373C108.428 20.7759 108.167 20.3629 107.809 20.0442C107.404 19.6988 106.928 19.4451 106.415 19.3036C105.784 19.1239 105.132 19.0385 104.476 19.0487H99.4669C98.7824 19.0448 98.0992 19.1302 97.4364 19.3036C96.8334 19.4578 96.2598 19.709 95.7359 20.0442C95.249 20.3603 94.8245 20.7657 94.4867 21.2373C94.1413 21.7242 93.9016 22.2787 93.7831 22.8638L92.924 26.902C92.7927 27.4399 92.7965 28.0008 92.9342 28.5375C93.0629 29.0002 93.3204 29.4157 93.676 29.7382C94.0763 30.0849 94.5492 30.336 95.0616 30.4712C95.6888 30.6432 96.3363 30.7274 96.9864 30.7185H101.995C102.682 30.7223 103.367 30.6394 104.034 30.4712C104.641 30.322 105.218 30.076 105.746 29.7408C106.239 29.4246 106.666 29.0167 107.007 28.54C107.352 28.0493 107.593 27.4922 107.713 26.9046L108.571 22.8664C108.703 22.331 108.7 21.7714 108.561 21.2373ZM104.77 23.12L104.02 26.6458C103.944 27.092 103.693 27.4909 103.324 27.7535C102.965 28.0034 102.497 28.1283 101.922 28.1283H98.2012C97.6212 28.1283 97.2044 28.0034 96.952 27.7535C96.6996 27.5037 96.6244 27.134 96.7264 26.6458L97.4771 23.12C97.5536 22.6739 97.8035 22.2762 98.1719 22.0123C98.5313 21.7625 98.9991 21.6376 99.574 21.6376H103.288C103.867 21.6376 104.284 21.7625 104.538 22.0123C104.791 22.2622 104.869 22.6318 104.768 23.12H104.77Z" fill="#49C1C2"/>
<path d="M70.5465 19.0498H70.5478L68.9264 26.6457C68.8499 27.0918 68.5988 27.4908 68.2304 27.7534C67.8709 28.0032 67.4031 28.1281 66.8282 28.1281H63.1074C62.5274 28.1281 62.1106 28.0032 61.8582 27.7534C61.6058 27.5035 61.5306 27.1339 61.6326 26.6457L63.2553 19.0498H59.4847L57.8302 26.9019C57.6989 27.4398 57.7027 28.0007 57.8404 28.5373C57.9691 29 58.2266 29.4156 58.5823 29.7381C58.9825 30.0848 59.4554 30.3359 59.9679 30.471C60.595 30.6431 61.2425 30.7272 61.8926 30.7183H66.9009C67.588 30.7221 68.2737 30.6393 68.9404 30.471C69.5472 30.3219 70.1246 30.0759 70.6523 29.7406C71.1456 29.4245 71.5726 29.0166 71.913 28.5399C72.2584 28.0491 72.4993 27.4921 72.6192 26.9044L74.2724 19.0524L70.5465 19.0498Z" fill="#4F4F4F"/>
<defs>
<linearGradient id="paint0_linear_2273_20021" x1="44.1328" y1="11.3252" x2="116.757" y2="11.3252" gradientUnits="userSpaceOnUse">
<stop stop-color="#49C1C2" stop-opacity="0"/>
<stop offset="1" stop-color="#49C1C2"/>
</linearGradient>
</defs>
</svg>
