<svg width="121" height="28" viewBox="0 0 121 28" fill="none" xmlns="http://www.w3.org/2000/svg">
<g clip-path="url(#clip0_1282_6956)">
<path d="M21.5352 9.35972V17.9886C21.5347 19.2909 21.1569 20.5547 20.4633 21.5749C19.7696 22.5952 18.8008 23.312 17.714 23.6091C17.7625 23.284 17.7847 22.9544 17.7804 22.6245V14.0092C17.7794 12.4791 17.2579 11.0119 16.3305 9.92994C15.4031 8.84796 14.1455 8.23957 12.834 8.23837H5.44166C5.06423 8.23929 4.68808 8.28975 4.32031 8.38879C4.51591 7.04637 5.11241 5.82802 6.00416 4.9495C6.8959 4.07098 8.02537 3.58898 9.19252 3.58887H16.5887C17.9006 3.58887 19.1588 4.19687 20.0864 5.27911C21.014 6.36135 21.5352 7.82919 21.5352 9.35972Z" fill="#BD00FF"/>
<path d="M17.7129 23.6089C17.5171 24.9529 16.9195 26.1725 16.0261 27.0512C15.1327 27.9299 14.0014 28.4109 12.8329 28.4089H5.4406C4.79003 28.4089 4.14586 28.2591 3.54496 27.9683C2.94407 27.6774 2.39826 27.2511 1.93878 26.7138C1.47931 26.1765 1.1152 25.5387 0.86731 24.837C0.619419 24.1352 0.492613 23.3833 0.494155 22.6243V14.0091C0.494889 12.7062 0.873191 11.4419 1.56761 10.4216C2.26202 9.40126 3.23174 8.68482 4.31925 8.38867C4.27208 8.70938 4.24856 9.03421 4.24892 9.3596V17.9885C4.24995 19.5179 4.77089 20.9843 5.69746 22.0662C6.62403 23.148 7.88057 23.757 9.19145 23.7594H16.5877C16.9664 23.7594 17.344 23.7089 17.7129 23.6089Z" fill="#262626"/>
<path d="M26.9337 28.4279H28.8091C28.9221 28.4279 29.0304 28.3756 29.1103 28.2824C29.1901 28.1892 29.235 28.0628 29.235 27.931V15.2224C29.2324 14.9497 29.276 14.679 29.3632 14.4259C29.4504 14.1728 29.5795 13.9423 29.7432 13.7475C29.9069 13.5528 30.1019 13.3976 30.3171 13.2908C30.5322 13.1841 30.7633 13.128 30.9971 13.1256H39.9367C40.4075 13.1268 40.8586 13.3458 41.1912 13.7347C41.5237 14.1235 41.7105 14.6503 41.7105 15.1996V27.9082C41.7105 27.9735 41.7215 28.0381 41.7429 28.0984C41.7643 28.1587 41.7957 28.2134 41.8352 28.2596C41.8748 28.3057 41.9217 28.3423 41.9734 28.3673C42.0251 28.3923 42.0805 28.4051 42.1364 28.4051H43.9727C44.029 28.4057 44.0848 28.3933 44.1369 28.3686C44.189 28.3439 44.2365 28.3074 44.2764 28.2612C44.3164 28.215 44.3481 28.16 44.3697 28.0994C44.3914 28.0389 44.4025 27.9739 44.4025 27.9082V15.3181C44.4025 12.7017 43.1054 10.582 40.8627 10.582H30.3134C28.0707 10.582 26.4922 12.7244 26.4922 15.3364V27.931C26.4921 27.9979 26.5037 28.064 26.526 28.1255C26.5484 28.187 26.5812 28.2426 26.6224 28.289C26.6636 28.3354 26.7124 28.3716 26.7659 28.3954C26.8194 28.4193 26.8765 28.4304 26.9337 28.4279Z" fill="#262626"/>
<path d="M60.9291 10.5869H50.8252C49.6425 10.5881 48.5084 11.1362 47.6713 12.111C46.8342 13.0859 46.3625 14.4081 46.3594 15.788V23.1725C46.3589 23.8573 46.474 24.5355 46.6981 25.1684C46.9223 25.8013 47.2511 26.3765 47.6658 26.8612C48.0805 27.3458 48.5729 27.7304 49.115 27.9931C49.6571 28.2557 50.2383 28.3912 50.8252 28.3918H60.9252C61.5122 28.3912 62.0933 28.2557 62.6354 27.9931C63.1775 27.7304 63.67 27.3458 64.0847 26.8612C64.4994 26.3765 64.8282 25.8013 65.0523 25.1684C65.2765 24.5355 65.3916 23.8573 65.3911 23.1725V15.788C65.3869 14.4093 64.9154 13.0885 64.0794 12.114C63.2434 11.1395 62.1109 10.5905 60.9291 10.5869ZM62.7108 22.9582C62.7108 23.738 62.4453 24.4858 61.9726 25.0372C61.5 25.5886 60.859 25.8984 60.1907 25.8984H51.5676C51.2372 25.8978 50.9101 25.8212 50.605 25.6732C50.2999 25.5251 50.0228 25.3083 49.7895 25.0353C49.5562 24.7623 49.3713 24.4384 49.2453 24.082C49.1194 23.7256 49.0548 23.3437 49.0553 22.9582V16.066C49.0553 15.2878 49.3197 14.5414 49.7907 13.9903C50.2616 13.4391 50.9006 13.1283 51.5676 13.1259H60.1828C60.8512 13.1259 61.4922 13.4357 61.9648 13.987C62.4374 14.5384 62.7029 15.2863 62.7029 16.066L62.7108 22.9582Z" fill="#262626"/>
<path d="M85.2053 11.0838V12.6382C85.2053 12.7699 85.1604 12.8963 85.0805 12.9895C85.0007 13.0827 84.8923 13.135 84.7794 13.135H71.7725C71.2841 13.1643 70.8229 13.4063 70.48 13.8131C70.1371 14.2199 69.9375 14.7619 69.9205 15.3321V24.0386C69.9205 25.1781 70.7996 25.8984 71.7764 25.8984H84.7833C84.8396 25.8978 84.8954 25.9102 84.9475 25.9349C84.9996 25.9596 85.047 25.9961 85.087 26.0423C85.1269 26.0885 85.1587 26.1434 85.1803 26.204C85.202 26.2646 85.2131 26.3296 85.2131 26.3952V27.9131C85.2131 27.9788 85.202 28.0438 85.1803 28.1043C85.1587 28.1649 85.1269 28.2199 85.087 28.2661C85.047 28.3123 84.9996 28.3488 84.9475 28.3735C84.8954 28.3982 84.8396 28.4106 84.7833 28.41H70.7489C69.8162 28.41 68.9218 27.9778 68.2624 27.2084C67.6029 26.439 67.2324 25.3955 67.2324 24.3075V14.6894C67.2324 13.6061 67.5997 12.5667 68.2541 11.7981C68.9085 11.0295 69.7969 10.5941 70.7254 10.5869H84.7911C84.902 10.5905 85.0074 10.6444 85.0847 10.7372C85.1621 10.83 85.2053 10.9543 85.2053 11.0838Z" fill="#262626"/>
<path d="M89.4479 7.08996V10.5862H87.2169C87.1039 10.5862 86.9956 10.6386 86.9157 10.7317C86.8359 10.8249 86.791 10.9513 86.791 11.0831V12.6283C86.791 12.7601 86.8359 12.8865 86.9157 12.9797C86.9956 13.0728 87.1039 13.1252 87.2169 13.1252H89.4479V23.7188C89.4479 24.9628 89.8715 26.1558 90.6254 27.0355C91.3794 27.9151 92.402 28.4093 93.4683 28.4093H100.911C101.022 28.4057 101.128 28.3518 101.205 28.259C101.282 28.1662 101.326 28.0419 101.326 27.9124V26.3945C101.326 26.3289 101.314 26.2639 101.293 26.2033C101.271 26.1427 101.239 26.0877 101.199 26.0415C101.16 25.9954 101.112 25.9589 101.06 25.9342C101.008 25.9095 100.952 25.897 100.896 25.8976H94.2068C93.6978 25.8879 93.2082 25.6677 92.8254 25.2761C92.4426 24.8846 92.1914 24.3473 92.1164 23.7598L92.1555 13.1252L100.911 13.148C101.022 13.1444 101.128 13.0905 101.205 12.9977C101.282 12.9049 101.326 12.7806 101.326 12.6511V11.0831C101.326 10.9513 101.281 10.8249 101.201 10.7317C101.121 10.6386 101.013 10.5862 100.9 10.5862L92.1086 10.5634V7.06717C92.1086 6.9354 92.0638 6.80902 91.9839 6.71584C91.904 6.62266 91.7957 6.57031 91.6828 6.57031H89.862C89.8054 6.57206 89.7497 6.58697 89.698 6.61416C89.6464 6.64135 89.6 6.68027 89.5614 6.72866C89.5228 6.77705 89.4929 6.83393 89.4734 6.89597C89.4539 6.95801 89.4453 7.02396 89.4479 7.08996Z" fill="#262626"/>
<path d="M103.443 10.5869H105.284C105.397 10.5869 105.505 10.6393 105.585 10.7324C105.665 10.8256 105.71 10.952 105.71 11.0838V24.1252C105.706 24.3396 105.743 24.5524 105.816 24.749C105.89 24.9457 105.999 25.1216 106.135 25.2647C106.533 25.6588 107.029 25.8909 107.55 25.9257H108.398C108.454 25.9257 108.509 25.9386 108.561 25.9635C108.612 25.9885 108.659 26.0251 108.699 26.0712C108.738 26.1174 108.77 26.1721 108.791 26.2324C108.813 26.2927 108.824 26.3573 108.824 26.4226V27.9177C108.824 28.0495 108.779 28.1758 108.699 28.269C108.619 28.3622 108.511 28.4146 108.398 28.4146H106.444C106 28.4261 105.559 28.3344 105.146 28.1449C104.733 27.9554 104.356 27.6718 104.038 27.3108C103.72 26.9497 103.466 26.5184 103.293 26.0419C103.119 25.5654 103.028 25.0533 103.025 24.5354V11.0838C103.025 10.9536 103.069 10.8285 103.147 10.7356C103.226 10.6427 103.332 10.5893 103.443 10.5869Z" fill="#262626"/>
<path d="M103.022 4.07696V7.33161C103.021 7.39724 103.032 7.46234 103.053 7.52315C103.074 7.58396 103.105 7.63927 103.145 7.68589C103.185 7.73251 103.232 7.76952 103.284 7.79477C103.336 7.82003 103.391 7.83303 103.448 7.83303H105.284C105.34 7.83363 105.396 7.82122 105.448 7.79652C105.5 7.77182 105.548 7.73532 105.588 7.68912C105.628 7.64292 105.659 7.58795 105.681 7.52737C105.703 7.46679 105.714 7.4018 105.714 7.33617V4.06329C105.714 3.99765 105.703 3.93267 105.681 3.87209C105.659 3.81151 105.628 3.75653 105.588 3.71033C105.548 3.66413 105.5 3.62763 105.448 3.60293C105.396 3.57823 105.34 3.56583 105.284 3.56643H103.448C103.391 3.5664 103.334 3.57969 103.282 3.60551C103.229 3.63133 103.182 3.66916 103.142 3.71675C103.102 3.76435 103.071 3.82075 103.051 3.88262C103.03 3.94449 103.02 4.01057 103.022 4.07696Z" fill="#262626"/>
<path d="M110.016 4.07661V24.7532C110.016 25.7204 110.345 26.6479 110.931 27.3318C111.517 28.0157 112.312 28.3999 113.141 28.3999H115.189C115.245 28.3999 115.3 28.387 115.352 28.3621C115.403 28.3371 115.45 28.3005 115.49 28.2543C115.529 28.2082 115.561 28.1534 115.582 28.0932C115.604 28.0329 115.615 27.9683 115.615 27.903V26.3714C115.615 26.2396 115.57 26.1133 115.49 26.0201C115.41 25.9269 115.302 25.8746 115.189 25.8746H113.958C113.325 25.8746 112.696 25.4734 112.696 24.735V4.10396C112.696 4.03833 112.686 3.97323 112.665 3.91242C112.643 3.85161 112.612 3.7963 112.573 3.74968C112.533 3.70306 112.486 3.66605 112.434 3.6408C112.382 3.61554 112.326 3.60254 112.27 3.60255L110.442 3.5752C110.385 3.57519 110.33 3.58819 110.278 3.61345C110.226 3.6387 110.179 3.67571 110.139 3.72233C110.099 3.76895 110.068 3.82426 110.047 3.88507C110.026 3.94588 110.015 4.01098 110.016 4.07661Z" fill="#262626"/>
<path d="M119.862 25.8984H117.994C117.77 25.8984 117.588 26.1107 117.588 26.3725V27.9497C117.588 28.2115 117.77 28.4238 117.994 28.4238H119.862C120.086 28.4238 120.268 28.2115 120.268 27.9497V26.3725C120.268 26.1107 120.086 25.8984 119.862 25.8984Z" fill="#BD00FF"/>
</g>
<defs>
<clipPath id="clip0_1282_6956">
<rect width="120" height="28" fill="white" transform="translate(0.310547)"/>
</clipPath>
</defs>
</svg>
