<svg width="127" height="130" viewBox="0 0 127 130" fill="none" xmlns="http://www.w3.org/2000/svg">
<g filter="url(#filter0_d_654_4950)">
<rect x="1.5" y="47.1782" width="117" height="43" fill="#FFE6E7"/>
<path d="M59.0488 83.7202L1.89453 119.102V48.3384L59.0488 83.7202Z" fill="#FDFDFD" stroke="#A6A6A6"/>
<path d="M118.104 119.101L60.9492 83.7202L118.104 48.3394V119.101Z" fill="#FDFDFD" stroke="#A6A6A6"/>
<path d="M116.847 119.5H3.15137L59.999 84.3081L116.847 119.5Z" fill="#FDFDFD" stroke="#A6A6A6"/>
<path d="M118.604 47.4419L59.9998 0.000152588L1.39453 47.4419H118.604Z" fill="#FFE6E7"/>
<rect x="39.5" y="29" width="40" height="40" rx="20" fill="#FDFDFD"/>
<path d="M70.8678 40.7006C71.2583 40.3101 71.89 40.3101 72.2805 40.7006C72.671 41.0911 72.671 41.7228 72.2805 42.1134L57.6272 56.7683C56.5858 57.8097 54.8958 57.8097 53.8544 56.7683L46.7011 49.6134C46.3106 49.2228 46.3106 48.5911 46.7011 48.2006C47.0916 47.8101 47.7233 47.8101 48.1139 48.2006L55.2688 55.3539C55.5292 55.6143 55.9525 55.6143 56.2128 55.3539L70.8678 40.7006Z" fill="#EC1C24"/>
</g>
<defs>
<filter id="filter0_d_654_4950" x="0" y="0" width="128" height="130" filterUnits="userSpaceOnUse" color-interpolation-filters="sRGB">
<feFlood flood-opacity="0" result="BackgroundImageFix"/>
<feColorMatrix in="SourceAlpha" type="matrix" values="0 0 0 0 0 0 0 0 0 0 0 0 0 0 0 0 0 0 127 0" result="hardAlpha"/>
<feOffset dx="4" dy="6"/>
<feGaussianBlur stdDeviation="2"/>
<feComposite in2="hardAlpha" operator="out"/>
<feColorMatrix type="matrix" values="0 0 0 0 0.630682 0 0 0 0 0.584373 0 0 0 0 0.584373 0 0 0 0.25 0"/>
<feBlend mode="normal" in2="BackgroundImageFix" result="effect1_dropShadow_654_4950"/>
<feBlend mode="normal" in="SourceGraphic" in2="effect1_dropShadow_654_4950" result="shape"/>
</filter>
</defs>
</svg>
