<svg width="40" height="40" viewBox="0 0 40 40" fill="none" xmlns="http://www.w3.org/2000/svg">
<path d="M22.1165 11.2647C22.116 10.0955 21.1666 9.1472 19.9973 9.1472C18.8284 9.14761 17.8803 10.0958 17.8799 11.2647C17.8799 12.434 18.8282 13.3834 19.9973 13.3838V14.7949L19.6377 14.777C17.8577 14.5965 16.4688 13.0922 16.4688 11.2647C16.4692 9.31608 18.0487 7.7365 19.9973 7.73608C21.9463 7.73608 23.5272 9.31582 23.5276 11.2647L23.5097 11.626C23.3291 13.4059 21.8249 14.7949 19.9973 14.7949V13.3838C21.1669 13.3838 22.1165 12.4342 22.1165 11.2647Z" fill="#2B2828"/>
<path d="M22.1165 11.2647C22.116 10.0955 21.1666 9.1472 19.9973 9.1472C18.8284 9.14761 17.8803 10.0958 17.8799 11.2647C17.8799 12.434 18.8282 13.3834 19.9973 13.3838V14.7949L19.6377 14.777C17.8577 14.5965 16.4688 13.0922 16.4688 11.2647C16.4692 9.31608 18.0487 7.7365 19.9973 7.73608C21.9463 7.73608 23.5272 9.31582 23.5276 11.2647L23.5097 11.626C23.3291 13.4059 21.8249 14.7949 19.9973 14.7949V13.3838C21.1669 13.3838 22.1165 12.4342 22.1165 11.2647Z" fill="black" fill-opacity="0.2"/>
<path d="M22.1165 11.2647C22.116 10.0955 21.1666 9.1472 19.9973 9.1472C18.8284 9.14761 17.8803 10.0958 17.8799 11.2647C17.8799 12.434 18.8282 13.3834 19.9973 13.3838V14.7949L19.6377 14.777C17.8577 14.5965 16.4688 13.0922 16.4688 11.2647C16.4692 9.31608 18.0487 7.7365 19.9973 7.73608C21.9463 7.73608 23.5272 9.31582 23.5276 11.2647L23.5097 11.626C23.3291 13.4059 21.8249 14.7949 19.9973 14.7949V13.3838C21.1669 13.3838 22.1165 12.4342 22.1165 11.2647Z" fill="black" fill-opacity="0.2"/>
<path d="M30.9404 12.1484C30.9401 11.4665 30.3871 10.9131 29.7051 10.9131C29.0233 10.9134 28.47 11.4667 28.4697 12.1484C28.4697 12.8305 29.0231 13.3835 29.7051 13.3838V14.7965L29.4349 14.7819C28.1002 14.6463 27.0586 13.5189 27.0586 12.1484C27.0589 10.687 28.2436 9.50226 29.7051 9.50195C31.1668 9.50195 32.3529 10.6868 32.3532 12.1484L32.3385 12.4202C32.2027 13.7547 31.0754 14.7965 29.7051 14.7965V13.3838C30.3873 13.3838 30.9404 12.8307 30.9404 12.1484Z" fill="#2B2828"/>
<path d="M30.9404 12.1484C30.9401 11.4665 30.3871 10.9131 29.7051 10.9131C29.0233 10.9134 28.47 11.4667 28.4697 12.1484C28.4697 12.8305 29.0231 13.3835 29.7051 13.3838V14.7965L29.4349 14.7819C28.1002 14.6463 27.0586 13.5189 27.0586 12.1484C27.0589 10.687 28.2436 9.50226 29.7051 9.50195C31.1668 9.50195 32.3529 10.6868 32.3532 12.1484L32.3385 12.4202C32.2027 13.7547 31.0754 14.7965 29.7051 14.7965V13.3838C30.3873 13.3838 30.9404 12.8307 30.9404 12.1484Z" fill="black" fill-opacity="0.2"/>
<path d="M30.9404 12.1484C30.9401 11.4665 30.3871 10.9131 29.7051 10.9131C29.0233 10.9134 28.47 11.4667 28.4697 12.1484C28.4697 12.8305 29.0231 13.3835 29.7051 13.3838V14.7965L29.4349 14.7819C28.1002 14.6463 27.0586 13.5189 27.0586 12.1484C27.0589 10.687 28.2436 9.50226 29.7051 9.50195C31.1668 9.50195 32.3529 10.6868 32.3532 12.1484L32.3385 12.4202C32.2027 13.7547 31.0754 14.7965 29.7051 14.7965V13.3838C30.3873 13.3838 30.9404 12.8307 30.9404 12.1484Z" fill="black" fill-opacity="0.2"/>
<path d="M11.5264 12.1484C11.5261 11.4665 10.9731 10.9131 10.291 10.9131C9.60924 10.9134 9.05597 11.4667 9.05566 12.1484C9.05566 12.8305 9.60905 13.3835 10.291 13.3838V14.7965L10.0208 14.7819C8.68611 14.6463 7.64453 13.5189 7.64453 12.1484C7.64484 10.687 8.82954 9.50226 10.291 9.50195C11.7528 9.50195 12.9388 10.6868 12.9391 12.1484L12.9245 12.4202C12.7886 13.7547 11.6614 14.7965 10.291 14.7965V13.3838C10.9732 13.3838 11.5264 12.8307 11.5264 12.1484Z" fill="#2B2828"/>
<path d="M11.5264 12.1484C11.5261 11.4665 10.9731 10.9131 10.291 10.9131C9.60924 10.9134 9.05597 11.4667 9.05566 12.1484C9.05566 12.8305 9.60905 13.3835 10.291 13.3838V14.7965L10.0208 14.7819C8.68611 14.6463 7.64453 13.5189 7.64453 12.1484C7.64484 10.687 8.82954 9.50226 10.291 9.50195C11.7528 9.50195 12.9388 10.6868 12.9391 12.1484L12.9245 12.4202C12.7886 13.7547 11.6614 14.7965 10.291 14.7965V13.3838C10.9732 13.3838 11.5264 12.8307 11.5264 12.1484Z" fill="black" fill-opacity="0.2"/>
<path d="M11.5264 12.1484C11.5261 11.4665 10.9731 10.9131 10.291 10.9131C9.60924 10.9134 9.05597 11.4667 9.05566 12.1484C9.05566 12.8305 9.60905 13.3835 10.291 13.3838V14.7965L10.0208 14.7819C8.68611 14.6463 7.64453 13.5189 7.64453 12.1484C7.64484 10.687 8.82954 9.50226 10.291 9.50195C11.7528 9.50195 12.9388 10.6868 12.9391 12.1484L12.9245 12.4202C12.7886 13.7547 11.6614 14.7965 10.291 14.7965V13.3838C10.9732 13.3838 11.5264 12.8307 11.5264 12.1484Z" fill="black" fill-opacity="0.2"/>
<path d="M25.4714 18.5288C25.4712 18.3191 25.3003 18.1496 25.0905 18.1496H15.792C15.5824 18.1498 15.413 18.3192 15.4128 18.5288V25.8254C15.4128 28.603 17.6644 30.8547 20.4421 30.8547C23.2195 30.8544 25.4714 28.6029 25.4714 25.8254V18.5288ZM26.8825 25.8254C26.8825 29.3826 23.9992 32.2672 20.4421 32.2674C16.8847 32.2674 14 29.3827 14 25.8254V18.5288C14.0002 17.5395 14.8027 16.737 15.792 16.7368H25.0905C26.08 16.7368 26.8823 17.5394 26.8825 18.5288V25.8254Z" fill="#2B2828"/>
<path d="M25.4714 18.5288C25.4712 18.3191 25.3003 18.1496 25.0905 18.1496H15.792C15.5824 18.1498 15.413 18.3192 15.4128 18.5288V25.8254C15.4128 28.603 17.6644 30.8547 20.4421 30.8547C23.2195 30.8544 25.4714 28.6029 25.4714 25.8254V18.5288ZM26.8825 25.8254C26.8825 29.3826 23.9992 32.2672 20.4421 32.2674C16.8847 32.2674 14 29.3827 14 25.8254V18.5288C14.0002 17.5395 14.8027 16.737 15.792 16.7368H25.0905C26.08 16.7368 26.8823 17.5394 26.8825 18.5288V25.8254Z" fill="black" fill-opacity="0.2"/>
<path d="M25.4714 18.5288C25.4712 18.3191 25.3003 18.1496 25.0905 18.1496H15.792C15.5824 18.1498 15.413 18.3192 15.4128 18.5288V25.8254C15.4128 28.603 17.6644 30.8547 20.4421 30.8547C23.2195 30.8544 25.4714 28.6029 25.4714 25.8254V18.5288ZM26.8825 25.8254C26.8825 29.3826 23.9992 32.2672 20.4421 32.2674C16.8847 32.2674 14 29.3827 14 25.8254V18.5288C14.0002 17.5395 14.8027 16.737 15.792 16.7368H25.0905C26.08 16.7368 26.8823 17.5394 26.8825 18.5288V25.8254Z" fill="black" fill-opacity="0.2"/>
<path d="M4.29297 21.8556V17.9478C4.29297 17.2794 4.8356 16.7368 5.50391 16.7368H11.1761C11.5658 16.737 11.8825 17.0534 11.8825 17.4432C11.8825 17.8329 11.5658 18.1494 11.1761 18.1496H5.70573V21.8556C5.70609 24.8766 8.15501 27.326 11.1761 27.326C11.5656 27.3262 11.8821 27.6413 11.8825 28.0308C11.8825 28.4205 11.5658 28.737 11.1761 28.7371C7.37531 28.7371 4.29333 25.6563 4.29297 21.8556Z" fill="#2B2828"/>
<path d="M4.29297 21.8556V17.9478C4.29297 17.2794 4.8356 16.7368 5.50391 16.7368H11.1761C11.5658 16.737 11.8825 17.0534 11.8825 17.4432C11.8825 17.8329 11.5658 18.1494 11.1761 18.1496H5.70573V21.8556C5.70609 24.8766 8.15501 27.326 11.1761 27.326C11.5656 27.3262 11.8821 27.6413 11.8825 28.0308C11.8825 28.4205 11.5658 28.737 11.1761 28.7371C7.37531 28.7371 4.29333 25.6563 4.29297 21.8556Z" fill="black" fill-opacity="0.2"/>
<path d="M4.29297 21.8556V17.9478C4.29297 17.2794 4.8356 16.7368 5.50391 16.7368H11.1761C11.5658 16.737 11.8825 17.0534 11.8825 17.4432C11.8825 17.8329 11.5658 18.1494 11.1761 18.1496H5.70573V21.8556C5.70609 24.8766 8.15501 27.326 11.1761 27.326C11.5656 27.3262 11.8821 27.6413 11.8825 28.0308C11.8825 28.4205 11.5658 28.737 11.1761 28.7371C7.37531 28.7371 4.29333 25.6563 4.29297 21.8556Z" fill="black" fill-opacity="0.2"/>
<path d="M35.707 21.8556V18.0666C35.7067 17.3346 35.1125 16.7368 34.3773 16.7368H28.8239C28.4342 16.737 28.1175 17.0534 28.1175 17.4432C28.1175 17.8329 28.4342 18.1494 28.8239 18.1496H34.2943V21.8556C34.2939 24.8767 31.845 27.326 28.8239 27.326C28.4344 27.3262 28.1179 27.6413 28.1175 28.0308C28.1175 28.4205 28.4342 28.737 28.8239 28.7371C32.6247 28.7371 35.7067 25.6564 35.707 21.8556Z" fill="#2B2828"/>
<path d="M35.707 21.8556V18.0666C35.7067 17.3346 35.1125 16.7368 34.3773 16.7368H28.8239C28.4342 16.737 28.1175 17.0534 28.1175 17.4432C28.1175 17.8329 28.4342 18.1494 28.8239 18.1496H34.2943V21.8556C34.2939 24.8767 31.845 27.326 28.8239 27.326C28.4344 27.3262 28.1179 27.6413 28.1175 28.0308C28.1175 28.4205 28.4342 28.737 28.8239 28.7371C32.6247 28.7371 35.7067 25.6564 35.707 21.8556Z" fill="black" fill-opacity="0.2"/>
<path d="M35.707 21.8556V18.0666C35.7067 17.3346 35.1125 16.7368 34.3773 16.7368H28.8239C28.4342 16.737 28.1175 17.0534 28.1175 17.4432C28.1175 17.8329 28.4342 18.1494 28.8239 18.1496H34.2943V21.8556C34.2939 24.8767 31.845 27.326 28.8239 27.326C28.4344 27.3262 28.1179 27.6413 28.1175 28.0308C28.1175 28.4205 28.4342 28.737 28.8239 28.7371C32.6247 28.7371 35.7067 25.6564 35.707 21.8556Z" fill="black" fill-opacity="0.2"/>
</svg>
