<svg width="46" height="46" viewBox="0 0 46 46" fill="none" xmlns="http://www.w3.org/2000/svg">
<path d="M30.1087 43.7823C30.202 44.0732 30.0373 44.3805 29.752 44.4683C27.5733 45.1543 25.3068 45.5 23.002 45.5C15.8623 45.5 9.30439 42.2238 5.00744 36.5055C2.06049 32.5872 0.501953 27.9171 0.501953 23C0.501953 16.4091 3.32268 10.2738 8.27817 5.9878H4.34342C4.04159 5.9878 3.79464 5.74085 3.79464 5.43902C3.79464 5.1372 4.04159 4.89024 4.34342 4.89024H9.83122C10.1331 4.89024 10.38 5.1372 10.38 5.43902V10.9268C10.38 11.2287 10.1331 11.4756 9.83122 11.4756C9.52939 11.4756 9.28244 11.2287 9.28244 10.9268V6.58598C4.39281 10.6689 1.59951 16.6067 1.59951 23C1.59951 27.6756 3.08122 32.1207 5.88549 35.847C9.96842 41.2854 16.2081 44.4024 23.002 44.4024C25.1916 44.4024 27.3538 44.0732 29.4227 43.4201C29.7135 43.3323 30.0209 43.4915 30.1087 43.7823ZM41.6605 40.0122H37.7257C42.6812 35.7262 45.502 29.5909 45.502 23C45.502 18.0829 43.9434 13.4128 40.9965 9.49451C36.6995 3.77622 30.1416 0.5 23.002 0.5C20.6971 0.5 18.4306 0.845732 16.252 1.53171C15.9611 1.625 15.802 1.93232 15.8952 2.21768C15.983 2.50854 16.2904 2.66768 16.5812 2.57439C18.6501 1.92683 20.8123 1.59756 23.002 1.59756C29.7959 1.59756 36.0355 4.71463 40.1184 10.153C42.9227 13.8793 44.4044 18.3244 44.4044 23C44.4044 29.3933 41.6111 35.3311 36.7215 39.414V35.0732C36.7215 34.7713 36.4745 34.5244 36.1727 34.5244C35.8709 34.5244 35.6239 34.7713 35.6239 35.0732V40.561C35.6239 40.8628 35.8709 41.1098 36.1727 41.1098H41.6605C41.9623 41.1098 42.2093 40.8628 42.2093 40.561C42.2093 40.2591 41.9623 40.0122 41.6605 40.0122ZM29.0385 23C29.0385 26.3311 26.3331 29.0366 23.002 29.0366C19.6709 29.0366 16.9654 26.3311 16.9654 23C16.9654 19.6689 19.6709 16.9634 23.002 16.9634C26.3331 16.9634 29.0385 19.6689 29.0385 23ZM27.941 23C27.941 20.278 25.7239 18.061 23.002 18.061C20.28 18.061 18.0629 20.278 18.0629 23C18.0629 25.722 20.28 27.939 23.002 27.939C25.7239 27.939 27.941 25.722 27.941 23ZM34.5373 30.3372C35.0093 31.0945 34.8995 32.0604 34.2684 32.6915L32.6879 34.2719C32.0568 34.903 31.091 35.0128 30.3337 34.5409L28.6544 33.4817C28.4239 33.339 28.144 33.3171 27.9081 33.4268C27.5843 33.5805 27.2495 33.7177 26.9093 33.8439C26.6678 33.9317 26.4812 34.1457 26.4209 34.4091L25.9709 36.3409C25.7733 37.2134 25.0105 37.8171 24.1215 37.8171H21.8824C20.9934 37.8171 20.2306 37.2134 20.0276 36.3409L19.5776 34.4091C19.5172 34.1457 19.3306 33.9317 19.0891 33.8439C18.7489 33.7232 18.4087 33.5805 18.0849 33.4268C17.8489 33.3171 17.569 33.3335 17.3385 33.4817L15.6593 34.5354C14.902 35.0073 13.9361 34.8976 13.305 34.2665L11.7245 32.6915C11.0934 32.0604 10.9837 31.0945 11.4556 30.3372L12.5038 28.6524C12.6465 28.422 12.6684 28.1421 12.5587 27.9061C12.405 27.5768 12.2623 27.2421 12.1416 26.9073C12.0538 26.6659 11.8398 26.4793 11.5763 26.4189L9.64464 25.9744C8.78854 25.7713 8.18488 25.0085 8.18488 24.1195V21.8805C8.18488 20.9915 8.78854 20.2287 9.6611 20.0256L11.5928 19.5811C11.8617 19.5207 12.0702 19.3396 12.1581 19.0927C12.2788 18.7524 12.4215 18.4177 12.5751 18.0884C12.6849 17.8579 12.6629 17.5726 12.5202 17.3421L11.4666 15.6628C10.9946 14.9055 11.1044 13.9396 11.7355 13.3085L13.3105 11.7335C13.9416 11.1024 14.9074 10.9927 15.6648 11.4646L17.344 12.5183C17.5745 12.661 17.8544 12.6829 18.0904 12.5732C18.4141 12.4195 18.7544 12.2768 19.0946 12.1561C19.3361 12.0683 19.5227 11.8543 19.5831 11.5909L20.0331 9.65366C20.2306 8.78659 20.9934 8.18293 21.8824 8.18293H24.1215C25.0105 8.18293 25.7733 8.78659 25.9763 9.65915L26.4263 11.5909C26.4867 11.8543 26.6733 12.0683 26.9148 12.1561C27.255 12.2768 27.5898 12.4195 27.9135 12.5732C28.1495 12.6829 28.4239 12.661 28.6599 12.5183L30.3446 11.4701C31.102 10.9982 32.0678 11.1079 32.6989 11.739L34.2794 13.3195C34.9105 13.9506 35.0202 14.9165 34.5483 15.6738L33.4837 17.3476C33.341 17.578 33.319 17.8634 33.4288 18.0939C33.5824 18.4177 33.7251 18.7579 33.8459 19.0982C33.9337 19.3396 34.1422 19.5262 34.4111 19.5866L36.3428 20.0311C37.2154 20.2287 37.819 20.9915 37.819 21.8805V24.1195C37.819 25.0085 37.2154 25.7713 36.3428 25.9744L34.4111 26.4189C34.1477 26.4793 33.9337 26.6659 33.8459 26.9073C33.7251 27.2421 33.5879 27.5823 33.4288 27.9061C33.319 28.1421 33.3355 28.422 33.4837 28.6524L34.5373 30.3372ZM33.6044 30.9189L32.5507 29.2341C32.205 28.6854 32.1666 28.0104 32.4355 27.4396C32.5727 27.1433 32.6989 26.8415 32.8087 26.5396C33.0227 25.9415 33.5276 25.497 34.1587 25.3543L36.0904 24.9098C36.458 24.8274 36.716 24.5037 36.716 24.125V21.886C36.716 21.5073 36.458 21.189 36.0904 21.1012L34.1587 20.6567C33.5276 20.5085 33.0227 20.0695 32.8087 19.4713C32.6989 19.164 32.5727 18.8622 32.4355 18.5713C32.1611 17.9951 32.205 17.3256 32.5507 16.7713L33.6044 15.0921C33.8074 14.7738 33.7581 14.3622 33.4892 14.0988L31.9087 12.5183C31.6398 12.2494 31.2337 12.2055 30.9154 12.403L29.2306 13.4567C28.6818 13.8024 28.0068 13.8409 27.4361 13.572C27.1452 13.4348 26.8379 13.3085 26.5361 13.1988C25.9379 12.9848 25.4934 12.4799 25.3507 11.8488L24.9007 9.91707C24.8184 9.53841 24.5001 9.28049 24.1215 9.28049H21.8824C21.5038 9.28049 21.1855 9.53841 21.0977 9.9061L20.6477 11.8433C20.4995 12.4744 20.0605 12.9793 19.4623 13.1933C19.155 13.303 18.8532 13.4293 18.5623 13.5665C17.9861 13.8409 17.3166 13.797 16.7623 13.4512L15.0831 12.3976C14.7648 12.1945 14.3532 12.2439 14.0843 12.5128L12.5093 14.0878C12.2404 14.3567 12.1965 14.7628 12.394 15.0811L13.4477 16.7604C13.7934 17.3146 13.8373 17.9841 13.5629 18.5604C13.4257 18.8512 13.2995 19.1585 13.1898 19.4604C12.9757 20.053 12.4709 20.4976 11.8398 20.6457L9.90805 21.0902C9.54037 21.1835 9.28244 21.5018 9.28244 21.8805V24.1195C9.28244 24.4982 9.54037 24.8165 9.90805 24.9043L11.8398 25.3488C12.4709 25.497 12.9757 25.936 13.1898 26.5341C13.2995 26.836 13.4257 27.1378 13.5629 27.4341C13.8318 28.0104 13.7934 28.6799 13.4477 29.2287L12.3995 30.9134C12.202 31.2317 12.2459 31.6433 12.5148 31.9067L14.0952 33.4817C14.3641 33.7506 14.7702 33.7945 15.094 33.597L16.7733 32.5433C17.0861 32.3512 17.4318 32.2524 17.7831 32.2524C18.052 32.2524 18.3209 32.3128 18.5733 32.428C18.8641 32.5652 19.166 32.6915 19.4733 32.8012C20.0715 33.0152 20.5105 33.5201 20.6587 34.1512L21.1087 36.0829C21.191 36.4506 21.5148 36.7085 21.8934 36.7085H24.1324C24.5111 36.7085 24.8294 36.4506 24.9172 36.0829L25.3672 34.1512C25.5154 33.5201 25.9544 33.0152 26.5526 32.8012C26.8599 32.6915 27.1617 32.5652 27.4526 32.428C28.0288 32.1537 28.6983 32.1976 29.2471 32.5433L30.9318 33.597C31.2501 33.7945 31.6617 33.7506 31.9251 33.4817L33.5056 31.9012C33.7581 31.6433 33.8074 31.2372 33.6044 30.9189Z" fill="#58595A"/>
<path d="M0.00195312 23C0.00195312 16.7018 2.52417 10.8091 6.9917 6.48877H4.34277C3.76532 6.48816 3.29541 6.01656 3.29541 5.43896C3.29544 4.8614 3.76534 4.38977 4.34277 4.38916V4.88965C4.04148 4.89026 3.79593 5.13754 3.7959 5.43896L3.80566 5.54883C3.84948 5.76264 4.01929 5.93172 4.23291 5.97607L4.34277 5.98828H8.27832C3.3231 10.2742 0.502441 16.4093 0.502441 23L0.519531 23.918C0.701358 28.4972 2.244 32.8323 5.00684 36.5059C9.16972 42.0457 15.4558 45.293 22.3359 45.4902L23.0024 45.5C25.3073 45.5 27.5743 45.1533 29.7529 44.4673C30.0378 44.3792 30.2026 44.0719 30.1094 43.7812C30.0212 43.491 29.7138 43.3323 29.4233 43.4199C27.3544 44.073 25.1921 44.4014 23.0024 44.4014V43.9033C25.1416 43.9033 27.2528 43.5811 29.272 42.9438L29.2793 42.9414C29.8237 42.7774 30.4124 43.072 30.5854 43.6299L30.6294 43.8398C30.6813 44.3285 30.3796 44.7952 29.8994 44.9434L29.9019 44.9458C27.6743 45.6471 25.3573 46.0005 23.0024 46.0005C15.7056 46.0005 9.00016 42.6496 4.60889 36.8062C1.5966 32.801 0.00195314 28.0252 0.00195312 23ZM45.5024 23C45.5024 18.3904 44.132 13.9983 41.5327 10.2388L40.998 9.49414C36.8352 3.95426 30.5491 0.707034 23.6689 0.509766L23.0024 0.5C20.6976 0.5 18.4306 0.846739 16.252 1.53271C15.9616 1.62629 15.8023 1.93363 15.8955 2.21875C15.9836 2.50889 16.2911 2.66813 16.5815 2.5752C18.6504 1.92763 20.8128 1.59863 23.0024 1.59863L24.2695 1.63281C30.568 1.9952 36.2914 5.05482 40.1191 10.1533C42.9233 13.8795 44.4038 18.3245 44.4038 23L44.3721 24.1938C44.0471 30.1284 41.3064 35.586 36.7231 39.4136V35.0728C36.7229 34.8089 36.5329 34.5871 36.2837 34.5356L36.1738 34.5234C35.8721 34.5234 35.6247 34.7711 35.6245 35.0728V40.561L35.6367 40.6709C35.6808 40.8851 35.8497 41.0544 36.064 41.0981L36.1738 41.1104H41.6621C41.9259 41.1098 42.1481 40.9202 42.1992 40.6709L42.209 40.561C42.209 40.2972 42.021 40.0756 41.772 40.0239L41.6621 40.0117V39.5112C42.2396 39.5118 42.7095 39.9834 42.7095 40.561C42.7094 41.1386 42.2395 41.6102 41.6621 41.6108H36.1738C35.5959 41.6108 35.1241 41.139 35.124 40.561V35.0728C35.1242 34.495 35.596 34.0254 36.1738 34.0254C36.7514 34.0257 37.221 34.4952 37.2212 35.0728V38.3052C41.4872 34.3556 43.9058 28.877 43.9058 23C43.9058 18.7178 42.6325 14.6367 40.2168 11.1445L39.7188 10.4536C35.7302 5.14096 29.639 2.09668 23.0024 2.09668C20.8639 2.09668 18.7523 2.41704 16.7329 3.04883C16.1829 3.22471 15.5924 2.92737 15.4194 2.37012C15.2385 1.81539 15.5521 1.23256 16.1006 1.05664L16.103 1.0542C18.3306 0.352918 20.6475 -0.000488281 23.0024 -0.000488281C30.2993 -0.000488258 37.0047 3.35036 41.396 9.19385C44.4083 13.199 46.0029 17.9748 46.0029 23C46.0029 29.2982 43.4807 35.1909 39.0132 39.5112H41.6621V40.0117H37.7266C42.372 35.9937 45.1426 30.3506 45.4707 24.2305L45.5024 23ZM7.68506 24.1206V21.8794C7.68555 20.7582 8.44963 19.7938 9.54785 19.5381L11.4814 19.0938C11.5914 19.0691 11.6591 19.002 11.6865 18.9253L11.894 18.3931C11.967 18.2186 12.0446 18.0471 12.1235 17.8779V17.873C12.1538 17.8095 12.1567 17.7051 12.0967 17.6069L11.0444 15.9297L11.042 15.9272C10.4478 14.9734 10.5865 13.7518 11.3813 12.9561L12.9585 11.3789C13.7543 10.5841 14.9758 10.4453 15.9297 11.0396L15.9321 11.042L17.6094 12.0942C17.7066 12.1545 17.8074 12.1526 17.8804 12.1187C18.2167 11.9592 18.5714 11.8105 18.9277 11.6841C19.0015 11.6557 19.0724 11.5826 19.0962 11.479L19.5454 9.54053C19.7958 8.44541 20.7625 7.68311 21.8818 7.68262V8.18311L21.5571 8.20996C20.8127 8.33702 20.2069 8.89426 20.0337 9.65283L19.5845 11.5913L19.5161 11.7769C19.4271 11.9524 19.2771 12.0891 19.0962 12.1553L18.5859 12.353C18.4182 12.4229 18.2519 12.4961 18.0903 12.5728C17.9137 12.6548 17.713 12.6629 17.5264 12.6021L17.3457 12.519L15.666 11.4644C14.9087 10.9924 13.9412 11.1018 13.3101 11.7329L11.7354 13.3076C11.1043 13.9387 10.9948 14.9063 11.4668 15.6636L12.5215 17.3433C12.6634 17.5735 12.6846 17.8578 12.5752 18.0879C12.4215 18.4172 12.2784 18.7535 12.1577 19.0938L12.0698 19.2646C11.9616 19.4223 11.7951 19.5368 11.5938 19.582L9.6626 20.0264L9.34766 20.1265C8.64775 20.4205 8.18598 21.1019 8.18555 21.8794V24.1206L8.2124 24.4453C8.33936 25.1901 8.89612 25.7959 9.64551 25.9736L11.5767 26.418C11.8398 26.4783 12.0551 26.6651 12.1431 26.9062C12.2638 27.241 12.4044 27.578 12.5581 27.9072C12.6675 28.1429 12.6467 28.4216 12.5044 28.6519L11.457 30.3364L11.3057 30.6294C11.019 31.3303 11.1733 32.1401 11.7256 32.6924L13.3052 34.2671C13.8577 34.8195 14.6671 34.9717 15.3682 34.6846L15.6587 34.5356L17.3384 33.481C17.5689 33.3328 17.8495 33.3175 18.0854 33.4272C18.409 33.5808 18.7488 33.7241 19.0889 33.8447C19.3301 33.9325 19.5166 34.1456 19.5771 34.4087L20.0288 36.3398C20.2318 37.212 20.9933 37.8164 21.8818 37.8169H24.123L24.4478 37.79C25.1924 37.6629 25.7983 37.1036 25.9712 36.3398L26.4204 34.4087C26.4657 34.2113 26.5832 34.0422 26.7402 33.9326L26.9087 33.8447C27.2489 33.7185 27.5859 33.5809 27.9097 33.4272C28.1452 33.318 28.4242 33.3388 28.6543 33.481L30.334 34.5405C30.9963 34.9533 31.8181 34.9211 32.436 34.4844L32.6875 34.272L34.2695 32.6924C34.8219 32.14 34.9739 31.3304 34.687 30.6294L34.5381 30.3364L33.4834 28.6519C33.3358 28.4218 33.3204 28.1428 33.4297 27.9072C33.5091 27.7456 33.5827 27.5787 33.6519 27.4116L33.8472 26.9062C33.9352 26.6654 34.1483 26.4783 34.4111 26.418L36.3423 25.9736C37.1061 25.7959 37.6653 25.1901 37.7925 24.4453L37.8193 24.1206V21.8794C37.8189 21.102 37.3569 20.4218 36.6572 20.1313L36.3423 20.0312L34.4111 19.5869C34.1427 19.5265 33.9351 19.3397 33.8472 19.0986C33.7264 18.7584 33.5833 18.4166 33.4297 18.0928C33.3205 17.8627 33.3413 17.5782 33.4834 17.3481L34.5479 15.6733C34.9608 15.0108 34.9289 14.1893 34.4917 13.5713L34.2793 13.3198L32.6997 11.7402C32.0689 11.1095 31.1033 10.9981 30.3462 11.4692L28.6592 12.519L28.4785 12.6021C28.3532 12.6431 28.223 12.6536 28.0977 12.6313L27.9146 12.5728C27.7529 12.496 27.5878 12.4229 27.4214 12.353L26.916 12.1553C26.7345 12.0893 26.5828 11.9529 26.4937 11.7769L26.4277 11.5913L25.9761 9.66016C25.7983 8.89636 25.1925 8.33714 24.4478 8.20996L24.123 8.18311V7.68262C25.2443 7.68311 26.2087 8.44719 26.4644 9.54541L26.9136 11.4766C26.9375 11.5809 27.0102 11.6562 27.0845 11.6841C27.4419 11.811 27.7905 11.9603 28.1245 12.1187C28.1955 12.1517 28.2956 12.1542 28.4028 12.0894L30.0801 11.0444C31.0344 10.4498 32.2579 10.5904 33.0537 11.3862L34.6333 12.9658C35.429 13.7615 35.5669 14.9828 34.9727 15.937L34.9702 15.9419L33.9058 17.6167C33.8776 17.6643 33.865 17.7133 33.8618 17.7583L33.8813 17.8779C34.0414 18.2152 34.1915 18.5728 34.3184 18.9302C34.3476 19.0072 34.4169 19.0752 34.521 19.0986L36.4546 19.543L36.8501 19.6699C37.7341 20.0372 38.3194 20.8988 38.3198 21.8794V24.1206C38.3193 25.2418 37.5553 26.2062 36.457 26.4619L34.5234 26.9062C34.4713 26.9182 34.4266 26.942 34.3916 26.9722L34.3159 27.0771C34.1925 27.4194 34.0487 27.7729 33.8813 28.1147C33.8628 28.1545 33.8562 28.2012 33.8594 28.2466L33.9058 28.3809L33.9082 28.3882L34.9629 30.0728C35.5571 31.0266 35.4183 32.2482 34.6235 33.0439L33.0415 34.626C32.2458 35.4213 31.0244 35.5596 30.0703 34.9653L30.0679 34.9629L28.3882 33.9058C28.2922 33.8481 28.1916 33.8479 28.1196 33.8813L28.1172 33.8789C27.7789 34.0393 27.4332 34.1841 27.0845 34.3135H27.0796C27.0048 34.341 26.9328 34.416 26.9087 34.521L26.4595 36.4546C26.209 37.5543 25.2428 38.3169 24.123 38.3174H21.8818C20.7606 38.3169 19.7962 37.5528 19.5405 36.4546L19.0913 34.5234C19.0672 34.418 18.993 34.3408 18.918 34.3135C18.5634 34.1875 18.2103 34.0401 17.8755 33.8813L17.7437 33.8569C17.6986 33.8603 17.6526 33.8755 17.6094 33.9033L17.6045 33.9058L15.9248 34.958C14.9705 35.5527 13.747 35.4168 12.9512 34.6211L11.3716 33.0464C10.5761 32.2505 10.4376 31.0269 11.0322 30.0728L12.0796 28.3882L12.1284 28.2441L12.1064 28.1172C12.0273 27.9476 11.9499 27.7758 11.877 27.6021L11.6719 27.0771C11.6581 27.0399 11.6335 27.0025 11.5986 26.9722L11.4644 26.9062L9.5332 26.4619C8.45085 26.2052 7.68555 25.2397 7.68506 24.1206ZM24.1328 36.208V36.7085H21.894V36.208H24.1328ZM9.28174 24.1206V21.8794C9.28223 21.5012 9.54185 21.184 9.90918 21.0908L11.8403 20.6465C12.4714 20.4983 12.9764 20.0526 13.1904 19.46C13.3001 19.1585 13.427 18.852 13.564 18.5615C13.8042 18.0571 13.8006 17.4797 13.564 16.9722L13.4492 16.7598L12.3945 15.0801C12.2221 14.8016 12.2331 14.4559 12.4189 14.1938L12.5093 14.0889L14.084 12.5117C14.3526 12.2432 14.7644 12.1947 15.0825 12.397L16.7622 13.4517C17.3165 13.7974 17.9877 13.8408 18.564 13.5664C18.8544 13.4294 19.1555 13.3025 19.4624 13.1929C19.9854 13.0057 20.3865 12.5965 20.5781 12.0747L20.6489 11.8428L21.0981 9.90674C21.1859 9.53941 21.5037 9.27979 21.8818 9.2793H24.123C24.5011 9.27979 24.8195 9.53843 24.9019 9.9165L25.3511 11.8477C25.4938 12.4788 25.9394 12.9837 26.5376 13.1978C26.839 13.3074 27.1456 13.4343 27.436 13.5713C28.0066 13.8401 28.6818 13.8021 29.2305 13.4565L30.915 12.4019C31.2333 12.2043 31.6398 12.2501 31.9087 12.519L33.4907 14.0986C33.7592 14.362 33.8083 14.7742 33.6055 15.0923L32.5508 16.772C32.2054 17.3261 32.1618 17.9953 32.436 18.5713C32.5732 18.8621 32.6998 19.1649 32.8096 19.4722C33.0238 20.0699 33.5289 20.5082 34.1597 20.6562L36.0908 21.1006C36.4585 21.1884 36.7158 21.5081 36.7158 21.8867V24.1255L36.7036 24.2646C36.649 24.581 36.4122 24.8372 36.0908 24.9092L34.1597 25.3535L33.9277 25.4219C33.4058 25.6109 32.9967 26.017 32.8096 26.54L32.6338 26.9917C32.5715 27.1417 32.5045 27.2905 32.436 27.4385L32.3506 27.6582C32.1824 28.1773 32.2482 28.7551 32.5508 29.2354L33.6055 30.9199C33.8078 31.2381 33.7575 31.6437 33.5054 31.9014L31.9258 33.481C31.6955 33.7161 31.3521 33.7791 31.0566 33.6592L30.9321 33.5981L29.2476 32.5435C28.6988 32.1977 28.0293 32.1543 27.4531 32.4287L27.0088 32.624C26.8586 32.6864 26.7059 32.7474 26.5522 32.8022L26.3374 32.895C25.8503 33.1436 25.4979 33.5999 25.3682 34.1523L24.9165 36.0835L24.875 36.2153C24.7501 36.5112 24.4642 36.7085 24.1328 36.7085V36.208C24.274 36.208 24.3952 36.1149 24.4307 35.9663L24.8799 34.0376L24.9678 33.7495C25.2081 33.0938 25.7148 32.5707 26.3838 32.3311C26.674 32.2274 26.9615 32.1076 27.2383 31.9771L27.519 31.8647C28.1825 31.648 28.908 31.7397 29.5112 32.1187L31.1982 33.1733C31.3228 33.2504 31.4742 33.2289 31.5693 33.1318L31.5718 33.127L33.1514 31.5474C33.2399 31.4537 33.2585 31.3071 33.1831 31.1885L33.1807 31.1836L32.1284 29.499C31.6927 28.8073 31.6411 27.954 31.9819 27.2285C32.1137 26.9438 32.2342 26.6556 32.3384 26.3691C32.6112 25.6086 33.2537 25.0477 34.0474 24.8677L35.9785 24.4233L35.981 24.4209C36.1181 24.3902 36.2151 24.2719 36.2153 24.1255V21.8867C36.2153 21.7468 36.1248 21.6255 35.9785 21.5889L34.0474 21.1445C33.2586 20.9593 32.6121 20.405 32.3384 19.6406C32.2347 19.3503 32.1149 19.063 31.9844 18.7861C31.6342 18.0507 31.6931 17.1998 32.126 16.5059L33.1807 14.8262L33.1831 14.8237C33.2577 14.7068 33.2408 14.5546 33.1392 14.4551L31.5547 12.873C31.4515 12.7699 31.303 12.752 31.1812 12.8267L29.4966 13.8813L29.4941 13.8789C28.8023 14.3138 27.9487 14.3668 27.2236 14.0254C26.9485 13.8956 26.6554 13.774 26.3667 13.6689C25.6061 13.3959 25.0426 12.754 24.8628 11.96L24.4136 10.0312V10.0239C24.3803 9.87093 24.2614 9.78025 24.123 9.77979H21.8818C21.7413 9.78026 21.6195 9.87367 21.584 10.0215L21.1348 11.9575C20.9495 12.7466 20.3956 13.3904 19.6309 13.6641C19.3406 13.7677 19.0532 13.8851 18.7764 14.0156C18.0412 14.3656 17.1923 14.3089 16.4985 13.8765L16.4961 13.874L14.8188 12.8218L14.814 12.8193C14.6988 12.7461 14.5454 12.7584 14.438 12.8657L12.8633 14.4404C12.7598 14.5439 12.744 14.6943 12.8193 14.8164L13.8716 16.4937C14.3045 17.1877 14.3659 18.0409 14.0156 18.7764C13.8864 19.0505 13.7638 19.3408 13.6592 19.6284C13.3861 20.3846 12.7457 20.9465 11.9551 21.1323L10.0312 21.5742C9.87606 21.6136 9.78271 21.7398 9.78223 21.8794V24.1206C9.7827 24.2595 9.87423 24.3789 10.019 24.416L11.9526 24.8604L11.9551 24.8628C12.7438 25.0482 13.3881 25.6022 13.6616 26.3667C13.7657 26.6527 13.8865 26.9394 14.0181 27.2236C14.3583 27.9532 14.3075 28.8015 13.8716 29.4941L13.8691 29.4917L12.8242 31.1787C12.7669 31.2721 12.764 31.3807 12.8071 31.4692L12.8657 31.5498L12.8682 31.5522L14.4478 33.127C14.5497 33.2289 14.7026 33.2503 14.8335 33.1709L16.5083 32.1187L16.5132 32.1162C16.9014 31.8781 17.3367 31.7526 17.7827 31.7524C18.1265 31.7524 18.467 31.8288 18.7812 31.9722L18.7861 31.9746C19.0634 32.1054 19.3523 32.2272 19.6431 32.3311C20.4073 32.6049 20.9618 33.2489 21.147 34.0376L21.5962 35.9688V35.9736C21.6269 36.111 21.7474 36.208 21.894 36.208V36.7085L21.7549 36.6963C21.4835 36.6497 21.2567 36.4686 21.1519 36.2153L21.1104 36.0835L20.6587 34.1523C20.529 33.5999 20.1766 33.1436 19.6895 32.895L19.4746 32.8022C19.1674 32.6925 18.8645 32.5659 18.5737 32.4287C18.3845 32.3423 18.1862 32.2851 17.9854 32.2627L17.7827 32.2529C17.4319 32.2531 17.0869 32.3517 16.7744 32.5435L15.0947 33.5981L14.9702 33.6592C14.7145 33.7625 14.4286 33.7305 14.2036 33.5713L14.0962 33.481L12.5142 31.9062C12.246 31.6428 12.202 31.2306 12.3994 30.9126L13.4492 29.228C13.7514 28.7478 13.8177 28.1749 13.6494 27.6533L13.564 27.4336C13.427 27.1376 13.3001 26.8366 13.1904 26.5352C12.9764 25.937 12.4714 25.4968 11.8403 25.3486L9.90918 24.9043C9.58708 24.8274 9.34797 24.5736 9.29395 24.2573L9.28174 24.1206ZM29.04 23C29.04 19.8774 26.6617 17.304 23.6201 16.9941L23.0024 16.9624C19.6713 16.9624 16.9648 19.6689 16.9648 23L16.9966 23.6177C17.2857 26.4561 19.5463 28.7167 22.3848 29.0059L23.0024 29.0376C26.125 29.0376 28.6985 26.6592 29.0083 23.6177L29.04 23ZM27.4409 23C27.4409 20.5542 25.4482 18.5615 23.0024 18.5615C20.5566 18.5615 18.564 20.5542 18.564 23C18.564 25.4458 20.5566 27.4385 23.0024 27.4385V27.939L22.4995 27.9146C20.1779 27.6784 18.3241 25.8245 18.0879 23.5029L18.0635 23C18.0635 20.278 20.2805 18.061 23.0024 18.061L23.5054 18.0854C25.9923 18.3384 27.9414 20.4478 27.9414 23L27.917 23.5029C27.664 25.9899 25.5547 27.939 23.0024 27.939V27.4385C25.4482 27.4385 27.4409 25.4458 27.4409 23ZM8.78369 10.9272V7.69238C4.51697 11.642 2.09912 17.1224 2.09912 23C2.09912 27.5676 3.54736 31.9072 6.28613 35.5464L7.05762 36.5156C11.0376 41.2277 16.7805 43.9033 23.0024 43.9033V44.4014L21.7354 44.3672C15.4369 44.0048 9.71347 40.9452 5.88574 35.8467C3.25692 32.3535 1.79125 28.2284 1.61816 23.874L1.60107 23C1.60107 16.6071 4.39268 10.6693 9.28174 6.58643V10.9272L9.29395 11.0371C9.33798 11.2508 9.50749 11.4202 9.72119 11.4644L9.83105 11.4766C10.0951 11.4766 10.3167 11.2864 10.3682 11.0371L10.3804 10.9272V5.43896C10.3803 5.13716 10.1329 4.88965 9.83105 4.88965V4.38916C10.409 4.38916 10.8808 4.86102 10.8809 5.43896V10.9272C10.8806 11.505 10.4089 11.9746 9.83105 11.9746C9.25352 11.9743 8.78392 11.5048 8.78369 10.9272ZM24.123 7.68262V8.18311H21.8818V7.68262H24.123ZM9.83105 4.38916V4.88965H4.34277V4.38916H9.83105ZM29.5381 23C29.5381 26.6072 26.6097 29.5356 23.0024 29.5356C19.3952 29.5356 16.4668 26.6072 16.4668 23C16.4668 19.3928 19.3952 16.4644 23.0024 16.4644C26.6097 16.4644 29.5381 19.3928 29.5381 23Z" fill="#58595A"/>
</svg>
