<svg width="48" height="48" viewBox="0 0 48 48" fill="none" xmlns="http://www.w3.org/2000/svg">
<path d="M45.1875 10.9531H2.18945V37.4204C2.18945 41.7096 5.66638 45.1865 9.95557 45.1865H37.4214C41.7106 45.1865 45.1875 41.7096 45.1875 37.4204V10.9531ZM9.95557 2.18848C6.00539 2.18848 2.74624 5.13701 2.25537 8.95361H45.1216C44.6307 5.13701 41.3716 2.18848 37.4214 2.18848H9.95557ZM47.1895 37.4204C47.1895 42.8142 42.8151 47.1885 37.4214 47.1885H9.95557C4.56181 47.1885 0.1875 42.8142 0.1875 37.4204V9.95459C0.1875 4.56083 4.56181 0.186523 9.95557 0.186523H37.4214C42.8151 0.186523 47.1895 4.56083 47.1895 9.95459V37.4204Z" fill="#58595A"/>
<path d="M18.5999 20.9329C18.9901 20.543 19.623 20.5434 20.0135 20.9329C20.404 21.3234 20.404 21.9584 20.0135 22.3489L14.8255 27.5369C14.5314 27.831 14.5316 28.3072 14.8255 28.6014L20.0135 33.7918C20.4039 34.1823 20.404 34.8149 20.0135 35.2054C19.6229 35.5954 18.9902 35.5957 18.5999 35.2054L13.4119 30.0174C12.3367 28.9422 12.3367 27.1986 13.4119 26.1233L18.5999 20.9329ZM27.9505 20.9329C28.3407 20.543 28.9736 20.5434 29.364 20.9329L34.5545 26.1233C35.629 27.1986 35.6295 28.9424 34.5545 30.0174L29.364 35.2054C28.9735 35.5954 28.3408 35.5957 27.9505 35.2054C27.5601 34.815 27.5605 34.1824 27.9505 33.7918L33.1385 28.6014C33.4326 28.3072 33.4326 27.8311 33.1385 27.5369L27.9505 22.3489C27.5599 21.9584 27.5599 21.3234 27.9505 20.9329Z" fill="#58595A"/>
</svg>
