<svg width="238" height="52" viewBox="0 0 238 52" fill="none" xmlns="http://www.w3.org/2000/svg">
<path d="M23.3503 47.6248C42.5276 47.6248 46.7097 43.4426 46.7097 24.2653C46.7097 5.08801 42.5276 0.915039 23.3503 0.915039C4.17297 0.915039 0 5.08801 0 24.2653C0 43.4426 4.17297 47.6248 23.3503 47.6248Z" fill="#EC1C24"/>
<path d="M15.6934 30.7355L16.6655 29.7542L17.7386 28.672L17.867 28.5527" fill="#FDFDFD"/>
<path d="M16.6666 29.7558L15.6945 30.7372C14.9521 31.4491 13.9604 31.842 12.9318 31.8317C11.9033 31.8215 10.9197 31.4088 10.1916 30.6821L9.69639 30.1961C9.02255 29.4478 8.66123 28.4697 8.68682 27.4631C8.71241 26.4565 9.12297 25.498 9.83396 24.785L10.7511 23.8678L13.0072 21.5933L13.3282 21.309L13.53 21.0889L15.8045 18.8052L16.7217 17.8881C17.4295 17.1746 18.3835 16.7591 19.388 16.7267C20.3924 16.6943 21.3713 17.0475 22.1236 17.7138L22.9215 18.5026L23.8386 19.4197L24.0954 19.6765L24.3614 19.9425L24.4806 20.0617C25.083 20.5905 25.8572 20.8821 26.6588 20.8821C27.4604 20.8821 28.2346 20.5905 28.837 20.0617L28.9562 19.9333L30.0476 18.8419L31.084 17.7872C31.8339 17.1193 32.8102 16.7627 33.814 16.7899C34.8178 16.8172 35.7734 17.2263 36.4859 17.9339L37.0362 18.4842C37.6919 19.2344 38.0385 20.2054 38.0062 21.2012C37.9738 22.197 37.5649 23.1434 36.8619 23.8495L35.9448 24.7666L33.6978 27.0319L33.3585 27.3438L33.1659 27.5455L30.8822 29.7558L29.9651 30.673C29.2244 31.41 28.2219 31.8237 27.177 31.8237C26.1321 31.8237 25.1296 31.41 24.3889 30.673L23.8937 30.1869L22.8848 29.1872L22.628 28.9304L22.362 28.6644C21.7662 28.0708 20.9658 27.7277 20.125 27.7056C19.2842 27.6834 18.4668 27.9838 17.8406 28.5452" fill="#FDFDFD"/>
<path d="M22.0938 17.6982L22.8917 18.487L22.9008 18.4961L23.7813 19.3766L24.0381 19.6242L24.3041 19.8902L24.4233 20.0094" fill="#FDFDFD"/>
<path d="M61.3372 6.24296H63.5384V20H61.3372V6.24296ZM68.2708 5.96782C69.0045 5.96782 69.6648 6.07788 70.2518 6.29799C70.8388 6.5181 71.334 6.8391 71.7376 7.26098C72.1411 7.68286 72.4529 8.19646 72.673 8.80177C72.8932 9.38874 73.0032 10.0582 73.0032 10.8103V20H70.8021V11.3606C70.8021 10.2967 70.5545 9.49879 70.0592 8.96685C69.564 8.43492 68.8211 8.16895 67.8306 8.16895C67.0785 8.16895 66.3815 8.36155 65.7395 8.74674C65.0975 9.13194 64.5656 9.66388 64.1437 10.3426C63.7401 11.0029 63.4925 11.7733 63.4008 12.6537L63.3733 11.0579C63.465 10.2875 63.6484 9.59051 63.9236 8.96685C64.2171 8.3432 64.5747 7.81126 64.9966 7.37104C65.4368 6.91247 65.9321 6.56396 66.4824 6.3255C67.051 6.08705 67.6471 5.96782 68.2708 5.96782ZM86.3121 15.5702H88.3756C88.2289 16.469 87.8987 17.2761 87.3851 17.9915C86.8899 18.6885 86.2295 19.2479 85.4041 19.6698C84.597 20.0734 83.6615 20.2751 82.5977 20.2751C81.3137 20.2751 80.1581 19.9725 79.1309 19.3672C78.1037 18.7435 77.2875 17.8998 76.6821 16.8359C76.0952 15.7537 75.8017 14.5247 75.8017 13.149C75.8017 11.7733 76.086 10.5443 76.6546 9.46211C77.2416 8.37989 78.0395 7.52695 79.0484 6.9033C80.0572 6.27965 81.1945 5.96782 82.4601 5.96782C83.7991 5.96782 84.9272 6.27047 85.8443 6.87578C86.7798 7.46275 87.4677 8.33403 87.9079 9.48962C88.3665 10.6269 88.5499 12.0301 88.4582 13.6993H78.0028C78.0945 14.5981 78.3422 15.3868 78.7457 16.0655C79.1492 16.7442 79.6812 17.2761 80.3415 17.6613C81.0019 18.0282 81.7539 18.2116 82.5977 18.2116C83.5331 18.2116 84.3219 17.9731 84.9639 17.4962C85.6242 17.001 86.0736 16.359 86.3121 15.5702ZM82.5426 8.03138C81.4054 8.03138 80.4516 8.36154 79.6812 9.02188C78.9108 9.68222 78.3972 10.581 78.1404 11.7183H86.202C86.1286 10.5076 85.7343 9.59051 85.0189 8.96685C84.3219 8.3432 83.4965 8.03138 82.5426 8.03138ZM97.267 20.2751C96.093 20.2751 94.9925 19.9908 93.9653 19.4222C92.9381 18.8536 92.1035 18.0373 91.4615 16.9735C90.8379 15.8912 90.526 14.6164 90.526 13.149C90.526 11.6816 90.8379 10.4159 91.4615 9.35205C92.1035 8.26983 92.9381 7.43524 93.9653 6.84827C94.9925 6.2613 96.093 5.96782 97.267 5.96782C98.4409 5.96782 99.5323 6.2613 100.541 6.84827C101.568 7.43524 102.394 8.26983 103.017 9.35205C103.641 10.4159 103.953 11.6816 103.953 13.149C103.953 14.6164 103.641 15.8912 103.017 16.9735C102.394 18.0373 101.568 18.8536 100.541 19.4222C99.5323 19.9908 98.4409 20.2751 97.267 20.2751ZM97.267 18.2116C98.0374 18.2116 98.7619 18.019 99.4406 17.6338C100.119 17.2486 100.67 16.68 101.091 15.9279C101.532 15.1575 101.752 14.2312 101.752 13.149C101.752 12.0668 101.532 11.1496 101.091 10.3976C100.67 9.62719 100.119 9.04023 99.4406 8.63669C98.7619 8.23315 98.0374 8.03138 97.267 8.03138C96.4966 8.03138 95.7629 8.23315 95.0658 8.63669C94.3872 9.02188 93.8277 9.59968 93.3875 10.3701C92.9473 11.1221 92.7272 12.0484 92.7272 13.149C92.7272 14.2312 92.9381 15.1575 93.36 15.9279C93.8002 16.68 94.3688 17.2486 95.0658 17.6338C95.7629 18.019 96.4966 18.2116 97.267 18.2116ZM109.47 0.740145V3.40901H106.609V0.740145H109.47ZM106.939 6.24296H109.14V20H106.939V6.24296ZM112.899 6.24296H115.1V20H112.899V6.24296ZM119.833 5.96782C120.567 5.96782 121.227 6.07788 121.814 6.29799C122.401 6.5181 122.896 6.8391 123.3 7.26098C123.703 7.68286 124.015 8.19646 124.235 8.80177C124.455 9.38874 124.565 10.0582 124.565 10.8103V20H122.364V11.3606C122.364 10.2967 122.116 9.49879 121.621 8.96685C121.126 8.43492 120.383 8.16895 119.393 8.16895C118.641 8.16895 117.944 8.36155 117.302 8.74674C116.66 9.13194 116.128 9.66388 115.706 10.3426C115.302 11.0029 115.055 11.7733 114.963 12.6537L114.935 11.0579C115.027 10.2875 115.21 9.59051 115.486 8.96685C115.779 8.3432 116.137 7.81126 116.559 7.37104C116.999 6.91247 117.494 6.56396 118.044 6.3255C118.613 6.08705 119.209 5.96782 119.833 5.96782ZM127.171 6.24296H135.26V8.30652H127.171V6.24296ZM130.115 2.66613H132.316V20H130.115V2.66613ZM147.332 15.5702H149.396C149.249 16.469 148.919 17.2761 148.405 17.9915C147.91 18.6885 147.25 19.2479 146.424 19.6698C145.617 20.0734 144.682 20.2751 143.618 20.2751C142.334 20.2751 141.178 19.9725 140.151 19.3672C139.124 18.7435 138.307 17.8998 137.702 16.8359C137.115 15.7537 136.822 14.5247 136.822 13.149C136.822 11.7733 137.106 10.5443 137.675 9.46211C138.262 8.37989 139.059 7.52695 140.068 6.9033C141.077 6.27965 142.214 5.96782 143.48 5.96782C144.819 5.96782 145.947 6.27047 146.864 6.87578C147.8 7.46275 148.488 8.33403 148.928 9.48962C149.386 10.6269 149.57 12.0301 149.478 13.6993H139.023C139.115 14.5981 139.362 15.3868 139.766 16.0655C140.169 16.7442 140.701 17.2761 141.362 17.6613C142.022 18.0282 142.774 18.2116 143.618 18.2116C144.553 18.2116 145.342 17.9731 145.984 17.4962C146.644 17.001 147.094 16.359 147.332 15.5702ZM143.563 8.03138C142.425 8.03138 141.472 8.36154 140.701 9.02188C139.931 9.68222 139.417 10.581 139.16 11.7183H147.222C147.149 10.5076 146.754 9.59051 146.039 8.96685C145.342 8.3432 144.516 8.03138 143.563 8.03138ZM152.316 6.24296H154.518V20H152.316V6.24296ZM158.92 8.30652C157.984 8.30652 157.196 8.54497 156.554 9.02188C155.93 9.48045 155.435 10.0491 155.068 10.7278C154.719 11.3881 154.49 12.0301 154.38 12.6537L154.352 11.0579C154.352 10.8928 154.389 10.6177 154.463 10.2325C154.536 9.84731 154.673 9.41625 154.875 8.93934C155.077 8.44409 155.343 7.97635 155.673 7.53612C156.022 7.07756 156.462 6.70153 156.994 6.40805C157.526 6.11456 158.168 5.96782 158.92 5.96782V8.30652ZM166.598 20.2751C165.516 20.2751 164.516 19.9725 163.599 19.3672C162.701 18.7435 161.976 17.8998 161.426 16.8359C160.894 15.7537 160.628 14.5247 160.628 13.149C160.628 11.7733 160.903 10.5443 161.453 9.46211C162.004 8.37989 162.746 7.52695 163.682 6.9033C164.636 6.27965 165.7 5.96782 166.874 5.96782C168.157 5.96782 169.13 6.29799 169.79 6.95833C170.469 7.60032 170.927 8.46243 171.166 9.54465C171.422 10.6269 171.551 11.8283 171.551 13.149C171.551 13.846 171.478 14.6072 171.331 15.4327C171.184 16.2397 170.927 17.0193 170.56 17.7714C170.212 18.5051 169.717 19.1104 169.075 19.5873C168.433 20.0459 167.607 20.2751 166.598 20.2751ZM167.149 18.1841C168.084 18.1841 168.855 17.9548 169.46 17.4962C170.083 17.0377 170.542 16.4323 170.836 15.6803C171.129 14.9099 171.276 14.0661 171.276 13.149C171.276 12.1401 171.12 11.2597 170.808 10.5076C170.515 9.73725 170.056 9.14111 169.432 8.71923C168.827 8.279 168.066 8.05889 167.149 8.05889C165.773 8.05889 164.709 8.54497 163.957 9.51714C163.205 10.471 162.829 11.6816 162.829 13.149C162.829 14.1212 163.012 14.9924 163.379 15.7628C163.764 16.5149 164.278 17.111 164.92 17.5512C165.58 17.9731 166.323 18.1841 167.149 18.1841ZM171.276 6.24296H173.477V20H171.468C171.468 20 171.45 19.8349 171.413 19.5047C171.395 19.1746 171.367 18.7894 171.331 18.3492C171.294 17.9089 171.276 17.5421 171.276 17.2486V6.24296ZM189.279 14.8274C189.151 15.9646 188.784 16.9459 188.179 17.7714C187.592 18.5784 186.849 19.2021 185.95 19.6423C185.051 20.0642 184.079 20.2751 183.034 20.2751C181.86 20.2751 180.759 19.9908 179.732 19.4222C178.705 18.8536 177.87 18.0373 177.228 16.9735C176.604 15.8912 176.293 14.6164 176.293 13.149C176.293 11.6816 176.604 10.4159 177.228 9.35205C177.87 8.26983 178.705 7.43524 179.732 6.84827C180.759 6.2613 181.86 5.96782 183.034 5.96782C184.079 5.96782 185.042 6.18793 185.922 6.62816C186.821 7.06838 187.564 7.69204 188.151 8.49912C188.756 9.3062 189.132 10.2692 189.279 11.3881H187.271C186.959 10.3426 186.418 9.52631 185.647 8.93934C184.877 8.33403 184.006 8.03138 183.034 8.03138C182.245 8.03138 181.502 8.23315 180.805 8.63669C180.108 9.04023 179.548 9.62719 179.127 10.3976C178.705 11.1496 178.494 12.0668 178.494 13.149C178.494 14.2129 178.705 15.13 179.127 15.9004C179.548 16.6525 180.099 17.2302 180.777 17.6338C181.474 18.019 182.226 18.2116 183.034 18.2116C184.152 18.2116 185.06 17.9181 185.757 17.3311C186.473 16.7258 186.986 15.8912 187.298 14.8274H189.279ZM191.12 6.24296H199.209V8.30652H191.12V6.24296ZM194.064 2.66613H196.265V20H194.064V2.66613ZM204.533 0.740145V3.40901H201.672V0.740145H204.533ZM202.002 6.24296H204.203V20H202.002V6.24296ZM213.933 20.2751C212.759 20.2751 211.659 19.9908 210.631 19.4222C209.604 18.8536 208.77 18.0373 208.128 16.9735C207.504 15.8912 207.192 14.6164 207.192 13.149C207.192 11.6816 207.504 10.4159 208.128 9.35205C208.77 8.26983 209.604 7.43524 210.631 6.84827C211.659 6.2613 212.759 5.96782 213.933 5.96782C215.107 5.96782 216.198 6.2613 217.207 6.84827C218.234 7.43524 219.06 8.26983 219.684 9.35205C220.307 10.4159 220.619 11.6816 220.619 13.149C220.619 14.6164 220.307 15.8912 219.684 16.9735C219.06 18.0373 218.234 18.8536 217.207 19.4222C216.198 19.9908 215.107 20.2751 213.933 20.2751ZM213.933 18.2116C214.703 18.2116 215.428 18.019 216.107 17.6338C216.785 17.2486 217.336 16.68 217.758 15.9279C218.198 15.1575 218.418 14.2312 218.418 13.149C218.418 12.0668 218.198 11.1496 217.758 10.3976C217.336 9.62719 216.785 9.04023 216.107 8.63669C215.428 8.23315 214.703 8.03138 213.933 8.03138C213.163 8.03138 212.429 8.23315 211.732 8.63669C211.053 9.02188 210.494 9.59968 210.054 10.3701C209.613 11.1221 209.393 12.0484 209.393 13.149C209.393 14.2312 209.604 15.1575 210.026 15.9279C210.466 16.68 211.035 17.2486 211.732 17.6338C212.429 18.019 213.163 18.2116 213.933 18.2116ZM223.412 6.24296H225.613V20H223.412V6.24296ZM230.346 5.96782C231.08 5.96782 231.74 6.07788 232.327 6.29799C232.914 6.5181 233.409 6.8391 233.813 7.26098C234.216 7.68286 234.528 8.19646 234.748 8.80177C234.968 9.38874 235.078 10.0582 235.078 10.8103V20H232.877V11.3606C232.877 10.2967 232.63 9.49879 232.134 8.96685C231.639 8.43492 230.896 8.16895 229.906 8.16895C229.154 8.16895 228.457 8.36155 227.815 8.74674C227.173 9.13194 226.641 9.66388 226.219 10.3426C225.815 11.0029 225.568 11.7733 225.476 12.6537L225.448 11.0579C225.54 10.2875 225.724 9.59051 225.999 8.96685C226.292 8.3432 226.65 7.81126 227.072 7.37104C227.512 6.91247 228.007 6.56396 228.557 6.3255C229.126 6.08705 229.722 5.96782 230.346 5.96782ZM66.5374 46.2751C65.4368 46.2751 64.428 45.9725 63.5109 45.3672C62.6121 44.7435 61.8967 43.8998 61.3648 42.8359C60.8328 41.7537 60.5668 40.5247 60.5668 39.149C60.5668 37.7733 60.8236 36.5443 61.3372 35.4621C61.8508 34.3799 62.557 33.527 63.4558 32.9033C64.3546 32.2796 65.3818 31.9678 66.5374 31.9678C67.5646 31.9678 68.3992 32.1604 69.0412 32.5456C69.7015 32.9125 70.2059 33.4261 70.5545 34.0864C70.903 34.7467 71.1414 35.508 71.2698 36.3701C71.4166 37.2322 71.4899 38.1585 71.4899 39.149C71.4899 39.846 71.4166 40.6072 71.2698 41.4327C71.1231 42.2397 70.8663 43.0193 70.4994 43.7714C70.1509 44.5051 69.6557 45.1104 69.0137 45.5873C68.3717 46.0459 67.5463 46.2751 66.5374 46.2751ZM67.0877 44.1841C68.0232 44.1841 68.7936 43.9548 69.3989 43.4962C70.0225 43.0377 70.4811 42.4323 70.7746 41.6803C71.0681 40.9099 71.2148 40.0661 71.2148 39.149C71.2148 38.1401 71.0589 37.2597 70.7471 36.5076C70.4536 35.7372 69.995 35.1411 69.3714 34.7192C68.766 34.279 68.0048 34.0589 67.0877 34.0589C65.712 34.0589 64.6481 34.545 63.8961 35.5171C63.144 36.471 62.768 37.6816 62.768 39.149C62.768 40.1212 62.9514 40.9924 63.3183 41.7628C63.7035 42.5149 64.217 43.111 64.859 43.5512C65.5194 43.9731 66.2623 44.1841 67.0877 44.1841ZM71.2148 26.7401H73.4159V46H71.4074C71.3707 45.5965 71.3249 45.1195 71.2698 44.5693C71.2331 44.019 71.2148 43.5788 71.2148 43.2486V26.7401ZM87.145 41.5702H89.2086C89.0618 42.469 88.7317 43.2761 88.2181 43.9915C87.7228 44.6885 87.0625 45.2479 86.2371 45.6698C85.43 46.0734 84.4945 46.2751 83.4306 46.2751C82.1466 46.2751 80.991 45.9725 79.9638 45.3672C78.9367 44.7435 78.1204 43.8998 77.5151 42.8359C76.9281 41.7537 76.6346 40.5247 76.6346 39.149C76.6346 37.7733 76.919 36.5443 77.4876 35.4621C78.0745 34.3799 78.8725 33.527 79.8813 32.9033C80.8902 32.2796 82.0274 31.9678 83.293 31.9678C84.6321 31.9678 85.7601 32.2705 86.6773 32.8758C87.6128 33.4628 88.3006 34.334 88.7408 35.4896C89.1994 36.6269 89.3828 38.0301 89.2911 39.6993H78.8358C78.9275 40.5981 79.1751 41.3868 79.5786 42.0655C79.9822 42.7442 80.5141 43.2761 81.1745 43.6613C81.8348 44.0282 82.5869 44.2116 83.4306 44.2116C84.3661 44.2116 85.1548 43.9731 85.7968 43.4962C86.4572 43.001 86.9066 42.359 87.145 41.5702ZM83.3756 34.0314C82.2383 34.0314 81.2845 34.3615 80.5141 35.0219C79.7437 35.6822 79.2301 36.581 78.9733 37.7183H87.035C86.9616 36.5076 86.5672 35.5905 85.8519 34.9669C85.1548 34.3432 84.3294 34.0314 83.3756 34.0314ZM91.469 41.5702H93.5051C93.5601 42.359 93.8536 43.001 94.3855 43.4962C94.9358 43.9915 95.7245 44.2391 96.7517 44.2391C97.3754 44.2391 97.8615 44.1566 98.21 43.9915C98.5768 43.8264 98.8428 43.6063 99.0079 43.3311C99.173 43.0377 99.2555 42.7167 99.2555 42.3681C99.2555 41.9463 99.1455 41.6161 98.9253 41.3776C98.7236 41.1208 98.4393 40.9099 98.0724 40.7448C97.7239 40.5797 97.3204 40.4238 96.8618 40.2771C96.3298 40.0753 95.7796 39.8644 95.2109 39.6442C94.6607 39.4058 94.1379 39.1307 93.6426 38.8188C93.1657 38.4887 92.7805 38.0943 92.487 37.6357C92.1936 37.1588 92.0468 36.5902 92.0468 35.9298C92.0468 35.3796 92.1569 34.866 92.377 34.3891C92.5971 33.8938 92.9089 33.4719 93.3125 33.1234C93.7344 32.7566 94.2204 32.4722 94.7707 32.2705C95.3393 32.0687 95.963 31.9678 96.6417 31.9678C97.5588 31.9678 98.3292 32.1512 98.9529 32.5181C99.5949 32.885 100.081 33.4077 100.411 34.0864C100.76 34.7467 100.943 35.5171 100.961 36.3976H99.0629C98.9345 35.5722 98.6685 34.976 98.265 34.6092C97.8798 34.224 97.3204 34.0314 96.5866 34.0314C95.8346 34.0314 95.2568 34.1965 94.8533 34.5266C94.4497 34.8568 94.2479 35.297 94.2479 35.8473C94.2479 36.2508 94.3947 36.5902 94.6882 36.8653C94.9817 37.1221 95.3577 37.3606 95.8163 37.5807C96.2932 37.7825 96.7976 37.9934 97.3295 38.2135C97.8615 38.4336 98.3751 38.6537 98.8703 38.8739C99.3656 39.094 99.8058 39.3508 100.191 39.6442C100.576 39.9377 100.879 40.3046 101.099 40.7448C101.337 41.1667 101.457 41.6986 101.457 42.3406C101.457 43.111 101.273 43.7989 100.906 44.4042C100.558 44.9912 100.035 45.4497 99.3381 45.7799C98.6594 46.1101 97.8248 46.2751 96.8343 46.2751C95.9355 46.2751 95.1651 46.1651 94.5231 45.945C93.8994 45.7065 93.3767 45.4039 92.9548 45.037C92.5329 44.6518 92.2027 44.2483 91.9643 43.8264C91.7442 43.4045 91.5974 42.9918 91.5241 42.5883C91.4507 42.1847 91.4323 41.8454 91.469 41.5702ZM106.998 26.7401V29.409H104.137V26.7401H106.998ZM104.467 32.243H106.668V46H104.467V32.243ZM115.352 43.8264C114.38 43.8264 113.454 43.5971 112.573 43.1385C111.711 42.6616 111.005 41.9829 110.455 41.1025C109.923 40.222 109.657 39.1673 109.657 37.9384C109.657 36.7094 109.923 35.6547 110.455 34.7743C110.987 33.8755 111.684 33.1876 112.546 32.7107C113.408 32.2154 114.343 31.9678 115.352 31.9678C115.664 31.9678 115.958 31.9953 116.233 32.0504C116.526 32.087 116.801 32.1512 117.058 32.243H122.644V34.6092C121.855 34.6092 121.066 34.4624 120.277 34.1689C119.507 33.8755 118.847 33.5728 118.296 33.261L118.186 33.1509C118.828 33.4994 119.351 33.9121 119.755 34.3891C120.176 34.866 120.488 35.4071 120.69 36.0124C120.91 36.5994 121.02 37.2414 121.02 37.9384C121.02 39.1673 120.754 40.222 120.222 41.1025C119.709 41.9829 119.021 42.6616 118.159 43.1385C117.297 43.5971 116.361 43.8264 115.352 43.8264ZM119.397 51.5028V50.8975C119.397 49.9253 119.14 49.2191 118.626 48.7789C118.131 48.3387 117.379 48.1186 116.37 48.1186H113.619C113.014 48.1186 112.482 48.0636 112.023 47.9535C111.583 47.8618 111.216 47.715 110.923 47.5133C110.629 47.3115 110.409 47.0639 110.262 46.7704C110.115 46.4769 110.042 46.1467 110.042 45.7799C110.042 45.0829 110.253 44.5601 110.675 44.2116C111.097 43.8447 111.62 43.6154 112.243 43.5237C112.867 43.432 113.463 43.432 114.032 43.5237L115.352 43.8264C114.362 43.8814 113.591 43.9823 113.041 44.129C112.509 44.2758 112.243 44.5876 112.243 45.0645C112.243 45.3397 112.344 45.5689 112.546 45.7524C112.766 45.9175 113.087 46 113.509 46H116.37C117.324 46 118.195 46.1284 118.984 46.3852C119.773 46.6603 120.406 47.1097 120.883 47.7334C121.36 48.3754 121.598 49.2467 121.598 50.3472V51.5028H119.397ZM115.352 41.7628C115.958 41.7628 116.517 41.6161 117.031 41.3226C117.563 41.0291 117.994 40.5981 118.324 40.0294C118.654 39.4608 118.819 38.7638 118.819 37.9384C118.819 37.113 118.654 36.4159 118.324 35.8473C118.012 35.2603 117.59 34.8201 117.058 34.5266C116.526 34.2148 115.958 34.0589 115.352 34.0589C114.747 34.0589 114.178 34.2148 113.646 34.5266C113.115 34.8201 112.683 35.2512 112.353 35.8198C112.023 36.3884 111.858 37.0946 111.858 37.9384C111.858 38.7638 112.023 39.4608 112.353 40.0294C112.683 40.5981 113.115 41.0291 113.646 41.3226C114.178 41.6161 114.747 41.7628 115.352 41.7628ZM125.232 32.243H127.433V46H125.232V32.243ZM132.166 31.9678C132.899 31.9678 133.56 32.0779 134.147 32.298C134.734 32.5181 135.229 32.8391 135.633 33.261C136.036 33.6829 136.348 34.1965 136.568 34.8018C136.788 35.3887 136.898 36.0582 136.898 36.8103V46H134.697V37.3606C134.697 36.2967 134.449 35.4988 133.954 34.9669C133.459 34.4349 132.716 34.1689 131.726 34.1689C130.974 34.1689 130.276 34.3615 129.634 34.7467C128.992 35.1319 128.461 35.6639 128.039 36.3426C127.635 37.0029 127.388 37.7733 127.296 38.6537L127.268 37.0579C127.36 36.2875 127.543 35.5905 127.819 34.9669C128.112 34.3432 128.47 33.8113 128.892 33.371C129.332 32.9125 129.827 32.564 130.377 32.3255C130.946 32.087 131.542 31.9678 132.166 31.9678Z" fill="#FDFDFD"/>
</svg>
