<svg width="40" height="40" viewBox="0 0 40 40" fill="none" xmlns="http://www.w3.org/2000/svg">
<path d="M34.332 19.9998C34.332 12.0835 27.9157 5.66716 19.9993 5.66715C12.083 5.66715 5.66667 12.0835 5.66667 19.9998C5.66667 27.9161 12.083 34.3325 19.9993 34.3325C27.9157 34.3325 34.332 27.9161 34.332 19.9998ZM35.6667 19.9998C35.6667 28.6525 28.652 35.6672 19.9993 35.6672C11.3467 35.6672 4.33203 28.6525 4.33203 19.9998C4.33203 11.3471 11.3467 4.33252 19.9993 4.33252C28.652 4.33252 35.6667 11.3471 35.6667 19.9998Z" fill="#EC1C24"/>
<path d="M19.3321 29.7511V27.2007C17.6549 26.996 15.9582 26.2267 14.9652 24.9009C14.7446 24.6062 14.8042 24.1874 15.0987 23.9666C15.3934 23.7459 15.8122 23.807 16.0329 24.1017C16.8445 25.1852 18.4253 25.8647 20.0222 25.9214C21.0729 25.959 22.0436 25.7221 22.7305 25.241C23.3904 24.7789 23.8322 24.0653 23.8324 23.0015C23.8324 22.546 23.7294 22.2089 23.572 21.9451C23.4124 21.6777 23.1745 21.4486 22.8526 21.2437C22.1815 20.8166 21.2575 20.5577 20.198 20.2687C19.1953 19.9953 18.0559 19.6913 17.1804 19.1343C16.7292 18.8472 16.3227 18.4782 16.0313 17.9901C15.7376 17.498 15.5821 16.9197 15.5821 16.2502C15.5822 14.8494 16.1004 13.8055 16.9786 13.1398C17.65 12.6311 18.4803 12.3837 19.3321 12.3162V10.2508C19.3321 9.88262 19.6312 9.5835 19.9994 9.5835C20.3674 9.58367 20.6651 9.88273 20.6651 10.2508V12.3439C22.2807 12.5329 23.9415 13.2507 24.9701 14.2791C25.2304 14.5394 25.2303 14.9612 24.9701 15.2215C24.7098 15.4819 24.2881 15.4819 24.0277 15.2215C23.1397 14.3337 21.5028 13.6726 19.9815 13.6313C19.0837 13.6069 18.3133 13.8018 17.7842 14.2026C17.2832 14.5823 16.9152 15.2072 16.9151 16.2502C16.9151 16.7055 17.0182 17.0428 17.1755 17.3065C17.3353 17.5741 17.5743 17.8029 17.8965 18.008C18.5676 18.435 19.49 18.694 20.5495 18.9829C21.5525 19.2564 22.693 19.56 23.5687 20.1173C24.0198 20.4045 24.4265 20.7734 24.7178 21.2616C25.0115 21.7536 25.1654 22.3321 25.1654 23.0015C25.1652 24.5033 24.5092 25.6232 23.4955 26.3332C22.6894 26.8977 21.6878 27.1799 20.6651 27.2414V29.7511C20.6649 30.1191 20.3673 30.4167 19.9994 30.4168C19.6313 30.4168 19.3323 30.1192 19.3321 29.7511Z" fill="#EC1C24"/>
</svg>
