<svg width="8" height="14" viewBox="0 0 8 14" fill="none" xmlns="http://www.w3.org/2000/svg">
<path fill-rule="evenodd" clip-rule="evenodd" d="M7.70832 6.29318C7.89579 6.48071 8.00111 6.73502 8.00111 7.00018C8.00111 7.26534 7.89579 7.51965 7.70832 7.70718L2.05132 13.3642C1.95907 13.4597 1.84873 13.5359 1.72672 13.5883C1.60472 13.6407 1.4735 13.6683 1.34072 13.6694C1.20794 13.6706 1.07626 13.6453 0.953366 13.595C0.83047 13.5447 0.718817 13.4705 0.624924 13.3766C0.531032 13.2827 0.456778 13.171 0.406498 13.0481C0.356217 12.9252 0.330915 12.7936 0.332069 12.6608C0.333223 12.528 0.360809 12.3968 0.413218 12.2748C0.465627 12.1528 0.541809 12.0424 0.637319 11.9502L5.58732 7.00018L0.637319 2.05018C0.455161 1.86158 0.354367 1.60898 0.356645 1.34678C0.358924 1.08458 0.464092 0.83377 0.6495 0.648362C0.834909 0.462954 1.08572 0.357785 1.34792 0.355507C1.61011 0.353228 1.86272 0.454022 2.05132 0.636181L7.70832 6.29318Z" fill="#2B2828"/>
</svg>
