<svg width="43" height="48" viewBox="0 0 43 48" fill="none" xmlns="http://www.w3.org/2000/svg">
<path d="M40.9697 14.1928C40.9695 13.6571 40.6817 13.1618 40.2178 12.894L22.7178 2.78897C22.2537 2.52103 21.6804 2.52101 21.2163 2.78897L3.71631 12.894C3.25267 13.1619 2.96698 13.6573 2.9668 14.1928V33.807C2.96696 34.3428 3.25233 34.838 3.71631 35.1059L21.2163 45.2108C21.6804 45.4788 22.2537 45.4788 22.7178 45.2108L40.2178 35.1059C40.6817 34.838 40.9695 34.3427 40.9697 33.807V14.1928ZM42.9692 33.807C42.9691 35.0571 42.3013 36.2116 41.2188 36.8368L23.7163 46.9418C22.6336 47.5666 21.3004 47.5668 20.2178 46.9418L2.71533 36.8368C1.63303 36.2116 0.965003 35.057 0.964844 33.807L0.967285 14.1928C0.967466 12.9426 1.63507 11.7881 2.71777 11.163L20.2178 1.05802C21.3004 0.433054 22.6336 0.433217 23.7163 1.05802L41.2188 11.163C42.3013 11.7882 42.9691 12.9427 42.9692 14.1928V33.807Z" fill="#58595A"/>
<path d="M20.9665 46.4998V24.8739L2.71457 14.3368C2.23699 14.0607 2.07317 13.45 2.34836 12.972C2.6245 12.4937 3.23725 12.3297 3.71554 12.6058L21.9651 23.1405L41.4695 11.8831C41.9474 11.6077 42.558 11.7718 42.8342 12.2494C43.1103 12.7276 42.9463 13.3404 42.468 13.6165L22.9685 24.8739V46.4998C22.9685 47.0521 22.5198 47.5008 21.9675 47.5008C21.4152 47.5008 20.9665 47.0521 20.9665 46.4998Z" fill="#58595A"/>
<path d="M37.719 30.0545C38.1973 29.7784 38.8101 29.9424 39.0862 30.4207C39.3614 30.8987 39.1976 31.5094 38.72 31.7855L31.22 36.1165C30.7418 36.3926 30.129 36.2285 29.8528 35.7503C29.5767 35.272 29.7408 34.6593 30.219 34.3831L37.719 30.0545ZM30.219 5.33526C30.6973 5.05911 31.3101 5.22322 31.5862 5.70147C31.8624 6.17974 31.6983 6.79249 31.22 7.06866L11.22 18.6165C10.7418 18.8927 10.129 18.7285 9.85284 18.2503C9.57669 17.772 9.7408 17.1593 10.219 16.8831L30.219 5.33526Z" fill="#58595A"/>
</svg>
