<svg width="49" height="49" viewBox="0 0 49 49" fill="none" xmlns="http://www.w3.org/2000/svg">
<path d="M26.2405 9.58012C26.7247 9.67652 27.1704 9.91486 27.5198 10.2637L38.5305 21.2793L38.7576 21.5406C38.9658 21.8164 39.117 22.1343 39.197 22.4732C39.3034 22.9247 39.2802 23.3979 39.1335 23.8379L34.3728 38.125C34.2461 38.5062 34.0288 38.8513 33.7405 39.1309C33.452 39.4106 33.1001 39.6165 32.7151 39.7315H32.7126L3.51831 48.4082V48.4107C3.07999 48.5408 2.6129 48.5463 2.17065 48.4302C1.72883 48.314 1.32618 48.0799 1.00854 47.7515C0.690877 47.423 0.470253 47.013 0.368892 46.5674C0.26758 46.1216 0.290192 45.656 0.43481 45.2222L9.91479 16.7872L10.0124 16.5381C10.1236 16.2948 10.2738 16.0707 10.4568 15.8741C10.7012 15.6117 10.9995 15.4032 11.3308 15.2662H11.3332L24.8 9.72172L25.1492 9.60698C25.5051 9.51827 25.8777 9.50808 26.2405 9.58012ZM25.5618 11.5699L12.095 17.1167V17.1143C12.0289 17.1417 11.9704 17.1841 11.9216 17.2364C11.8971 17.2627 11.874 17.291 11.8557 17.3218L11.8118 17.4195L2.75903 44.5704L17.4441 29.8877C17.8344 29.4981 18.4673 29.4981 18.8577 29.8877C19.2482 30.2783 19.2482 30.9132 18.8577 31.3038L3.96997 46.1866L32.1438 37.815L32.2537 37.7662C32.2876 37.7461 32.3204 37.723 32.3489 37.6954C32.4065 37.6394 32.4481 37.569 32.4734 37.4927H32.4758L37.2366 23.2056C37.2659 23.1176 37.27 23.0225 37.2488 22.9322C37.2381 22.887 37.2224 22.843 37.1999 22.8028L37.1169 22.6929L26.1062 11.6773C26.0368 11.6083 25.9482 11.5624 25.8523 11.543C25.8042 11.5334 25.7541 11.531 25.7058 11.5357L25.5618 11.5699Z" fill="#2B2828"/>
<path d="M23.5552 27.9321C23.5547 27.2034 23.2648 26.5041 22.7495 25.9888C22.4941 25.7335 22.1896 25.5312 21.856 25.3931C21.5223 25.255 21.1648 25.1831 20.8037 25.1831C20.4427 25.1832 20.085 25.2549 19.7515 25.3931C19.4178 25.5314 19.1132 25.7333 18.8579 25.9888C18.6026 26.2442 18.4003 26.5486 18.2622 26.8823C18.1242 27.2159 18.0546 27.5736 18.0547 27.9346C18.0548 28.2955 18.1241 28.6533 18.2622 28.9868C18.4005 29.3205 18.6049 29.625 18.8604 29.8804C19.3759 30.3952 20.0751 30.6835 20.8037 30.6836C21.5331 30.6834 22.2338 30.3938 22.7495 29.8779C23.265 29.3621 23.5553 28.6614 23.5552 27.9321ZM46.0161 12.0239C46.0161 10.9637 45.5959 9.94679 44.8467 9.19678H44.8442L39.5464 3.8916C39.1749 3.52 38.733 3.22358 38.2476 3.02246C37.7623 2.82148 37.242 2.71976 36.7168 2.71973C36.1917 2.71973 35.6712 2.82157 35.186 3.02246C34.7006 3.22358 34.2587 3.52 33.8872 3.8916L26.8169 10.9644C26.4265 11.3541 25.7937 11.3542 25.4033 10.9644C25.0127 10.5739 25.0129 9.93893 25.4033 9.54834L32.4736 2.47803C33.0306 1.92081 33.6916 1.47843 34.4194 1.17676C35.1475 0.875077 35.9287 0.717773 36.7168 0.717773C37.5048 0.717809 38.2861 0.875112 39.0142 1.17676C39.7418 1.47843 40.4031 1.92092 40.96 2.47803L46.2578 7.78076C47.3826 8.90593 48.0156 10.4329 48.0156 12.0239C48.0156 13.6149 47.3851 15.1419 46.2603 16.2671L39.1899 23.3374C38.7998 23.7277 38.167 23.7294 37.7764 23.3398C37.3858 22.9494 37.3859 22.3144 37.7764 21.9238L44.8467 14.8511C45.5959 14.1011 46.0161 13.0841 46.0161 12.0239ZM25.5547 27.9321C25.555 29.192 25.0537 30.4004 24.1631 31.2915C23.2727 32.1823 22.0656 32.6825 20.8062 32.6831C19.5466 32.6834 18.3378 32.1842 17.4468 31.2939C17.0058 30.8531 16.6554 30.3294 16.4165 29.7534C16.1776 29.1771 16.0529 28.5584 16.0527 27.9346C16.0527 27.3113 16.1759 26.6941 16.4141 26.1182C16.6527 25.5418 17.0033 25.0164 17.4443 24.5752C17.8853 24.1341 18.4087 23.7837 18.9849 23.5449C19.5611 23.3061 20.1799 23.1837 20.8037 23.1836C21.427 23.1836 22.0441 23.3066 22.6201 23.5449C23.1965 23.7835 23.7219 24.1342 24.1631 24.5752C25.0534 25.4656 25.5542 26.673 25.5547 27.9321Z" fill="#58595A"/>
</svg>
