<svg width="46" height="46" viewBox="0 0 46 46" fill="none" xmlns="http://www.w3.org/2000/svg">
<path d="M11.7285 24.7144H16.5283C19.0396 24.7144 21.114 26.6634 21.1143 29.0132V33.5854C21.114 35.933 19.0419 37.8569 16.5283 37.8569H11.7285C9.22634 37.8569 7.28639 35.9438 7.28613 33.5854V29.0132C7.28633 26.6526 9.22857 24.7144 11.7285 24.7144ZM29.3281 24.7144H34.1279C36.6392 24.7144 38.7137 26.6634 38.7139 29.0132V33.5854C38.7136 35.933 36.6415 37.8569 34.1279 37.8569H29.3281C26.8261 37.8568 24.886 35.9437 24.8857 33.5854V29.0132C24.8859 26.6526 26.8283 24.7145 29.3281 24.7144ZM11.7285 27.1899C11.4893 27.1881 11.2516 27.2338 11.0303 27.3247C10.8082 27.4159 10.6067 27.551 10.4375 27.7212C10.2682 27.8915 10.1348 28.0942 10.0449 28.3169C9.95567 28.5381 9.91108 28.7747 9.91406 29.0132V33.5815C9.91132 33.8204 9.95704 34.0579 10.0479 34.2788C10.1386 34.4995 10.2727 34.6999 10.4424 34.8677C10.6123 35.0356 10.8151 35.1672 11.0371 35.2554C11.257 35.3427 11.492 35.3841 11.7285 35.3794V35.3804H16.5283C17.5348 35.3804 18.4851 34.6141 18.4854 33.5854V29.0132C18.4851 27.9909 17.5435 27.1899 16.5283 27.1899H11.7285ZM29.3281 27.1899C29.0891 27.1881 28.852 27.234 28.6309 27.3247C28.4089 27.4159 28.2073 27.5511 28.0381 27.7212C27.8688 27.8915 27.7344 28.0942 27.6445 28.3169C27.5772 28.4838 27.5357 28.6597 27.5205 28.8384L27.5146 29.0132V33.5815C27.5119 33.8204 27.5567 34.0579 27.6475 34.2788C27.7383 34.4997 27.8731 34.6998 28.043 34.8677C28.2128 35.0355 28.4148 35.1672 28.6367 35.2554C28.8566 35.3427 29.0917 35.384 29.3281 35.3794V35.3804H34.1279C35.1344 35.3804 36.0856 34.6141 36.0859 33.5854V29.0132C36.0857 27.9909 35.1431 27.1899 34.1279 27.1899H29.3281ZM11.7285 7.95264H16.5283C19.0397 7.95264 21.1142 9.90161 21.1143 12.2515V16.8228C21.1143 19.1705 19.042 21.0952 16.5283 21.0952H11.7285C9.22617 21.0952 7.28613 19.1813 7.28613 16.8228V12.2515C7.28623 9.89076 9.2285 7.95264 11.7285 7.95264ZM29.3281 7.95264H34.1279C36.6393 7.95264 38.7138 9.90161 38.7139 12.2515V16.8228C38.7139 19.1705 36.6417 21.0952 34.1279 21.0952H29.3281C26.8259 21.0951 24.8857 19.1813 24.8857 16.8228V12.2515C24.8858 9.89084 26.8282 7.95277 29.3281 7.95264ZM11.7285 10.4282C11.4893 10.4264 11.2516 10.4721 11.0303 10.563C10.8083 10.6542 10.6067 10.7892 10.4375 10.9595C10.2683 11.1297 10.1348 11.3326 10.0449 11.5552C9.95569 11.7764 9.91105 12.013 9.91406 12.2515V16.8198C9.91132 17.0585 9.95714 17.2953 10.0479 17.5161C10.1386 17.737 10.2725 17.9381 10.4424 18.106C10.6123 18.2738 10.8151 18.4055 11.0371 18.4937C11.257 18.5809 11.492 18.6224 11.7285 18.6177V18.6187H16.5283C17.5349 18.6187 18.4854 17.8517 18.4854 16.8228V12.2515C18.4852 11.2291 17.5436 10.4282 16.5283 10.4282H11.7285ZM29.3281 10.4282C29.0891 10.4264 28.852 10.4722 28.6309 10.563C28.4088 10.6541 28.2073 10.7893 28.0381 10.9595C27.8688 11.1298 27.7344 11.3325 27.6445 11.5552C27.5772 11.7221 27.5357 11.898 27.5205 12.0767L27.5146 12.2515V16.8198C27.5119 17.0585 27.5568 17.2953 27.6475 17.5161C27.7383 17.7371 27.873 17.9381 28.043 18.106C28.2128 18.2738 28.4148 18.4055 28.6367 18.4937C28.8566 18.5809 29.0917 18.6223 29.3281 18.6177V18.6187H34.1279C35.1345 18.6187 36.0859 17.8517 36.0859 16.8228V12.2515C36.0858 11.2291 35.1432 10.4282 34.1279 10.4282H29.3281Z" fill="#2B2828"/>
<path d="M11.7285 24.7144H16.5283C19.0396 24.7144 21.114 26.6634 21.1143 29.0132V33.5854C21.114 35.933 19.0419 37.8569 16.5283 37.8569H11.7285C9.22634 37.8569 7.28639 35.9438 7.28613 33.5854V29.0132C7.28633 26.6526 9.22857 24.7144 11.7285 24.7144ZM29.3281 24.7144H34.1279C36.6392 24.7144 38.7137 26.6634 38.7139 29.0132V33.5854C38.7136 35.933 36.6415 37.8569 34.1279 37.8569H29.3281C26.8261 37.8568 24.886 35.9437 24.8857 33.5854V29.0132C24.8859 26.6526 26.8283 24.7145 29.3281 24.7144ZM11.7285 27.1899C11.4893 27.1881 11.2516 27.2338 11.0303 27.3247C10.8082 27.4159 10.6067 27.551 10.4375 27.7212C10.2682 27.8915 10.1348 28.0942 10.0449 28.3169C9.95567 28.5381 9.91108 28.7747 9.91406 29.0132V33.5815C9.91132 33.8204 9.95704 34.0579 10.0479 34.2788C10.1386 34.4995 10.2727 34.6999 10.4424 34.8677C10.6123 35.0356 10.8151 35.1672 11.0371 35.2554C11.257 35.3427 11.492 35.3841 11.7285 35.3794V35.3804H16.5283C17.5348 35.3804 18.4851 34.6141 18.4854 33.5854V29.0132C18.4851 27.9909 17.5435 27.1899 16.5283 27.1899H11.7285ZM29.3281 27.1899C29.0891 27.1881 28.852 27.234 28.6309 27.3247C28.4089 27.4159 28.2073 27.5511 28.0381 27.7212C27.8688 27.8915 27.7344 28.0942 27.6445 28.3169C27.5772 28.4838 27.5357 28.6597 27.5205 28.8384L27.5146 29.0132V33.5815C27.5119 33.8204 27.5567 34.0579 27.6475 34.2788C27.7383 34.4997 27.8731 34.6998 28.043 34.8677C28.2128 35.0355 28.4148 35.1672 28.6367 35.2554C28.8566 35.3427 29.0917 35.384 29.3281 35.3794V35.3804H34.1279C35.1344 35.3804 36.0856 34.6141 36.0859 33.5854V29.0132C36.0857 27.9909 35.1431 27.1899 34.1279 27.1899H29.3281ZM11.7285 7.95264H16.5283C19.0397 7.95264 21.1142 9.90161 21.1143 12.2515V16.8228C21.1143 19.1705 19.042 21.0952 16.5283 21.0952H11.7285C9.22617 21.0952 7.28613 19.1813 7.28613 16.8228V12.2515C7.28623 9.89076 9.2285 7.95264 11.7285 7.95264ZM29.3281 7.95264H34.1279C36.6393 7.95264 38.7138 9.90161 38.7139 12.2515V16.8228C38.7139 19.1705 36.6417 21.0952 34.1279 21.0952H29.3281C26.8259 21.0951 24.8857 19.1813 24.8857 16.8228V12.2515C24.8858 9.89084 26.8282 7.95277 29.3281 7.95264ZM11.7285 10.4282C11.4893 10.4264 11.2516 10.4721 11.0303 10.563C10.8083 10.6542 10.6067 10.7892 10.4375 10.9595C10.2683 11.1297 10.1348 11.3326 10.0449 11.5552C9.95569 11.7764 9.91105 12.013 9.91406 12.2515V16.8198C9.91132 17.0585 9.95714 17.2953 10.0479 17.5161C10.1386 17.737 10.2725 17.9381 10.4424 18.106C10.6123 18.2738 10.8151 18.4055 11.0371 18.4937C11.257 18.5809 11.492 18.6224 11.7285 18.6177V18.6187H16.5283C17.5349 18.6187 18.4854 17.8517 18.4854 16.8228V12.2515C18.4852 11.2291 17.5436 10.4282 16.5283 10.4282H11.7285ZM29.3281 10.4282C29.0891 10.4264 28.852 10.4722 28.6309 10.563C28.4088 10.6541 28.2073 10.7893 28.0381 10.9595C27.8688 11.1298 27.7344 11.3325 27.6445 11.5552C27.5772 11.7221 27.5357 11.898 27.5205 12.0767L27.5146 12.2515V16.8198C27.5119 17.0585 27.5568 17.2953 27.6475 17.5161C27.7383 17.7371 27.873 17.9381 28.043 18.106C28.2128 18.2738 28.4148 18.4055 28.6367 18.4937C28.8566 18.5809 29.0917 18.6223 29.3281 18.6177V18.6187H34.1279C35.1345 18.6187 36.0859 17.8517 36.0859 16.8228V12.2515C36.0858 11.2291 35.1432 10.4282 34.1279 10.4282H29.3281Z" fill="black" fill-opacity="0.2"/>
<path d="M11.7285 24.7144H16.5283C19.0396 24.7144 21.114 26.6634 21.1143 29.0132V33.5854C21.114 35.933 19.0419 37.8569 16.5283 37.8569H11.7285C9.22634 37.8569 7.28639 35.9438 7.28613 33.5854V29.0132C7.28633 26.6526 9.22857 24.7144 11.7285 24.7144ZM29.3281 24.7144H34.1279C36.6392 24.7144 38.7137 26.6634 38.7139 29.0132V33.5854C38.7136 35.933 36.6415 37.8569 34.1279 37.8569H29.3281C26.8261 37.8568 24.886 35.9437 24.8857 33.5854V29.0132C24.8859 26.6526 26.8283 24.7145 29.3281 24.7144ZM11.7285 27.1899C11.4893 27.1881 11.2516 27.2338 11.0303 27.3247C10.8082 27.4159 10.6067 27.551 10.4375 27.7212C10.2682 27.8915 10.1348 28.0942 10.0449 28.3169C9.95567 28.5381 9.91108 28.7747 9.91406 29.0132V33.5815C9.91132 33.8204 9.95704 34.0579 10.0479 34.2788C10.1386 34.4995 10.2727 34.6999 10.4424 34.8677C10.6123 35.0356 10.8151 35.1672 11.0371 35.2554C11.257 35.3427 11.492 35.3841 11.7285 35.3794V35.3804H16.5283C17.5348 35.3804 18.4851 34.6141 18.4854 33.5854V29.0132C18.4851 27.9909 17.5435 27.1899 16.5283 27.1899H11.7285ZM29.3281 27.1899C29.0891 27.1881 28.852 27.234 28.6309 27.3247C28.4089 27.4159 28.2073 27.5511 28.0381 27.7212C27.8688 27.8915 27.7344 28.0942 27.6445 28.3169C27.5772 28.4838 27.5357 28.6597 27.5205 28.8384L27.5146 29.0132V33.5815C27.5119 33.8204 27.5567 34.0579 27.6475 34.2788C27.7383 34.4997 27.8731 34.6998 28.043 34.8677C28.2128 35.0355 28.4148 35.1672 28.6367 35.2554C28.8566 35.3427 29.0917 35.384 29.3281 35.3794V35.3804H34.1279C35.1344 35.3804 36.0856 34.6141 36.0859 33.5854V29.0132C36.0857 27.9909 35.1431 27.1899 34.1279 27.1899H29.3281ZM11.7285 7.95264H16.5283C19.0397 7.95264 21.1142 9.90161 21.1143 12.2515V16.8228C21.1143 19.1705 19.042 21.0952 16.5283 21.0952H11.7285C9.22617 21.0952 7.28613 19.1813 7.28613 16.8228V12.2515C7.28623 9.89076 9.2285 7.95264 11.7285 7.95264ZM29.3281 7.95264H34.1279C36.6393 7.95264 38.7138 9.90161 38.7139 12.2515V16.8228C38.7139 19.1705 36.6417 21.0952 34.1279 21.0952H29.3281C26.8259 21.0951 24.8857 19.1813 24.8857 16.8228V12.2515C24.8858 9.89084 26.8282 7.95277 29.3281 7.95264ZM11.7285 10.4282C11.4893 10.4264 11.2516 10.4721 11.0303 10.563C10.8083 10.6542 10.6067 10.7892 10.4375 10.9595C10.2683 11.1297 10.1348 11.3326 10.0449 11.5552C9.95569 11.7764 9.91105 12.013 9.91406 12.2515V16.8198C9.91132 17.0585 9.95714 17.2953 10.0479 17.5161C10.1386 17.737 10.2725 17.9381 10.4424 18.106C10.6123 18.2738 10.8151 18.4055 11.0371 18.4937C11.257 18.5809 11.492 18.6224 11.7285 18.6177V18.6187H16.5283C17.5349 18.6187 18.4854 17.8517 18.4854 16.8228V12.2515C18.4852 11.2291 17.5436 10.4282 16.5283 10.4282H11.7285ZM29.3281 10.4282C29.0891 10.4264 28.852 10.4722 28.6309 10.563C28.4088 10.6541 28.2073 10.7893 28.0381 10.9595C27.8688 11.1298 27.7344 11.3325 27.6445 11.5552C27.5772 11.7221 27.5357 11.898 27.5205 12.0767L27.5146 12.2515V16.8198C27.5119 17.0585 27.5568 17.2953 27.6475 17.5161C27.7383 17.7371 27.873 17.9381 28.043 18.106C28.2128 18.2738 28.4148 18.4055 28.6367 18.4937C28.8566 18.5809 29.0917 18.6223 29.3281 18.6177V18.6187H34.1279C35.1345 18.6187 36.0859 17.8517 36.0859 16.8228V12.2515C36.0858 11.2291 35.1432 10.4282 34.1279 10.4282H29.3281Z" fill="black" fill-opacity="0.2"/>
<path d="M11.7285 24.7144H16.5283C19.0396 24.7144 21.114 26.6634 21.1143 29.0132V33.5854C21.114 35.933 19.0419 37.8569 16.5283 37.8569H11.7285C9.22634 37.8569 7.28639 35.9438 7.28613 33.5854V29.0132C7.28633 26.6526 9.22857 24.7144 11.7285 24.7144ZM29.3281 24.7144H34.1279C36.6392 24.7144 38.7137 26.6634 38.7139 29.0132V33.5854C38.7136 35.933 36.6415 37.8569 34.1279 37.8569H29.3281C26.8261 37.8568 24.886 35.9437 24.8857 33.5854V29.0132C24.8859 26.6526 26.8283 24.7145 29.3281 24.7144ZM11.7285 27.1899C11.4893 27.1881 11.2516 27.2338 11.0303 27.3247C10.8082 27.4159 10.6067 27.551 10.4375 27.7212C10.2682 27.8915 10.1348 28.0942 10.0449 28.3169C9.95567 28.5381 9.91108 28.7747 9.91406 29.0132V33.5815C9.91132 33.8204 9.95704 34.0579 10.0479 34.2788C10.1386 34.4995 10.2727 34.6999 10.4424 34.8677C10.6123 35.0356 10.8151 35.1672 11.0371 35.2554C11.257 35.3427 11.492 35.3841 11.7285 35.3794V35.3804H16.5283C17.5348 35.3804 18.4851 34.6141 18.4854 33.5854V29.0132C18.4851 27.9909 17.5435 27.1899 16.5283 27.1899H11.7285ZM29.3281 27.1899C29.0891 27.1881 28.852 27.234 28.6309 27.3247C28.4089 27.4159 28.2073 27.5511 28.0381 27.7212C27.8688 27.8915 27.7344 28.0942 27.6445 28.3169C27.5772 28.4838 27.5357 28.6597 27.5205 28.8384L27.5146 29.0132V33.5815C27.5119 33.8204 27.5567 34.0579 27.6475 34.2788C27.7383 34.4997 27.8731 34.6998 28.043 34.8677C28.2128 35.0355 28.4148 35.1672 28.6367 35.2554C28.8566 35.3427 29.0917 35.384 29.3281 35.3794V35.3804H34.1279C35.1344 35.3804 36.0856 34.6141 36.0859 33.5854V29.0132C36.0857 27.9909 35.1431 27.1899 34.1279 27.1899H29.3281ZM11.7285 7.95264H16.5283C19.0397 7.95264 21.1142 9.90161 21.1143 12.2515V16.8228C21.1143 19.1705 19.042 21.0952 16.5283 21.0952H11.7285C9.22617 21.0952 7.28613 19.1813 7.28613 16.8228V12.2515C7.28623 9.89076 9.2285 7.95264 11.7285 7.95264ZM29.3281 7.95264H34.1279C36.6393 7.95264 38.7138 9.90161 38.7139 12.2515V16.8228C38.7139 19.1705 36.6417 21.0952 34.1279 21.0952H29.3281C26.8259 21.0951 24.8857 19.1813 24.8857 16.8228V12.2515C24.8858 9.89084 26.8282 7.95277 29.3281 7.95264ZM11.7285 10.4282C11.4893 10.4264 11.2516 10.4721 11.0303 10.563C10.8083 10.6542 10.6067 10.7892 10.4375 10.9595C10.2683 11.1297 10.1348 11.3326 10.0449 11.5552C9.95569 11.7764 9.91105 12.013 9.91406 12.2515V16.8198C9.91132 17.0585 9.95714 17.2953 10.0479 17.5161C10.1386 17.737 10.2725 17.9381 10.4424 18.106C10.6123 18.2738 10.8151 18.4055 11.0371 18.4937C11.257 18.5809 11.492 18.6224 11.7285 18.6177V18.6187H16.5283C17.5349 18.6187 18.4854 17.8517 18.4854 16.8228V12.2515C18.4852 11.2291 17.5436 10.4282 16.5283 10.4282H11.7285ZM29.3281 10.4282C29.0891 10.4264 28.852 10.4722 28.6309 10.563C28.4088 10.6541 28.2073 10.7893 28.0381 10.9595C27.8688 11.1298 27.7344 11.3325 27.6445 11.5552C27.5772 11.7221 27.5357 11.898 27.5205 12.0767L27.5146 12.2515V16.8198C27.5119 17.0585 27.5568 17.2953 27.6475 17.5161C27.7383 17.7371 27.873 17.9381 28.043 18.106C28.2128 18.2738 28.4148 18.4055 28.6367 18.4937C28.8566 18.5809 29.0917 18.6223 29.3281 18.6177V18.6187H34.1279C35.1345 18.6187 36.0859 17.8517 36.0859 16.8228V12.2515C36.0858 11.2291 35.1432 10.4282 34.1279 10.4282H29.3281Z" stroke="#FDFDFD" stroke-width="0.571429"/>
</svg>
