<svg width="40" height="40" viewBox="0 0 40 40" fill="none" xmlns="http://www.w3.org/2000/svg">
<path d="M25.4404 28.9175L20.001 34.3569L14.5615 28.9175L16.46 27.02L20.002 30.562L20.3555 30.2085L23.542 27.02L25.4404 28.9175ZM12.9814 16.4585L9.79395 19.647L9.44043 20.0005L12.9814 23.5415L11.083 25.439L5.64453 19.9995L11.084 14.561L12.9814 16.4585ZM34.3584 19.9995L28.9189 25.439L27.0215 23.5405L30.21 20.354L30.5635 20.0005L27.0215 16.4585L28.9189 14.5601L34.3584 19.9995ZM22.957 19.9985L20.0029 22.937L17.0635 19.9985L20.0029 17.0435L22.957 19.9985ZM25.4404 11.0815L23.543 12.98L20.002 9.43896L19.6484 9.79248L16.46 12.98L14.5625 11.0825L20.001 5.64307L25.4404 11.0815Z" fill="#EC1C24" stroke="#FDFDFD"/>
</svg>
