<svg width="40" height="41" viewBox="0 0 40 41" fill="none" xmlns="http://www.w3.org/2000/svg">
<path d="M25.6523 29.3574L20.001 35.0088L14.3496 29.3574L16.46 27.248L20.002 30.79L20.249 30.542L23.543 27.248L25.6523 29.3574ZM13.1934 16.8984L9.89941 20.1924L9.65234 20.4404L13.1934 23.9814L11.083 26.0908L5.43164 20.4395L11.083 14.7881L13.1934 16.8984ZM34.5703 20.4395L28.9189 26.0908L26.8096 23.9814L30.1035 20.6875L30.3516 20.4404L26.8096 16.8984L28.9189 14.7881L34.5703 20.4395ZM23.1709 20.4395L20.002 23.5889L16.8516 20.4385L20.002 17.2715L23.1709 20.4395ZM25.6523 11.5215L23.543 13.6318L20.002 10.0908L19.7539 10.3379L16.46 13.6318L14.3496 11.5215L20.001 5.87012L25.6523 11.5215Z" fill="#EC1C24" stroke="#FDFDFD" stroke-width="0.7"/>
</svg>
