<svg width="32" height="33" viewBox="0 0 32 33" fill="none" xmlns="http://www.w3.org/2000/svg">
<path d="M26.758 28.8335H5.23871C4.87283 28.8333 4.52199 28.6878 4.26333 28.429C4.00468 28.1702 3.85937 27.8193 3.85938 27.4535V12.3535C3.85955 11.9876 4.00502 11.6367 4.2638 11.3781C4.52258 11.1194 4.87349 10.9741 5.23938 10.9741H26.7574C27.1233 10.9743 27.4741 11.1198 27.7328 11.3785C27.9914 11.6373 28.1367 11.9882 28.1367 12.3541V27.4541C28.1365 27.82 27.9911 28.1708 27.7323 28.4295C27.4735 28.6882 27.1226 28.8335 26.7567 28.8335" stroke="#EC1C24" stroke-linecap="round" stroke-linejoin="round"/>
<path d="M8.33396 20.1076V14.8502H13.8573M17.9986 24.9362H23.548V19.6336M5.64062 10.9756V8.54158C5.64151 8.18557 5.78332 7.8444 6.03505 7.59267C6.28678 7.34093 6.62795 7.19912 6.98396 7.19824H25.0146C25.3706 7.19912 25.7118 7.34093 25.9635 7.59267C26.2153 7.8444 26.3571 8.18557 26.358 8.54158V10.9749" stroke="#EC1C24" stroke-linecap="round" stroke-linejoin="round"/>
<path d="M7.67969 7.19784V5.50984C7.68057 5.15383 7.82238 4.81266 8.07411 4.56093C8.32585 4.3092 8.66702 4.16738 9.02302 4.1665H22.9777C23.3337 4.16738 23.6749 4.3092 23.9266 4.56093C24.1783 4.81266 24.3201 5.15383 24.321 5.50984V7.19784" stroke="#EC1C24" stroke-linecap="round" stroke-linejoin="round"/>
</svg>
