<svg width="40" height="41" viewBox="0 0 40 41" fill="none" xmlns="http://www.w3.org/2000/svg">
<path d="M29.0266 31.9209H36.4113M36.4113 31.9209L32.3087 27.8183M36.4113 31.9209L32.3087 36.0234M20.001 4.02344L15.8984 8.126L20.001 12.2286" stroke="#EC1C24" stroke-width="1.47692" stroke-linecap="round" stroke-linejoin="round"/>
<path d="M17.5425 8.12598C20.8067 8.12598 23.9372 9.42268 26.2453 11.7308C28.5535 14.039 29.8502 17.1695 29.8502 20.4337C29.8502 23.6979 28.5535 26.8284 26.2453 29.1365C23.9372 31.4447 20.8067 32.7414 17.5425 32.7414H3.59375" stroke="#EC1C24" stroke-width="1.47692" stroke-linecap="round" stroke-linejoin="round"/>
<path d="M11.3981 9.7666C9.52407 10.8462 7.96766 12.4006 6.88558 14.2732C5.80351 16.1458 5.23399 18.2705 5.23438 20.4333C5.23438 23.2033 6.15007 25.76 7.69591 27.8179" stroke="#EC1C24" stroke-width="1.47692" stroke-linecap="round" stroke-linejoin="round"/>
</svg>
