<svg width="40" height="40" viewBox="0 0 40 40" fill="none" xmlns="http://www.w3.org/2000/svg">
<g clip-path="url(#clip0_1751_14447)">
<path d="M15.5 11C15.5 12.1935 15.9741 13.3381 16.818 14.182C17.6619 15.0259 18.8065 15.5 20 15.5C21.1935 15.5 22.3381 15.0259 23.182 14.182C24.0259 13.3381 24.5 12.1935 24.5 11C24.5 9.80653 24.0259 8.66193 23.182 7.81802C22.3381 6.97411 21.1935 6.5 20 6.5C18.8065 6.5 17.6619 6.97411 16.818 7.81802C15.9741 8.66193 15.5 9.80653 15.5 11ZM8.65701 22.853C8.13392 23.1425 7.67375 23.5333 7.30339 24.0026C6.93303 24.472 6.6599 25.0104 6.49996 25.5864C6.34002 26.1625 6.29647 26.7647 6.37186 27.3577C6.44725 27.9508 6.64006 28.5229 6.93904 29.0407C7.23802 29.5584 7.63716 30.0114 8.11316 30.3731C8.58916 30.7348 9.13247 30.9981 9.71136 31.1475C10.2902 31.2969 10.8931 31.3295 11.4847 31.2433C12.0763 31.1571 12.6448 30.9539 13.157 30.6455C14.1821 30.0445 14.9279 29.0625 15.2317 27.9136C15.5354 26.7648 15.3724 25.5425 14.7782 24.5134C14.1841 23.4843 13.207 22.732 12.0602 22.4206C10.9134 22.1093 9.69002 22.2642 8.65701 22.8515V22.853ZM31.343 22.853C31.8652 23.1427 32.3245 23.5335 32.6941 24.0026C33.0637 24.4716 33.3362 25.0096 33.4957 25.5851C33.6552 26.1605 33.6985 26.762 33.6232 27.3544C33.5478 27.9468 33.3552 28.5183 33.0567 29.0355C32.7582 29.5527 32.3596 30.0053 31.8844 30.3669C31.4091 30.7284 30.8666 30.9918 30.2885 31.1415C29.7104 31.2912 29.1083 31.3243 28.5172 31.2389C27.9262 31.1535 27.3581 30.9513 26.846 30.644C25.8343 30.0369 25.1016 29.0567 24.8058 27.9145C24.51 26.7724 24.6748 25.5597 25.2646 24.5378C25.8544 23.516 26.8221 22.7668 27.959 22.4516C29.096 22.1365 30.3113 22.2806 31.343 22.853Z" stroke="#EC1C24"/>
<path fill-rule="evenodd" clip-rule="evenodd" d="M15.5047 11.1876C15.4802 10.6045 15.5693 10.0222 15.7672 9.47314C14.0777 10.0679 12.5325 11.0119 11.2323 12.2436C9.93202 13.4754 8.90587 14.9673 8.22068 16.6221C7.27433 18.9067 7.01271 21.4171 7.46768 23.8476C7.84411 23.4018 8.30364 23.0335 8.82068 22.7631C8.55071 20.3726 9.05417 17.9585 10.2572 15.8751C11.4601 13.7917 13.2993 12.1489 15.5047 11.1876ZM24.4957 11.1876C26.7011 12.1489 28.5402 13.7917 29.7432 15.8751C30.9462 17.9585 31.4497 20.3726 31.1797 22.7631C31.2347 22.7911 31.2897 22.8211 31.3447 22.8531C31.7947 23.1141 32.1967 23.4501 32.5327 23.8476C33.0932 20.8554 32.5646 17.7613 31.0424 15.1249C29.5202 12.4885 27.1049 10.4837 24.2332 9.47314C24.431 10.0222 24.5202 10.6045 24.4957 11.1876ZM28.2997 31.1796C27.7249 31.0765 27.1757 30.8626 26.6827 30.5496C24.7476 31.9784 22.4056 32.7494 20.0002 32.7494C17.5948 32.7494 15.2527 31.9784 13.3177 30.5496L13.1572 30.6471C12.7062 30.9076 12.2133 31.0878 11.7007 31.1796C14.0118 33.1614 16.9558 34.2508 20.0002 34.2508C23.0446 34.2508 25.9886 33.1614 28.2997 31.1796Z" fill="#EC1C24"/>
</g>
<defs>
<clipPath id="clip0_1751_14447">
<rect width="32" height="32" fill="white" transform="translate(4 4)"/>
</clipPath>
</defs>
</svg>
