<svg width="40" height="40" viewBox="0 0 40 40" fill="none" xmlns="http://www.w3.org/2000/svg">
<path d="M10 16.5601C10 19.2122 11.0536 21.7558 12.9289 23.6311C14.8043 25.5065 17.3478 26.5601 20 26.5601C22.6522 26.5601 25.1957 25.5065 27.0711 23.6311C28.9464 21.7558 30 19.2122 30 16.5601C30 13.9079 28.9464 11.3644 27.0711 9.48899C25.1957 7.61363 22.6522 6.56006 20 6.56006C17.3478 6.56006 14.8043 7.61363 12.9289 9.48899C11.0536 11.3644 10 13.9079 10 16.5601Z" stroke="#EC1C24" stroke-width="1.54839" stroke-linecap="round" stroke-linejoin="round"/>
<path d="M16 17.4491C16 17.4491 17 17.4491 18 19.2264C18 19.2264 21.176 14.7824 24 13.8931" stroke="#EC1C24" stroke-width="1.54839" stroke-linecap="round" stroke-linejoin="round"/>
<path d="M26.5101 23.8931L27.4034 28.1731C27.9768 30.9224 28.2648 32.2971 27.6741 32.9491C27.0848 33.6011 26.0608 33.0411 24.0128 31.9197L20.9808 30.2597C20.4968 29.9957 20.2554 29.8624 19.9994 29.8624C19.7434 29.8624 19.5021 29.9957 19.0181 30.2597L15.9861 31.9197C13.9381 33.0397 12.9141 33.6011 12.3248 32.9491C11.7354 32.2971 12.0221 30.9224 12.5954 28.1731L13.4888 23.8931" stroke="#EC1C24" stroke-width="1.54839" stroke-linejoin="round"/>
</svg>
