<svg width="40" height="40" viewBox="0 0 40 40" fill="none" xmlns="http://www.w3.org/2000/svg">
<path d="M10.3125 17.0044C10.3125 19.5737 11.3331 22.0377 13.1499 23.8545C14.9667 25.6712 17.4307 26.6919 20 26.6919C22.5693 26.6919 25.0333 25.6712 26.8501 23.8545C28.6669 22.0377 29.6875 19.5737 29.6875 17.0044C29.6875 14.4351 28.6669 11.9711 26.8501 10.1543C25.0333 8.33754 22.5693 7.31689 20 7.31689C17.4307 7.31689 14.9667 8.33754 13.1499 10.1543C11.3331 11.9711 10.3125 14.4351 10.3125 17.0044Z" stroke="#EC1C24" stroke-width="1.5" stroke-linecap="round" stroke-linejoin="round"/>
<path d="M16.125 17.8658C16.125 17.8658 17.0937 17.8658 18.0625 19.5876C18.0625 19.5876 21.1392 15.2824 23.875 14.4209" stroke="#EC1C24" stroke-width="1.5" stroke-linecap="round" stroke-linejoin="round"/>
<path d="M26.3067 24.1084L27.1721 28.2546C27.7275 30.9181 28.0065 32.2498 27.4343 32.8814C26.8634 33.513 25.8714 32.9705 23.8874 31.8842L20.9501 30.2761C20.4813 30.0204 20.2475 29.8912 19.9995 29.8912C19.7515 29.8912 19.5177 30.0204 19.0488 30.2761L16.1115 31.8842C14.1275 32.9692 13.1355 33.513 12.5646 32.8814C11.9937 32.2498 12.2714 30.9181 12.8268 28.2546L13.6923 24.1084" stroke="#EC1C24" stroke-width="1.5" stroke-linejoin="round"/>
</svg>
