<svg width="40" height="40" viewBox="0 0 40 40" fill="none" xmlns="http://www.w3.org/2000/svg">
<path d="M17 17.4905L20 15.9905L23 17.4905V9.5H17V17.4905ZM12.5 26.75V25.25H20V26.75H12.5ZM10.424 32C9.733 32 9.1565 31.769 8.6945 31.307C8.2325 30.845 8.001 30.268 8 29.576V10.424C8 9.733 8.2315 9.1565 8.6945 8.6945C9.1575 8.2325 9.734 8.001 10.424 8H29.5775C30.2675 8 30.844 8.2315 31.307 8.6945C31.77 9.1575 32.001 9.734 32 10.424V29.5775C32 30.2675 31.769 30.844 31.307 31.307C30.845 31.77 30.268 32.001 29.576 32H10.424ZM10.424 30.5H29.5775C29.8075 30.5 30.019 30.404 30.212 30.212C30.405 30.02 30.501 29.808 30.5 29.576V10.424C30.5 10.193 30.404 9.981 30.212 9.788C30.02 9.595 29.808 9.499 29.576 9.5H24.5V19.943L20 17.693L15.5 19.943V9.5H10.424C10.193 9.5 9.981 9.596 9.788 9.788C9.595 9.98 9.499 10.192 9.5 10.424V29.5775C9.5 29.8075 9.596 30.019 9.788 30.212C9.98 30.405 10.1915 30.501 10.4225 30.5" fill="#EC1C24"/>
</svg>
