<svg width="40" height="40" viewBox="0 0 40 40" fill="none" xmlns="http://www.w3.org/2000/svg">
<path d="M34.3597 31.9855C34.3597 31.4569 33.9312 31.0288 33.4027 31.0285H6.60417C6.07538 31.0285 5.64714 31.4567 5.64714 31.9855V33.6099C5.64738 34.1385 6.07552 34.5669 6.60417 34.5669H33.4027C33.931 34.5666 34.3595 34.1382 34.3597 33.6099V31.9855ZM35.6927 33.6099C35.6925 34.8746 34.6674 35.8996 33.4027 35.8999H6.60417C5.33914 35.8999 4.31274 34.8748 4.3125 33.6099V31.9855C4.3125 30.7203 5.339 29.6938 6.60417 29.6938H33.4027C34.6676 29.6942 35.6927 30.7206 35.6927 31.9855V33.6099Z" fill="#EC1C24"/>
<path d="M34.3516 13.8312C34.3344 13.7047 34.2918 13.5821 34.2262 13.4715C34.1605 13.3607 34.0721 13.2658 33.9691 13.1899L33.8617 13.12L21.2428 6.21729C20.8629 6.0094 20.4357 5.90153 20.0026 5.90153C19.5698 5.90159 19.1437 6.00957 18.764 6.21729L6.14355 13.12C5.99323 13.2023 5.86809 13.3241 5.7806 13.4715C5.69303 13.6192 5.64721 13.7881 5.64714 13.9598V15.5793C5.6472 15.6608 5.67898 15.7397 5.73665 15.7974C5.79434 15.8549 5.87328 15.8869 5.95475 15.8869H34.0521C34.1332 15.8868 34.211 15.8545 34.2686 15.7974C34.3262 15.7397 34.3596 15.6608 34.3597 15.5793V13.9598L34.3516 13.8312ZM35.6927 15.5793C35.6926 16.0144 35.5202 16.432 35.2126 16.7397C34.9049 17.0474 34.4872 17.2198 34.0521 17.2199H31.6318V30.3742C31.6318 30.7423 31.3342 31.0413 30.9661 31.0415C30.598 31.0415 30.2988 30.7424 30.2988 30.3742V17.2199H24.7292V30.3742C24.7292 30.7423 24.4316 31.0414 24.0635 31.0415C23.6953 31.0415 23.3962 30.7424 23.3962 30.3742V17.2199H16.609V30.3742C16.609 30.7421 16.3112 31.0411 15.9434 31.0415C15.5752 31.0415 15.276 30.7424 15.276 30.3742V17.2199H9.70638V30.3742C9.70638 30.7422 9.40863 31.0412 9.04069 31.0415C8.6725 31.0415 8.37337 30.7424 8.37337 30.3742V17.2199H5.95475C5.51966 17.2199 5.10201 17.0473 4.79427 16.7397C4.48655 16.432 4.31256 16.0144 4.3125 15.5793V13.9598C4.31261 13.5489 4.42356 13.1446 4.63314 12.7912C4.84258 12.4381 5.14383 12.1485 5.50391 11.9513L18.1243 5.04867C18.7004 4.73352 19.346 4.56696 20.0026 4.56689C20.6594 4.56689 21.3063 4.73341 21.8825 5.04867L34.5013 11.9513C34.8615 12.1484 35.1625 12.438 35.3721 12.7912C35.5817 13.1446 35.6926 13.5489 35.6927 13.9598V15.5793Z" fill="#EC1C24"/>
</svg>
