<svg width="40" height="40" viewBox="0 0 40 40" fill="none" xmlns="http://www.w3.org/2000/svg">
<path d="M25.0008 34.3328C25.369 34.3328 25.6682 34.632 25.6682 35.0002C25.6682 35.3683 25.369 35.6675 25.0008 35.6675H15.0008C14.633 35.6671 14.3352 35.3681 14.3352 35.0002C14.3352 34.6322 14.633 34.3333 15.0008 34.3328H25.0008ZM24.3352 28.3335C24.3352 27.7188 24.3347 27.3746 24.3498 27.1405C24.3641 26.914 24.3742 26.7242 24.3824 26.561C24.3904 26.4001 24.3975 26.2577 24.4051 26.1362C24.4204 25.8948 24.4418 25.6786 24.5077 25.4575C24.5736 25.2364 24.6729 25.0443 24.7925 24.8341C24.8528 24.7282 24.9257 24.6054 25.0074 24.4663C25.0902 24.3253 25.1861 24.1606 25.2987 23.9634L25.3003 23.9618C25.4168 23.7589 26.2334 22.5171 27.8085 20.1157C28.7311 18.708 29.2573 17.0773 29.3286 15.3957C29.4 13.714 29.0139 12.0442 28.2137 10.5633C27.4137 9.08268 26.2282 7.84615 24.7827 6.98421C23.3372 6.12234 21.6854 5.6674 20.0025 5.66748H20.0008C18.3176 5.66719 16.6648 6.12223 15.2189 6.98421C13.7735 7.84617 12.588 9.08272 11.788 10.5633C10.9878 12.0445 10.6031 13.7153 10.6747 15.3973C10.7463 17.0791 11.2719 18.7097 12.1949 20.1173H12.1932C12.9825 21.3187 13.5803 22.2286 13.995 22.8631L14.7014 23.9569L14.7046 23.9634L14.996 24.4663C15.0775 24.6053 15.1489 24.7283 15.2092 24.8341C15.3289 25.0445 15.4295 25.2363 15.4956 25.4575C15.5618 25.6788 15.5845 25.8944 15.5998 26.1362C15.6075 26.2579 15.6129 26.4 15.621 26.561C15.6291 26.7242 15.6394 26.9142 15.6535 27.1405C15.6686 27.3746 15.6682 27.7188 15.6682 28.3335C15.6682 28.5985 15.7738 28.8524 15.9611 29.0399C16.1485 29.2272 16.4026 29.3326 16.6675 29.3328H23.3342C23.5994 29.3328 23.8546 29.2274 24.0422 29.0399C24.2295 28.8524 24.3352 28.5985 24.3352 28.3335ZM25.6682 28.3335C25.6682 28.9523 25.4222 29.5463 24.9846 29.9839C24.547 30.4212 23.9528 30.6675 23.3342 30.6675H16.6675C16.0492 30.6673 15.4561 30.421 15.0187 29.9839C14.5812 29.5463 14.3352 28.9523 14.3352 28.3335C14.3352 27.692 14.3353 27.406 14.3238 27.2267L14.3221 27.2251C14.3075 26.99 14.2978 26.7933 14.2896 26.6278C14.2812 26.4602 14.2754 26.3309 14.2684 26.2209C14.2544 25.9991 14.2386 25.9091 14.218 25.84C14.1973 25.7708 14.1605 25.6868 14.0503 25.4933C13.9958 25.3975 13.9301 25.2863 13.8452 25.1418C13.7614 24.9989 13.6623 24.8286 13.5458 24.6242V24.6226C13.4368 24.4394 12.6603 23.2552 11.0799 20.8498H11.0783C10.0235 19.241 9.42356 17.3763 9.34166 15.4543C9.25989 13.5321 9.7 11.6229 10.6145 9.93018C11.5289 8.23747 12.8844 6.82361 14.537 5.83838C16.1893 4.8533 18.0772 4.33418 20.0008 4.33447C21.9243 4.33422 23.8126 4.85345 25.4647 5.83838C27.117 6.82353 28.4728 8.23773 29.3872 9.93018C30.3015 11.6225 30.7416 13.5308 30.66 15.4526C30.5784 17.3741 29.9791 19.2379 28.925 20.8465L28.9234 20.8481C27.3284 23.2799 26.5511 24.458 26.4559 24.6226C26.3391 24.8271 26.2404 24.9989 26.1564 25.1418C26.0716 25.2862 26.0058 25.3977 25.9514 25.4933C25.8416 25.6862 25.8058 25.7696 25.7853 25.8384C25.7648 25.9074 25.749 25.9969 25.7349 26.2192C25.7279 26.3296 25.7222 26.4597 25.7137 26.6278C25.7054 26.7935 25.6944 26.9899 25.6796 27.2251V27.2267C25.668 27.406 25.6682 27.692 25.6682 28.3335Z" fill="#EC1C24"/>
</svg>
