<svg width="40" height="40" viewBox="0 0 40 40" fill="none" xmlns="http://www.w3.org/2000/svg">
<mask id="path-1-inside-1_1778_13377" fill="white">
<path d="M20 8.65308C24.0856 8.65308 27.3256 11.8275 27.3256 15.6577C27.3256 18.0438 26.7116 19.2591 25.933 20.3642C25.7563 20.6117 25.5623 20.8722 25.3512 21.1456C24.62 22.1015 23.7409 23.2526 23.1172 24.9117C22.9899 25.2537 22.8247 25.5804 22.6246 25.8856L22.5465 25.9973C22.3757 26.2417 22.1792 26.4672 21.9605 26.6698C21.394 27.1889 20.713 27.4903 20 27.4903C19.2884 27.4903 18.606 27.1889 18.0381 26.6698C17.8193 26.4667 17.6228 26.2408 17.4521 25.9959L17.3753 25.8842C17.1754 25.5795 17.0102 25.2532 16.8828 24.9117C16.2591 23.2512 15.38 22.1015 14.6488 21.1442C14.4498 20.8876 14.2559 20.6271 14.067 20.3629C13.2898 19.2605 12.6744 18.0438 12.6744 15.6563C12.6744 11.8275 15.9158 8.65308 20 8.65308ZM24.4191 26.9587C24.687 26.5401 24.9074 26.0977 25.0763 25.647C25.5814 24.3033 26.2177 23.4675 26.9153 22.5535C27.1526 22.2424 27.3967 21.9215 27.6451 21.5684C28.6358 20.1619 29.4186 18.5335 29.4186 15.6563C29.4186 10.594 25.1628 6.56006 20 6.56006C14.8372 6.56006 10.5814 10.594 10.5814 15.6577C10.5814 18.5322 11.3642 20.1619 12.3549 21.5684C12.6033 21.9215 12.8474 22.2424 13.0847 22.5535C13.7823 23.4675 14.4186 24.3033 14.9237 25.647C15.0926 26.0977 15.3144 26.5401 15.5809 26.9587L15.8907 30.0508C15.9936 31.0691 16.471 32.0129 17.2302 32.6993C17.9894 33.3857 18.9765 33.7657 20 33.7657C21.0235 33.7657 22.0106 33.3857 22.7698 32.6993C23.529 32.0129 24.0064 31.0691 24.1093 30.0508L24.4191 26.9587ZM22.1028 29.0935L22.0274 29.8415C21.978 30.3448 21.743 30.8118 21.3683 31.1515C20.9935 31.4912 20.5058 31.6794 20 31.6794C19.4942 31.6794 19.0065 31.4912 18.6317 31.1515C18.257 30.8118 18.022 30.3448 17.9726 29.8415L17.8986 29.0935C18.5265 29.4033 19.2312 29.5833 20 29.5833C20.7674 29.5833 21.4735 29.4019 22.1014 29.0935M6.63674 7.63308C6.81462 7.4202 7.06975 7.28665 7.34605 7.26179C7.62235 7.23694 7.89722 7.32281 8.11023 7.50052L10.2033 9.24471C10.4089 9.4246 10.536 9.67776 10.5575 9.95012C10.5789 10.2225 10.493 10.4924 10.3181 10.7023C10.1432 10.9122 9.89321 11.0454 9.62144 11.0734C9.34968 11.1014 9.07774 11.022 8.86372 10.8522L6.7707 9.10797C6.55761 8.93029 6.42379 8.67526 6.39868 8.39895C6.37356 8.12264 6.45919 7.84627 6.63674 7.63308ZM33.3605 7.63448C33.4486 7.74008 33.515 7.86201 33.556 7.99332C33.597 8.12462 33.6117 8.26271 33.5992 8.39969C33.5868 8.53667 33.5475 8.66985 33.4835 8.79162C33.4196 8.9134 33.3322 9.02137 33.2265 9.10936L31.1335 10.8535C31.0285 10.9454 30.9061 11.0154 30.7737 11.0593C30.6412 11.1032 30.5013 11.1201 30.3622 11.1092C30.2231 11.0982 30.0876 11.0595 29.9636 10.9954C29.8397 10.9313 29.7298 10.8431 29.6405 10.7359C29.5511 10.6287 29.4841 10.5047 29.4434 10.3712C29.4027 10.2377 29.3891 10.0975 29.4034 9.95866C29.4177 9.81985 29.4596 9.6853 29.5267 9.56293C29.5938 9.44056 29.6846 9.33284 29.794 9.24611L31.887 7.50192C32.1002 7.32436 32.3751 7.23873 32.6515 7.26385C32.9278 7.28897 33.1828 7.42139 33.3605 7.63448ZM5 14.9322C5 14.6546 5.11026 14.3884 5.30652 14.1922C5.50278 13.9959 5.76896 13.8856 6.04651 13.8856H8.83721C9.11476 13.8856 9.38095 13.9959 9.5772 14.1922C9.77346 14.3884 9.88372 14.6546 9.88372 14.9322C9.88372 15.2097 9.77346 15.4759 9.5772 15.6721C9.38095 15.8684 9.11476 15.9787 8.83721 15.9787H6.04651C5.76896 15.9787 5.50278 15.8684 5.30652 15.6721C5.11026 15.4759 5 15.2097 5 14.9322ZM30.1163 14.9322C30.1163 14.6546 30.2265 14.3884 30.4228 14.1922C30.6191 13.9959 30.8852 13.8856 31.1628 13.8856H33.9535C34.231 13.8856 34.4972 13.9959 34.6935 14.1922C34.8897 14.3884 35 14.6546 35 14.9322C35 15.2097 34.8897 15.4759 34.6935 15.6721C34.4972 15.8684 34.231 15.9787 33.9535 15.9787H31.1628C30.8852 15.9787 30.6191 15.8684 30.4228 15.6721C30.2265 15.4759 30.1163 15.2097 30.1163 14.9322ZM10.4698 20.0461C10.5938 20.2943 10.6143 20.5815 10.5266 20.8447C10.439 21.108 10.2504 21.3256 10.0023 21.4498L7.9093 22.4963C7.78622 22.559 7.65194 22.5967 7.51423 22.6072C7.37652 22.6177 7.23808 22.6008 7.10691 22.5576C6.97574 22.5143 6.85443 22.4456 6.74997 22.3552C6.64551 22.2649 6.55997 22.1547 6.49827 22.0312C6.43658 21.9076 6.39996 21.773 6.39052 21.6352C6.38108 21.4974 6.399 21.3591 6.44327 21.2283C6.48753 21.0975 6.55725 20.9767 6.64841 20.873C6.73957 20.7692 6.85037 20.6845 6.97442 20.6238L9.06744 19.5773C9.31576 19.4533 9.60315 19.4331 9.8664 19.521C10.1296 19.6089 10.3458 19.7978 10.4698 20.0461ZM29.5316 20.0461C29.6556 19.7982 29.8729 19.6095 30.1358 19.5216C30.3987 19.4337 30.6858 19.4537 30.934 19.5773L33.027 20.6238C33.151 20.6845 33.2618 20.7692 33.353 20.873C33.4441 20.9767 33.5139 21.0975 33.5581 21.2283C33.6024 21.3591 33.6203 21.4974 33.6109 21.6352C33.6014 21.773 33.5648 21.9076 33.5031 22.0312C33.4414 22.1547 33.3559 22.2649 33.2514 22.3552C33.147 22.4456 33.0257 22.5143 32.8945 22.5576C32.7633 22.6008 32.6249 22.6177 32.4872 22.6072C32.3495 22.5967 32.2152 22.559 32.0921 22.4963L29.9991 21.4498C29.7508 21.3258 29.5619 21.1083 29.4739 20.8451C29.386 20.5818 29.4077 20.2944 29.5316 20.0461Z"/>
</mask>
<path d="M20 8.65308C24.0856 8.65308 27.3256 11.8275 27.3256 15.6577C27.3256 18.0438 26.7116 19.2591 25.933 20.3642C25.7563 20.6117 25.5623 20.8722 25.3512 21.1456C24.62 22.1015 23.7409 23.2526 23.1172 24.9117C22.9899 25.2537 22.8247 25.5804 22.6246 25.8856L22.5465 25.9973C22.3757 26.2417 22.1792 26.4672 21.9605 26.6698C21.394 27.1889 20.713 27.4903 20 27.4903C19.2884 27.4903 18.606 27.1889 18.0381 26.6698C17.8193 26.4667 17.6228 26.2408 17.4521 25.9959L17.3753 25.8842C17.1754 25.5795 17.0102 25.2532 16.8828 24.9117C16.2591 23.2512 15.38 22.1015 14.6488 21.1442C14.4498 20.8876 14.2559 20.6271 14.067 20.3629C13.2898 19.2605 12.6744 18.0438 12.6744 15.6563C12.6744 11.8275 15.9158 8.65308 20 8.65308ZM24.4191 26.9587C24.687 26.5401 24.9074 26.0977 25.0763 25.647C25.5814 24.3033 26.2177 23.4675 26.9153 22.5535C27.1526 22.2424 27.3967 21.9215 27.6451 21.5684C28.6358 20.1619 29.4186 18.5335 29.4186 15.6563C29.4186 10.594 25.1628 6.56006 20 6.56006C14.8372 6.56006 10.5814 10.594 10.5814 15.6577C10.5814 18.5322 11.3642 20.1619 12.3549 21.5684C12.6033 21.9215 12.8474 22.2424 13.0847 22.5535C13.7823 23.4675 14.4186 24.3033 14.9237 25.647C15.0926 26.0977 15.3144 26.5401 15.5809 26.9587L15.8907 30.0508C15.9936 31.0691 16.471 32.0129 17.2302 32.6993C17.9894 33.3857 18.9765 33.7657 20 33.7657C21.0235 33.7657 22.0106 33.3857 22.7698 32.6993C23.529 32.0129 24.0064 31.0691 24.1093 30.0508L24.4191 26.9587ZM22.1028 29.0935L22.0274 29.8415C21.978 30.3448 21.743 30.8118 21.3683 31.1515C20.9935 31.4912 20.5058 31.6794 20 31.6794C19.4942 31.6794 19.0065 31.4912 18.6317 31.1515C18.257 30.8118 18.022 30.3448 17.9726 29.8415L17.8986 29.0935C18.5265 29.4033 19.2312 29.5833 20 29.5833C20.7674 29.5833 21.4735 29.4019 22.1014 29.0935M6.63674 7.63308C6.81462 7.4202 7.06975 7.28665 7.34605 7.26179C7.62235 7.23694 7.89722 7.32281 8.11023 7.50052L10.2033 9.24471C10.4089 9.4246 10.536 9.67776 10.5575 9.95012C10.5789 10.2225 10.493 10.4924 10.3181 10.7023C10.1432 10.9122 9.89321 11.0454 9.62144 11.0734C9.34968 11.1014 9.07774 11.022 8.86372 10.8522L6.7707 9.10797C6.55761 8.93029 6.42379 8.67526 6.39868 8.39895C6.37356 8.12264 6.45919 7.84627 6.63674 7.63308ZM33.3605 7.63448C33.4486 7.74008 33.515 7.86201 33.556 7.99332C33.597 8.12462 33.6117 8.26271 33.5992 8.39969C33.5868 8.53667 33.5475 8.66985 33.4835 8.79162C33.4196 8.9134 33.3322 9.02137 33.2265 9.10936L31.1335 10.8535C31.0285 10.9454 30.9061 11.0154 30.7737 11.0593C30.6412 11.1032 30.5013 11.1201 30.3622 11.1092C30.2231 11.0982 30.0876 11.0595 29.9636 10.9954C29.8397 10.9313 29.7298 10.8431 29.6405 10.7359C29.5511 10.6287 29.4841 10.5047 29.4434 10.3712C29.4027 10.2377 29.3891 10.0975 29.4034 9.95866C29.4177 9.81985 29.4596 9.6853 29.5267 9.56293C29.5938 9.44056 29.6846 9.33284 29.794 9.24611L31.887 7.50192C32.1002 7.32436 32.3751 7.23873 32.6515 7.26385C32.9278 7.28897 33.1828 7.42139 33.3605 7.63448ZM5 14.9322C5 14.6546 5.11026 14.3884 5.30652 14.1922C5.50278 13.9959 5.76896 13.8856 6.04651 13.8856H8.83721C9.11476 13.8856 9.38095 13.9959 9.5772 14.1922C9.77346 14.3884 9.88372 14.6546 9.88372 14.9322C9.88372 15.2097 9.77346 15.4759 9.5772 15.6721C9.38095 15.8684 9.11476 15.9787 8.83721 15.9787H6.04651C5.76896 15.9787 5.50278 15.8684 5.30652 15.6721C5.11026 15.4759 5 15.2097 5 14.9322ZM30.1163 14.9322C30.1163 14.6546 30.2265 14.3884 30.4228 14.1922C30.6191 13.9959 30.8852 13.8856 31.1628 13.8856H33.9535C34.231 13.8856 34.4972 13.9959 34.6935 14.1922C34.8897 14.3884 35 14.6546 35 14.9322C35 15.2097 34.8897 15.4759 34.6935 15.6721C34.4972 15.8684 34.231 15.9787 33.9535 15.9787H31.1628C30.8852 15.9787 30.6191 15.8684 30.4228 15.6721C30.2265 15.4759 30.1163 15.2097 30.1163 14.9322ZM10.4698 20.0461C10.5938 20.2943 10.6143 20.5815 10.5266 20.8447C10.439 21.108 10.2504 21.3256 10.0023 21.4498L7.9093 22.4963C7.78622 22.559 7.65194 22.5967 7.51423 22.6072C7.37652 22.6177 7.23808 22.6008 7.10691 22.5576C6.97574 22.5143 6.85443 22.4456 6.74997 22.3552C6.64551 22.2649 6.55997 22.1547 6.49827 22.0312C6.43658 21.9076 6.39996 21.773 6.39052 21.6352C6.38108 21.4974 6.399 21.3591 6.44327 21.2283C6.48753 21.0975 6.55725 20.9767 6.64841 20.873C6.73957 20.7692 6.85037 20.6845 6.97442 20.6238L9.06744 19.5773C9.31576 19.4533 9.60315 19.4331 9.8664 19.521C10.1296 19.6089 10.3458 19.7978 10.4698 20.0461ZM29.5316 20.0461C29.6556 19.7982 29.8729 19.6095 30.1358 19.5216C30.3987 19.4337 30.6858 19.4537 30.934 19.5773L33.027 20.6238C33.151 20.6845 33.2618 20.7692 33.353 20.873C33.4441 20.9767 33.5139 21.0975 33.5581 21.2283C33.6024 21.3591 33.6203 21.4974 33.6109 21.6352C33.6014 21.773 33.5648 21.9076 33.5031 22.0312C33.4414 22.1547 33.3559 22.2649 33.2514 22.3552C33.147 22.4456 33.0257 22.5143 32.8945 22.5576C32.7633 22.6008 32.6249 22.6177 32.4872 22.6072C32.3495 22.5967 32.2152 22.559 32.0921 22.4963L29.9991 21.4498C29.7508 21.3258 29.5619 21.1083 29.4739 20.8451C29.386 20.5818 29.4077 20.2944 29.5316 20.0461Z" fill="#EC1C24"/>
<path d="M25.933 20.3642L26.1771 20.5386L26.1783 20.537L25.933 20.3642ZM25.3512 21.1456L25.1137 20.9623L25.1129 20.9634L25.3512 21.1456ZM23.1172 24.9117L22.8364 24.8061L22.836 24.8071L23.1172 24.9117ZM22.6246 25.8856L22.8705 26.0578L22.8756 26.0501L22.6246 25.8856ZM22.5465 25.9973L22.3007 25.8252L22.3006 25.8254L22.5465 25.9973ZM21.9605 26.6698L22.1631 26.891L22.1644 26.8899L21.9605 26.6698ZM18.0381 26.6698L17.834 26.8897L17.8357 26.8913L18.0381 26.6698ZM17.4521 25.9959L17.2049 26.1658L17.206 26.1675L17.4521 25.9959ZM17.3753 25.8842L17.1245 26.0489L17.1281 26.0542L17.3753 25.8842ZM16.8828 24.9117L17.1639 24.8069L17.1636 24.8062L16.8828 24.9117ZM14.6488 21.1442L14.8872 20.9621L14.8859 20.9604L14.6488 21.1442ZM14.067 20.3629L13.8218 20.5357L13.8229 20.5373L14.067 20.3629ZM12.6744 15.6563H12.3744H12.6744ZM24.4191 26.9587L24.1664 26.7969L24.1277 26.8574L24.1206 26.9288L24.4191 26.9587ZM25.0763 25.647L24.7955 25.5415L24.7953 25.5418L25.0763 25.647ZM26.9153 22.5535L27.1538 22.7356L27.1539 22.7354L26.9153 22.5535ZM27.6451 21.5684L27.3998 21.3957L27.3998 21.3958L27.6451 21.5684ZM12.3549 21.5684L12.6002 21.3958L12.6001 21.3957L12.3549 21.5684ZM13.0847 22.5535L12.8461 22.7354L12.8462 22.7356L13.0847 22.5535ZM14.9237 25.647L15.2047 25.5418L15.2045 25.5415L14.9237 25.647ZM15.5809 26.9587L15.8794 26.9288L15.8723 26.8577L15.834 26.7975L15.5809 26.9587ZM15.8907 30.0508L15.5922 30.0807L15.5922 30.0809L15.8907 30.0508ZM24.1093 30.0508L24.4078 30.0809L24.4078 30.0807L24.1093 30.0508ZM22.0274 29.8415L21.729 29.8114L21.7289 29.8121L22.0274 29.8415ZM20 31.6794V31.3794V31.6794ZM17.9726 29.8415L18.2711 29.8121L18.2711 29.8119L17.9726 29.8415ZM17.8986 29.0935L18.0313 28.8245L17.5469 28.5855L17.6001 29.1231L17.8986 29.0935ZM6.63674 7.63308L6.40653 7.44072L6.40622 7.44109L6.63674 7.63308ZM8.11023 7.50052L7.91805 7.73088L7.91818 7.73099L8.11023 7.50052ZM10.2033 9.24471L10.4008 9.01885L10.3953 9.01424L10.2033 9.24471ZM8.86372 10.8522L8.67161 11.0827L8.67725 11.0872L8.86372 10.8522ZM6.7707 9.10797L6.57858 9.33838L6.57864 9.33843L6.7707 9.10797ZM33.3605 7.63448L33.1301 7.8266L33.1301 7.8267L33.3605 7.63448ZM33.2265 9.10936L33.0346 8.87879L33.0345 8.87889L33.2265 9.10936ZM31.1335 10.8535L30.9414 10.623L30.936 10.6278L31.1335 10.8535ZM29.794 9.24611L29.9805 9.48118L29.986 9.47657L29.794 9.24611ZM31.887 7.50192L31.695 7.2714L31.6949 7.27145L31.887 7.50192ZM6.04651 13.8856L6.04651 13.5856L6.04651 13.8856ZM8.83721 13.8856V13.5856V13.8856ZM9.88372 14.9322L10.1837 14.9322L9.88372 14.9322ZM31.1628 13.8856V13.5856V13.8856ZM33.9535 13.8856V13.5856V13.8856ZM10.4698 20.0461L10.2014 20.1801L10.2014 20.1803L10.4698 20.0461ZM10.0023 21.4498L10.1365 21.7182L10.1367 21.7181L10.0023 21.4498ZM7.9093 22.4963L7.77513 22.228L7.77322 22.229L7.9093 22.4963ZM7.10691 22.5576L7.20085 22.2727L7.10691 22.5576ZM6.97442 20.6238L7.10634 20.8932L7.10858 20.8921L6.97442 20.6238ZM9.06744 19.5773L8.93345 19.3089L8.93328 19.3089L9.06744 19.5773ZM29.5316 20.0461L29.2633 19.9119L29.2632 19.9121L29.5316 20.0461ZM30.934 19.5773L31.0681 19.3089L31.0676 19.3087L30.934 19.5773ZM33.027 20.6238L32.8928 20.8921L32.8951 20.8932L33.027 20.6238ZM32.8945 22.5576L32.8005 22.2727L32.8945 22.5576ZM32.0921 22.4963L32.2282 22.229L32.2263 22.228L32.0921 22.4963ZM29.9991 21.4498L30.1332 21.1815L30.1331 21.1814L29.9991 21.4498ZM20 8.65308V8.95308C23.9305 8.95308 27.0256 12.0036 27.0256 15.6577H27.3256H27.6256C27.6256 11.6514 24.2406 8.35308 20 8.35308V8.65308ZM27.3256 15.6577H27.0256C27.0256 17.9739 26.4357 19.1299 25.6878 20.1915L25.933 20.3642L26.1783 20.537C26.9876 19.3883 27.6256 18.1137 27.6256 15.6577H27.3256ZM25.933 20.3642L25.6889 20.1899C25.5146 20.4339 25.3229 20.6914 25.1137 20.9623L25.3512 21.1456L25.5886 21.329C25.8018 21.0529 25.998 20.7895 26.1771 20.5386L25.933 20.3642ZM25.3512 21.1456L25.1129 20.9634C24.3809 21.9202 23.4771 23.1019 22.8364 24.8061L23.1172 24.9117L23.398 25.0173C24.0048 23.4034 24.8591 22.2827 25.5894 21.3279L25.3512 21.1456ZM23.1172 24.9117L22.836 24.8071C22.7166 25.1281 22.5615 25.4347 22.3737 25.7212L22.6246 25.8856L22.8756 26.0501C23.0879 25.7261 23.2633 25.3794 23.3984 25.0163L23.1172 24.9117ZM22.6246 25.8856L22.3789 25.7136L22.3007 25.8252L22.5465 25.9973L22.7923 26.1693L22.8704 26.0577L22.6246 25.8856ZM22.5465 25.9973L22.3006 25.8254C22.142 26.0523 21.9596 26.2616 21.7566 26.4498L21.9605 26.6698L22.1644 26.8899C22.3988 26.6727 22.6093 26.4311 22.7924 26.1691L22.5465 25.9973ZM21.9605 26.6698L21.7578 26.4486C21.2365 26.9263 20.6253 27.1903 20 27.1903V27.4903V27.7903C20.8007 27.7903 21.5514 27.4515 22.1631 26.891L21.9605 26.6698ZM20 27.4903V27.1903C19.376 27.1903 18.7634 26.9263 18.2405 26.4484L18.0381 26.6698L17.8357 26.8913C18.4487 27.4515 19.2007 27.7903 20 27.7903V27.4903ZM18.0381 26.6698L18.2422 26.4499C18.0391 26.2614 17.8567 26.0517 17.6982 25.8243L17.4521 25.9959L17.206 26.1675C17.389 26.4299 17.5995 26.672 17.834 26.8897L18.0381 26.6698ZM17.4521 25.9959L17.6993 25.8259L17.6226 25.7143L17.3753 25.8842L17.1281 26.0542L17.2049 26.1658L17.4521 25.9959ZM17.3753 25.8842L17.6262 25.7197C17.4385 25.4336 17.2834 25.1274 17.1639 24.8069L16.8828 24.9117L16.6017 25.0165C16.7369 25.379 16.9123 25.7253 17.1245 26.0488L17.3753 25.8842ZM16.8828 24.9117L17.1636 24.8062C16.5229 23.1005 15.619 21.9201 14.8872 20.9621L14.6488 21.1442L14.4104 21.3264C15.141 22.2828 15.9952 23.402 16.6019 25.0172L16.8828 24.9117ZM14.6488 21.1442L14.8859 20.9604C14.6893 20.7068 14.4977 20.4494 14.311 20.1884L14.067 20.3629L13.8229 20.5373C14.0141 20.8047 14.2104 21.0683 14.4117 21.3281L14.6488 21.1442ZM14.067 20.3629L14.3122 20.19C13.5657 19.1313 12.9744 17.9738 12.9744 15.6563H12.6744H12.3744C12.3744 18.1137 13.0138 19.3898 13.8218 20.5357L14.067 20.3629ZM12.6744 15.6563H12.9744C12.9744 12.0037 16.0708 8.95308 20 8.95308V8.65308V8.35308C15.7608 8.35308 12.3744 11.6513 12.3744 15.6563H12.6744ZM24.4191 26.9587L24.6718 27.1204C24.951 26.684 25.181 26.2228 25.3572 25.7523L25.0763 25.647L24.7953 25.5418C24.6339 25.9727 24.4229 26.3961 24.1664 26.7969L24.4191 26.9587ZM25.0763 25.647L25.3571 25.7526C25.8454 24.4535 26.4574 23.6478 27.1538 22.7356L26.9153 22.5535L26.6769 22.3715C25.9779 23.2872 25.3174 24.1531 24.7955 25.5415L25.0763 25.647ZM26.9153 22.5535L27.1539 22.7354C27.3909 22.4245 27.6384 22.0994 27.8905 21.7411L27.6451 21.5684L27.3998 21.3958C27.1551 21.7435 26.9142 22.0602 26.6768 22.3717L26.9153 22.5535ZM27.6451 21.5684L27.8904 21.7412C28.9117 20.2912 29.7186 18.6035 29.7186 15.6563H29.4186H29.1186C29.1186 18.4636 28.3599 20.0326 27.3999 21.3957L27.6451 21.5684ZM29.4186 15.6563H29.7186C29.7186 10.417 25.3169 6.26006 20 6.26006V6.56006V6.86006C25.0087 6.86006 29.1186 10.7711 29.1186 15.6563H29.4186ZM20 6.56006V6.26006C14.6831 6.26006 10.2814 10.417 10.2814 15.6577H10.5814H10.8814C10.8814 10.771 14.9913 6.86006 20 6.86006V6.56006ZM10.5814 15.6577H10.2814C10.2814 18.6021 11.0883 20.2912 12.1096 21.7412L12.3549 21.5684L12.6001 21.3957C11.6401 20.0326 10.8814 18.4622 10.8814 15.6577H10.5814ZM12.3549 21.5684L12.1095 21.7411C12.3616 22.0994 12.6091 22.4245 12.8461 22.7354L13.0847 22.5535L13.3232 22.3717C13.0858 22.0602 12.8449 21.7435 12.6002 21.3958L12.3549 21.5684ZM13.0847 22.5535L12.8462 22.7356C13.5426 23.6478 14.1546 24.4535 14.6429 25.7526L14.9237 25.647L15.2045 25.5415C14.6826 24.1531 14.0221 23.2872 13.3231 22.3715L13.0847 22.5535ZM14.9237 25.647L14.6428 25.7523C14.8192 26.2232 15.0506 26.6842 15.3279 27.1198L15.5809 26.9587L15.834 26.7975C15.5783 26.3959 15.3659 25.9722 15.2047 25.5418L14.9237 25.647ZM15.5809 26.9587L15.2824 26.9886L15.5922 30.0807L15.8907 30.0508L16.1892 30.0209L15.8794 26.9288L15.5809 26.9587ZM15.8907 30.0508L15.5922 30.0809C15.7026 31.1732 16.2146 32.1856 17.029 32.9218L17.2302 32.6993L17.4314 32.4768C16.7273 31.8402 16.2846 30.9649 16.1892 30.0206L15.8907 30.0508ZM17.2302 32.6993L17.029 32.9218C17.8434 33.6581 18.9021 34.0657 20 34.0657V33.7657V33.4657C19.0508 33.4657 18.1355 33.1133 17.4314 32.4768L17.2302 32.6993ZM20 33.7657V34.0657C21.0979 34.0657 22.1566 33.6581 22.971 32.9218L22.7698 32.6993L22.5686 32.4768C21.8645 33.1133 20.9492 33.4657 20 33.4657V33.7657ZM22.7698 32.6993L22.971 32.9218C23.7854 32.1856 24.2974 31.1732 24.4078 30.0809L24.1093 30.0508L23.8108 30.0206C23.7154 30.9649 23.2727 31.8402 22.5686 32.4768L22.7698 32.6993ZM24.1093 30.0508L24.4078 30.0807L24.7176 26.9886L24.4191 26.9587L24.1206 26.9288L23.8108 30.0209L24.1093 30.0508ZM22.1028 29.0935L21.8043 29.0635L21.729 29.8114L22.0274 29.8415L22.3259 29.8715L22.4013 29.1236L22.1028 29.0935ZM22.0274 29.8415L21.7289 29.8121C21.6867 30.2414 21.4863 30.6396 21.1668 30.9293L21.3683 31.1515L21.5698 31.3738C21.9997 30.9841 22.2692 30.4483 22.326 29.8708L22.0274 29.8415ZM21.3683 31.1515L21.1668 30.9293C20.8472 31.219 20.4313 31.3794 20 31.3794V31.6794V31.9794C20.5803 31.9794 21.1398 31.7635 21.5698 31.3738L21.3683 31.1515ZM20 31.6794V31.3794C19.5687 31.3794 19.1528 31.219 18.8332 30.9293L18.6317 31.1515L18.4302 31.3738C18.8602 31.7635 19.4197 31.9794 20 31.9794V31.6794ZM18.6317 31.1515L18.8332 30.9293C18.5137 30.6396 18.3133 30.2414 18.2711 29.8121L17.9726 29.8415L17.674 29.8708C17.7308 30.4483 18.0003 30.9841 18.4302 31.3738L18.6317 31.1515ZM17.9726 29.8415L18.2711 29.8119L18.1971 29.064L17.8986 29.0935L17.6001 29.1231L17.674 29.871L17.9726 29.8415ZM17.8986 29.0935L17.7659 29.3626C18.4331 29.6918 19.183 29.8833 20 29.8833V29.5833V29.2833C19.2793 29.2833 18.6199 29.1149 18.0313 28.8245L17.8986 29.0935ZM20 29.5833V29.8833C20.8159 29.8833 21.567 29.6902 22.2336 29.3628L22.1014 29.0935L21.9691 28.8243C21.38 29.1136 20.719 29.2833 20 29.2833V29.5833ZM6.63674 7.63308L6.86696 7.82544C6.99384 7.67358 7.17583 7.57832 7.37293 7.56059L7.34605 7.26179L7.31917 6.963C6.96366 6.99498 6.6354 7.16681 6.40653 7.44072L6.63674 7.63308ZM7.34605 7.26179L7.37293 7.56059C7.57002 7.54286 7.76609 7.60411 7.91805 7.73088L8.11023 7.50052L8.30242 7.27017C8.02834 7.0415 7.67468 6.93102 7.31917 6.963L7.34605 7.26179ZM8.11023 7.50052L7.91818 7.73099L10.0112 9.47518L10.2033 9.24471L10.3953 9.01424L8.30229 7.27006L8.11023 7.50052ZM10.2033 9.24471L10.0057 9.4705C10.1524 9.59882 10.2431 9.77941 10.2584 9.97369L10.5575 9.95012L10.8565 9.92655C10.8289 9.57611 10.6654 9.25037 10.4008 9.01892L10.2033 9.24471ZM10.5575 9.95012L10.2584 9.97369C10.2737 10.168 10.2124 10.3605 10.0877 10.5103L10.3181 10.7023L10.5486 10.8944C10.7737 10.6243 10.8842 10.277 10.8565 9.92655L10.5575 9.95012ZM10.3181 10.7023L10.0877 10.5103C9.96292 10.66 9.78455 10.755 9.5907 10.7749L9.62144 11.0734L9.65219 11.3718C10.0019 11.3358 10.3236 11.1644 10.5486 10.8944L10.3181 10.7023ZM9.62144 11.0734L9.5907 10.7749C9.39684 10.7949 9.20286 10.7383 9.05019 10.6171L8.86372 10.8522L8.67725 11.0872C8.95262 11.3057 9.30252 11.4078 9.65219 11.3718L9.62144 11.0734ZM8.86372 10.8522L9.05578 10.6217L6.96275 8.8775L6.7707 9.10797L6.57864 9.33843L8.67167 11.0826L8.86372 10.8522ZM6.7707 9.10797L6.96282 8.87755C6.81082 8.75081 6.71536 8.56889 6.69744 8.37179L6.39868 8.39895L6.09991 8.42611C6.13223 8.78163 6.3044 9.10976 6.57858 9.33838L6.7707 9.10797ZM6.39868 8.39895L6.69744 8.37179C6.6795 8.17436 6.74082 7.9769 6.86727 7.82507L6.63674 7.63308L6.40622 7.44109C6.17756 7.71565 6.06762 8.07093 6.09991 8.42611L6.39868 8.39895ZM33.3605 7.63448L33.1301 7.8267C33.193 7.90203 33.2404 7.98901 33.2696 8.08267L33.556 7.99332L33.8424 7.90396C33.7897 7.73502 33.7042 7.57812 33.5908 7.44225L33.3605 7.63448ZM33.556 7.99332L33.2696 8.08267C33.2989 8.17633 33.3093 8.27484 33.3005 8.37255L33.5992 8.39969L33.898 8.42682C33.914 8.25058 33.8951 8.0729 33.8424 7.90396L33.556 7.99332ZM33.5992 8.39969L33.3005 8.37255C33.2916 8.47027 33.2635 8.56527 33.2179 8.65213L33.4835 8.79162L33.7491 8.93112C33.8314 8.77443 33.882 8.60307 33.898 8.42682L33.5992 8.39969ZM33.4835 8.79162L33.2179 8.65213C33.1723 8.739 33.11 8.81602 33.0346 8.87879L33.2265 9.10936L33.4184 9.33994C33.5545 9.22672 33.6668 9.08779 33.7491 8.93112L33.4835 8.79162ZM33.2265 9.10936L33.0345 8.87889L30.9414 10.6231L31.1335 10.8535L31.3255 11.084L33.4186 9.33983L33.2265 9.10936ZM31.1335 10.8535L30.936 10.6278C30.861 10.6933 30.7738 10.7432 30.6793 10.7745L30.7737 11.0593L30.868 11.344C31.0385 11.2876 31.1959 11.1976 31.331 11.0793L31.1335 10.8535ZM30.7737 11.0593L30.6793 10.7745C30.5848 10.8058 30.485 10.8179 30.3858 10.8101L30.3622 11.1092L30.3386 11.4083C30.5176 11.4224 30.6976 11.4005 30.868 11.344L30.7737 11.0593ZM30.3622 11.1092L30.3858 10.8101C30.2865 10.8023 30.1899 10.7747 30.1015 10.729L29.9636 10.9954L29.8258 11.2619C29.9853 11.3444 30.1596 11.3941 30.3386 11.4083L30.3622 11.1092ZM29.9636 10.9954L30.1015 10.729C30.013 10.6832 29.9347 10.6203 29.8709 10.5438L29.6405 10.7359L29.41 10.9279C29.5249 11.0659 29.6663 11.1794 29.8258 11.2619L29.9636 10.9954ZM29.6405 10.7359L29.8709 10.5438C29.8072 10.4673 29.7594 10.3789 29.7304 10.2837L29.4434 10.3712L29.1565 10.4587C29.2089 10.6305 29.2951 10.79 29.41 10.9279L29.6405 10.7359ZM29.4434 10.3712L29.7304 10.2837C29.7013 10.1885 29.6916 10.0884 29.7018 9.9894L29.4034 9.95866L29.105 9.92791C29.0866 10.1065 29.1041 10.287 29.1565 10.4587L29.4434 10.3712ZM29.4034 9.95866L29.7018 9.9894C29.712 9.89039 29.7419 9.79441 29.7898 9.70712L29.5267 9.56293L29.2636 9.41875C29.1773 9.5762 29.1234 9.74931 29.105 9.92791L29.4034 9.95866ZM29.5267 9.56293L29.7898 9.70712C29.8376 9.61983 29.9024 9.54299 29.9804 9.48111L29.794 9.24611L29.6075 9.0111C29.4668 9.1227 29.3499 9.2613 29.2636 9.41875L29.5267 9.56293ZM29.794 9.24611L29.986 9.47657L32.079 7.73239L31.887 7.50192L31.6949 7.27145L29.6019 9.01564L29.794 9.24611ZM31.887 7.50192L32.079 7.73244C32.231 7.60578 32.4272 7.5447 32.6243 7.56262L32.6515 7.26385L32.6786 6.96508C32.3231 6.93276 31.9693 7.04294 31.695 7.2714L31.887 7.50192ZM32.6515 7.26385L32.6243 7.56262C32.8224 7.58063 33.0039 7.67535 33.1301 7.8266L33.3605 7.63448L33.5909 7.44236C33.3616 7.16743 33.0331 6.99731 32.6786 6.96508L32.6515 7.26385ZM5 14.9322H5.3C5.3 14.7342 5.37865 14.5443 5.51865 14.4043L5.30652 14.1922L5.09438 13.98C4.84186 14.2325 4.7 14.575 4.7 14.9322H5ZM5.30652 14.1922L5.51865 14.4043C5.65865 14.2643 5.84852 14.1856 6.04651 14.1856L6.04651 13.8856L6.04651 13.5856C5.68939 13.5856 5.3469 13.7275 5.09438 13.98L5.30652 14.1922ZM6.04651 13.8856V14.1856H8.83721V13.8856V13.5856H6.04651V13.8856ZM8.83721 13.8856V14.1856C9.0352 14.1856 9.22507 14.2643 9.36507 14.4043L9.5772 14.1922L9.78934 13.98C9.53682 13.7275 9.19433 13.5856 8.83721 13.5856V13.8856ZM9.5772 14.1922L9.36507 14.4043C9.50507 14.5443 9.58372 14.7342 9.58372 14.9322L9.88372 14.9322L10.1837 14.9322C10.1837 14.575 10.0419 14.2325 9.78934 13.98L9.5772 14.1922ZM9.88372 14.9322L9.58372 14.9322C9.58372 15.1301 9.50507 15.32 9.36507 15.46L9.5772 15.6721L9.78934 15.8843C10.0419 15.6318 10.1837 15.2893 10.1837 14.9322L9.88372 14.9322ZM9.5772 15.6721L9.36507 15.46C9.22507 15.6 9.0352 15.6787 8.83721 15.6787V15.9787V16.2787C9.19433 16.2787 9.53682 16.1368 9.78934 15.8843L9.5772 15.6721ZM8.83721 15.9787V15.6787H6.04651V15.9787V16.2787H8.83721V15.9787ZM6.04651 15.9787V15.6787C5.84852 15.6787 5.65865 15.6 5.51865 15.46L5.30652 15.6721L5.09438 15.8843C5.3469 16.1368 5.68939 16.2787 6.04651 16.2787V15.9787ZM5.30652 15.6721L5.51865 15.46C5.37865 15.32 5.3 15.1301 5.3 14.9322H5H4.7C4.7 15.2893 4.84186 15.6318 5.09438 15.8843L5.30652 15.6721ZM30.1163 14.9322H30.4163C30.4163 14.7342 30.4949 14.5443 30.6349 14.4043L30.4228 14.1922L30.2107 13.98C29.9581 14.2325 29.8163 14.575 29.8163 14.9322H30.1163ZM30.4228 14.1922L30.6349 14.4043C30.7749 14.2643 30.9648 14.1856 31.1628 14.1856V13.8856V13.5856C30.8057 13.5856 30.4632 13.7275 30.2107 13.98L30.4228 14.1922ZM31.1628 13.8856V14.1856H33.9535V13.8856V13.5856H31.1628V13.8856ZM33.9535 13.8856V14.1856C34.1515 14.1856 34.3414 14.2643 34.4814 14.4043L34.6935 14.1922L34.9056 13.98C34.6531 13.7275 34.3106 13.5856 33.9535 13.5856V13.8856ZM34.6935 14.1922L34.4814 14.4043C34.6213 14.5443 34.7 14.7342 34.7 14.9322H35H35.3C35.3 14.575 35.1581 14.2325 34.9056 13.98L34.6935 14.1922ZM35 14.9322H34.7C34.7 15.1301 34.6213 15.32 34.4814 15.46L34.6935 15.6721L34.9056 15.8843C35.1581 15.6318 35.3 15.2893 35.3 14.9322H35ZM34.6935 15.6721L34.4814 15.46C34.3414 15.6 34.1515 15.6787 33.9535 15.6787V15.9787V16.2787C34.3106 16.2787 34.6531 16.1368 34.9056 15.8843L34.6935 15.6721ZM33.9535 15.9787V15.6787H31.1628V15.9787V16.2787H33.9535V15.9787ZM31.1628 15.9787V15.6787C30.9648 15.6787 30.7749 15.6 30.6349 15.46L30.4228 15.6721L30.2107 15.8843C30.4632 16.1368 30.8057 16.2787 31.1628 16.2787V15.9787ZM30.4228 15.6721L30.6349 15.46C30.4949 15.32 30.4163 15.1301 30.4163 14.9322H30.1163H29.8163C29.8163 15.2893 29.9581 15.6318 30.2107 15.8843L30.4228 15.6721ZM10.4698 20.0461L10.2014 20.1803C10.2899 20.3573 10.3045 20.5622 10.242 20.7499L10.5266 20.8447L10.8113 20.9395C10.924 20.6008 10.8977 20.2312 10.7381 19.9119L10.4698 20.0461ZM10.5266 20.8447L10.242 20.7499C10.1795 20.9377 10.0449 21.093 9.86799 21.1816L10.0023 21.4498L10.1367 21.7181C10.4558 21.5582 10.6985 21.2782 10.8113 20.9395L10.5266 20.8447ZM10.0023 21.4498L9.86816 21.1815L7.77514 22.228L7.9093 22.4963L8.04347 22.7647L10.1365 21.7182L10.0023 21.4498ZM7.9093 22.4963L7.77322 22.229C7.68541 22.2737 7.58963 22.3005 7.4914 22.308L7.51423 22.6072L7.53706 22.9063C7.71426 22.8928 7.88702 22.8443 8.04539 22.7637L7.9093 22.4963ZM7.51423 22.6072L7.4914 22.308C7.39316 22.3155 7.29441 22.3035 7.20085 22.2727L7.10691 22.5576L7.01298 22.8425C7.18175 22.8981 7.35987 22.9198 7.53706 22.9063L7.51423 22.6072ZM7.10691 22.5576L7.20085 22.2727C7.10728 22.2418 7.02074 22.1928 6.94623 22.1283L6.74997 22.3552L6.55372 22.5821C6.68812 22.6984 6.84421 22.7869 7.01298 22.8425L7.10691 22.5576ZM6.74997 22.3552L6.94623 22.1283C6.87171 22.0639 6.81069 21.9853 6.76668 21.8971L6.49827 22.0312L6.22987 22.1652C6.30924 22.3241 6.41931 22.4659 6.55372 22.5821L6.74997 22.3552ZM6.49827 22.0312L6.76668 21.8971C6.72267 21.809 6.69655 21.713 6.68982 21.6147L6.39052 21.6352L6.09122 21.6557C6.10337 21.833 6.15049 22.0062 6.22987 22.1652L6.49827 22.0312ZM6.39052 21.6352L6.68982 21.6147C6.68308 21.5164 6.69587 21.4178 6.72744 21.3245L6.44327 21.2283L6.15909 21.1322C6.10214 21.3005 6.07907 21.4784 6.09122 21.6557L6.39052 21.6352ZM6.44327 21.2283L6.72744 21.3245C6.75902 21.2311 6.80875 21.145 6.87378 21.071L6.64841 20.873L6.42304 20.6749C6.30575 20.8084 6.21604 20.9638 6.15909 21.1322L6.44327 21.2283ZM6.64841 20.873L6.87378 21.071C6.93881 20.997 7.01785 20.9365 7.10633 20.8932L6.97442 20.6238L6.84251 20.3543C6.6829 20.4325 6.54034 20.5414 6.42304 20.6749L6.64841 20.873ZM6.97442 20.6238L7.10858 20.8921L9.20161 19.8456L9.06744 19.5773L8.93328 19.3089L6.84025 20.3555L6.97442 20.6238ZM9.06744 19.5773L9.20144 19.8457C9.37857 19.7573 9.58358 19.7428 9.77136 19.8055L9.8664 19.521L9.96144 19.2364C9.62272 19.1233 9.25295 19.1494 8.93345 19.3089L9.06744 19.5773ZM9.8664 19.521L9.77136 19.8055C9.95845 19.868 10.1126 20.0023 10.2014 20.1801L10.4698 20.0461L10.7382 19.9121C10.579 19.5933 10.3008 19.3498 9.96144 19.2364L9.8664 19.521ZM29.5316 20.0461L29.8 20.1803C29.8884 20.0034 30.0434 19.8689 30.2309 19.8062L30.1358 19.5216L30.0407 19.2371C29.7024 19.3502 29.4228 19.5929 29.2633 19.9119L29.5316 20.0461ZM30.1358 19.5216L30.2309 19.8062C30.4185 19.7435 30.6232 19.7577 30.8003 19.8458L30.934 19.5773L31.0676 19.3087C30.7483 19.1498 30.379 19.124 30.0407 19.2371L30.1358 19.5216ZM30.934 19.5773L30.7998 19.8456L32.8928 20.8921L33.027 20.6238L33.1611 20.3555L31.0681 19.3089L30.934 19.5773ZM33.027 20.6238L32.8951 20.8932C32.9835 20.9365 33.0626 20.997 33.1276 21.071L33.353 20.873L33.5783 20.6749C33.4611 20.5414 33.3185 20.4325 33.1589 20.3543L33.027 20.6238ZM33.353 20.873L33.1276 21.071C33.1926 21.145 33.2424 21.2311 33.274 21.3245L33.5581 21.2283L33.8423 21.1322C33.7854 20.9638 33.6956 20.8084 33.5783 20.6749L33.353 20.873ZM33.5581 21.2283L33.274 21.3245C33.3055 21.4178 33.3183 21.5164 33.3116 21.6147L33.6109 21.6352L33.9102 21.6557C33.9223 21.4784 33.8993 21.3005 33.8423 21.1322L33.5581 21.2283ZM33.6109 21.6352L33.3116 21.6147C33.3048 21.713 33.2787 21.809 33.2347 21.8971L33.5031 22.0312L33.7715 22.1652C33.8509 22.0062 33.898 21.833 33.9102 21.6557L33.6109 21.6352ZM33.5031 22.0312L33.2347 21.8971C33.1907 21.9853 33.1297 22.0639 33.0552 22.1283L33.2514 22.3552L33.4477 22.5821C33.5821 22.4659 33.6922 22.3241 33.7715 22.1652L33.5031 22.0312ZM33.2514 22.3552L33.0552 22.1283C32.9807 22.1928 32.8941 22.2418 32.8005 22.2727L32.8945 22.5576L32.9884 22.8425C33.1572 22.7869 33.3133 22.6984 33.4477 22.5821L33.2514 22.3552ZM32.8945 22.5576L32.8005 22.2727C32.707 22.3035 32.6082 22.3155 32.51 22.308L32.4872 22.6072L32.4643 22.9063C32.6415 22.9198 32.8196 22.8981 32.9884 22.8425L32.8945 22.5576ZM32.4872 22.6072L32.51 22.308C32.4118 22.3005 32.316 22.2737 32.2282 22.229L32.0921 22.4963L31.956 22.7637C32.1144 22.8443 32.2871 22.8928 32.4643 22.9063L32.4872 22.6072ZM32.0921 22.4963L32.2263 22.228L30.1332 21.1815L29.9991 21.4498L29.8649 21.7182L31.9579 22.7647L32.0921 22.4963ZM29.9991 21.4498L30.1331 21.1814C29.956 21.093 29.8212 20.9378 29.7585 20.75L29.4739 20.8451L29.1894 20.9401C29.3025 21.2788 29.5456 21.5587 29.8651 21.7182L29.9991 21.4498ZM29.4739 20.8451L29.7585 20.75C29.6961 20.5633 29.7111 20.3582 29.8 20.1801L29.5316 20.0461L29.2632 19.9121C29.1042 20.2306 29.0759 20.6003 29.1894 20.9401L29.4739 20.8451Z" fill="#FDFDFD" mask="url(#path-1-inside-1_1778_13377)"/>
</svg>
