<svg width="40" height="40" viewBox="0 0 40 40" fill="none" xmlns="http://www.w3.org/2000/svg">
<path d="M19.9896 9C23.8936 9 26.9896 12.0333 26.9896 15.6933C26.9896 17.9733 26.4029 19.1347 25.6589 20.1907C25.49 20.4271 25.3047 20.676 25.1029 20.9373C24.4042 21.8507 23.5642 22.9507 22.9682 24.536C22.8466 24.8628 22.6888 25.175 22.4976 25.4667L22.4229 25.5733C22.2597 25.8069 22.0719 26.0223 21.8629 26.216C21.3216 26.712 20.6709 27 19.9896 27C19.3096 27 18.6576 26.712 18.1149 26.216C17.9058 26.0219 17.7181 25.806 17.5549 25.572L17.4816 25.4653C17.2905 25.1741 17.1326 24.8624 17.0109 24.536C16.4149 22.9493 15.5749 21.8507 14.8762 20.936C14.6861 20.6907 14.5007 20.4418 14.3202 20.1893C13.5776 19.136 12.9896 17.9733 12.9896 15.692C12.9896 12.0333 16.0869 9 19.9896 9ZM24.2122 26.492C24.4682 26.092 24.6789 25.6693 24.8402 25.2387C25.3229 23.9547 25.9309 23.156 26.5976 22.2827C26.8242 21.9853 27.0576 21.6787 27.2949 21.3413C28.2416 19.9973 28.9896 18.4413 28.9896 15.692C28.9896 10.8547 24.9229 7 19.9896 7C15.0562 7 10.9896 10.8547 10.9896 15.6933C10.9896 18.44 11.7376 19.9973 12.6842 21.3413C12.9216 21.6787 13.1549 21.9853 13.3816 22.2827C14.0482 23.156 14.6562 23.9547 15.1389 25.2387C15.3003 25.6693 15.5122 26.092 15.7669 26.492L16.0629 29.4467C16.1613 30.4197 16.6174 31.3216 17.3429 31.9775C18.0684 32.6334 19.0116 32.9965 19.9896 32.9965C20.9676 32.9965 21.9108 32.6334 22.6363 31.9775C23.3618 31.3216 23.8179 30.4197 23.9162 29.4467L24.2122 26.492ZM21.9989 28.532L21.9269 29.2467C21.8796 29.7277 21.6551 30.1739 21.297 30.4985C20.939 30.8231 20.4729 31.0029 19.9896 31.0029C19.5063 31.0029 19.0402 30.8231 18.6821 30.4985C18.324 30.1739 18.0995 29.7277 18.0522 29.2467L17.9816 28.532C18.5816 28.828 19.2549 29 19.9896 29C20.7229 29 21.3976 28.8267 21.9976 28.532M7.22025 8.02533C7.39022 7.82191 7.63401 7.6943 7.89803 7.67055C8.16205 7.6468 8.4247 7.72885 8.62825 7.89867L10.6282 9.56533C10.8247 9.73723 10.9462 9.97914 10.9667 10.2394C10.9872 10.4996 10.9052 10.7576 10.738 10.9582C10.5709 11.1587 10.332 11.286 10.0723 11.3127C9.81261 11.3395 9.55276 11.2636 9.34825 11.1013L7.34825 9.43467C7.14463 9.26488 7.01676 9.02119 6.99276 8.75717C6.96876 8.49314 7.05059 8.22905 7.22025 8.02533ZM32.7562 8.02667C32.8405 8.12757 32.904 8.24409 32.9431 8.36956C32.9823 8.49502 32.9963 8.62697 32.9844 8.75787C32.9725 8.88876 32.9349 9.01603 32.8738 9.13239C32.8127 9.24875 32.7293 9.35192 32.6282 9.436L30.6282 11.1027C30.5279 11.1905 30.411 11.2573 30.2844 11.2993C30.1578 11.3412 30.0242 11.3574 29.8912 11.3469C29.7583 11.3365 29.6288 11.2995 29.5104 11.2382C29.3919 11.177 29.287 11.0927 29.2016 10.9902C29.1162 10.8878 29.0522 10.7693 29.0133 10.6418C28.9744 10.5142 28.9614 10.3802 28.9751 10.2476C28.9887 10.1149 29.0288 9.98634 29.0929 9.86941C29.157 9.75248 29.2438 9.64955 29.3482 9.56667L31.3482 7.9C31.552 7.73034 31.8147 7.64851 32.0787 7.67251C32.3428 7.69651 32.5865 7.82305 32.7562 8.02667ZM5.65625 15C5.65625 14.7348 5.76161 14.4804 5.94914 14.2929C6.13668 14.1054 6.39103 14 6.65625 14H9.32292C9.58813 14 9.84249 14.1054 10.03 14.2929C10.2176 14.4804 10.3229 14.7348 10.3229 15C10.3229 15.2652 10.2176 15.5196 10.03 15.7071C9.84249 15.8946 9.58813 16 9.32292 16H6.65625C6.39103 16 6.13668 15.8946 5.94914 15.7071C5.76161 15.5196 5.65625 15.2652 5.65625 15ZM29.6562 15C29.6562 14.7348 29.7616 14.4804 29.9491 14.2929C30.1367 14.1054 30.391 14 30.6562 14H33.3229C33.5881 14 33.8425 14.1054 34.03 14.2929C34.2176 14.4804 34.3229 14.7348 34.3229 15C34.3229 15.2652 34.2176 15.5196 34.03 15.7071C33.8425 15.8946 33.5881 16 33.3229 16H30.6562C30.391 16 30.1367 15.8946 29.9491 15.7071C29.7616 15.5196 29.6562 15.2652 29.6562 15ZM10.8829 19.8867C11.0015 20.1238 11.021 20.3983 10.9373 20.6498C10.8535 20.9013 10.6733 21.1093 10.4362 21.228L8.43625 22.228C8.31863 22.2879 8.19033 22.3239 8.05874 22.3339C7.92714 22.344 7.79486 22.3278 7.66952 22.2865C7.54418 22.2452 7.42826 22.1795 7.32844 22.0931C7.22863 22.0068 7.14688 21.9016 7.08793 21.7835C7.02898 21.6654 6.99399 21.5368 6.98497 21.4052C6.97594 21.2735 6.99308 21.1413 7.03537 21.0163C7.07767 20.8913 7.14429 20.7759 7.2314 20.6768C7.31851 20.5776 7.42438 20.4967 7.54292 20.4387L9.54292 19.4387C9.7802 19.3202 10.0548 19.3009 10.3064 19.3849C10.5579 19.4689 10.7644 19.6494 10.8829 19.8867ZM29.0976 19.8867C29.2161 19.6497 29.4237 19.4695 29.6749 19.3855C29.9261 19.3015 30.2004 19.3206 30.4376 19.4387L32.4376 20.4387C32.5561 20.4967 32.662 20.5776 32.7491 20.6768C32.8362 20.7759 32.9028 20.8913 32.9451 21.0163C32.9874 21.1413 33.0046 21.2735 32.9955 21.4052C32.9865 21.5368 32.9515 21.6654 32.8926 21.7835C32.8336 21.9016 32.7519 22.0068 32.6521 22.0931C32.5522 22.1795 32.4363 22.2452 32.311 22.2865C32.1856 22.3278 32.0534 22.344 31.9218 22.3339C31.7902 22.3239 31.6619 22.2879 31.5442 22.228L29.5442 21.228C29.307 21.1095 29.1265 20.9017 29.0425 20.6501C28.9584 20.3986 28.9791 20.1239 29.0976 19.8867Z" fill="#EC1C24"/>
</svg>
