<svg width="40" height="40" viewBox="0 0 40 40" fill="none" xmlns="http://www.w3.org/2000/svg">
<path d="M34.3359 19.9998C34.3359 12.0835 27.9196 5.66716 20.0033 5.66715C12.0869 5.66715 5.67057 12.0835 5.67057 19.9998C5.67057 27.9161 12.0869 34.3325 20.0033 34.3325C27.9196 34.3325 34.3359 27.9161 34.3359 19.9998ZM35.6706 19.9998C35.6706 28.6525 28.6559 35.6672 20.0033 35.6672C11.3506 35.6672 4.33594 28.6525 4.33594 19.9998C4.33594 11.3471 11.3506 4.33252 20.0033 4.33252C28.6559 4.33252 35.6706 11.3471 35.6706 19.9998Z" fill="#EC1C24"/>
<path d="M19.336 29.7511V27.2007C17.6588 26.996 15.9621 26.2267 14.9691 24.9009C14.7485 24.6062 14.8081 24.1874 15.1026 23.9666C15.3973 23.7459 15.8161 23.807 16.0368 24.1017C16.8485 25.1852 18.4292 25.8647 20.0261 25.9214C21.0768 25.959 22.0475 25.7221 22.7344 25.241C23.3943 24.7789 23.8361 24.0653 23.8363 23.0015C23.8363 22.546 23.7333 22.2089 23.5759 21.9451C23.4163 21.6777 23.1784 21.4486 22.8565 21.2437C22.1854 20.8166 21.2614 20.5577 20.2019 20.2687C19.1992 19.9953 18.0598 19.6913 17.1843 19.1343C16.7331 18.8472 16.3266 18.4782 16.0352 17.9901C15.7415 17.498 15.586 16.9197 15.586 16.2502C15.5862 14.8494 16.1043 13.8055 16.9825 13.1398C17.6539 12.6311 18.4842 12.3837 19.336 12.3162V10.2508C19.336 9.88262 19.6351 9.5835 20.0033 9.5835C20.3713 9.58367 20.669 9.88273 20.669 10.2508V12.3439C22.2846 12.5329 23.9454 13.2507 24.974 14.2791C25.2343 14.5394 25.2342 14.9612 24.974 15.2215C24.7137 15.4819 24.292 15.4819 24.0316 15.2215C23.1436 14.3337 21.5067 13.6726 19.9854 13.6313C19.0876 13.6069 18.3172 13.8018 17.7881 14.2026C17.2872 14.5823 16.9192 15.2072 16.919 16.2502C16.919 16.7055 17.0221 17.0428 17.1794 17.3065C17.3392 17.5741 17.5782 17.8029 17.9004 18.008C18.5715 18.435 19.4939 18.694 20.5534 18.9829C21.5564 19.2564 22.6969 19.56 23.5726 20.1173C24.0237 20.4045 24.4304 20.7734 24.7217 21.2616C25.0154 21.7536 25.1693 22.3321 25.1693 23.0015C25.1691 24.5033 24.5131 25.6232 23.4994 26.3332C22.6933 26.8977 21.6917 27.1799 20.669 27.2414V29.7511C20.6688 30.1191 20.3712 30.4167 20.0033 30.4168C19.6352 30.4168 19.3362 30.1192 19.336 29.7511Z" fill="#EC1C24"/>
</svg>
