<svg width="40" height="40" viewBox="0 0 40 40" fill="none" xmlns="http://www.w3.org/2000/svg">
<path d="M19.1362 6.38379C12.3262 6.38379 6.99219 9.44579 6.99219 13.3578V25.7598C6.99219 29.6718 12.3242 32.7358 19.1342 32.7358C25.9442 32.7358 31.2782 29.6718 31.2782 25.7598V13.3598C31.2782 9.44779 25.9442 6.38579 19.1342 6.38579M19.1342 7.93579C24.8762 7.93579 29.7262 10.4198 29.7262 13.3598C29.7262 16.2998 24.8762 18.7858 19.1342 18.7858C13.3922 18.7858 8.54019 16.3018 8.54019 13.3598C8.54019 10.4178 13.3922 7.93379 19.1362 7.93379M29.7282 25.7598C29.7282 28.7018 24.8782 31.1858 19.1362 31.1858C13.3942 31.1858 8.54219 28.7018 8.54219 25.7618V23.0218C10.6082 25.1378 14.5342 26.5358 19.1362 26.5358C23.7382 26.5358 27.6642 25.1378 29.7282 23.0218V25.7598ZM29.7282 19.5618C29.7282 22.5018 24.8782 24.9858 19.1362 24.9858C13.3942 24.9858 8.54219 22.5018 8.54219 19.5618V16.8178C10.6082 18.9318 14.5342 20.3318 19.1362 20.3318C23.7382 20.3318 27.6642 18.9318 29.7282 16.8178V19.5618Z" fill="#EC1C24"/>
</svg>
