<svg width="40" height="41" viewBox="0 0 40 41" fill="none" xmlns="http://www.w3.org/2000/svg">
<path d="M5 11.9377V9.54228C5 8.86061 5.23528 8.28422 5.70583 7.81311C6.17639 7.342 6.75306 7.10645 7.43583 7.10645H32.5642C33.2458 7.10645 33.8222 7.342 34.2933 7.81311C34.7644 8.28422 35 8.86061 35 9.54228V11.9377H33.5896V9.54228C33.5896 9.24311 33.4935 8.99742 33.3013 8.8052C33.109 8.61297 32.8633 8.51686 32.5642 8.51686H7.43583C7.13667 8.51686 6.89097 8.61297 6.69875 8.8052C6.50653 8.99742 6.41042 9.24311 6.41042 9.54228V11.9377H5ZM15.1283 33.7731V30.4398H7.43583C6.75306 30.4398 6.17639 30.2042 5.70583 29.7331C5.23528 29.262 5 28.6856 5 28.0039V25.5273H6.41042V28.0039C6.41042 28.3031 6.50653 28.5488 6.69875 28.741C6.89097 28.9333 7.13667 29.0294 7.43583 29.0294H32.5642C32.8633 29.0294 33.109 28.9333 33.3013 28.741C33.4935 28.5488 33.5896 28.3031 33.5896 28.0039V25.5273H35V28.0039C35 28.6856 34.7644 29.262 34.2933 29.7331C33.8222 30.2042 33.2458 30.4398 32.5642 30.4398H24.8717V33.7731H15.1283ZM7.00833 18.7731L11.5171 14.2644L10.5129 13.2602L5 18.7731L10.5129 24.286L11.5171 23.2819L7.00833 18.7731ZM32.9917 18.7731L28.4829 23.2819L29.4871 24.286L35 18.7731L29.4871 13.2602L28.4829 14.2644L32.9917 18.7731Z" fill="#EC1C24"/>
</svg>
