<svg width="40" height="41" viewBox="0 0 40 41" fill="none" xmlns="http://www.w3.org/2000/svg">
<path d="M7.81865 33.3887C7.13615 33.3887 6.55948 33.1534 6.08865 32.6829C5.61809 32.212 5.38281 31.6354 5.38281 30.9529V20.4337H6.79323V30.9529C6.79323 31.2093 6.90004 31.4443 7.11365 31.6579C7.32726 31.8715 7.56226 31.9783 7.81865 31.9783H21.6991V33.3887H7.81865ZM13.5945 27.6195C12.9084 27.6195 12.3298 27.3843 11.8586 26.9137C11.3875 26.4429 11.152 25.8662 11.152 25.1837V14.6641H12.5624V25.1837C12.5624 25.4401 12.6692 25.6751 12.8828 25.8887C13.0964 26.1023 13.3314 26.2091 13.5878 26.2091H27.4749V27.6195H13.5945ZM19.357 21.8504C18.6745 21.8504 18.098 21.615 17.6274 21.1441C17.1566 20.6736 16.9211 20.097 16.9211 19.4145V9.92705C16.9211 9.24455 17.1566 8.66788 17.6274 8.19704C18.098 7.72649 18.6745 7.49121 19.357 7.49121H32.1778C32.8603 7.49121 33.437 7.72649 33.9078 8.19704C34.3784 8.66788 34.6136 9.24455 34.6136 9.92705V19.4145C34.6136 20.097 34.3784 20.6736 33.9078 21.1441C33.437 21.615 32.8603 21.8504 32.1778 21.8504H19.357ZM19.357 20.44H32.1778C32.4342 20.44 32.6692 20.3332 32.8828 20.1195C33.0964 19.9059 33.2032 19.6709 33.2032 19.4145V12.0125H18.3316V19.4145C18.3316 19.6709 18.4384 19.9059 18.652 20.1195C18.8656 20.3332 19.1006 20.44 19.357 20.44Z" fill="#EC1C24"/>
</svg>
