<svg width="40" height="40" viewBox="0 0 40 40" fill="none" xmlns="http://www.w3.org/2000/svg">
<path d="M24.6191 5.48828C24.9871 5.48855 25.2848 5.78758 25.2848 6.1556C25.2848 6.52362 24.9871 6.82265 24.6191 6.82292H24.1309V12.4121H33.8493C34.2175 12.4121 34.5166 12.7112 34.5166 13.0794C34.5162 13.4473 34.2172 13.7451 33.8493 13.7451H33.3626V33.182H35.0033C35.3714 33.182 35.6704 33.4796 35.6706 33.8477C35.6706 34.2158 35.3714 34.515 35.0033 34.515H5.00326C4.63507 34.515 4.33594 34.2158 4.33594 33.8477C4.33607 33.4796 4.63515 33.182 5.00326 33.182H6.64388V6.82292H6.15723C5.78904 6.82292 5.48991 6.52379 5.48991 6.1556C5.48991 5.78741 5.78904 5.48828 6.15723 5.48828H24.6191ZM24.1309 33.182H32.0296V13.7451H24.1309V33.182ZM18.182 28.6556C18.182 28.0686 17.7061 27.5914 17.1191 27.5911H13.6572C13.07 27.5911 12.5928 28.0684 12.5928 28.6556V33.182H18.182V28.6556ZM28.0924 27.4121C28.4606 27.4121 28.7598 27.7112 28.7598 28.0794V28.0908C28.7598 28.459 28.4606 28.7581 28.0924 28.7581H28.0794C27.7116 28.7577 27.4137 28.4588 27.4137 28.0908V28.0794C27.4137 27.7115 27.7116 27.4125 28.0794 27.4121H28.0924ZM28.0924 22.7962C28.4606 22.7962 28.7598 23.0954 28.7598 23.4635V23.4749C28.7598 23.8431 28.4606 24.1423 28.0924 24.1423H28.0794C27.7116 24.1418 27.4137 23.8429 27.4137 23.4749V23.4635C27.4137 23.0956 27.7116 22.7966 28.0794 22.7962H28.0924ZM13.0794 20.4883C13.4476 20.4883 13.7467 20.7874 13.7467 21.1556C13.7467 21.5238 13.4476 21.8229 13.0794 21.8229H11.9271C11.5589 21.8229 11.2598 21.5238 11.2598 21.1556C11.2598 20.7874 11.5589 20.4883 11.9271 20.4883H13.0794ZM18.8493 20.4883C19.2175 20.4883 19.5166 20.7874 19.5166 21.1556C19.5166 21.5238 19.2175 21.8229 18.8493 21.8229H17.6953C17.3272 21.8228 17.0296 21.5237 17.0296 21.1556C17.0296 20.7875 17.3272 20.4884 17.6953 20.4883H18.8493ZM28.0924 18.182C28.4606 18.182 28.7596 18.4796 28.7598 18.8477V18.8607C28.7595 19.2287 28.4605 19.5264 28.0924 19.5264H28.0794C27.7117 19.526 27.414 19.2284 27.4137 18.8607V18.8477C27.4139 18.4798 27.7117 18.1824 28.0794 18.182H28.0924ZM13.0794 15.874C13.4474 15.874 13.7465 16.1718 13.7467 16.5397C13.7467 16.9079 13.4476 17.207 13.0794 17.207H11.9271C11.5589 17.207 11.2598 16.9079 11.2598 16.5397C11.26 16.1718 11.5591 15.874 11.9271 15.874H13.0794ZM18.8493 15.874C19.2173 15.874 19.5163 16.1718 19.5166 16.5397C19.5166 16.9079 19.2175 17.207 18.8493 17.207H17.6953C17.3272 17.2069 17.0296 16.9078 17.0296 16.5397C17.0299 16.1718 17.3274 15.8742 17.6953 15.874H18.8493ZM13.0794 11.2581C13.4476 11.2581 13.7467 11.5573 13.7467 11.9255C13.7464 12.2934 13.4474 12.5911 13.0794 12.5911H11.9271C11.5591 12.5911 11.2601 12.2934 11.2598 11.9255C11.2598 11.5573 11.5589 11.2581 11.9271 11.2581H13.0794ZM18.8493 11.2581C19.2175 11.2581 19.5166 11.5573 19.5166 11.9255C19.5163 12.2934 19.2173 12.5911 18.8493 12.5911H17.6953C17.3274 12.591 17.03 12.2933 17.0296 11.9255C17.0296 11.5573 17.3272 11.2583 17.6953 11.2581H18.8493ZM19.5166 33.182H22.7979V6.82292H7.97689V33.182H11.2598V28.6556C11.2598 27.332 12.3337 26.2581 13.6572 26.2581H17.1191C18.4425 26.2584 19.5166 27.3322 19.5166 28.6556V33.182Z" fill="#EC1C24"/>
</svg>
