<svg width="40" height="41" viewBox="0 0 40 41" fill="none" xmlns="http://www.w3.org/2000/svg">
<path d="M34.8145 5.53955L32.1602 9.55127L32.123 9.60693L32.1602 9.66162L34.8145 13.6733H23.2334V23.6733H21.7666V5.53955H34.8145ZM14.9004 10.0171V15.606L10 18.4009L5.09961 15.606V10.0171L10 7.22217L14.9004 10.0171ZM30.0996 20.2788L30.0508 20.2505L27.2168 18.5972V16.9087L31.5664 19.4399V30.0298L22.5 35.3237L13.4336 30.0288V19.4399L17.7832 16.9087V18.5972L14.9492 20.2515L14.9004 20.2808V29.1938L14.9502 29.2231L22.4502 33.5728L22.5 33.6021L22.5498 33.5728L30.0498 29.2231L30.0996 29.1938V20.2788ZM13.4336 10.8569L13.3828 10.8276L10.0498 8.93018L10 8.90186L9.9502 8.93018L6.61719 10.8276L6.56641 10.8569V14.7681L6.61719 14.7964L9.9502 16.6938L10 16.7212L10.0498 16.6938L13.3828 14.7964L13.4336 14.7681V10.8569Z" fill="#EC1C24" stroke="#FDFDFD" stroke-width="0.2"/>
</svg>
