<svg width="40" height="40" viewBox="0 0 40 40" fill="none" xmlns="http://www.w3.org/2000/svg">
<path d="M19.7233 32.9502L8.3766 21.6035L16.9073 13.0755L21.2606 17.4289L22.8873 15.8035L15.1873 8.1062L6.4726 16.8222L8.13127 18.4809L7.1806 19.4315L4.58594 16.8369L15.2033 6.2182L19.4899 10.5062L23.8033 6.19287L35.1419 17.5315L19.7233 32.9502ZM19.7059 31.0622L33.2219 17.5315L23.7953 8.10487L20.4593 11.4422L24.8139 15.7955L21.2593 19.3502L16.8806 14.9702L10.2486 21.6035L11.9073 23.2622L17.0019 18.1675L17.9459 19.1115L12.8513 24.2049L14.5019 25.8582L19.9046 20.4555L20.8566 21.4062L15.4526 26.8089L17.1046 28.4595L22.5073 23.0569L23.4513 24.0009L18.0486 29.4035L19.7059 31.0622Z" fill="#EC1C24"/>
</svg>
