<svg width="40" height="40" viewBox="0 0 40 40" fill="none" xmlns="http://www.w3.org/2000/svg">
<path d="M18.5922 24.7437H21.413V20.577H25.5797V17.7562H21.413V13.5895H18.5922V17.7562H14.4255V20.577H18.5922V24.7437ZM20.0026 34.9295C16.6501 33.9217 13.8675 31.8763 11.6547 28.7932C9.44219 25.7102 8.33594 22.2499 8.33594 18.4124V9.48075L20.0026 5.12158L31.6693 9.48075V18.4124C31.6693 22.2499 30.563 25.7102 28.3505 28.7932C26.1377 31.8763 23.3551 33.9217 20.0026 34.9295ZM20.0026 33.4295C22.9812 32.4773 25.4352 30.598 27.3647 27.7916C29.2941 24.9852 30.2589 21.8588 30.2589 18.4124V10.4495L20.0026 6.61617L9.74635 10.4495V18.4124C9.74635 21.8588 10.7111 24.9852 12.6405 27.7916C14.57 30.598 17.024 32.4773 20.0026 33.4295Z" fill="#EC1C24"/>
</svg>
