<svg width="40" height="40" viewBox="0 0 40 40" fill="none" xmlns="http://www.w3.org/2000/svg">
<path d="M20.1445 3.42877C20.9573 3.17082 21.8369 3.21931 22.6169 3.56386C23.3968 3.90857 24.0247 4.52593 24.3812 5.30052C24.7377 6.07529 24.7977 6.9545 24.5521 7.77122L22.778 13.6859C22.7613 13.7418 22.7581 13.8011 22.7682 13.8585C22.7783 13.9157 22.8021 13.9697 22.8366 14.0163C22.8714 14.0632 22.9179 14.1024 22.9701 14.1286C23.022 14.1547 23.0796 14.1676 23.1377 14.1677H31.0804L31.318 14.1758C31.8724 14.2079 32.4156 14.3504 32.9147 14.5974C33.4849 14.8795 33.982 15.2897 34.3682 15.7953C34.7542 16.3008 35.0192 16.8882 35.1413 17.5124C35.2481 18.059 35.2433 18.6213 35.1283 19.1645L35.0729 19.3956L31.7559 31.5473C31.5173 32.4224 30.9985 33.1951 30.278 33.7462C29.6469 34.2287 28.8904 34.5176 28.1035 34.5827L27.765 34.5974H6.28711C5.83425 34.5974 5.39975 34.4178 5.07943 34.0977C4.75924 33.7775 4.57833 33.3428 4.57812 32.89V15.8767C4.57812 15.4236 4.75907 14.9894 5.07943 14.669C5.39979 14.3486 5.83405 14.1677 6.28711 14.1677H11.0918C11.5759 14.1677 12.0523 14.0431 12.4736 13.8048C12.895 13.5662 13.2482 13.2221 13.4974 12.807L18.2028 4.96523L18.3786 4.69993C18.8155 4.10177 19.4333 3.65466 20.1445 3.42877ZM5.91276 32.89C5.91296 32.989 5.95193 33.0836 6.02181 33.1537C6.09212 33.224 6.18767 33.2644 6.28711 33.2644H27.7633C28.3786 33.2639 28.9791 33.0614 29.4674 32.6882C29.9559 32.3148 30.3082 31.7905 30.4701 31.1973L33.7855 19.044C33.8987 18.6284 33.9152 18.1924 33.8327 17.7696C33.75 17.3463 33.5703 16.947 33.3086 16.6042C33.0469 16.2617 32.7103 15.9833 32.3239 15.7921C31.9374 15.6008 31.5116 15.5025 31.0804 15.5023H23.1361C22.8701 15.502 22.6071 15.438 22.3695 15.3184C22.1321 15.1988 21.9258 15.0255 21.7673 14.8122C21.6086 14.5988 21.5009 14.3515 21.4548 14.0896C21.4087 13.8277 21.4257 13.5582 21.502 13.3034L23.276 7.38711L23.3232 7.19505C23.4147 6.74603 23.3615 6.27817 23.1686 5.85879C22.948 5.37947 22.5607 4.99626 22.0781 4.78294C21.5955 4.56974 21.0511 4.54036 20.5482 4.69993C20.0451 4.85971 19.6166 5.19767 19.3454 5.65045L14.6416 13.4923C14.2739 14.1051 13.7531 14.6131 13.1312 14.9652C12.5094 15.3172 11.8063 15.5023 11.0918 15.5023H6.28711C6.18767 15.5023 6.09212 15.5411 6.02181 15.6114C5.9515 15.6817 5.91276 15.7773 5.91276 15.8767V32.89Z" fill="#EC1C24"/>
<path d="M10.6562 33.9323V14.8372C10.6562 14.469 10.9554 14.1699 11.3236 14.1699C11.6918 14.1699 11.9909 14.469 11.9909 14.8372V33.9323C11.9909 34.3005 11.6918 34.5996 11.3236 34.5996C10.9554 34.5996 10.6562 34.3005 10.6562 33.9323Z" fill="#EC1C24"/>
</svg>
