<svg width="24" height="24" viewBox="0 0 24 24" fill="none" xmlns="http://www.w3.org/2000/svg">
<path d="M20.243 3H4.50703C3.675 3 3 3.675 3 4.50703V20.243C3 21.075 3.675 21.75 4.50703 21.75H20.243C21.075 21.75 21.75 21.075 21.75 20.243V4.50703C21.75 3.675 21.075 3 20.243 3ZM20.243 20.25C9.74766 20.2477 4.5 20.2453 4.5 20.243C4.50234 9.74766 4.50469 4.5 4.50703 4.5C15.0023 4.50234 20.25 4.50469 20.25 4.50703C20.2477 15.0023 20.2453 20.25 20.243 20.25ZM5.77969 10.0289H8.56172V18.9773H5.77969V10.0289ZM7.17188 8.80547C8.06016 8.80547 8.78437 8.08359 8.78437 7.19297C8.78437 6.98121 8.74267 6.77153 8.66163 6.57589C8.5806 6.38025 8.46182 6.20249 8.31209 6.05276C8.16235 5.90302 7.98459 5.78425 7.78895 5.70321C7.59331 5.62218 7.38363 5.58047 7.17188 5.58047C6.96012 5.58047 6.75044 5.62218 6.5548 5.70321C6.35916 5.78425 6.1814 5.90302 6.03167 6.05276C5.88193 6.20249 5.76315 6.38025 5.68212 6.57589C5.60108 6.77153 5.55937 6.98121 5.55937 7.19297C5.55703 8.08359 6.27891 8.80547 7.17188 8.80547ZM13.0852 14.55C13.0852 13.3828 13.3078 12.2531 14.7539 12.2531C16.1789 12.2531 16.2 13.5867 16.2 14.625V18.9773H18.9797V14.0695C18.9797 11.6602 18.4594 9.80625 15.6445 9.80625C14.2922 9.80625 13.3852 10.5492 13.0125 11.2523H12.975V10.0289H10.3055V18.9773H13.0852V14.55Z" fill="#282828"/>
</svg>
