<svg width="40" height="40" viewBox="0 0 40 40" fill="none" xmlns="http://www.w3.org/2000/svg">
<path d="M18.4009 7.2002V16.8008C18.4009 18.5689 15.1767 20.001 11.2004 20.001C7.22419 20.001 4 18.5689 4 16.8008V7.2002" stroke="#EC1C24" stroke-width="1.80011" stroke-linecap="round" stroke-linejoin="round"/>
<path d="M18.4009 12C18.4009 13.7681 15.1767 15.2002 11.2004 15.2002C7.22419 15.2002 4 13.7681 4 12M26.4013 5.59961H31.2016C32.0504 5.59961 32.8643 5.93677 33.4645 6.53692C34.0646 7.13707 34.4018 7.95105 34.4018 8.7998V13.6001M13.6006 34.4013H8.80028C7.95154 34.4013 7.13756 34.0641 6.53741 33.464C5.93726 32.8638 5.60009 32.0499 5.60009 31.2011V26.4008M18.4009 7.1997C18.4009 8.96781 15.1767 10.3999 11.2004 10.3999C7.22419 10.3999 4 8.96781 4 7.1997C4 5.4316 7.22419 3.99951 11.2004 3.99951C15.1767 3.99951 18.4009 5.4316 18.4009 7.1997Z" stroke="#EC1C24" stroke-width="1.80011" stroke-linecap="round" stroke-linejoin="round"/>
<path d="M28.8049 28.0014C31.0142 28.0014 32.8052 26.2105 32.8052 24.0012C32.8052 21.7919 31.0142 20.001 28.8049 20.001C26.5957 20.001 24.8047 21.7919 24.8047 24.0012C24.8047 26.2105 26.5957 28.0014 28.8049 28.0014Z" stroke="#EC1C24" stroke-width="1.80011" stroke-linecap="round" stroke-linejoin="round"/>
<path d="M36.0024 36.0017H21.6016C21.6016 35.0561 21.7878 34.1198 22.1497 33.2462C22.5115 32.3726 23.0419 31.5788 23.7105 30.9102C24.3791 30.2416 25.1729 29.7112 26.0465 29.3494C26.9201 28.9875 27.8564 28.8013 28.802 28.8013C29.7476 28.8013 30.6839 28.9875 31.5575 29.3494C32.4311 29.7112 33.2248 30.2416 33.8935 30.9102C34.5621 31.5788 35.0925 32.3726 35.4543 33.2462C35.8162 34.1198 36.0024 35.0561 36.0024 36.0017Z" stroke="#EC1C24" stroke-width="1.80011" stroke-linecap="round" stroke-linejoin="round"/>
</svg>
