<svg width="40" height="40" viewBox="0 0 40 40" fill="none" xmlns="http://www.w3.org/2000/svg">
<path d="M18.6641 9.33398V17.334C18.6641 18.8073 15.9774 20.0007 12.6641 20.0007C9.35073 20.0007 6.66406 18.8073 6.66406 17.334V9.33398" stroke="#EC1C24" stroke-linecap="round" stroke-linejoin="round"/>
<path d="M18.6641 13.3341C18.6641 14.8075 15.9774 16.0008 12.6641 16.0008C9.35073 16.0008 6.66406 14.8075 6.66406 13.3341M25.3307 8.00081H29.3307C30.038 8.00081 30.7162 8.28177 31.2163 8.78186C31.7164 9.28196 31.9974 9.96024 31.9974 10.6675V14.6675M14.6641 32.0008H10.6641C9.95682 32.0008 9.27854 31.7199 8.77844 31.2198C8.27835 30.7197 7.9974 30.0414 7.9974 29.3341V25.3341M18.6641 9.33415C18.6641 10.8075 15.9774 12.0008 12.6641 12.0008C9.35073 12.0008 6.66406 10.8075 6.66406 9.33415C6.66406 7.86081 9.35073 6.66748 12.6641 6.66748C15.9774 6.66748 18.6641 7.86081 18.6641 9.33415Z" stroke="#EC1C24" stroke-linecap="round" stroke-linejoin="round"/>
<path d="M27.3333 26.6676C29.1743 26.6676 30.6667 25.1753 30.6667 23.3343C30.6667 21.4934 29.1743 20.001 27.3333 20.001C25.4924 20.001 24 21.4934 24 23.3343C24 25.1753 25.4924 26.6676 27.3333 26.6676Z" stroke="#EC1C24" stroke-linecap="round" stroke-linejoin="round"/>
<path d="M33.3281 33.334H21.3281C21.3281 32.5461 21.4833 31.7658 21.7848 31.0379C22.0864 30.3099 22.5283 29.6485 23.0855 29.0913C23.6426 28.5342 24.3041 28.0922 25.032 27.7907C25.76 27.4892 26.5402 27.334 27.3281 27.334C28.1161 27.334 28.8963 27.4892 29.6242 27.7907C30.3522 28.0922 31.0136 28.5342 31.5708 29.0913C32.1279 29.6485 32.5699 30.3099 32.8714 31.0379C33.1729 31.7658 33.3281 32.5461 33.3281 33.334Z" stroke="#EC1C24" stroke-linecap="round" stroke-linejoin="round"/>
</svg>
