<svg width="32" height="32" viewBox="0 0 32 32" fill="none" xmlns="http://www.w3.org/2000/svg">
<path d="M9.5 19.25C8.65943 19.25 7.83774 19.4993 7.13883 19.9663C6.43992 20.4332 5.89519 21.097 5.57351 21.8736C5.25184 22.6502 5.16768 23.5047 5.33166 24.3291C5.49565 25.1536 5.90042 25.9108 6.4948 26.5052C7.08917 27.0996 7.84645 27.5043 8.67087 27.6683C9.49529 27.8323 10.3498 27.7482 11.1264 27.4265C11.903 27.1048 12.5668 26.5601 13.0337 25.8612C13.5007 25.1623 13.75 24.3406 13.75 23.5C13.75 22.3728 13.3022 21.2918 12.5052 20.4948C11.7082 19.6978 10.6272 19.25 9.5 19.25ZM9.5 26.25C8.9561 26.25 8.42442 26.0887 7.97218 25.7865C7.51995 25.4844 7.16747 25.0549 6.95933 24.5524C6.75119 24.0499 6.69673 23.4969 6.80284 22.9635C6.90895 22.4301 7.17086 21.9401 7.55546 21.5555C7.94005 21.1709 8.43006 20.909 8.9635 20.8028C9.49695 20.6967 10.0499 20.7512 10.5524 20.9593C11.0549 21.1675 11.4844 21.5199 11.7865 21.9722C12.0887 22.4244 12.25 22.9561 12.25 23.5C12.25 23.8611 12.1789 24.2187 12.0407 24.5524C11.9025 24.886 11.6999 25.1892 11.4445 25.4445C11.1892 25.6999 10.886 25.9025 10.5524 26.0407C10.2187 26.1789 9.86114 26.25 9.5 26.25ZM5.47 13.47L7.44 11.5L5.47 9.53C5.33752 9.38783 5.2654 9.19978 5.26883 9.00548C5.27226 8.81118 5.35097 8.62579 5.48838 8.48838C5.62579 8.35097 5.81118 8.27225 6.00548 8.26882C6.19978 8.2654 6.38783 8.33752 6.53 8.47L8.5 10.44L10.47 8.47C10.6122 8.33752 10.8002 8.2654 10.9945 8.26882C11.1888 8.27225 11.3742 8.35097 11.5116 8.48838C11.649 8.62579 11.7277 8.81118 11.7312 9.00548C11.7346 9.19978 11.6625 9.38783 11.53 9.53L9.56 11.5L11.53 13.47C11.6037 13.5387 11.6628 13.6215 11.7038 13.7135C11.7448 13.8055 11.7668 13.9048 11.7686 14.0055C11.7704 14.1062 11.7518 14.2062 11.7141 14.2996C11.6764 14.393 11.6203 14.4778 11.549 14.549C11.4778 14.6203 11.393 14.6764 11.2996 14.7141C11.2062 14.7518 11.1062 14.7704 11.0055 14.7686C10.9048 14.7668 10.8055 14.7448 10.7135 14.7038C10.6215 14.6628 10.5387 14.6037 10.47 14.53L8.5 12.56L6.53 14.53C6.38783 14.6625 6.19978 14.7346 6.00548 14.7312C5.81118 14.7277 5.62579 14.649 5.48838 14.5116C5.35097 14.3742 5.27226 14.1888 5.26883 13.9945C5.2654 13.8002 5.33752 13.6122 5.47 13.47ZM28.53 25.47C28.6037 25.5387 28.6628 25.6215 28.7038 25.7135C28.7448 25.8055 28.7668 25.9048 28.7686 26.0055C28.7704 26.1062 28.7518 26.2062 28.7141 26.2996C28.6764 26.393 28.6203 26.4778 28.549 26.549C28.4778 26.6203 28.393 26.6764 28.2996 26.7141C28.2062 26.7518 28.1062 26.7704 28.0055 26.7686C27.9048 26.7668 27.8055 26.7448 27.7135 26.7038C27.6215 26.6628 27.5387 26.6037 27.47 26.53L25.5 24.56L23.53 26.53C23.3878 26.6625 23.1998 26.7346 23.0055 26.7312C22.8112 26.7277 22.6258 26.649 22.4884 26.5116C22.351 26.3742 22.2723 26.1888 22.2688 25.9945C22.2654 25.8002 22.3375 25.6122 22.47 25.47L24.44 23.5L22.47 21.53C22.3375 21.3878 22.2654 21.1998 22.2688 21.0055C22.2723 20.8112 22.351 20.6258 22.4884 20.4884C22.6258 20.351 22.8112 20.2723 23.0055 20.2688C23.1998 20.2654 23.3878 20.3375 23.53 20.47L25.5 22.44L27.47 20.47C27.6122 20.3375 27.8002 20.2654 27.9945 20.2688C28.1888 20.2723 28.3742 20.351 28.5116 20.4884C28.649 20.6258 28.7277 20.8112 28.7312 21.0055C28.7346 21.1998 28.6625 21.3878 28.53 21.53L26.56 23.5L28.53 25.47ZM22.8188 14.0375C22.0688 16.745 19.75 19.085 17.1825 19.7275C17.1228 19.7425 17.0615 19.75 17 19.75C16.817 19.75 16.6403 19.6832 16.5031 19.562C16.366 19.4407 16.2779 19.2736 16.2555 19.0919C16.2331 18.9103 16.2778 18.7267 16.3813 18.5758C16.4848 18.4249 16.64 18.317 16.8175 18.2725C18.8538 17.7637 20.77 15.8137 21.3725 13.6362C21.7888 12.1362 21.7963 9.85625 19.47 7.53L18.75 6.81V10C18.75 10.1989 18.671 10.3897 18.5303 10.5303C18.3897 10.671 18.1989 10.75 18 10.75C17.8011 10.75 17.6103 10.671 17.4697 10.5303C17.329 10.3897 17.25 10.1989 17.25 10V5C17.25 4.80109 17.329 4.61032 17.4697 4.46967C17.6103 4.32902 17.8011 4.25 18 4.25H23C23.1989 4.25 23.3897 4.32902 23.5303 4.46967C23.671 4.61032 23.75 4.80109 23.75 5C23.75 5.19891 23.671 5.38968 23.5303 5.53033C23.3897 5.67098 23.1989 5.75 23 5.75H19.81L20.53 6.47C22.75 8.68375 23.5563 11.375 22.8188 14.0375Z" fill="#EC1C24"/>
</svg>
