<svg width="40" height="40" viewBox="0 0 40 40" fill="none" xmlns="http://www.w3.org/2000/svg">
<path d="M8 33.6601V5.46006C8 5.22136 8.09482 4.99245 8.2636 4.82366C8.43239 4.65488 8.66131 4.56006 8.9 4.56006H26.378C26.6166 4.56027 26.8454 4.65523 27.014 4.82406L31.736 9.54606C31.82 9.62991 31.8865 9.72953 31.9318 9.8392C31.9771 9.94886 32.0003 10.0664 32 10.1851V33.6601C32 33.7782 31.9767 33.8953 31.9315 34.0045C31.8863 34.1137 31.82 34.2129 31.7364 34.2965C31.6528 34.38 31.5536 34.4463 31.4444 34.4916C31.3352 34.5368 31.2182 34.5601 31.1 34.5601H8.9C8.78181 34.5601 8.66478 34.5368 8.55558 34.4916C8.44639 34.4463 8.34718 34.38 8.2636 34.2965C8.18003 34.2129 8.11374 34.1137 8.06851 34.0045C8.02328 33.8953 8 33.7782 8 33.6601Z" stroke="#EC1C24" stroke-width="1.4" stroke-linecap="round" stroke-linejoin="round"/>
<path d="M25.9923 4.56006V9.66006C25.9923 9.89875 26.0872 10.1277 26.2559 10.2965C26.4247 10.4652 26.6537 10.5601 26.8923 10.5601H31.9923M17.9448 17.1826L19.5033 13.8781C19.5455 13.7836 19.6141 13.7034 19.7009 13.6471C19.7877 13.5908 19.8889 13.5608 19.9923 13.5608C20.0958 13.5608 20.197 13.5908 20.2838 13.6471C20.3706 13.7034 20.4392 13.7836 20.4813 13.8781L22.0413 17.1826L25.5258 17.7166C25.9728 17.7841 26.1498 18.3601 25.8258 18.6901L23.3058 21.2596L23.8998 24.8911C23.9763 25.3576 23.5098 25.7131 23.1093 25.4926L19.9923 23.7781L16.8753 25.4926C16.4748 25.7131 16.0083 25.3576 16.0848 24.8926L16.6788 21.2596L14.1588 18.6901C13.8333 18.3601 14.0118 17.7841 14.4588 17.7151L17.9448 17.1826Z" stroke="#EC1C24" stroke-width="1.4" stroke-linecap="round" stroke-linejoin="round"/>
</svg>
