<svg width="40" height="40" viewBox="0 0 40 40" fill="none" xmlns="http://www.w3.org/2000/svg">
<path d="M27.6523 16.1261C27.5904 14.8664 27.3124 13.6253 26.8288 12.4575C26.276 11.1229 25.4658 9.90963 24.4443 8.88818C23.4229 7.86674 22.2096 7.05655 20.875 6.50374C19.7072 6.0201 18.4661 5.74214 17.2064 5.68018L16.666 5.66716C15.2217 5.66716 13.7915 5.95107 12.457 6.50374C11.1224 7.05655 9.90914 7.86674 8.8877 8.88818C7.86625 9.90963 7.05606 11.1229 6.50326 12.4575C5.95059 13.792 5.66667 15.2221 5.66667 16.6665L5.67969 17.2069C5.74165 18.4666 6.01961 19.7077 6.50326 20.8755C7.05606 22.2101 7.86625 23.4234 8.8877 24.4448C9.90914 25.4663 11.1225 26.2765 12.457 26.8293C13.7915 27.3819 15.2217 27.6659 16.666 27.6659C18.1104 27.6659 19.5406 27.3819 20.875 26.8293C22.2096 26.2765 23.4229 25.4663 24.4443 24.4448C25.4658 23.4234 26.276 22.2101 26.8288 20.8755C27.3814 19.541 27.6654 18.1109 27.6654 16.6665L27.6523 16.1261ZM28.9837 17.2736C28.9141 18.6858 28.6031 20.0775 28.0609 21.3866C27.5264 22.6769 26.7746 23.8634 25.8441 24.9006L35.4714 34.5278C35.7317 34.7882 35.7317 35.2115 35.4714 35.4718C35.211 35.7322 34.7877 35.7322 34.5273 35.4718L24.9001 25.8446C23.8629 26.7751 22.6764 27.5269 21.3861 28.0614C19.8897 28.6812 18.2857 29.0005 16.666 29.0005C15.0464 29.0005 13.4423 28.6812 11.946 28.0614C10.4497 27.4416 9.09054 26.5324 7.94531 25.3872C6.80009 24.242 5.89097 22.8829 5.27116 21.3866C4.72891 20.0775 4.41791 18.6858 4.34831 17.2736L4.33203 16.6665C4.33203 15.0469 4.65135 13.4428 5.27116 11.9465C5.89097 10.4502 6.80009 9.09102 7.94531 7.9458C9.09054 6.80058 10.4497 5.89145 11.946 5.27165C13.4423 4.65184 15.0464 4.33252 16.666 4.33252L17.2731 4.3488C18.6853 4.4184 20.077 4.7294 21.3861 5.27165C22.8824 5.89145 24.2415 6.80058 25.3867 7.9458C26.5319 9.09102 27.4411 10.4502 28.0609 11.9465C28.6807 13.4428 29 15.0469 29 16.6665L28.9837 17.2736Z" fill="#EC1C24"/>
</svg>
