<svg width="40" height="40" viewBox="0 0 40 40" fill="none" xmlns="http://www.w3.org/2000/svg">
<path d="M10.6641 30.9668V9.0335C10.6641 8.84784 10.7378 8.6698 10.8691 8.53852C11.0004 8.40725 11.1784 8.3335 11.3641 8.3335H24.9581C25.1437 8.33366 25.3216 8.40752 25.4527 8.53883L29.1254 12.2115C29.1907 12.2767 29.2425 12.3542 29.2777 12.4395C29.3129 12.5248 29.331 12.6162 29.3307 12.7085V30.9668C29.3307 31.0588 29.3126 31.1498 29.2774 31.2347C29.2423 31.3196 29.1907 31.3968 29.1257 31.4618C29.0607 31.5268 28.9835 31.5784 28.8986 31.6135C28.8137 31.6487 28.7227 31.6668 28.6307 31.6668H11.3641C11.2721 31.6668 11.1811 31.6487 11.0962 31.6135C11.0113 31.5784 10.9341 31.5268 10.8691 31.4618C10.8041 31.3968 10.7525 31.3196 10.7173 31.2347C10.6822 31.1498 10.6641 31.0588 10.6641 30.9668Z" stroke="#EC1C24" stroke-width="1.5" stroke-linecap="round" stroke-linejoin="round"/>
<path d="M24.6616 8.3335V12.3002C24.6616 12.4858 24.7353 12.6639 24.8666 12.7951C24.9979 12.9264 25.1759 13.0002 25.3616 13.0002H29.3282M18.4024 18.151L19.6146 15.5808C19.6474 15.5074 19.7007 15.445 19.7682 15.4012C19.8357 15.3574 19.9145 15.3341 19.9949 15.3341C20.0754 15.3341 20.1541 15.3574 20.2216 15.4012C20.2891 15.445 20.3425 15.5074 20.3752 15.5808L21.5886 18.151L24.2987 18.5663C24.6464 18.6188 24.7841 19.0668 24.5321 19.3235L22.5721 21.322L23.0341 24.1465C23.0936 24.5093 22.7307 24.7858 22.4192 24.6143L19.9949 23.2808L17.5706 24.6143C17.2591 24.7858 16.8962 24.5093 16.9557 24.1477L17.4177 21.322L15.4577 19.3235C15.2046 19.0668 15.3434 18.6188 15.6911 18.5652L18.4024 18.151Z" stroke="#EC1C24" stroke-width="1.5" stroke-linecap="round" stroke-linejoin="round"/>
</svg>
