<svg width="40" height="40" viewBox="0 0 40 40" fill="none" xmlns="http://www.w3.org/2000/svg">
<path d="M17.4108 17.4127C17.6718 17.153 18.0951 17.1533 18.3548 17.4143C18.6142 17.6753 18.6123 18.0971 18.3516 18.3567C17.9136 18.7924 17.6672 19.3845 17.6647 20.0022C17.6652 20.6204 17.9096 21.2138 18.3467 21.651C18.7838 22.0881 19.3773 22.3324 19.9954 22.333C20.6132 22.3305 21.2052 22.0841 21.641 21.6461C21.9005 21.3854 22.3223 21.3837 22.5833 21.6429C22.8443 21.9025 22.8461 22.3258 22.5866 22.5869C21.9018 23.2752 20.9712 23.6639 20.0003 23.6676H19.9971C19.0247 23.6675 18.0919 23.2809 17.4043 22.5934C16.7168 21.9058 16.3301 20.973 16.3301 20.0006V19.9973C16.3338 19.0268 16.7229 18.0974 17.4108 17.4127Z" fill="#EC1C24"/>
<path d="M19.9989 10.332C20.3668 10.3324 20.6646 10.6314 20.6646 10.9993C20.6646 11.3673 20.3668 11.6663 19.9989 11.6667C18.3508 11.6667 16.7387 12.1541 15.3683 13.0697C13.998 13.9853 12.9294 15.2873 12.2987 16.8099C11.668 18.3324 11.5037 20.0081 11.825 21.6243C12.1466 23.2408 12.94 24.7265 14.1053 25.8919C15.2708 27.0574 16.7564 27.8507 18.3729 28.1722C19.9893 28.4937 21.6647 28.3293 23.1874 27.6986C24.7101 27.0678 26.0119 25.9993 26.9276 24.6289C27.843 23.2587 28.3321 21.6478 28.3322 20C28.3322 19.6319 28.6299 19.3329 28.9979 19.3327C29.3661 19.3327 29.6652 19.6318 29.6652 20C29.6651 21.9115 29.0979 23.7801 28.036 25.3695C26.9738 26.9591 25.4631 28.199 23.6968 28.9307C21.9307 29.662 19.9873 29.8537 18.1125 29.4808C16.2373 29.1078 14.5148 28.1862 13.1629 26.8343C11.8111 25.4824 10.8911 23.7598 10.5181 21.8848C10.1452 20.0099 10.3352 18.0666 11.0666 16.3005C11.7982 14.5341 13.0381 13.0234 14.6278 11.9613C16.2174 10.8992 18.0871 10.332 19.9989 10.332Z" fill="#EC1C24"/>
<path d="M19.9992 4.33252C20.3674 4.33252 20.6665 4.63165 20.6665 4.99984C20.6665 5.36803 20.3674 5.66716 19.9992 5.66716C17.1643 5.66716 14.3924 6.50755 12.0353 8.08252C9.67853 9.65746 7.84174 11.896 6.75699 14.5148C5.67215 17.1339 5.38851 20.0157 5.94156 22.7961C6.49461 25.5765 7.85953 28.1304 9.86408 30.1349C11.8686 32.1395 14.4226 33.5044 17.203 34.0575C19.9833 34.6105 22.8651 34.3269 25.4842 33.242C28.103 32.1573 30.3416 30.3205 31.9165 27.9637C33.4915 25.6066 34.3319 22.8347 34.3319 19.9998C34.3319 19.6316 34.631 19.3325 34.9992 19.3325C35.3674 19.3325 35.6665 19.6316 35.6665 19.9998C35.6665 23.0984 34.7464 26.1279 33.0249 28.7043C31.3035 31.2802 28.8575 33.2884 25.9953 34.4741C23.1326 35.6599 19.9816 35.9706 16.9425 35.366C13.9035 34.7615 11.1127 33.2683 8.9217 31.0773C6.73071 28.8863 5.23748 26.0955 4.63296 23.0565C4.02846 20.0174 4.33912 16.8665 5.52489 14.0037C6.7106 11.1415 8.71885 8.69546 11.2947 6.97412C13.8711 5.25265 16.9006 4.33252 19.9992 4.33252ZM25.0936 13.9647C25.354 13.7044 25.7757 13.7043 26.036 13.9647C26.2963 14.2251 26.2964 14.6468 26.036 14.9071L21.9702 18.9712C21.7098 19.2314 21.2881 19.2315 21.0278 18.9712C20.7676 18.7109 20.7677 18.2891 21.0278 18.0288L25.0936 13.9647Z" fill="#EC1C24"/>
<path d="M29.452 4.89258C29.5473 4.89563 29.6417 4.91236 29.732 4.94303L29.8638 4.99837L29.9859 5.07324C30.1019 5.15672 30.1979 5.26601 30.2675 5.39225C30.3601 5.56058 30.4017 5.75262 30.3846 5.94401C30.3836 5.95531 30.3813 5.96696 30.3798 5.97819L29.7824 10.2165L34.0223 9.62077C34.0265 9.62018 34.0312 9.61965 34.0354 9.61914C34.0402 9.61858 34.0452 9.61797 34.05 9.61751C34.194 9.60392 34.3385 9.62194 34.4732 9.67122L34.6034 9.73145L34.7238 9.80794C34.8005 9.86586 34.8678 9.93518 34.924 10.013L34.9989 10.1351L35.0559 10.2669C35.1022 10.4027 35.1182 10.5481 35.1014 10.6917C35.079 10.8831 34.9991 11.0632 34.8736 11.2093C34.8631 11.2215 34.8524 11.2337 34.841 11.2451L31.4686 14.6354L31.4654 14.6387C31.0367 15.0642 30.5093 15.3774 29.9305 15.5501C29.3516 15.7228 28.7385 15.7494 28.1467 15.6283V15.6266L25.4351 15.0911C25.1707 15.0387 24.9639 14.8313 24.911 14.5671L24.3707 11.8538L24.3332 11.6309C24.2596 11.1092 24.2977 10.5765 24.4488 10.07C24.6215 9.4912 24.9348 8.96385 25.3602 8.53516L25.3635 8.5319L28.7554 5.15788L28.7912 5.12533C28.9371 5.00013 29.1179 4.91992 29.3088 4.89746L29.452 4.89258ZM26.3042 9.47754C26.035 9.74977 25.836 10.0839 25.7264 10.4508C25.644 10.7272 25.6144 11.0163 25.6369 11.3021L25.6776 11.5869V11.5902L26.1301 13.8688L28.4104 14.3213H28.4136C28.7904 14.3985 29.1812 14.3824 29.5497 14.2725C29.918 14.1625 30.2535 13.9622 30.5263 13.6914L33.1076 11.0938L29.0923 11.6602C28.8852 11.6892 28.6771 11.6193 28.5292 11.4714C28.3813 11.3234 28.3113 11.1154 28.3404 10.9082L28.9052 6.88965L26.3042 9.47754Z" fill="#EC1C24"/>
</svg>
