<svg width="40" height="41" viewBox="0 0 40 41" fill="none" xmlns="http://www.w3.org/2000/svg">
<path d="M26.25 31.8403H33.75C34.7048 31.8403 35.6208 32.2189 36.2959 32.894C36.971 33.5692 37.3496 34.4852 37.3496 35.4399V37.7896H35.1504V35.4399C35.1504 35.0686 35.0028 34.7123 34.7402 34.4497C34.4777 34.1872 34.1213 34.0396 33.75 34.0396H26.25C25.8787 34.0396 25.5223 34.1872 25.2598 34.4497C24.9972 34.7123 24.8496 35.0686 24.8496 35.4399V37.7896H22.6504V35.4399C22.6504 34.4852 23.029 33.5692 23.7041 32.894C24.3792 32.2189 25.2952 31.8403 26.25 31.8403ZM7.34961 25.5903V26.6899C7.34961 28.3873 8.02438 30.0151 9.22461 31.2153C10.4248 32.4156 12.0526 33.0903 13.75 33.0903H17.3496V35.2896H13.75C11.4691 35.2896 9.28176 34.3838 7.66895 32.771C6.05613 31.1582 5.15039 28.9708 5.15039 26.6899V25.5903H7.34961ZM30 20.5903C30.9592 20.5903 31.8968 20.8748 32.6943 21.4077C33.4917 21.9405 34.1134 22.6975 34.4805 23.5835C34.8476 24.4697 34.944 25.4454 34.7568 26.3862C34.5697 27.327 34.1079 28.1914 33.4297 28.8696C32.7514 29.5479 31.8871 30.0096 30.9463 30.1968C30.0055 30.3839 29.0298 30.2875 28.1436 29.9204C27.2576 29.5533 26.5006 28.9317 25.9678 28.1343C25.4348 27.3367 25.1504 26.3992 25.1504 25.4399C25.1504 24.1536 25.6608 22.9198 26.5703 22.0103C27.4799 21.1007 28.7137 20.5903 30 20.5903ZM30 22.7896C29.4759 22.7896 28.9631 22.9456 28.5273 23.2368C28.0917 23.528 27.7523 23.9422 27.5518 24.4263C27.3513 24.9103 27.2992 25.4427 27.4014 25.9565C27.5036 26.4706 27.7554 26.9434 28.126 27.314C28.4966 27.6846 28.9693 27.9363 29.4834 28.0386C29.9972 28.1407 30.5296 28.0886 31.0137 27.8882C31.4977 27.6877 31.912 27.3482 32.2031 26.9126C32.4943 26.4768 32.6504 25.9641 32.6504 25.4399C32.6504 24.7371 32.371 24.0629 31.874 23.5659C31.3771 23.0689 30.7028 22.7896 30 22.7896ZM6.25 14.3403H13.75C14.7048 14.3403 15.6208 14.7189 16.2959 15.394C16.971 16.0692 17.3496 16.9852 17.3496 17.9399V20.2896H15.1504V17.9399C15.1504 17.5686 15.0028 17.2123 14.7402 16.9497C14.4777 16.6872 14.1213 16.5396 13.75 16.5396H6.25C5.8787 16.5396 5.52232 16.6872 5.25977 16.9497C4.99721 17.2123 4.84961 17.5686 4.84961 17.9399V20.2896H2.65039V17.9399C2.65039 16.9852 3.02897 16.0692 3.7041 15.394C4.37923 14.7189 5.29522 14.3403 6.25 14.3403ZM23.75 5.59033C26.0309 5.59033 28.2182 6.49607 29.8311 8.10889C31.4439 9.7217 32.3496 11.9091 32.3496 14.1899V15.2896H30.1504V14.1899C30.1504 13.3495 29.9847 12.5172 29.6631 11.7407C29.3415 10.9642 28.8697 10.2588 28.2754 9.66455C27.6811 9.07026 26.9757 8.59849 26.1992 8.27686C25.4228 7.95524 24.5904 7.78955 23.75 7.78955H20.1504V5.59033H23.75ZM8.14355 3.45947C9.02978 3.09239 10.0055 2.99597 10.9463 3.18311C11.8871 3.37026 12.7514 3.83199 13.4297 4.51025C14.1079 5.18852 14.5697 6.05288 14.7568 6.99365C14.944 7.93446 14.8476 8.91017 14.4805 9.79639C14.1134 10.6824 13.4917 11.4393 12.6943 11.9722C11.8968 12.5051 10.9592 12.7896 10 12.7896C8.7137 12.7896 7.47986 12.2792 6.57031 11.3696C5.66076 10.4601 5.15039 9.22624 5.15039 7.93994C5.15039 6.9807 5.43485 6.04318 5.96777 5.24561C6.5006 4.4482 7.25757 3.82657 8.14355 3.45947ZM10 5.28955C9.29718 5.28955 8.62295 5.56895 8.12598 6.06592C7.62901 6.56289 7.34961 7.23712 7.34961 7.93994C7.34961 8.46406 7.50569 8.97681 7.79688 9.4126C8.08805 9.8482 8.50225 10.1877 8.98633 10.3882C9.47037 10.5886 10.0028 10.6407 10.5166 10.5386C11.0307 10.4363 11.5034 10.1846 11.874 9.81396C12.2446 9.44336 12.4964 8.97059 12.5986 8.45654C12.7008 7.94271 12.6487 7.41031 12.4482 6.92627C12.2477 6.44219 11.9083 6.02799 11.4727 5.73682C11.0369 5.44563 10.5241 5.28955 10 5.28955Z" fill="#EC1C24" stroke="#FDFDFD" stroke-width="0.3"/>
</svg>
