<svg width="40" height="41" viewBox="0 0 40 41" fill="none" xmlns="http://www.w3.org/2000/svg">
<path d="M19.1406 4.88428C26.2593 4.88428 32.0989 10.362 32.6729 17.3335L32.6826 17.4497L32.748 17.5464L35.5117 21.6382C36.1252 22.5468 36.0997 23.9392 34.9775 24.6646C34.2823 25.1079 33.5321 25.4583 32.7461 25.7075L32.4619 25.7983L32.4375 26.0942L32.1084 29.9917C32.0719 30.4261 31.9462 30.8488 31.7383 31.2319C31.5304 31.6149 31.2446 31.9501 30.9004 32.2173C30.5561 32.4845 30.16 32.6773 29.7373 32.7837C29.3146 32.89 28.8742 32.9079 28.4443 32.8354L26.7656 32.5522L26.2471 32.4644V35.0015C26.2471 35.265 26.1424 35.5182 25.9561 35.7046C25.7697 35.8909 25.5165 35.9956 25.2529 35.9956C24.9896 35.9955 24.737 35.8908 24.5508 35.7046C24.3644 35.5182 24.2598 35.265 24.2598 35.0015V31.2886C24.2598 31.1443 24.2908 31.0015 24.3516 30.8706C24.4124 30.7396 24.501 30.6231 24.6113 30.5298C24.7217 30.4365 24.8518 30.3687 24.9912 30.3306C25.1305 30.2925 25.2766 30.285 25.4189 30.3091L28.7754 30.8755H28.7764C28.9348 30.9019 29.0972 30.8953 29.2529 30.856C29.4088 30.8166 29.5547 30.7446 29.6816 30.646C29.8085 30.5474 29.9136 30.4239 29.9902 30.2827C30.0478 30.1768 30.0889 30.0628 30.1113 29.9448L30.127 29.8257L30.54 24.9272C30.5577 24.7165 30.6423 24.5164 30.7812 24.3569C30.9201 24.1977 31.1063 24.0868 31.3125 24.0405C32.3003 23.8188 33.0505 23.4883 33.5811 23.188L33.999 22.9517L33.7305 22.5522L30.8828 18.3384C30.7821 18.1891 30.7234 18.0152 30.7139 17.8354V17.8345C30.4146 12.2255 26.1269 7.67474 20.6348 6.96729L20.1338 6.90283V35.0015C20.1338 35.265 20.0291 35.5182 19.8428 35.7046C19.6565 35.8908 19.404 35.9955 19.1406 35.9956C18.8771 35.9956 18.6239 35.8909 18.4375 35.7046C18.2511 35.5182 18.1465 35.265 18.1465 35.0015V27.5464H15.375L15.2451 27.6763L12.6836 30.2388L12.4883 30.4331L12.5762 30.6948C12.7771 31.2914 12.7707 31.9384 12.5576 32.5308C12.3445 33.1231 11.9373 33.6257 11.4023 33.9575C10.8673 34.2894 10.2358 34.4312 9.61035 34.3589C8.98501 34.2866 8.4022 34.0051 7.95703 33.5601C7.51194 33.115 7.2306 32.532 7.1582 31.9067C7.0859 31.2814 7.22691 30.6497 7.55859 30.1147C7.89044 29.5797 8.3939 29.1726 8.98633 28.9595C9.57871 28.7464 10.2257 28.739 10.8223 28.9399L11.083 29.0278L11.2783 28.8335L14.2607 25.8491C14.3531 25.7569 14.4633 25.6842 14.584 25.6343C14.7045 25.5845 14.8335 25.558 14.9639 25.5581H18.1475V21.0737H9.5L9.37695 21.3208C9.09714 21.8848 8.63505 22.3378 8.06543 22.606C7.49583 22.8741 6.8522 22.942 6.23926 22.7983C5.62635 22.6546 5.08052 22.3073 4.68945 21.814C4.29843 21.3206 4.085 20.7101 4.08496 20.0806C4.08496 19.451 4.29836 18.8396 4.68945 18.3462C5.08048 17.853 5.62651 17.5065 6.23926 17.3628C6.85222 17.2191 7.49581 17.287 8.06543 17.5552C8.63488 17.8233 9.09713 18.2756 9.37695 18.8394L9.5 19.0864H18.1475V15.3218H15.6836L15.585 15.3169C15.3576 15.2942 15.1444 15.1928 14.9814 15.0298H14.9805L11.9971 12.0474L11.8027 11.8521L11.541 11.9399C10.9444 12.1409 10.2975 12.1345 9.70508 11.9214C9.11273 11.7082 8.61015 11.3011 8.27832 10.7661C7.94647 10.2311 7.80463 9.59955 7.87695 8.97412C7.94929 8.34879 8.23068 7.76595 8.67578 7.3208C9.12089 6.8757 9.70381 6.59436 10.3291 6.52197C10.9544 6.44967 11.5861 6.59069 12.1211 6.92236C12.6561 7.25421 13.0632 7.75767 13.2764 8.3501C13.4895 8.94247 13.4968 9.58942 13.2959 10.186L13.208 10.4478L13.4023 10.6421L15.9648 13.2036L16.0947 13.3335H18.1475V5.87842C18.1475 5.61486 18.2521 5.36166 18.4385 5.17529C18.6247 4.98912 18.8773 4.88436 19.1406 4.88428Z" fill="#EC1C24" stroke="#FDFDFD" stroke-width="0.888889"/>
</svg>
