<svg width="40" height="40" viewBox="0 0 40 40" fill="none" xmlns="http://www.w3.org/2000/svg">
<path fill-rule="evenodd" clip-rule="evenodd" d="M20.0061 8.52816C20.1218 8.52816 20.2365 8.50535 20.3435 8.46104C20.4504 8.41674 20.5476 8.35179 20.6295 8.26992C20.7114 8.18805 20.7763 8.09086 20.8206 7.98389C20.8649 7.87692 20.8877 7.76227 20.8877 7.64649C20.8877 7.53071 20.8649 7.41606 20.8206 7.30909C20.7763 7.20212 20.7114 7.10493 20.6295 7.02306C20.5476 6.94119 20.4504 6.87625 20.3435 6.83194C20.2365 6.78763 20.1218 6.76482 20.0061 6.76482C19.7722 6.76482 19.548 6.85771 19.3826 7.02306C19.2173 7.1884 19.1244 7.41266 19.1244 7.64649C19.1244 7.88032 19.2173 8.10458 19.3826 8.26992C19.548 8.43527 19.7722 8.52816 20.0061 8.52816ZM22.6544 7.64482C22.6544 7.79482 22.6444 7.95482 22.6194 8.09482L29.4994 12.0598C29.9464 11.5433 30.5758 11.2196 31.2559 11.1565C31.9361 11.0933 32.6143 11.2955 33.1488 11.7209C33.6832 12.1462 34.0326 12.7617 34.1237 13.4387C34.2148 14.1156 34.0407 14.8016 33.6377 15.3532C33.3211 15.7998 32.8744 16.1382 32.3577 16.3198V20.8832H30.5944V16.3198C30.0573 16.1306 29.5955 15.7735 29.2773 15.3013C28.9591 14.8291 28.8015 14.267 28.8277 13.6982L21.7527 9.63982C21.4983 9.86087 21.2042 10.0317 20.8861 10.1432V14.7048H19.1227V10.1432C18.6649 9.98152 18.2603 9.69713 17.9532 9.32107C17.6461 8.94502 17.4483 8.49177 17.3813 8.01087C17.3144 7.52998 17.381 7.03994 17.5738 6.59433C17.7666 6.14871 18.0782 5.76467 18.4745 5.48419C18.8708 5.2037 19.3366 5.03756 19.8209 5.00392C20.3053 4.97029 20.7896 5.07045 21.2209 5.29347C21.6521 5.51649 22.0138 5.85378 22.2663 6.26847C22.5189 6.68316 22.6525 7.1593 22.6527 7.64482M20.0044 33.2348C20.2382 33.2348 20.4625 33.1419 20.6278 32.9766C20.7932 32.8112 20.8861 32.587 20.8861 32.3532C20.8861 32.1193 20.7932 31.8951 20.6278 31.7297C20.4625 31.5644 20.2382 31.4715 20.0044 31.4715C19.7706 31.4715 19.5463 31.5644 19.381 31.7297C19.2156 31.8951 19.1227 32.1193 19.1227 32.3532C19.1227 32.587 19.2156 32.8112 19.381 32.9766C19.5463 33.1419 19.7706 33.2348 20.0044 33.2348ZM20.0044 34.9998C20.3621 35.0009 20.7164 34.9293 21.0456 34.7894C21.3749 34.6495 21.6723 34.4443 21.9199 34.1861C22.1675 33.9279 22.3601 33.6221 22.4861 33.2873C22.6121 32.9524 22.6688 32.5955 22.6527 32.2382L29.7294 28.1715C30.1151 28.5091 30.5906 28.7274 31.0981 28.7999C31.6055 28.8723 32.1231 28.7959 32.5879 28.5799C33.0528 28.3638 33.4449 28.0174 33.7166 27.5828C33.9883 27.1481 34.128 26.6439 34.1186 26.1314C34.1092 25.6189 33.9512 25.1201 33.6638 24.6957C33.3764 24.2713 32.9719 23.9394 32.4994 23.7405C32.027 23.5416 31.507 23.4842 31.0025 23.5752C30.4981 23.6662 30.0309 23.9017 29.6577 24.2532L25.5644 21.8782L24.6811 23.4148L28.8561 25.8148C28.8174 26.0842 28.8202 26.3579 28.8644 26.6265L21.9811 30.5882C21.5527 30.1094 20.965 29.8025 20.3273 29.7246C19.6896 29.6468 19.0454 29.8032 18.5144 30.1648L14.1011 27.6148L13.2177 29.1482L17.4627 31.6032C17.3459 31.9985 17.3231 32.4157 17.396 32.8214C17.4689 33.2272 17.6356 33.6103 17.8828 33.9402C18.13 34.2701 18.4509 34.5377 18.8198 34.7217C19.1887 34.9056 19.5955 35.0009 20.0077 34.9998M9.41773 13.8232C9.42291 13.9423 9.40392 14.0612 9.36191 14.1728C9.31989 14.2844 9.25572 14.3863 9.17326 14.4724C9.09081 14.5585 8.99177 14.6271 8.88211 14.6739C8.77246 14.7207 8.65446 14.7449 8.53523 14.7449C8.416 14.7449 8.29801 14.7207 8.18835 14.6739C8.0787 14.6271 7.97966 14.5585 7.8972 14.4724C7.81475 14.3863 7.75058 14.2844 7.70856 14.1728C7.66655 14.0612 7.64756 13.9423 7.65273 13.8232C7.66262 13.5957 7.75992 13.3809 7.92434 13.2235C8.08875 13.0661 8.3076 12.9782 8.53523 12.9782C8.76287 12.9782 8.98171 13.0661 9.14613 13.2235C9.31055 13.3809 9.40785 13.5957 9.41773 13.8232ZM11.1827 13.8232C11.1824 14.3709 11.0123 14.905 10.6959 15.3521C10.3796 15.7992 9.93245 16.1373 9.41607 16.3198V23.6782C9.76107 23.8015 10.0761 23.9948 10.3427 24.2448L14.4461 21.8782L15.3294 23.4148L11.1544 25.8148C11.2223 26.3108 11.1482 26.8158 10.9406 27.2713C10.733 27.7268 10.4006 28.1141 9.98175 28.3883C9.56294 28.6624 9.07496 28.8122 8.57446 28.8202C8.07396 28.8282 7.58145 28.6941 7.15409 28.4334C6.72674 28.1728 6.38206 27.7963 6.16006 27.3476C5.93806 26.899 5.84784 26.3966 5.89987 25.8987C5.9519 25.4009 6.14405 24.928 6.45401 24.5349C6.76398 24.1419 7.17906 23.8448 7.65107 23.6782V16.3198C7.28299 16.1916 6.94777 15.9837 6.66936 15.7109C6.39096 15.4381 6.17624 15.1072 6.04055 14.7418C5.90486 14.3764 5.85156 13.9856 5.88443 13.5972C5.91731 13.2088 6.03557 12.8325 6.23075 12.4951C6.42593 12.1577 6.69322 11.8676 7.01351 11.6455C7.33381 11.4234 7.69921 11.2748 8.08361 11.2103C8.468 11.1458 8.8619 11.167 9.23716 11.2723C9.61242 11.3777 9.95977 11.5646 10.2544 11.8198L10.2111 11.7315L14.7994 9.08316L15.6811 10.6198L11.1194 13.2482C11.1627 13.4248 11.1827 13.6282 11.1827 13.8232ZM8.5344 27.0582C8.65352 27.0633 8.77245 27.0443 8.88403 27.0023C8.99562 26.9603 9.09754 26.8961 9.18366 26.8137C9.26978 26.7312 9.33831 26.6322 9.38514 26.5225C9.43196 26.4129 9.45609 26.2949 9.45609 26.1757C9.45609 26.0564 9.43196 25.9384 9.38514 25.8288C9.33831 25.7191 9.26978 25.6201 9.18366 25.5376C9.09754 25.4552 8.99562 25.391 8.88403 25.349C8.77245 25.307 8.65352 25.288 8.5344 25.2932C8.30013 25.2932 8.07545 25.3862 7.90979 25.5519C7.74413 25.7175 7.65107 25.9422 7.65107 26.1765C7.65107 26.4108 7.74413 26.6354 7.90979 26.8011C8.07545 26.9668 8.30013 27.0582 8.5344 27.0582ZM32.3577 13.8248C32.3577 14.0591 32.2647 14.2838 32.099 14.4494C31.9334 14.6151 31.7087 14.7082 31.4744 14.7082C31.2401 14.7082 31.0154 14.6151 30.8498 14.4494C30.6841 14.2838 30.5911 14.0591 30.5911 13.8248C30.5911 13.5905 30.6841 13.3659 30.8498 13.2002C31.0154 13.0346 31.2401 12.9415 31.4744 12.9415C31.7087 12.9415 31.9334 13.0346 32.099 13.2002C32.2647 13.3659 32.3577 13.5905 32.3577 13.8248ZM20.0044 20.8832C20.1247 20.8906 20.2453 20.8733 20.3587 20.8323C20.4721 20.7913 20.5759 20.7276 20.6638 20.645C20.7516 20.5624 20.8216 20.4627 20.8694 20.352C20.9173 20.2414 20.942 20.1221 20.942 20.0015C20.942 19.8809 20.9173 19.7616 20.8694 19.651C20.8216 19.5403 20.7516 19.4406 20.6638 19.358C20.5759 19.2754 20.4721 19.2117 20.3587 19.1707C20.2453 19.1297 20.1247 19.1124 20.0044 19.1198C19.7799 19.1336 19.5692 19.2325 19.4151 19.3964C19.2611 19.5602 19.1753 19.7766 19.1753 20.0015C19.1753 20.2264 19.2611 20.4428 19.4151 20.6066C19.5692 20.7704 19.7799 20.8693 20.0044 20.8832ZM20.8877 22.4982C21.4619 22.2942 21.9483 21.8986 22.265 21.378C22.5816 20.8573 22.7091 20.2435 22.6261 19.6398L26.7994 17.2398L25.9161 15.7032L21.8144 18.0698C21.3363 17.6176 20.7064 17.3603 20.0483 17.3486C19.3903 17.3369 18.7517 17.5715 18.2577 18.0065L14.2711 15.7115L13.3877 17.2365L17.3944 19.5482C17.2917 20.1644 17.4087 20.7972 17.7248 21.336C18.041 21.8748 18.5363 22.2855 19.1244 22.4965V27.0582H20.8894L20.8877 22.4982ZM32.3577 26.1782C32.3577 26.4124 32.2647 26.6371 32.099 26.8028C31.9334 26.9684 31.7087 27.0615 31.4744 27.0615C31.2401 27.0615 31.0154 26.9684 30.8498 26.8028C30.6841 26.6371 30.5911 26.4124 30.5911 26.1782C30.5911 25.9439 30.6841 25.7192 30.8498 25.5535C31.0154 25.3879 31.2401 25.2948 31.4744 25.2948C31.7087 25.2948 31.9334 25.3879 32.099 25.5535C32.2647 25.7192 32.3577 25.9439 32.3577 26.1782Z" fill="#EC1C24"/>
</svg>
