<svg width="40" height="40" viewBox="0 0 40 40" fill="none" xmlns="http://www.w3.org/2000/svg">
<path d="M15.2542 19.7181L19.1092 15.8602L15.4358 12.184L13.4596 14.1819L12.455 13.1777L14.4496 11.201L10.8121 7.56979L6.95417 11.4277L15.2542 19.7181ZM28.5342 33.014L32.3921 29.1498L28.7542 25.5119L26.7779 27.5065L25.7733 26.5023L27.7467 24.526L24.1304 20.891L20.2758 24.746L28.5342 33.014ZM11.7479 33.3335H6.66667V28.2523L14.2404 20.6785L5 11.4277L10.7842 5.60938L20.1046 14.891L27.8942 7.09854C28.0508 6.94187 28.215 6.83076 28.3867 6.76521C28.5583 6.69965 28.7418 6.66688 28.9371 6.66688C29.1179 6.66688 29.2942 6.69965 29.4658 6.76521C29.6375 6.83076 29.8017 6.94187 29.9583 7.09854L32.9017 10.141C33.0583 10.298 33.1642 10.4622 33.2192 10.6335C33.2739 10.8052 33.3013 10.9816 33.3013 11.1627C33.3013 11.3577 33.2739 11.5352 33.2192 11.6952C33.1642 11.8552 33.0583 12.0135 32.9017 12.1702L25.1763 19.9094L34.3908 29.1881L28.6004 34.994L19.3279 25.7535L11.7479 33.3335ZM8.07708 31.9231H11.1304L27.5233 15.5269L24.4667 12.4702L8.07708 28.8698V31.9231ZM25.9912 13.9844L24.4667 12.4702L27.5233 15.5269L25.9912 13.9844Z" fill="#EC1C24"/>
</svg>
