<svg width="40" height="41" viewBox="0 0 40 41" fill="none" xmlns="http://www.w3.org/2000/svg">
<path d="M18.0423 17.263C18.0419 15.3008 16.4499 13.71 14.4876 13.71C12.5257 13.7104 10.935 15.3011 10.9346 17.263C10.9346 19.2253 12.5254 20.8173 14.4876 20.8177V22.1507L14.237 22.1442C11.6549 22.0133 9.60156 19.8776 9.60156 17.263C9.602 14.5647 11.7893 12.3774 14.4876 12.377C17.1863 12.377 19.3749 14.5644 19.3753 17.263L19.3688 17.5153C19.2379 20.0974 17.1022 22.1507 14.4876 22.1507V20.8177C16.4502 20.8177 18.0423 19.2256 18.0423 17.263Z" fill="#EC1C24"/>
<path d="M22.7822 26.9307C22.782 26.9072 22.7634 26.8888 22.7399 26.8883H5.69727C5.67364 26.8886 5.65518 26.907 5.65495 26.9307C5.65495 31.2683 9.17056 34.7854 13.5081 34.7855H14.929C19.2664 34.7852 22.7822 31.2681 22.7822 26.9307ZM24.1152 26.9307C24.1152 32.0045 20.0028 36.1182 14.929 36.1185H13.5081C8.43418 36.1184 4.32031 32.0046 4.32031 26.9307C4.32054 26.1707 4.93726 25.5539 5.69727 25.5537H22.7399C23.4997 25.5541 24.115 26.1708 24.1152 26.9307Z" fill="#EC1C24"/>
<path d="M25.2985 18.2493L28.2982 14.6523L28.3763 14.5677C28.5686 14.3831 28.8262 14.278 29.0957 14.278H34.2992V6.14323H21.8366V14.278H24.2601C24.8335 14.278 25.2982 14.7431 25.2985 15.3164V18.2493ZM35.6826 14.6247C35.6826 15.1982 35.2177 15.6631 34.6442 15.6631H29.2568L25.751 19.8721C25.1292 20.6182 23.9134 20.1777 23.9134 19.2064V15.6631H21.4915C20.918 15.6631 20.4532 15.1982 20.4531 14.6247V5.79818C20.4531 5.22465 20.918 4.75977 21.4915 4.75977H34.6442C35.2177 4.75977 35.6826 5.22465 35.6826 5.79818V14.6247Z" fill="#EC1C24"/>
</svg>
