<svg width="64" height="64" viewBox="0 0 64 64" fill="none" xmlns="http://www.w3.org/2000/svg">
<path d="M12.4707 50.4609V13.539C12.4707 11.7872 13.1669 10.1058 14.4056 8.86715C15.6443 7.62845 17.3257 6.93225 19.0775 6.93225H30.4707C31.7321 6.93244 32.9431 7.43381 33.8353 8.32548V8.32808L50.1348 24.625C51.0267 25.5171 51.5276 26.7281 51.528 27.9895V50.4609C51.528 52.2127 50.8318 53.8941 49.5931 55.1328C48.3546 56.3709 46.675 57.0675 44.9238 57.0677H19.0775C17.3257 57.0677 15.6443 56.3715 14.4056 55.1328C13.1669 53.8941 12.4707 52.2127 12.4707 50.4609ZM14.6061 50.4609C14.6061 51.6469 15.0774 52.7837 15.916 53.6224C16.7546 54.461 17.8915 54.9323 19.0775 54.9323H44.9238C46.1095 54.932 47.2469 54.4608 48.0853 53.6224C48.9235 52.7838 49.3952 51.6466 49.3952 50.4609V27.9895C49.3948 27.2942 49.1183 26.6273 48.627 26.1354L32.3275 9.8359C31.8352 9.34372 31.1668 9.06777 30.4707 9.06767H19.0775C17.8915 9.06767 16.7546 9.53894 15.916 10.3776C15.0774 11.2162 14.6061 12.353 14.6061 13.539V50.4609Z" fill="#A6A6A6"/>
<path d="M30.9316 22.7682V8.92183C30.9316 8.33273 31.4102 7.85413 31.9993 7.85413C32.5885 7.85413 33.0671 8.33273 33.0671 8.92183V22.7682C33.0671 23.4645 33.3429 24.1326 33.8353 24.625C34.3277 25.1172 34.9958 25.3932 35.6921 25.3932H49.5384C50.1272 25.3935 50.6035 25.872 50.6035 26.4609C50.6032 27.0495 50.127 27.5257 49.5384 27.526H35.6921C34.43 27.526 33.2199 27.0251 32.3275 26.1328C31.435 25.2403 30.9317 24.0303 30.9316 22.7682Z" fill="#A6A6A6"/>
</svg>
