<svg width="120" height="120" viewBox="0 0 120 120" fill="none" xmlns="http://www.w3.org/2000/svg">
<path d="M97.9395 40.3856C97.9391 39.3142 97.3635 38.3236 96.4355 37.7879L61.4355 17.5779C60.5073 17.0421 59.3608 17.042 58.4326 17.5779L23.4326 37.7879C22.5053 38.3238 21.934 39.3146 21.9336 40.3856V79.6141C21.9339 80.6855 22.5047 81.676 23.4326 82.2117L58.4326 102.422C59.3608 102.958 60.5073 102.958 61.4355 102.422L96.4355 82.2117C97.3635 81.676 97.9391 80.6855 97.9395 79.6141V40.3856ZM101.938 79.6141C101.938 82.1143 100.603 84.4233 98.4375 85.6736L63.4326 105.884C61.2672 107.133 58.6009 107.134 56.4355 105.884L21.4307 85.6736C19.2661 84.4231 17.93 82.114 17.9297 79.6141L17.9346 40.3856C17.9349 37.8852 19.2701 35.5763 21.4355 34.326L56.4355 14.116C58.6008 12.8661 61.2672 12.8664 63.4326 14.116L98.4375 34.326C100.603 35.5763 101.938 37.8854 101.938 40.3856V79.6141Z" fill="#58595A"/>
<path d="M57.933 104.999V61.7468L21.4291 40.6725C20.474 40.1204 20.1463 38.899 20.6967 37.943C21.249 36.9865 22.4745 36.6583 23.4311 37.2106L59.9301 58.28L98.9389 35.7653C99.8948 35.2144 101.116 35.5427 101.668 36.4977C102.221 37.4543 101.893 38.6798 100.936 39.2321L61.937 61.7468V104.999C61.937 106.103 61.0396 107.001 59.935 107.001C58.8304 107.001 57.933 106.103 57.933 104.999Z" fill="#58595A"/>
<path d="M91.4352 72.109C92.3917 71.5567 93.6172 71.8848 94.1695 72.8414C94.7199 73.7974 94.3923 75.0188 93.4371 75.5709L78.4371 84.233C77.4806 84.7853 76.2551 84.4571 75.7027 83.5006C75.1505 82.5441 75.4787 81.3185 76.4352 80.7662L91.4352 72.109ZM76.4352 22.6705C77.3917 22.1182 78.6172 22.4464 79.1695 23.4029C79.7218 24.3595 79.3936 25.585 78.4371 26.1373L38.4371 49.233C37.4806 49.7853 36.2551 49.4571 35.7027 48.5006C35.1504 47.5441 35.4787 46.3186 36.4352 45.7662L76.4352 22.6705Z" fill="#58595A"/>
</svg>
