<svg width="120" height="120" viewBox="0 0 120 120" fill="none" xmlns="http://www.w3.org/2000/svg">
<path d="M23.3838 94.6143V25.3857C23.3838 22.1011 24.6892 18.9485 27.0117 16.626C29.3343 14.3034 32.4869 12.998 35.7715 12.998H57.1338C59.499 12.9984 61.7695 13.9385 63.4424 15.6104V15.6152L94.0039 46.1719C95.6763 47.8446 96.6155 50.1152 96.6162 52.4805V94.6143C96.6162 97.8989 95.3108 101.051 92.9883 103.374C90.6662 105.696 87.5169 107.002 84.2334 107.002H35.7715C32.4869 107.002 29.3343 105.697 27.0117 103.374C24.6892 101.051 23.3838 97.8989 23.3838 94.6143ZM27.3877 94.6143C27.3877 96.838 28.2713 98.9696 29.8438 100.542C31.4162 102.114 33.5477 102.998 35.7715 102.998H84.2334C86.4566 102.998 88.5891 102.114 90.1611 100.542C91.7327 98.9697 92.6172 96.8374 92.6172 94.6143V52.4805C92.6165 51.1767 92.0981 49.9264 91.1768 49.0039L60.6152 18.4424C59.6922 17.5196 58.439 17.0022 57.1338 17.002H35.7715C33.5477 17.002 31.4162 17.8856 29.8438 19.458C28.2713 21.0304 27.3877 23.162 27.3877 25.3857V94.6143Z" fill="#58595A"/>
<path d="M57.998 42.6904V16.7285C57.998 15.6239 58.8954 14.7266 60 14.7266C61.1046 14.7266 62.002 15.6239 62.002 16.7285V42.6904C62.0021 43.996 62.5192 45.2487 63.4424 46.1719C64.3656 47.0948 65.6184 47.6123 66.9238 47.6123H92.8857C93.9898 47.6129 94.8828 48.5101 94.8828 49.6143C94.8822 50.7179 93.9894 51.6107 92.8857 51.6113H66.9238C64.5575 51.6113 62.2886 50.6721 60.6152 48.999C58.9419 47.3257 57.9981 45.0568 57.998 42.6904Z" fill="#58595A"/>
</svg>
