<svg width="21" height="21" viewBox="0 0 21 21" fill="none" xmlns="http://www.w3.org/2000/svg">
<path d="M10.4083 2.17773C8.82449 2.17773 7.27624 2.64739 5.95935 3.52731C4.64245 4.40723 3.61606 5.6579 3.00996 7.12115C2.40386 8.58441 2.24528 10.1945 2.55426 11.7479C2.86325 13.3013 3.62593 14.7282 4.74586 15.8481C5.86578 16.968 7.29266 17.7307 8.84604 18.0397C10.3994 18.3487 12.0095 18.1901 13.4728 17.584C14.9361 16.9779 16.1867 15.9515 17.0666 14.6346C17.9466 13.3177 18.4162 11.7695 18.4162 10.1856C18.4162 9.13403 18.2091 8.09272 17.8067 7.12115C17.4042 6.14959 16.8144 5.2668 16.0708 4.5232C15.3272 3.77959 14.4444 3.18974 13.4728 2.7873C12.5012 2.38487 11.4599 2.17773 10.4083 2.17773ZM10.4083 3.77932C12.0537 3.77866 13.6353 4.41589 14.8207 5.55707C13.5971 6.27474 12.3005 6.85996 10.9528 7.3028C10.2822 6.14712 9.51324 5.05132 8.65457 4.02756C9.22471 3.8634 9.81501 3.77984 10.4083 3.77932ZM7.11705 4.70023C7.95603 5.65998 8.709 6.69163 9.36728 7.78327C7.79541 8.17358 6.18213 8.37255 4.56253 8.37586H4.27425C4.72846 6.83805 5.74285 5.52649 7.11705 4.70023ZM5.60356 14.4378C4.56153 13.2677 3.99083 11.7525 4.00198 10.1856C4.00198 10.1056 4.00198 10.0255 4.00198 9.95342H4.54651C6.44229 9.93647 8.32737 9.66717 10.1521 9.15263C10.4083 9.64111 10.6485 10.1456 10.8808 10.6661C9.63273 11.1061 8.4704 11.7591 7.44538 12.596L7.20514 12.7882C6.63427 13.3009 6.09916 13.8521 5.60356 14.4378ZM10.4083 16.592C9.13192 16.5948 7.88437 16.2124 6.82877 15.4949C7.21863 15.0477 7.63584 14.6252 8.078 14.2296L8.33426 14.0134C9.28173 13.2166 10.3674 12.6004 11.5374 12.1956C12.019 13.4977 12.3939 14.8368 12.6585 16.1996C11.9377 16.4628 11.1757 16.5957 10.4083 16.592ZM14.116 15.3988C13.854 14.1869 13.5115 12.9937 13.091 11.8273H13.3632C13.3948 11.8195 13.4278 11.8195 13.4593 11.8273H13.5474H13.6275H14.0119C14.8546 11.8297 15.691 11.9731 16.4863 12.2517C16.0493 13.5252 15.2194 14.6272 14.116 15.3988ZM14.0119 10.1856C13.8437 10.1856 13.6755 10.1856 13.5154 10.1856C13.4117 10.1726 13.3068 10.1726 13.2031 10.1856C12.9854 10.199 12.7688 10.2258 12.5544 10.2657H12.4743C12.2421 9.7292 12.0019 9.20868 11.7376 8.66414C13.1715 8.1717 14.5487 7.52741 15.8457 6.74224C16.4891 7.77476 16.8252 8.96913 16.8146 10.1856C16.8146 10.3218 16.8146 10.4579 16.8146 10.5941C15.9071 10.3139 14.9616 10.1762 14.0119 10.1856Z" fill="#FDFDFD"/>
</svg>
