<svg width="21" height="21" viewBox="0 0 21 21" fill="none" xmlns="http://www.w3.org/2000/svg">
<path d="M0.548828 3.11605C0.548828 2.49589 0.765883 1.98428 1.19998 1.5812C1.63407 1.1781 2.19841 0.976562 2.89296 0.976562C3.57512 0.976562 4.12703 1.175 4.54873 1.5719C4.98283 1.98119 5.19988 2.5145 5.19988 3.17186C5.19988 3.76719 4.98904 4.26329 4.56734 4.6602C4.13325 5.06949 3.56271 5.27414 2.85575 5.27414H2.83715C2.15499 5.27414 1.60307 5.06949 1.18137 4.6602C0.75967 4.2509 0.548828 3.73618 0.548828 3.11605ZM0.790683 19.3947V6.96712H4.92082V19.3947H0.790683ZM7.20914 19.3947H11.3393V12.4554C11.3393 12.0212 11.3889 11.6864 11.4881 11.4507C11.6617 11.029 11.9253 10.6724 12.2788 10.381C12.6323 10.0895 13.0757 9.94379 13.609 9.94379C14.9981 9.94379 15.6927 10.8802 15.6927 12.753V19.3947H19.8228V12.2693C19.8228 10.4337 19.3887 9.04149 18.5205 8.09267C17.6523 7.14386 16.505 6.66945 15.0787 6.66945C13.4788 6.66945 12.2323 7.35781 11.3393 8.73452V8.77173H11.3207L11.3393 8.73452V6.96712H7.20914C7.23393 7.364 7.24634 8.59807 7.24634 10.6694C7.24634 12.7406 7.23393 15.6491 7.20914 19.3947Z" fill="#FDFDFD"/>
</svg>
