<svg width="21" height="21" viewBox="0 0 21 21" fill="none" xmlns="http://www.w3.org/2000/svg">
<path d="M19.229 4.06002L20.8264 2.51575V2.17773H15.2926L11.3487 12.0974L6.86179 2.17773H1.05939V2.51575L2.9254 4.78578C3.10725 4.95353 3.20234 5.19882 3.17815 5.44581V14.3666C3.23571 14.6878 3.13227 15.0182 2.90872 15.2517L0.806641 17.826V18.1598H6.7667V17.8218L4.66462 15.2517C4.43689 15.0174 4.32929 14.6928 4.37517 14.3666V6.65036L9.607 18.1641H10.2151L14.7137 6.65036V15.8224C14.7137 16.0643 14.7137 16.114 14.5569 16.2725L12.9386 17.8547V18.1936H20.7897V17.8555L19.2298 16.3121C19.093 16.2076 19.0221 16.0323 19.0513 15.862V4.51014C19.0221 4.33903 19.0922 4.1637 19.229 4.06002Z" fill="#FDFDFD"/>
</svg>
