<svg width="17" height="17" viewBox="0 0 17 17" fill="none" xmlns="http://www.w3.org/2000/svg">
<path d="M8.40831 0.177734C6.82449 0.177734 5.27624 0.64739 3.95935 1.52731C2.64245 2.40723 1.61606 3.6579 1.00996 5.12115C0.40386 6.58441 0.245277 8.19453 0.554264 9.74791C0.863251 11.3013 1.62593 12.7282 2.74586 13.8481C3.86578 14.968 5.29266 15.7307 6.84604 16.0397C8.39942 16.3487 10.0095 16.1901 11.4728 15.584C12.9361 14.9779 14.1867 13.9515 15.0666 12.6346C15.9466 11.3177 16.4162 9.76946 16.4162 8.18565C16.4162 7.13403 16.2091 6.09272 15.8067 5.12115C15.4042 4.14959 14.8144 3.2668 14.0708 2.5232C13.3272 1.77959 12.4444 1.18974 11.4728 0.7873C10.5012 0.384865 9.45992 0.177734 8.40831 0.177734ZM8.40831 1.77932C10.0537 1.77866 11.6353 2.41589 12.8207 3.55707C11.5971 4.27474 10.3005 4.85996 8.95285 5.3028C8.28217 4.14712 7.51324 3.05132 6.65457 2.02756C7.22471 1.8634 7.81501 1.77984 8.40831 1.77932ZM5.11705 2.70023C5.95603 3.65998 6.709 4.69163 7.36728 5.78327C5.79541 6.17358 4.18213 6.37255 2.56253 6.37586H2.27425C2.72846 4.83805 3.74285 3.52649 5.11705 2.70023ZM3.60356 12.4378C2.56153 11.2677 1.99083 9.75248 2.00198 8.18565C2.00198 8.10557 2.00198 8.02549 2.00198 7.95342H2.54651C4.44229 7.93647 6.32737 7.66717 8.15205 7.15263C8.40831 7.64111 8.64855 8.14561 8.88077 8.66612C7.63273 9.10609 6.4704 9.75906 5.44538 10.596L5.20514 10.7882C4.63427 11.3009 4.09916 11.8521 3.60356 12.4378ZM8.40831 14.592C7.13192 14.5948 5.88437 14.2124 4.82877 13.4949C5.21863 13.0477 5.63584 12.6252 6.078 12.2296L6.33426 12.0134C7.28173 11.2166 8.36745 10.6004 9.53742 10.1956C10.019 11.4977 10.3939 12.8368 10.6585 14.1996C9.93766 14.4628 9.17572 14.5957 8.40831 14.592ZM12.116 13.3988C11.854 12.1869 11.5115 10.9937 11.091 9.82727H11.3632C11.3948 9.81947 11.4278 9.81947 11.4593 9.82727H11.5474H11.6275H12.0119C12.8546 9.82968 13.691 9.97313 14.4863 10.2517C14.0493 11.5252 13.2194 12.6272 12.116 13.3988ZM12.0119 8.18565C11.8437 8.18565 11.6755 8.18565 11.5154 8.18565C11.4117 8.17258 11.3068 8.17258 11.2031 8.18565C10.9854 8.19901 10.7688 8.22576 10.5544 8.26573H10.4743C10.2421 7.7292 10.0019 7.20868 9.73762 6.66414C11.1715 6.1717 12.5487 5.52741 13.8457 4.74224C14.4891 5.77476 14.8252 6.96913 14.8146 8.18565C14.8146 8.32178 14.8146 8.45792 14.8146 8.59405C13.9071 8.31395 12.9616 8.17618 12.0119 8.18565Z" fill="#FDFDFD"/>
</svg>
