<svg width="20" height="20" viewBox="0 0 20 20" fill="none" xmlns="http://www.w3.org/2000/svg">
<path d="M15.1986 3.92864C14.9715 3.92864 14.7495 3.99598 14.5607 4.12214C14.3719 4.2483 14.2247 4.42761 14.1378 4.63741C14.0509 4.84721 14.0282 5.07806 14.0725 5.30078C14.1168 5.52349 14.2261 5.72807 14.3867 5.88865C14.5473 6.04922 14.7519 6.15857 14.9746 6.20287C15.1973 6.24717 15.4282 6.22443 15.638 6.13753C15.8477 6.05063 16.0271 5.90347 16.1532 5.71466C16.2794 5.52585 16.3467 5.30387 16.3467 5.07679C16.3467 4.77228 16.2258 4.48024 16.0104 4.26493C15.7951 4.04961 15.5031 3.92864 15.1986 3.92864ZM19.5998 6.24406C19.5812 5.45022 19.4325 4.6648 19.1597 3.91907C18.9164 3.28103 18.5377 2.70327 18.0498 2.22556C17.576 1.73514 16.9969 1.35888 16.3563 1.12526C15.6125 0.844119 14.8262 0.692037 14.0313 0.675571C13.0171 0.618164 12.6918 0.618164 10.0893 0.618164C7.48688 0.618164 7.16158 0.618164 6.14738 0.675571C5.35244 0.692037 4.56615 0.844119 3.82239 1.12526C3.18295 1.36125 2.60434 1.73718 2.12888 2.22556C1.63846 2.69934 1.26221 3.27845 1.02858 3.91907C0.74744 4.66283 0.595358 5.44912 0.578891 6.24406C0.521484 7.25826 0.521484 7.58356 0.521484 10.186C0.521484 12.7885 0.521484 13.1138 0.578891 14.128C0.595358 14.9229 0.74744 15.7092 1.02858 16.453C1.26221 17.0936 1.63846 17.6727 2.12888 18.1465C2.60434 18.6349 3.18295 19.0108 3.82239 19.2468C4.56615 19.5279 5.35244 19.68 6.14738 19.6965C7.16158 19.7539 7.48688 19.7539 10.0893 19.7539C12.6918 19.7539 13.0171 19.7539 14.0313 19.6965C14.8262 19.68 15.6125 19.5279 16.3563 19.2468C16.9969 19.0132 17.576 18.6369 18.0498 18.1465C18.5399 17.6706 18.9189 17.0923 19.1597 16.453C19.4325 15.7072 19.5812 14.9218 19.5998 14.128C19.5998 13.1138 19.6572 12.7885 19.6572 10.186C19.6572 7.58356 19.6572 7.25826 19.5998 6.24406ZM17.8776 14.0132C17.8706 14.6205 17.7606 15.2223 17.5523 15.7928C17.3995 16.2092 17.1541 16.5854 16.8347 16.8931C16.5243 17.2093 16.1489 17.4542 15.7344 17.6107C15.1638 17.819 14.5621 17.929 13.9548 17.936C12.998 17.9838 12.644 17.9934 10.1276 17.9934C7.61127 17.9934 7.25726 17.9934 6.30047 17.936C5.66984 17.9478 5.04191 17.8507 4.44431 17.6489C4.04799 17.4845 3.68974 17.2402 3.39184 16.9314C3.07427 16.624 2.83197 16.2474 2.68382 15.8311C2.45023 15.2523 2.32067 14.6369 2.30111 14.0132C2.30111 13.0564 2.2437 12.7024 2.2437 10.186C2.2437 7.66967 2.2437 7.31566 2.30111 6.35888C2.30539 5.73798 2.41874 5.12266 2.63598 4.54099C2.80442 4.13714 3.06296 3.77714 3.39184 3.48852C3.68253 3.15955 4.04177 2.89828 4.44431 2.72309C5.02752 2.51264 5.6422 2.40265 6.2622 2.39779C7.21898 2.39779 7.57299 2.34038 10.0893 2.34038C12.6057 2.34038 12.9597 2.34038 13.9165 2.39779C14.5238 2.40475 15.1256 2.51475 15.6961 2.72309C16.1309 2.88446 16.5211 3.1468 16.8347 3.48852C17.1482 3.78242 17.3932 4.14175 17.5523 4.54099C17.7649 5.1236 17.875 5.73867 17.8776 6.35888C17.9254 7.31566 17.935 7.66967 17.935 10.186C17.935 12.7024 17.9254 13.0564 17.8776 14.0132ZM10.0893 5.27771C9.11898 5.2796 8.17095 5.56908 7.36504 6.10956C6.55913 6.65004 5.93151 7.41727 5.56148 8.31431C5.19145 9.21135 5.09561 10.1979 5.28608 11.1494C5.47655 12.1009 5.94477 12.9746 6.63159 13.6601C7.31841 14.3456 8.193 14.8121 9.14486 15.0007C10.0967 15.1893 11.0831 15.0916 11.9794 14.7198C12.8758 14.348 13.6418 13.7189 14.1807 12.9119C14.7196 12.105 15.0072 11.1564 15.0072 10.186C15.0085 9.54029 14.8821 8.90068 14.6353 8.30398C14.3884 7.70728 14.0261 7.16527 13.569 6.70911C13.112 6.25295 12.5693 5.89166 11.9721 5.64601C11.3749 5.40035 10.7351 5.27519 10.0893 5.27771ZM10.0893 13.3721C9.45919 13.3721 8.84319 13.1853 8.31924 12.8352C7.79529 12.4851 7.38692 11.9875 7.14577 11.4053C6.90462 10.8231 6.84153 10.1825 6.96446 9.56444C7.0874 8.9464 7.39085 8.37869 7.83643 7.93311C8.28201 7.48753 8.84972 7.18408 9.46776 7.06114C10.0858 6.93821 10.7264 7.0013 11.3086 7.24245C11.8908 7.4836 12.3884 7.89197 12.7385 8.41592C13.0886 8.93987 13.2754 9.55587 13.2754 10.186C13.2754 10.6044 13.193 11.0187 13.0329 11.4053C12.8728 11.7918 12.6381 12.1431 12.3423 12.4389C12.0464 12.7348 11.6952 12.9695 11.3086 13.1296C10.9221 13.2897 10.5077 13.3721 10.0893 13.3721Z" fill="#FDFDFD"/>
</svg>
