<svg width="21" height="21" viewBox="0 0 21 21" fill="none" xmlns="http://www.w3.org/2000/svg">
<path d="M15.1986 3.92815C14.9715 3.92815 14.7495 3.99549 14.5607 4.12165C14.3719 4.24781 14.2247 4.42713 14.1378 4.63692C14.0509 4.84672 14.0282 5.07757 14.0725 5.30029C14.1168 5.52301 14.2261 5.72759 14.3867 5.88816C14.5473 6.04873 14.7519 6.15808 14.9746 6.20238C15.1973 6.24668 15.4282 6.22394 15.638 6.13704C15.8477 6.05014 16.0271 5.90298 16.1532 5.71417C16.2794 5.52536 16.3467 5.30338 16.3467 5.0763C16.3467 4.77179 16.2258 4.47976 16.0104 4.26444C15.7951 4.04912 15.5031 3.92815 15.1986 3.92815ZM19.5998 6.24358C19.5812 5.44973 19.4325 4.66431 19.1597 3.91859C18.9164 3.28054 18.5377 2.70278 18.0498 2.22508C17.576 1.73465 16.9969 1.3584 16.3563 1.12477C15.6125 0.843631 14.8262 0.691549 14.0313 0.675083C13.0171 0.617676 12.6918 0.617676 10.0893 0.617676C7.48688 0.617676 7.16158 0.617676 6.14738 0.675083C5.35244 0.691549 4.56615 0.843631 3.82239 1.12477C3.18295 1.36076 2.60434 1.73669 2.12888 2.22508C1.63846 2.69885 1.26221 3.27796 1.02858 3.91859C0.74744 4.66234 0.595358 5.44863 0.578891 6.24358C0.521484 7.25777 0.521484 7.58308 0.521484 10.1855C0.521484 12.788 0.521484 13.1133 0.578891 14.1275C0.595358 14.9224 0.74744 15.7087 1.02858 16.4525C1.26221 17.0931 1.63846 17.6722 2.12888 18.146C2.60434 18.6344 3.18295 19.0103 3.82239 19.2463C4.56615 19.5274 5.35244 19.6795 6.14738 19.696C7.16158 19.7534 7.48688 19.7534 10.0893 19.7534C12.6918 19.7534 13.0171 19.7534 14.0313 19.696C14.8262 19.6795 15.6125 19.5274 16.3563 19.2463C16.9969 19.0127 17.576 18.6364 18.0498 18.146C18.5399 17.6701 18.9189 17.0918 19.1597 16.4525C19.4325 15.7068 19.5812 14.9213 19.5998 14.1275C19.5998 13.1133 19.6572 12.788 19.6572 10.1855C19.6572 7.58308 19.6572 7.25777 19.5998 6.24358ZM17.8776 14.0127C17.8706 14.62 17.7606 15.2218 17.5523 15.7923C17.3995 16.2087 17.1541 16.5849 16.8347 16.8926C16.5243 17.2088 16.1489 17.4537 15.7344 17.6102C15.1638 17.8185 14.5621 17.9285 13.9548 17.9355C12.998 17.9833 12.644 17.9929 10.1276 17.9929C7.61127 17.9929 7.25726 17.9929 6.30047 17.9355C5.66984 17.9473 5.04191 17.8502 4.44431 17.6485C4.04799 17.484 3.68974 17.2397 3.39184 16.9309C3.07427 16.6235 2.83197 16.247 2.68382 15.8306C2.45023 15.2519 2.32067 14.6364 2.30111 14.0127C2.30111 13.0559 2.2437 12.7019 2.2437 10.1855C2.2437 7.66919 2.2437 7.31518 2.30111 6.35839C2.30539 5.73749 2.41874 5.12217 2.63598 4.5405C2.80442 4.13665 3.06296 3.77666 3.39184 3.48803C3.68253 3.15906 4.04177 2.89779 4.44431 2.7226C5.02752 2.51215 5.6422 2.40216 6.2622 2.3973C7.21898 2.3973 7.57299 2.33989 10.0893 2.33989C12.6057 2.33989 12.9597 2.33989 13.9165 2.3973C14.5238 2.40426 15.1256 2.51426 15.6961 2.7226C16.1309 2.88397 16.5211 3.14631 16.8347 3.48803C17.1482 3.78194 17.3932 4.14126 17.5523 4.5405C17.7649 5.12312 17.875 5.73818 17.8776 6.35839C17.9254 7.31518 17.935 7.66919 17.935 10.1855C17.935 12.7019 17.9254 13.0559 17.8776 14.0127ZM10.0893 5.27722C9.11898 5.27911 8.17095 5.56859 7.36504 6.10907C6.55913 6.64955 5.93151 7.41678 5.56148 8.31382C5.19145 9.21087 5.09561 10.1975 5.28608 11.1489C5.47655 12.1004 5.94477 12.9741 6.63159 13.6596C7.31841 14.3451 8.193 14.8116 9.14486 15.0002C10.0967 15.1888 11.0831 15.0911 11.9794 14.7193C12.8758 14.3475 13.6418 13.7184 14.1807 12.9114C14.7196 12.1045 15.0072 11.1559 15.0072 10.1855C15.0085 9.5398 14.8821 8.90019 14.6353 8.30349C14.3884 7.70679 14.0261 7.16478 13.569 6.70862C13.112 6.25247 12.5693 5.89117 11.9721 5.64552C11.3749 5.39986 10.7351 5.2747 10.0893 5.27722ZM10.0893 13.3716C9.45919 13.3716 8.84319 13.1848 8.31924 12.8347C7.79529 12.4846 7.38692 11.987 7.14577 11.4048C6.90462 10.8226 6.84153 10.182 6.96446 9.56396C7.0874 8.94591 7.39085 8.37821 7.83643 7.93262C8.28201 7.48704 8.84972 7.18359 9.46776 7.06066C10.0858 6.93772 10.7264 7.00081 11.3086 7.24196C11.8908 7.48311 12.3884 7.89148 12.7385 8.41543C13.0886 8.93938 13.2754 9.55538 13.2754 10.1855C13.2754 10.6039 13.193 11.0182 13.0329 11.4048C12.8728 11.7914 12.6381 12.1426 12.3423 12.4384C12.0464 12.7343 11.6952 12.969 11.3086 13.1291C10.9221 13.2892 10.5077 13.3716 10.0893 13.3716Z" fill="#FDFDFD"/>
</svg>
