<svg width="21" height="17" viewBox="0 0 21 17" fill="none" xmlns="http://www.w3.org/2000/svg">
<path d="M19.229 2.06002L20.8264 0.515753V0.177734H15.2926L11.3487 10.0974L6.86179 0.177734H1.05939V0.515753L2.9254 2.78578C3.10725 2.95353 3.20234 3.19882 3.17815 3.44581V12.3666C3.23571 12.6878 3.13227 13.0182 2.90872 13.2517L0.806641 15.826V16.1598H6.7667V15.8218L4.66462 13.2517C4.43689 13.0174 4.32929 12.6928 4.37517 12.3666V4.65036L9.607 16.1641H10.2151L14.7137 4.65036V13.8224C14.7137 14.0643 14.7137 14.114 14.5569 14.2725L12.9386 15.8547V16.1936H20.7897V15.8555L19.2298 14.3121C19.093 14.2076 19.0221 14.0323 19.0513 13.862V2.51014C19.0221 2.33903 19.0922 2.1637 19.229 2.06002Z" fill="#FDFDFD"/>
</svg>
