<svg width="64" height="64" viewBox="0 0 64 64" fill="none" xmlns="http://www.w3.org/2000/svg">
<path d="M54.5996 18.0834H8.73503V46.3151C8.73503 50.8903 12.4437 54.599 17.0189 54.599H46.3158C50.8909 54.599 54.5996 50.8903 54.5996 46.3151V18.0834ZM17.0189 8.73442C12.8054 8.73442 9.32894 11.8795 8.80534 15.9506H54.5293C54.0057 11.8795 50.5293 8.73442 46.3158 8.73442H17.0189ZM56.735 46.3151C56.735 52.0685 52.0691 56.7344 46.3158 56.7344H17.0189C11.2655 56.7344 6.59961 52.0685 6.59961 46.3151V17.0183C6.59961 11.2649 11.2655 6.599 17.0189 6.599H46.3158C52.0691 6.599 56.735 11.2649 56.735 17.0183V46.3151Z" fill="#A6A6A6"/>
<path d="M26.2378 28.7284C26.6541 28.3125 27.3291 28.3129 27.7456 28.7284C28.1622 29.145 28.1622 29.8223 27.7456 30.2388L22.2117 35.7727C21.8981 36.0863 21.8983 36.5943 22.2117 36.9081L27.7456 42.4445C28.1621 42.8611 28.1621 43.5358 27.7456 43.9524C27.329 44.3684 26.6542 44.3687 26.2378 43.9524L20.7039 38.4185C19.557 37.2716 19.557 35.4118 20.7039 34.2649L26.2378 28.7284ZM36.2117 28.7284C36.628 28.3125 37.303 28.3129 37.7196 28.7284L43.256 34.2649C44.4022 35.4118 44.4027 37.2718 43.256 38.4185L37.7196 43.9524C37.3029 44.3683 36.6281 44.3687 36.2117 43.9524C35.7954 43.536 35.7958 42.8611 36.2117 42.4445L41.7456 36.9081C42.0594 36.5943 42.0594 36.0865 41.7456 35.7727L36.2117 30.2388C35.7952 29.8223 35.7952 29.145 36.2117 28.7284Z" fill="#A6A6A6"/>
</svg>
