<svg width="64" height="64" viewBox="0 0 64 64" fill="none" xmlns="http://www.w3.org/2000/svg">
<path d="M52.2344 21.539C52.2342 20.9676 51.9272 20.4393 51.4323 20.1536L32.7656 9.37495C32.2706 9.08914 31.6591 9.08911 31.1641 9.37495L12.4974 20.1536C12.0028 20.4394 11.6981 20.9678 11.6979 21.539V42.4609C11.6981 43.0323 12.0025 43.5606 12.4974 43.8463L31.1641 54.6249C31.6591 54.9108 32.2706 54.9108 32.7656 54.6249L51.4323 43.8463C51.9272 43.5606 52.2342 43.0323 52.2344 42.4609V21.539ZM54.3672 42.4609C54.367 43.7943 53.6547 45.0258 52.5 45.6927L33.8307 56.4713C32.6758 57.1378 31.2538 57.1379 30.099 56.4713L11.4297 45.6927C10.2752 45.0257 9.56267 43.7942 9.5625 42.4609L9.5651 21.539C9.5653 20.2055 10.2774 18.9741 11.4323 18.3072L30.099 7.52859C31.2538 6.86196 32.6758 6.86214 33.8307 7.52859L52.5 18.3072C53.6547 18.9741 54.367 20.2056 54.3672 21.539V42.4609Z" fill="#A6A6A6"/>
<path d="M30.8983 55.9993V32.9316L11.4295 21.692C10.9201 21.3975 10.7454 20.7461 11.0389 20.2362C11.3335 19.7261 11.9871 19.5511 12.4972 19.8456L31.9634 31.0826L52.7681 19.0748C53.2779 18.781 53.9292 18.9561 54.2238 19.4654C54.5183 19.9756 54.3433 20.6292 53.8332 20.9237L33.0337 32.9316V55.9993C33.0337 56.5884 32.5551 57.067 31.966 57.067C31.3769 57.067 30.8983 56.5884 30.8983 55.9993Z" fill="#A6A6A6"/>
<path d="M48.7654 38.4583C49.2756 38.1638 49.9292 38.3388 50.2238 38.849C50.5173 39.3588 50.3425 40.0102 49.8331 40.3047L41.8331 44.9245C41.323 45.219 40.6694 45.044 40.3748 44.5339C40.0803 44.0237 40.2553 43.3701 40.7654 43.0755L48.7654 38.4583ZM40.7654 12.0911C41.2756 11.7966 41.9292 11.9716 42.2238 12.4818C42.5183 12.9919 42.3433 13.6455 41.8331 13.9401L20.4998 26.2578C19.9896 26.5524 19.336 26.3773 19.0415 25.8672C18.7469 25.357 18.922 24.7034 19.4321 24.4089L40.7654 12.0911Z" fill="#A6A6A6"/>
</svg>
