<svg width="64" height="64" viewBox="0 0 64 64" fill="none" xmlns="http://www.w3.org/2000/svg">
<path d="M34.3893 15.5509C34.9058 15.6538 35.3813 15.908 35.7539 16.2801L47.4987 28.0301L47.7409 28.3088C47.963 28.603 48.1243 28.9421 48.2096 29.3036C48.3231 29.7851 48.2983 30.2899 48.1419 30.7593L43.0638 45.9989C42.9286 46.4054 42.6969 46.7735 42.3893 47.0718C42.0816 47.3702 41.7063 47.5898 41.2956 47.7124H41.293L10.1523 56.9676V56.9702C9.6848 57.109 9.18658 57.1149 8.71484 56.9911C8.24356 56.8671 7.81408 56.6174 7.47526 56.2671C7.13641 55.9167 6.90108 55.4794 6.79296 55.0041C6.6849 54.5285 6.70902 54.0318 6.86328 53.5692L16.9753 23.2385L17.0794 22.9728C17.198 22.7133 17.3582 22.4743 17.5534 22.2645C17.8141 21.9846 18.1323 21.7622 18.4857 21.6161H18.4883L32.8529 15.702L33.2253 15.5796C33.605 15.485 34.0024 15.4741 34.3893 15.5509ZM33.6654 17.6733L19.3008 23.59V23.5874C19.2304 23.6166 19.1679 23.6619 19.1159 23.7176C19.0897 23.7457 19.065 23.7759 19.0456 23.8088L18.9987 23.9129L9.34244 52.8739L25.0065 37.2124C25.4229 36.7968 26.0979 36.7968 26.5143 37.2124C26.9309 37.629 26.9309 38.3063 26.5143 38.7228L10.6341 54.5978L40.6862 45.6681L40.8034 45.6161C40.8396 45.5947 40.8745 45.57 40.9049 45.5405C40.9664 45.4808 41.0108 45.4057 41.0378 45.3244H41.0404L46.1185 30.0848C46.1498 29.9909 46.1542 29.8894 46.1315 29.7931C46.1201 29.7449 46.1033 29.698 46.0794 29.6551L45.9909 29.5379L34.2461 17.7879C34.172 17.7144 34.0776 17.6654 33.9753 17.6447C33.9239 17.6345 33.8706 17.6319 33.819 17.6369L33.6654 17.6733Z" fill="#58595A"/>
<path d="M31.526 35.1278C31.5255 34.3505 31.2163 33.6045 30.6667 33.0549C30.3942 32.7825 30.0694 32.5668 29.7135 32.4194C29.3577 32.2721 28.9763 32.1954 28.5911 32.1955C28.2061 32.1956 27.8245 32.2721 27.4688 32.4194C27.1129 32.5669 26.788 32.7824 26.5156 33.0549C26.2433 33.3273 26.0276 33.652 25.8802 34.008C25.733 34.3638 25.6588 34.7453 25.6589 35.1304C25.6589 35.5154 25.7329 35.897 25.8802 36.2528C26.0277 36.6087 26.2458 36.9335 26.5182 37.2059C27.0682 37.7551 27.8139 38.0626 28.5911 38.0627C29.3692 38.0625 30.1166 37.7536 30.6667 37.2033C31.2165 36.653 31.5262 35.9057 31.526 35.1278ZM55.4844 18.159C55.4844 17.0281 55.0362 15.9434 54.237 15.1434H54.2344L48.5833 9.48454C48.1871 9.08816 47.7157 8.77198 47.1979 8.55745C46.6804 8.34308 46.1253 8.23458 45.5651 8.23454C45.005 8.23454 44.4498 8.34317 43.9323 8.55745C43.4145 8.77198 42.9431 9.08816 42.5469 9.48454L35.0052 17.0288C34.5888 17.4445 33.9138 17.4446 33.4974 17.0288C33.0808 16.6123 33.0809 15.935 33.4974 15.5184L41.0391 7.97673C41.6332 7.38236 42.3382 6.91049 43.1146 6.5887C43.8912 6.26691 44.7244 6.09912 45.5651 6.09912C46.4057 6.09916 47.2391 6.26695 48.0156 6.5887C48.7918 6.91048 49.4971 7.38248 50.0911 7.97673L55.7422 13.633C56.942 14.8332 57.6172 16.462 57.6172 18.159C57.6172 19.8561 56.9446 21.4849 55.7448 22.6851L48.2031 30.2267C47.787 30.643 47.112 30.6449 46.6953 30.2293C46.2787 29.8128 46.2788 29.1355 46.6953 28.7189L54.237 21.1746C55.0362 20.3746 55.4844 19.2899 55.4844 18.159ZM33.6589 35.1278C33.6592 36.4716 33.1245 37.7606 32.1745 38.7111C31.2247 39.6613 29.9372 40.1949 28.5938 40.1955C27.2502 40.1958 25.9608 39.6633 25.0104 38.7137C24.54 38.2435 24.1662 37.6848 23.9115 37.0705C23.6567 36.4558 23.5236 35.7958 23.5234 35.1304C23.5233 34.4656 23.6548 33.8072 23.9089 33.1929C24.1634 32.5781 24.5374 32.0177 25.0078 31.547C25.4781 31.0766 26.0365 30.7028 26.651 30.4481C27.2657 30.1933 27.9258 30.0628 28.5911 30.0627C29.256 30.0626 29.9143 30.1939 30.5286 30.4481C31.1435 30.7026 31.7039 31.0766 32.1745 31.547C33.1241 32.4968 33.6583 33.7847 33.6589 35.1278Z" fill="#58595A"/>
</svg>
