<svg width="121" height="34" viewBox="0 0 121 34" fill="none" xmlns="http://www.w3.org/2000/svg">
<g clip-path="url(#clip0_2273_20277)">
<mask id="mask0_2273_20277" style="mask-type:luminance" maskUnits="userSpaceOnUse" x="39" y="9" width="25" height="24">
<path d="M60.4057 14.8936C61.1899 17.4878 61.0043 20.2785 59.8836 22.7461C57.2864 27.6777 52.7332 28.2858 49.5881 27.6552C48.4402 27.3877 47.3621 26.8795 46.4251 26.1643C45.4882 25.4491 44.7137 24.5431 44.1529 23.5064C43.0598 21.3373 43.1809 17.8819 45.5332 15.9444C46.0505 15.5093 46.6587 15.1957 47.3131 15.0267C47.9676 14.8576 48.6516 14.8375 49.3149 14.9677C50.7805 15.1748 52.8543 16.6756 52.7683 18.8758C52.6975 20.7027 51.3066 21.95 49.8568 21.6959C49.4382 21.632 49.0468 21.4494 48.7289 21.1696C48.4111 20.8899 48.1802 20.5248 48.0636 20.1178C47.9895 19.8262 47.9944 19.5203 48.0778 19.2313C48.1612 18.9423 48.32 18.6807 48.538 18.4734C48.676 18.3515 48.8384 18.2605 49.0143 18.2064C49.1903 18.1523 49.3758 18.1364 49.5584 18.1598C49.7673 18.1932 49.9626 18.2849 50.1218 18.4243C50.2809 18.5637 50.3976 18.7452 50.4583 18.9479C50.5443 19.3006 50.3101 19.8359 49.8945 19.8048C49.7911 19.7848 49.695 19.7374 49.6162 19.6676C49.5374 19.5977 49.4788 19.508 49.4465 19.4078C49.4231 19.3121 49.4311 19.2115 49.4694 19.1208C49.5076 19.0301 49.5741 18.9542 49.6589 18.9042C49.4419 18.8427 49.0396 19.3264 49.248 19.7737C49.3028 19.8876 49.3798 19.9893 49.4746 20.0728C49.5694 20.1564 49.68 20.22 49.7999 20.26C49.9556 20.2946 50.117 20.2945 50.2727 20.2597C50.4283 20.225 50.5745 20.1564 50.7007 20.059C50.827 19.9615 50.9303 19.8375 51.0033 19.6957C51.0763 19.5539 51.1173 19.3978 51.1233 19.2384C51.2967 18.0407 49.9527 17.463 49.9527 17.463C49.5532 17.3086 49.1154 17.2826 48.7004 17.3885C48.2853 17.4944 47.9136 17.727 47.6368 18.0539C47.2515 18.4549 47.006 18.9697 46.937 19.5215C46.868 20.0733 46.979 20.6327 47.2537 21.1163C47.6199 21.7608 48.1574 22.2913 48.8067 22.6491C49.4559 23.0068 50.1916 23.1778 50.9321 23.1431C51.9849 22.9696 52.9506 22.4525 53.6785 21.6723C54.4065 20.8922 54.8556 19.893 54.9559 18.8308C55.2728 16.5399 53.8171 14.4258 51.9061 13.1447C47.429 10.3656 42.7475 13.1547 41.0542 16.4533C39.9657 18.6812 39.6675 21.2132 40.2086 23.633C40.7498 26.0529 42.098 28.2166 44.0318 29.7687C48.9986 33.9295 55.2682 32.6412 58.2498 30.7705C60.0093 29.5927 62.5728 27.0571 63.3953 24.0377C64.1909 21.3622 64.0271 18.4928 62.9321 15.9252C61.6764 13.1954 59.4896 11.0021 56.7637 9.73828C58.4846 11.0338 59.7572 12.8353 60.403 14.8903" fill="white"/>
</mask>
<g mask="url(#mask0_2273_20277)">
<path d="M64.7668 9.7417H38.5547V33.9329H64.7668V9.7417Z" fill="url(#paint0_linear_2273_20277)"/>
</g>
<mask id="mask1_2273_20277" style="mask-type:luminance" maskUnits="userSpaceOnUse" x="1" y="1" width="118" height="44">
<path d="M118.946 1.02734H1.73438V44.8348H118.946V1.02734Z" fill="white"/>
</mask>
<g mask="url(#mask1_2273_20277)">
<path d="M34.6032 12.4712H38.6972L30.2677 31.8882H28.99L20.3594 12.4712H24.4917L29.6424 24.2125L34.6032 12.4712Z" fill="black"/>
<path d="M96.611 12.4712H100.705L92.2769 31.8882H90.9991L82.3672 12.4712H86.4995L91.6502 24.2125L96.611 12.4712Z" fill="black"/>
<path d="M118.947 22.3458H105.526C105.542 23.9826 106.201 25.5474 107.362 26.7018C107.947 27.2464 108.634 27.6697 109.383 27.9474C110.133 28.2251 110.93 28.3516 111.729 28.3197C114.217 28.3204 116.636 27.5045 118.616 25.9971V29.6894C117.556 30.4153 116.391 30.975 115.162 31.349C113.854 31.7025 112.503 31.8702 111.148 31.8472C109.355 31.9296 107.578 31.4745 106.045 30.5403C104.727 29.6483 103.653 28.4392 102.924 27.0241C102.116 25.4428 101.714 23.6861 101.752 21.9111C101.64 19.3211 102.523 16.7864 104.22 14.8269C105.025 13.9319 106.016 13.224 107.123 12.7528C108.231 12.2816 109.428 12.0586 110.63 12.0993C111.775 12.0534 112.916 12.2686 113.965 12.7285C115.014 13.1885 115.945 13.8811 116.688 14.7541C118.195 16.5248 118.949 18.8966 118.949 21.8694L118.947 22.3458ZM105.609 20.0848H115.213C115.204 18.7974 114.725 17.5577 113.865 16.5996C113.438 16.1841 112.931 15.8609 112.374 15.6503C111.817 15.4397 111.223 15.3461 110.628 15.3754C109.4 15.3278 108.203 15.7679 107.299 16.5996C106.369 17.545 105.776 18.7693 105.609 20.0848Z" fill="black"/>
<path d="M18.933 22.3455H5.51169C5.52709 23.9822 6.18626 25.547 7.3466 26.7015C7.93177 27.246 8.61894 27.6693 9.36849 27.947C10.118 28.2246 10.9151 28.3512 11.7138 28.3193C14.2021 28.32 16.6218 27.5041 18.6015 25.9967V29.6891C17.5414 30.4149 16.3766 30.9745 15.1474 31.3486C13.8394 31.7021 12.4882 31.8698 11.1335 31.8469C9.34022 31.9293 7.56319 31.474 6.03047 30.5393C4.71167 29.6473 3.63816 28.4382 2.90855 27.023C2.10084 25.4419 1.69796 23.6851 1.73601 21.9101C1.62426 19.3202 2.50731 16.7856 4.20417 14.8259C5.00885 13.931 5.99963 13.2232 7.10697 12.752C8.21431 12.2808 9.41136 12.0577 10.6141 12.0983C11.7592 12.0525 12.8997 12.2679 13.9492 12.728C14.9988 13.1882 15.9299 13.8812 16.672 14.7544C18.1794 16.5251 18.933 18.8969 18.933 21.8697V22.3455ZM5.59441 20.0844H15.1997C15.1908 18.797 14.7111 17.5573 13.8511 16.5992C13.4247 16.1836 12.9171 15.8604 12.3602 15.6498C11.8032 15.4392 11.2088 15.3457 10.6141 15.3751C9.38631 15.3276 8.18959 15.7677 7.28506 16.5992C6.35526 17.5446 5.76133 18.769 5.59441 20.0844Z" fill="black"/>
<path d="M68.4536 9.53804L64.9062 12.0982H68.4536V31.5569H72.2293V6.75293L68.4536 9.53804Z" fill="black"/>
<path d="M76.267 3.81179L72.75 6.34943H76.267V31.5537H80.0426V1.02734L76.267 3.81179Z" fill="black"/>
</g>
</g>
<defs>
<linearGradient id="paint0_linear_2273_20277" x1="1.72672" y1="44.819" x2="2.3296" y2="44.819" gradientUnits="userSpaceOnUse">
<stop stop-color="#208002"/>
<stop offset="0.213" stop-color="#218102"/>
<stop offset="0.296" stop-color="#248802"/>
<stop offset="0.31" stop-color="#268B03"/>
<stop offset="0.508" stop-color="#298D03"/>
<stop offset="0.656" stop-color="#329404"/>
<stop offset="0.789" stop-color="#42A107"/>
<stop offset="0.912" stop-color="#59B30A"/>
<stop offset="1" stop-color="#6FC40E"/>
</linearGradient>
<clipPath id="clip0_2273_20277">
<rect width="120" height="33.2308" fill="white" transform="translate(0.34375 0.10498)"/>
</clipPath>
</defs>
</svg>
