<svg width="102" height="28" viewBox="0 0 102 28" fill="none" xmlns="http://www.w3.org/2000/svg">
<g clip-path="url(#clip0_738_5431)">
<mask id="mask0_738_5431" style="mask-type:luminance" maskUnits="userSpaceOnUse" x="33" y="8" width="21" height="20">
<path d="M50.9175 12.461C51.5782 14.6469 51.4219 16.9983 50.4776 19.0774C48.2892 23.2328 44.4527 23.7452 41.8027 23.2139C40.8354 22.9884 39.9271 22.5602 39.1376 21.9576C38.3481 21.355 37.6955 20.5916 37.223 19.7181C36.302 17.8904 36.404 14.9789 38.3861 13.3464C38.8219 12.9798 39.3344 12.7156 39.8858 12.5731C40.4372 12.4307 41.0136 12.4138 41.5724 12.5235C42.8074 12.698 44.5548 13.9625 44.4823 15.8164C44.4226 17.3557 43.2507 18.4067 42.0291 18.1926C41.6764 18.1388 41.3466 17.9849 41.0787 17.7491C40.8109 17.5134 40.6164 17.2058 40.5181 16.8629C40.4557 16.6172 40.4598 16.3594 40.5301 16.1159C40.6003 15.8724 40.7342 15.652 40.9179 15.4774C41.0341 15.3746 41.1709 15.2979 41.3192 15.2524C41.4675 15.2068 41.6238 15.1934 41.7776 15.2131C41.9537 15.2413 42.1182 15.3185 42.2523 15.436C42.3865 15.5534 42.4847 15.7063 42.5359 15.8771C42.6084 16.1743 42.411 16.6254 42.0609 16.5991C41.9737 16.5823 41.8927 16.5424 41.8263 16.4836C41.7599 16.4247 41.7106 16.3491 41.6834 16.2646C41.6637 16.1841 41.6704 16.0993 41.7026 16.0228C41.7349 15.9464 41.7909 15.8824 41.8624 15.8403C41.6795 15.7885 41.3405 16.196 41.5161 16.5729C41.5623 16.6689 41.6272 16.7546 41.7071 16.825C41.7869 16.8954 41.8801 16.949 41.9811 16.9827C42.1123 17.0118 42.2483 17.0117 42.3795 16.9825C42.5107 16.9532 42.6338 16.8955 42.7402 16.8133C42.8466 16.7312 42.9336 16.6267 42.9951 16.5072C43.0566 16.3877 43.0912 16.2562 43.0962 16.1219C43.2423 15.1127 42.1099 14.626 42.1099 14.626C41.7732 14.4959 41.4044 14.474 41.0547 14.5632C40.705 14.6524 40.3917 14.8484 40.1585 15.1239C39.8339 15.4618 39.627 15.8955 39.5689 16.3605C39.5107 16.8254 39.6043 17.2967 39.8357 17.7042C40.1443 18.2473 40.5972 18.6943 41.1443 18.9957C41.6913 19.2971 42.3112 19.4412 42.9351 19.412C43.8222 19.2658 44.6359 18.8301 45.2493 18.1727C45.8626 17.5154 46.2411 16.6735 46.3255 15.7784C46.5926 13.8482 45.366 12.0668 43.7558 10.9874C39.9834 8.64574 36.0388 10.9958 34.612 13.7752C33.6949 15.6524 33.4437 17.7858 33.8996 19.8248C34.3556 21.8637 35.4916 23.6869 37.121 24.9947C41.3059 28.5005 46.5887 27.415 49.101 25.8388C50.5835 24.8464 52.7435 22.7099 53.4365 20.1658C54.1069 17.9114 53.9689 15.4937 53.0462 13.3303C51.9882 11.0302 50.1456 9.18207 47.8487 8.11719C49.2988 9.2088 50.3711 10.7267 50.9153 12.4582" fill="white"/>
</mask>
<g mask="url(#mask0_738_5431)">
<path d="M54.592 8.12012H32.5059V28.5035H54.592V8.12012Z" fill="url(#paint0_linear_738_5431)"/>
</g>
<mask id="mask1_738_5431" style="mask-type:luminance" maskUnits="userSpaceOnUse" x="1" y="0" width="100" height="38">
<path d="M100.248 0.777344H1.48633V37.6892H100.248V0.777344Z" fill="white"/>
</mask>
<g mask="url(#mask1_738_5431)">
<path d="M29.1873 10.4199H32.6368L25.5343 26.7806H24.4576L17.1855 10.4199H20.6674L25.0074 20.313L29.1873 10.4199Z" fill="black"/>
<path d="M81.4236 10.4199H84.8732L77.7717 26.7806H76.6951L69.4219 10.4199H72.9038L77.2437 20.313L81.4236 10.4199Z" fill="black"/>
<path d="M100.247 18.7403H88.9382C88.9514 20.1194 89.507 21.438 90.4848 22.4106C90.9779 22.8695 91.5569 23.2262 92.1885 23.4601C92.82 23.6941 93.4917 23.8007 94.1647 23.7738C96.2611 23.7744 98.2997 23.0869 99.9676 21.8168V24.9279C99.0744 25.5396 98.0929 26.0111 97.0572 26.3263C95.9551 26.6241 94.8166 26.7655 93.6751 26.7461C92.1644 26.8155 90.6673 26.432 89.3759 25.6449C88.2647 24.8933 87.3601 23.8745 86.7454 22.6821C86.0652 21.3498 85.726 19.8696 85.758 18.374C85.6637 16.1916 86.408 14.056 87.8382 12.4049C88.5161 11.6508 89.3509 11.0543 90.284 10.6573C91.217 10.2603 92.2257 10.0723 93.2391 10.1067C94.2038 10.068 95.1646 10.2493 96.0489 10.6368C96.9331 11.0244 97.7176 11.608 98.3429 12.3435C99.613 13.8355 100.248 15.834 100.248 18.3388L100.247 18.7403ZM89.0079 16.8351H97.1007C97.0932 15.7504 96.689 14.7059 95.9644 13.8985C95.6052 13.5484 95.1776 13.2762 94.7084 13.0987C94.2392 12.9212 93.7385 12.8424 93.2375 12.8671C92.2028 12.827 91.1942 13.1978 90.4319 13.8985C89.6484 14.6951 89.1486 15.7268 89.0079 16.8351Z" fill="black"/>
<path d="M15.9766 18.7398H4.66784C4.68081 20.1189 5.23623 21.4375 6.21392 22.4102C6.70698 22.869 7.28598 23.2256 7.91755 23.4596C8.54912 23.6936 9.22075 23.8002 9.89372 23.7734C11.9903 23.774 14.0291 23.0864 15.6972 21.8164V24.9275C14.8039 25.5391 13.8225 26.0106 12.7868 26.3258C11.6847 26.6237 10.5462 26.765 9.40476 26.7457C7.89373 26.8151 6.39642 26.4314 5.10495 25.6439C3.99375 24.8923 3.08921 23.8735 2.47445 22.6811C1.79388 21.3489 1.45441 19.8686 1.48648 18.373C1.39232 16.1908 2.13636 14.0552 3.56613 12.4039C4.24415 11.6499 5.07897 11.0535 6.01201 10.6565C6.94504 10.2594 7.95367 10.0714 8.96708 10.1057C9.93192 10.0671 10.8929 10.2485 11.7772 10.6363C12.6616 11.024 13.4461 11.6079 14.0714 12.3437C15.3415 13.8357 15.9766 15.8341 15.9766 18.339V18.7398ZM4.73753 16.8347H12.8309C12.8234 15.7499 12.4192 14.7054 11.6946 13.8981C11.3353 13.5479 10.9076 13.2756 10.4383 13.0981C9.96904 12.9207 9.4682 12.8419 8.96708 12.8666C7.93256 12.8266 6.92421 13.1974 6.16206 13.8981C5.37862 14.6947 4.87818 15.7263 4.73753 16.8347Z" fill="black"/>
<path d="M57.7058 7.94828L54.7168 10.1054H57.7058V26.5012H60.8872V5.60156L57.7058 7.94828Z" fill="black"/>
<path d="M64.2837 3.1235L61.3203 5.26169H64.2837V26.4986H67.465V0.777344L64.2837 3.1235Z" fill="black"/>
</g>
</g>
<defs>
<linearGradient id="paint0_linear_738_5431" x1="1.47489" y1="37.676" x2="1.98287" y2="37.676" gradientUnits="userSpaceOnUse">
<stop stop-color="#208002"/>
<stop offset="0.213" stop-color="#218102"/>
<stop offset="0.296" stop-color="#248802"/>
<stop offset="0.31" stop-color="#268B03"/>
<stop offset="0.508" stop-color="#298D03"/>
<stop offset="0.656" stop-color="#329404"/>
<stop offset="0.789" stop-color="#42A107"/>
<stop offset="0.912" stop-color="#59B30A"/>
<stop offset="1" stop-color="#6FC40E"/>
</linearGradient>
<clipPath id="clip0_738_5431">
<rect width="101.111" height="28" fill="white" transform="translate(0.310547)"/>
</clipPath>
</defs>
</svg>
