<svg width="40" height="40" viewBox="0 0 40 40" fill="none" xmlns="http://www.w3.org/2000/svg">
<path d="M5.26953 34.9998V28.4373C5.26953 28.0691 5.56866 27.77 5.93685 27.77C6.30504 27.77 6.60417 28.0691 6.60417 28.4373V34.9998C6.60417 35.368 6.30504 35.6671 5.93685 35.6671C5.56866 35.6671 5.26953 35.368 5.26953 34.9998ZM13.707 34.9998V21.8748C13.707 21.5066 14.0062 21.2075 14.3743 21.2075C14.7425 21.2075 15.0417 21.5066 15.0417 21.8748V34.9998C15.0417 35.368 14.7425 35.6671 14.3743 35.6671C14.0062 35.6671 13.707 35.368 13.707 34.9998ZM22.1445 34.9998V25.6248C22.1445 25.2566 22.4437 24.9575 22.8118 24.9575C23.18 24.9575 23.4792 25.2566 23.4792 25.6248V34.9998C23.4792 35.368 23.18 35.6671 22.8118 35.6671C22.4437 35.6671 22.1445 35.368 22.1445 34.9998ZM30.582 34.9998V17.1873C30.582 16.8191 30.8812 16.52 31.2493 16.52C31.6175 16.52 31.9167 16.8191 31.9167 17.1873V34.9998C31.9167 35.368 31.6175 35.6671 31.2493 35.6671C30.8812 35.6671 30.582 35.368 30.582 34.9998ZM33.5898 4.52778C33.8502 4.26743 34.2735 4.26743 34.5339 4.52778C34.7942 4.78813 34.7942 5.21144 34.5339 5.47179L24.6087 15.3953C23.6162 16.3877 22.0075 16.3877 21.015 15.3953L17.1038 11.4842C16.632 11.0125 15.8667 11.0125 15.3949 11.4842L6.40885 20.4718C6.1485 20.7321 5.72519 20.7321 5.46484 20.4718C5.20449 20.2114 5.20449 19.7881 5.46484 19.5278L14.4525 10.5418C15.445 9.54938 17.0537 9.54939 18.0462 10.5418L21.9574 14.4529C22.4292 14.9246 23.1945 14.9246 23.6663 14.4529L33.5898 4.52778Z" fill="#EC1C24"/>
<path d="M33.3945 11.5623V5.66715H26.5618C26.1937 5.66715 25.8945 5.36803 25.8945 4.99984C25.8945 4.63165 26.1937 4.33252 26.5618 4.33252H34.7292V11.5623C34.7292 11.9305 34.43 12.2297 34.0618 12.2297C33.6937 12.2297 33.3945 11.9305 33.3945 11.5623Z" fill="#EC1C24"/>
</svg>
