<svg width="40" height="40" viewBox="0 0 40 40" fill="none" xmlns="http://www.w3.org/2000/svg">
<path d="M24.6152 5.48828C24.9832 5.48855 25.2809 5.78758 25.2809 6.1556C25.2809 6.52362 24.9832 6.82265 24.6152 6.82292H24.127V12.4121H33.8454C34.2136 12.4121 34.5127 12.7112 34.5127 13.0794C34.5123 13.4473 34.2133 13.7451 33.8454 13.7451H33.3587V33.182H34.9993C35.3675 33.182 35.6665 33.4796 35.6667 33.8477C35.6667 34.2158 35.3675 34.515 34.9993 34.515H4.99935C4.63116 34.515 4.33203 34.2158 4.33203 33.8477C4.33217 33.4796 4.63124 33.182 4.99935 33.182H6.63997V6.82292H6.15332C5.78513 6.82292 5.486 6.52379 5.486 6.1556C5.486 5.78741 5.78513 5.48828 6.15332 5.48828H24.6152ZM24.127 33.182H32.0257V13.7451H24.127V33.182ZM18.1781 28.6556C18.1781 28.0686 17.7022 27.5914 17.1152 27.5911H13.6533C13.0661 27.5911 12.5889 28.0684 12.5889 28.6556V33.182H18.1781V28.6556ZM28.0885 27.4121C28.4567 27.4121 28.7559 27.7112 28.7559 28.0794V28.0908C28.7559 28.459 28.4567 28.7581 28.0885 28.7581H28.0755C27.7077 28.7577 27.4098 28.4588 27.4098 28.0908V28.0794C27.4098 27.7115 27.7077 27.4125 28.0755 27.4121H28.0885ZM28.0885 22.7962C28.4567 22.7962 28.7559 23.0954 28.7559 23.4635V23.4749C28.7559 23.8431 28.4567 24.1423 28.0885 24.1423H28.0755C27.7077 24.1418 27.4098 23.8429 27.4098 23.4749V23.4635C27.4098 23.0956 27.7077 22.7966 28.0755 22.7962H28.0885ZM13.0755 20.4883C13.4437 20.4883 13.7428 20.7874 13.7428 21.1556C13.7428 21.5238 13.4437 21.8229 13.0755 21.8229H11.9232C11.555 21.8229 11.2559 21.5238 11.2559 21.1556C11.2559 20.7874 11.555 20.4883 11.9232 20.4883H13.0755ZM18.8454 20.4883C19.2136 20.4883 19.5127 20.7874 19.5127 21.1556C19.5127 21.5238 19.2136 21.8229 18.8454 21.8229H17.6914C17.3233 21.8228 17.0257 21.5237 17.0257 21.1556C17.0257 20.7875 17.3233 20.4884 17.6914 20.4883H18.8454ZM28.0885 18.182C28.4566 18.182 28.7557 18.4796 28.7559 18.8477V18.8607C28.7556 19.2287 28.4566 19.5264 28.0885 19.5264H28.0755C27.7078 19.526 27.4101 19.2284 27.4098 18.8607V18.8477C27.41 18.4798 27.7078 18.1824 28.0755 18.182H28.0885ZM13.0755 15.874C13.4435 15.874 13.7426 16.1718 13.7428 16.5397C13.7428 16.9079 13.4437 17.207 13.0755 17.207H11.9232C11.555 17.207 11.2559 16.9079 11.2559 16.5397C11.2561 16.1718 11.5552 15.874 11.9232 15.874H13.0755ZM18.8454 15.874C19.2134 15.874 19.5124 16.1718 19.5127 16.5397C19.5127 16.9079 19.2136 17.207 18.8454 17.207H17.6914C17.3233 17.2069 17.0257 16.9078 17.0257 16.5397C17.026 16.1718 17.3235 15.8742 17.6914 15.874H18.8454ZM13.0755 11.2581C13.4437 11.2581 13.7428 11.5573 13.7428 11.9255C13.7425 12.2934 13.4435 12.5911 13.0755 12.5911H11.9232C11.5552 12.5911 11.2562 12.2934 11.2559 11.9255C11.2559 11.5573 11.555 11.2581 11.9232 11.2581H13.0755ZM18.8454 11.2581C19.2136 11.2581 19.5127 11.5573 19.5127 11.9255C19.5124 12.2934 19.2134 12.5911 18.8454 12.5911H17.6914C17.3235 12.591 17.0261 12.2933 17.0257 11.9255C17.0257 11.5573 17.3233 11.2583 17.6914 11.2581H18.8454ZM19.5127 33.182H22.7939V6.82292H7.97298V33.182H11.2559V28.6556C11.2559 27.332 12.3297 26.2581 13.6533 26.2581H17.1152C18.4386 26.2584 19.5127 27.3322 19.5127 28.6556V33.182Z" fill="#EC1C24"/>
</svg>
