<svg width="40" height="40" viewBox="0 0 40 40" fill="none" xmlns="http://www.w3.org/2000/svg">
<path d="M34.3345 17.7507C34.3343 17.3312 34.1671 16.9292 33.8706 16.6325C33.5737 16.3356 33.1708 16.1686 32.7508 16.1686C32.3309 16.1686 31.928 16.3356 31.6311 16.6325C31.3346 16.9292 31.1674 17.3312 31.1672 17.7507V24.502C31.1668 24.8696 30.8692 25.1673 30.5015 25.1676C30.1335 25.1676 29.8345 24.8698 29.8342 24.502V17.7507C29.8344 16.9773 30.1418 16.2353 30.6887 15.6885C31.2356 15.1417 31.9775 14.834 32.7508 14.834C33.5242 14.834 34.2661 15.1417 34.813 15.6885C35.3598 16.2353 35.6673 16.9773 35.6675 17.7507V25.6299L35.6594 25.7845C35.6235 26.1428 35.4654 26.4798 35.2085 26.7367L29.4729 32.4723C29.2125 32.7327 28.7892 32.7327 28.5288 32.4723C28.2691 32.212 28.269 31.7902 28.5288 31.5299L34.2661 25.7943C34.3096 25.7508 34.3341 25.6913 34.3345 25.6299V17.7507Z" fill="#EC1C24"/>
<path d="M23.082 32.002V27.2428C23.0823 26.2706 23.4686 25.3375 24.1562 24.6501L25.499 23.3089L25.7106 23.1136C26.2198 22.6789 26.8397 22.3896 27.5042 22.2819C28.2635 22.1589 29.0428 22.2782 29.7308 22.6221L30.3949 22.9541L30.3997 22.9557C30.6287 23.0721 30.8212 23.25 30.9564 23.4684C31.0577 23.6323 31.1242 23.8146 31.1517 24.0039L31.1663 24.1943V24.196C31.1672 24.38 31.1309 24.563 31.0605 24.7331C30.9905 24.9023 30.886 25.0547 30.7562 25.1839L30.7578 25.1855L29.4704 26.473C29.2101 26.733 28.7882 26.7331 28.528 26.473C28.2678 26.2127 28.268 25.791 28.528 25.5306L29.8171 24.2415C29.822 24.2366 29.8257 24.2301 29.8285 24.2236C29.8308 24.218 29.833 24.2118 29.8333 24.2057L29.8219 24.1699C29.8162 24.1606 29.8086 24.1527 29.7992 24.1471L29.1351 23.8151C28.6972 23.5962 28.2007 23.5203 27.7174 23.5986C27.2347 23.677 26.7875 23.9041 26.4414 24.2497L25.1003 25.5941C24.6628 26.0314 24.417 26.6243 24.4167 27.2428V32.002C24.4163 32.3698 24.1173 32.6676 23.7493 32.6676C23.3814 32.6676 23.0824 32.3698 23.082 32.002ZM8.83236 24.502V17.7507C8.83218 17.331 8.66517 16.9293 8.36849 16.6325C8.07156 16.3356 7.66862 16.1686 7.2487 16.1686C6.82901 16.1688 6.42731 16.3357 6.13053 16.6325C5.83376 16.9293 5.66684 17.331 5.66667 17.7507V25.6283L5.68457 25.7178C5.6962 25.7458 5.71317 25.7724 5.73503 25.7943L11.4707 31.5299C11.731 31.7902 11.7309 32.212 11.4707 32.4723C11.2104 32.7327 10.7887 32.7327 10.5283 32.4723L4.79264 26.7367C4.49875 26.4431 4.3324 26.0452 4.33203 25.6299V17.7507C4.3322 16.9773 4.6397 16.2353 5.18652 15.6885C5.73335 15.1416 6.47538 14.8342 7.2487 14.834C8.02225 14.834 8.76552 15.1415 9.3125 15.6885C9.85923 16.2353 10.1652 16.9774 10.1654 17.7507V24.502C10.165 24.8697 9.8675 25.1675 9.49967 25.1676C9.1317 25.1676 8.83271 24.8698 8.83236 24.502Z" fill="#EC1C24"/>
<path d="M15.5833 32.002V27.2428C15.583 26.6245 15.3369 26.0314 14.8997 25.5941L13.557 24.2513C13.2107 23.9053 12.7641 23.677 12.2809 23.5986C11.8581 23.5301 11.4257 23.5801 11.0309 23.7402L10.8633 23.8151L10.2025 24.1455L10.1748 24.1699C10.1699 24.1778 10.1675 24.1863 10.1667 24.1943C10.1676 24.2145 10.1754 24.2334 10.1895 24.248H10.1878L11.4704 25.5306C11.7306 25.791 11.7307 26.2127 11.4704 26.473C11.2101 26.733 10.7882 26.7331 10.528 26.473L9.24056 25.1855L9.23568 25.179C8.98186 24.9187 8.83646 24.5709 8.83203 24.2074V24.1992C8.83225 23.6696 9.13385 23.1918 9.60026 22.9557L10.2676 22.6221C10.9556 22.2781 11.7348 22.1589 12.4941 22.2819C13.2535 22.405 13.9551 22.7652 14.4993 23.3089L15.8405 24.6501H15.8421C16.5297 25.3375 16.916 26.2706 16.9163 27.2428V32.002C16.916 32.3698 16.617 32.6676 16.249 32.6676C15.8812 32.6675 15.5837 32.3697 15.5833 32.002ZM22.5007 7.33398C22.8685 7.33442 23.1663 7.63338 23.1663 8.0013V10.8333H26C26.3678 10.8337 26.6656 11.1327 26.6657 11.5007V16.5023C26.6654 16.87 26.3677 17.1676 26 17.168H23.1663V20.0016C23.1662 20.3694 22.8684 20.6669 22.5007 20.6673H17.499C17.1309 20.6673 16.8319 20.3697 16.8317 20.0016V17.168H13.9997C13.6316 17.168 13.3326 16.8702 13.3324 16.5023V11.5007C13.3324 11.1325 13.6315 10.8333 13.9997 10.8333H16.8317V8.0013C16.8317 7.63311 17.1308 7.33398 17.499 7.33398H22.5007ZM18.1647 11.5007C18.1647 11.8688 17.8671 12.1679 17.499 12.168H14.6654V15.835H17.499C17.8671 15.8351 18.1647 16.1341 18.1647 16.5023V19.3343H21.8333V16.5023C21.8333 16.1341 22.1325 15.835 22.5007 15.835H25.3327V12.168H22.5007C22.1325 12.168 21.8333 11.8688 21.8333 11.5007V8.66862H18.1647V11.5007Z" fill="#EC1C24"/>
</svg>
