<svg width="40" height="40" viewBox="0 0 40 40" fill="none" xmlns="http://www.w3.org/2000/svg">
<path d="M33.9241 29.6429H29.6384C29.3438 29.6429 29.1027 29.8839 29.1027 30.1786V31.7857H22.6741V30.1786C22.6741 29.8839 22.433 29.6429 22.1384 29.6429H20.5313V25.3571H28.0313C31.5777 25.3571 34.4598 22.475 34.4598 18.9286C34.4598 15.8804 32.3652 13.3036 29.4241 12.6607C28.492 8.19821 24.5866 5 19.9955 5C15.4045 5 11.4991 8.19821 10.567 12.6607C7.62589 13.3036 5.53125 15.8857 5.53125 18.9286C5.53125 22.475 8.41339 25.3571 11.9598 25.3571H19.4598V29.6429H17.8527C17.558 29.6429 17.317 29.8839 17.317 30.1786V31.7857H10.8884V30.1786C10.8884 29.8839 10.6473 29.6429 10.3527 29.6429H6.06696C5.77232 29.6429 5.53125 29.8839 5.53125 30.1786V34.4643C5.53125 34.7589 5.77232 35 6.06696 35H10.3527C10.6473 35 10.8884 34.7589 10.8884 34.4643V32.8571H17.317V34.4643C17.317 34.7589 17.558 35 17.8527 35H22.1384C22.433 35 22.6741 34.7589 22.6741 34.4643V32.8571H29.1027V34.4643C29.1027 34.7589 29.3438 35 29.6384 35H33.9241C34.2188 35 34.4598 34.7589 34.4598 34.4643V30.1786C34.4598 29.8839 34.2188 29.6429 33.9241 29.6429ZM9.81696 33.9286H6.60268V30.7143H9.81696V33.9286ZM11.9598 24.2857C9.00804 24.2857 6.60268 21.8804 6.60268 18.9286C6.60268 16.2821 8.49911 14.0643 11.1134 13.6464C11.3384 13.6089 11.5205 13.4321 11.558 13.2071C12.2598 9.07143 15.8062 6.07143 20.0009 6.07143C24.1955 6.07143 27.742 9.07143 28.4438 13.2071C28.4813 13.4321 28.658 13.6089 28.8884 13.6464C31.5027 14.0643 33.3991 16.2875 33.3991 18.9286C33.3991 21.8804 30.9938 24.2857 28.042 24.2857H11.9705H11.9598ZM21.6027 33.9286H18.3884V30.7143H21.6027V33.9286ZM33.3884 33.9286H30.1741V30.7143H33.3884V33.9286Z" fill="#EC1C24"/>
</svg>
