<svg width="40" height="40" viewBox="0 0 40 40" fill="none" xmlns="http://www.w3.org/2000/svg">
<path d="M34.3577 31.9855C34.3577 31.4569 33.9292 31.0288 33.4007 31.0285H6.60221C6.07342 31.0285 5.64518 31.4567 5.64518 31.9855V33.6099C5.64542 34.1385 6.07357 34.5669 6.60221 34.5669H33.4007C33.9291 34.5666 34.3575 34.1382 34.3577 33.6099V31.9855ZM35.6908 33.6099C35.6905 34.8746 34.6655 35.8996 33.4007 35.8999H6.60221C5.33719 35.8999 4.31079 34.8748 4.31055 33.6099V31.9855C4.31055 30.7203 5.33704 29.6938 6.60221 29.6938H33.4007C34.6656 29.6942 35.6908 30.7206 35.6908 31.9855V33.6099Z" fill="#EC1C24"/>
<path d="M34.3496 13.8312C34.3324 13.7047 34.2899 13.5821 34.2243 13.4715C34.1586 13.3607 34.0702 13.2658 33.9671 13.1899L33.8597 13.12L21.2409 6.21729C20.8609 6.0094 20.4337 5.90153 20.0007 5.90153C19.5678 5.90159 19.1418 6.00957 18.762 6.21729L6.1416 13.12C5.99127 13.2023 5.86614 13.3241 5.77865 13.4715C5.69108 13.6192 5.64526 13.7881 5.64518 13.9598V15.5793C5.64524 15.6608 5.67703 15.7397 5.7347 15.7974C5.79239 15.8549 5.87133 15.8869 5.9528 15.8869H34.0501C34.1313 15.8868 34.209 15.8545 34.2666 15.7974C34.3243 15.7397 34.3577 15.6608 34.3577 15.5793V13.9598L34.3496 13.8312ZM35.6908 15.5793C35.6907 16.0144 35.5183 16.432 35.2106 16.7397C34.9029 17.0474 34.4852 17.2198 34.0501 17.2199H31.6299V30.3742C31.6299 30.7423 31.3322 31.0413 30.9642 31.0415C30.596 31.0415 30.2969 30.7424 30.2969 30.3742V17.2199H24.7272V30.3742C24.7272 30.7423 24.4296 31.0414 24.0615 31.0415C23.6933 31.0415 23.3942 30.7424 23.3942 30.3742V17.2199H16.6071V30.3742C16.6071 30.7421 16.3093 31.0411 15.9414 31.0415C15.5732 31.0415 15.2741 30.7424 15.2741 30.3742V17.2199H9.70443V30.3742C9.70443 30.7422 9.40667 31.0412 9.03874 31.0415C8.67055 31.0415 8.37142 30.7424 8.37142 30.3742V17.2199H5.9528C5.51771 17.2199 5.10006 17.0473 4.79232 16.7397C4.4846 16.432 4.31061 16.0144 4.31055 15.5793V13.9598C4.31066 13.5489 4.4216 13.1446 4.63118 12.7912C4.84063 12.4381 5.14188 12.1485 5.50195 11.9513L18.1224 5.04867C18.6984 4.73352 19.3441 4.56696 20.0007 4.56689C20.6574 4.56689 21.3044 4.73341 21.8805 5.04867L34.4993 11.9513C34.8596 12.1484 35.1606 12.438 35.3701 12.7912C35.5797 13.1446 35.6906 13.5489 35.6908 13.9598V15.5793Z" fill="#EC1C24"/>
</svg>
