<svg width="40" height="40" viewBox="0 0 40 40" fill="none" xmlns="http://www.w3.org/2000/svg">
<path d="M8.22873 18.8012L12.6526 20.6778C13.197 19.5887 13.7939 18.5232 14.4431 17.4815C15.0924 16.4398 15.8066 15.438 16.5857 14.4763L13.7514 13.9364C13.5818 13.8939 13.4174 13.8991 13.2582 13.9521C13.0991 14.0053 12.9558 14.0955 12.8284 14.2227L8.22873 18.8012ZM13.7555 21.5541L18.6886 26.4835C20.1157 25.8088 21.4989 25.0164 22.8382 24.1063C24.1778 23.1961 25.414 22.1745 26.5467 21.0415C28.4181 19.1704 29.821 17.2265 30.7554 15.2098C31.6901 13.1933 32.247 10.7184 32.426 7.78487C29.4781 7.96359 27.0043 8.51673 25.0044 9.44427C23.0045 10.3718 21.0689 11.7713 19.1975 13.6426C18.0648 14.7754 17.0433 16.0168 16.1331 17.3669C15.223 18.717 14.4304 20.1127 13.7555 21.5541ZM22.9718 17.2142C22.5129 16.7693 22.2834 16.2226 22.2834 15.5738C22.2834 14.9249 22.5129 14.3709 22.9718 13.912C23.4308 13.453 23.9905 13.2235 24.6511 13.2235C25.3116 13.2235 25.8714 13.453 26.3303 13.912C26.7893 14.3709 27.0188 14.9249 27.0188 15.5738C27.0188 16.2226 26.7893 16.7693 26.3303 17.2142C25.8714 17.6732 25.3116 17.9026 24.6511 17.9026C23.9905 17.9026 23.4308 17.6732 22.9718 17.2142ZM21.3881 31.9925L25.9878 27.4139C26.1152 27.2865 26.2018 27.1398 26.2476 26.9737C26.2937 26.8074 26.3025 26.6465 26.2741 26.4909L25.7131 23.6566C24.7513 24.4217 23.7532 25.1283 22.7186 25.7764C21.6838 26.4246 20.6148 27.0281 19.5115 27.5868L21.3881 31.9925ZM33.8049 6.43451C33.9047 9.595 33.431 12.443 32.3838 14.9785C31.3368 17.5143 29.7257 19.8628 27.5504 22.0241C27.4401 22.1344 27.3368 22.2411 27.2405 22.3443C27.1445 22.4474 27.0414 22.5471 26.9311 22.6434L27.6331 26.1939C27.7037 26.604 27.6807 26.9969 27.564 27.3725C27.4474 27.7479 27.2484 28.0764 26.967 28.358L20.8991 34.4214L18.1496 27.9306L12.2587 22.0609L5.78906 19.2584L11.828 13.2223C12.1237 12.941 12.4599 12.7366 12.8367 12.6092C13.2131 12.482 13.6065 12.4608 14.0166 12.5455L17.6097 13.2583C17.72 13.1623 17.8179 13.0637 17.9034 12.9625C17.9889 12.8613 18.0868 12.7627 18.1972 12.6667C20.3727 10.4911 22.7243 8.88355 25.2518 7.84403C27.7793 6.80451 30.6303 6.33467 33.8049 6.43451ZM8.52081 26.8525C9.16786 26.1914 9.95088 25.8681 10.8699 25.8828C11.7889 25.8971 12.5789 26.2278 13.24 26.8748C13.8871 27.5219 14.2091 28.3049 14.2061 29.2239C14.2027 30.1432 13.8776 30.9334 13.2305 31.5945C12.6499 32.161 11.7577 32.6426 10.5538 33.0392C9.34962 33.4361 7.90493 33.713 6.21974 33.8699C6.37667 32.1847 6.65427 30.7355 7.05254 29.5222C7.45053 28.3089 7.93996 27.419 8.52081 26.8525ZM9.49966 27.888C9.15048 28.2557 8.83234 28.8219 8.54522 29.5867C8.25783 30.3516 8.05414 31.2152 7.93417 32.1778C8.89646 32.0435 9.76002 31.8315 10.5248 31.5419C11.2899 31.2523 11.8563 30.9258 12.224 30.5623C12.6129 30.196 12.8095 29.7479 12.8139 29.2181C12.8181 28.6886 12.6277 28.2293 12.243 27.8404C11.8541 27.4557 11.3947 27.2702 10.8649 27.284C10.3354 27.2978 9.88027 27.4991 9.49966 27.888Z" fill="#EC1C24"/>
</svg>
