<svg width="123" height="41" viewBox="0 0 123 41" fill="none" xmlns="http://www.w3.org/2000/svg">
<path d="M114.378 2.59477C113.118 2.05661 111.737 1.75146 110.283 1.75146C104.535 1.75146 99.875 6.41186 99.875 12.1597C99.875 17.9075 104.535 22.5679 110.283 22.5679C111.737 22.5679 113.118 22.2683 114.378 21.7246C109.323 21.4583 105.301 17.2806 105.301 12.1597C105.295 7.03879 109.318 2.86663 114.378 2.59477Z" fill="#861F41"/>
<path d="M98.0418 11.2718C96.7823 10.7337 95.4009 10.4341 93.9473 10.4341C88.1995 10.4341 83.5391 15.0945 83.5391 20.8423C83.5391 26.5901 88.1995 31.2505 93.9473 31.2505C95.4009 31.2505 96.7879 30.9509 98.0418 30.4127C92.9819 30.1409 88.9651 25.9687 88.9651 20.8478C88.9651 15.7159 92.9874 11.5382 98.0418 11.2718Z" fill="#861F41"/>
<path d="M107.195 11.2718C108.455 10.7337 109.836 10.4341 111.29 10.4341C117.038 10.4341 121.698 15.0945 121.698 20.8423C121.698 26.5901 117.038 31.2505 111.29 31.2505C109.836 31.2505 108.449 30.9509 107.195 30.4127C112.25 30.1409 116.272 25.9687 116.272 20.8478C116.272 15.7159 112.255 11.5382 107.195 11.2718Z" fill="#861F41"/>
<path d="M90.8672 19.9439C92.1266 19.4057 93.5081 19.1006 94.9617 19.1006C100.709 19.1006 105.37 23.761 105.37 29.5088C105.37 35.2566 100.709 39.917 94.9617 39.917C93.5081 39.917 92.1266 39.6174 90.8672 39.0792C95.9215 38.8074 99.9439 34.6352 99.9439 29.5143C99.9439 24.3879 95.9215 20.2158 90.8672 19.9439Z" fill="#861F41"/>
<path d="M78.555 1.76221H78.0391V39.9275H78.555V1.76221Z" fill="#861F41"/>
<path d="M17.4395 28.837V26.2904C17.4395 25.9131 17.445 25.4859 17.4561 25.031C17.3396 25.325 17.2398 25.5691 17.1454 25.7855L15.8527 28.837H15.4255L14.1162 25.7855C14.0274 25.5691 13.9275 25.3195 13.8277 25.0532C13.8443 25.4471 13.8499 25.8576 13.8499 26.2904V28.837H12.9844V23.5552H14.0607L15.309 26.5289L15.6364 27.3723L15.9581 26.5345L17.2065 23.5607H18.2828V28.8425H17.4395V28.837Z" fill="#861F41"/>
<path d="M24.002 28.837V26.2904C24.002 25.9131 24.0075 25.4859 24.0186 25.031C23.9021 25.325 23.8023 25.5691 23.7079 25.7855L22.4152 28.837H21.988L20.6787 25.7855C20.5899 25.5691 20.49 25.3195 20.3902 25.0532C20.4068 25.4471 20.4124 25.8576 20.4124 26.2904V28.837H19.5469V23.5552H20.6232L21.8715 26.5289L22.1989 27.3723L22.5206 26.5345L23.769 23.5607H24.8564V28.8425H24.002V28.837Z" fill="#861F41"/>
<path d="M48.2422 28.837V23.5552H49.1188V28.0325H51.216L50.9829 28.837H48.2422Z" fill="#861F41"/>
<path d="M41.6132 23.5552H40.7422V28.837H41.6132V23.5552Z" fill="#861F41"/>
<path d="M26.1953 28.837V23.5552H29.2523V24.3596H27.0608V25.7356H29.0359V26.5511H27.0608V28.0325H29.3855V28.837H26.1953Z" fill="#861F41"/>
<path d="M45.5989 26.5179L45.5878 26.4846C45.5545 26.4013 45.5212 26.3015 45.4824 26.2238L45.4713 26.1961C45.2771 25.7023 45.1439 25.3639 44.9498 24.8201C44.9387 24.8423 44.9331 24.859 44.9276 24.8867C44.7611 25.3472 44.5891 25.7966 44.4171 26.2238L44.2951 26.5179H45.5989ZM46.5088 28.8425L45.9207 27.3223H43.9677C43.8845 27.5332 43.8013 27.7495 43.7181 27.9659C43.6127 28.2489 43.5017 28.5429 43.3908 28.8092L43.3797 28.837H42.4531L44.6058 23.5552H45.2993L47.4464 28.837H46.5088V28.8425Z" fill="#861F41"/>
<path d="M9.1684 24.3543C8.25297 24.3543 7.32644 24.9535 7.32644 26.2961C7.32644 27.4778 8.04769 28.2379 9.1684 28.2379C10.0228 28.2379 11.0159 27.7275 11.0159 26.2961C11.0159 24.9535 10.0894 24.3543 9.1684 24.3543ZM9.1684 29.048C7.54836 29.048 6.46094 27.9439 6.46094 26.2961C6.46094 24.6816 7.5761 23.5498 9.1684 23.5498C10.7607 23.5498 11.8703 24.6761 11.8703 26.2961C11.8703 27.9161 10.7607 29.048 9.1684 29.048Z" fill="#861F41"/>
<path d="M31.9074 25.9575C32.0905 25.9575 32.2514 25.9519 32.3734 25.9353C32.4955 25.9242 32.612 25.902 32.7119 25.8687C32.9005 25.8132 33.0503 25.7189 33.1502 25.5969C33.25 25.4748 33.2944 25.3139 33.2944 25.1086C33.2944 24.92 33.2445 24.7702 33.1557 24.6592C33.0614 24.5483 32.9338 24.4651 32.7618 24.4096C32.6786 24.3818 32.5787 24.3652 32.4622 24.3541C32.3402 24.343 32.1848 24.3375 31.9962 24.3375H31.4192V25.9519H31.9074V25.9575ZM33.5219 28.8314L31.9851 26.7398H31.4192V28.8314H30.5703V23.5552H31.9906C32.2125 23.5552 32.4067 23.5607 32.5676 23.5829C32.723 23.5996 32.8728 23.6273 33.0115 23.6661C33.3832 23.766 33.6772 23.9435 33.877 24.1932C34.0767 24.4429 34.1821 24.7591 34.1821 25.1308C34.1821 25.3472 34.1488 25.5525 34.0767 25.7245C34.0046 25.8965 33.9047 26.0518 33.7771 26.1794C33.6495 26.307 33.4942 26.4124 33.3166 26.4901C33.1946 26.5511 33.0559 26.5955 32.9061 26.6288L34.4318 28.837H33.5219V28.8314Z" fill="#861F41"/>
<path d="M39.4609 27.8773C39.0725 28.0659 38.4678 28.2379 38.0517 28.2379C36.7479 28.2379 35.9046 27.4945 35.9046 26.3349C35.9046 25.0367 36.9753 24.3487 38.035 24.3487C38.207 24.3487 38.4678 24.3931 38.7452 24.4652V25.3085H39.5108V23.9215L39.4942 23.9049C39.2334 23.6941 38.3846 23.5498 38.0184 23.5498C36.3207 23.5498 35.0391 24.7593 35.0391 26.3682C35.0391 27.9716 36.2319 29.0424 38.0184 29.0424C38.4123 29.0424 39.1391 28.876 39.4387 28.6651L39.4498 28.654L39.4553 28.6429V27.8773H39.4609Z" fill="#861F41"/>
<path d="M5.45183 27.866C5.06901 28.0602 4.51975 28.2378 4.02042 28.2378C2.71662 28.2378 1.87886 27.4943 1.87886 26.3348C1.87886 25.031 2.94964 24.3486 4.00933 24.3486C4.18132 24.3486 4.44208 24.3929 4.71948 24.4651V25.3084H5.48512V23.9213L5.45738 23.9047C5.19662 23.6994 4.34776 23.5552 3.98159 23.5552C2.28387 23.5552 1.00781 24.7647 1.00781 26.3736C1.00781 27.977 2.20065 29.0533 3.98159 29.0533C4.3866 29.0533 5.14114 28.8813 5.44073 28.6761L5.44628 28.6705V27.866H5.45183Z" fill="#861F41"/>
<path d="M73.8004 28.8544L71.437 26.1746L73.5952 23.5837H72.5188L70.4993 26.0304V23.5781H69.6172V28.8544H70.4993V26.3966L72.6908 28.8544H73.8004Z" fill="#861F41"/>
<path d="M67.6983 28.8485L67.0048 27.9553C66.8883 27.7999 65.4125 25.8359 65.2516 25.564C65.0963 25.3643 64.9686 25.1757 64.8299 24.9537C64.841 25.3088 64.8466 25.7194 64.8466 26.1521V28.8485H63.9922V23.5723H64.7856L65.5013 24.4877L67.2101 26.8456C67.2822 26.94 67.3488 27.0343 67.4154 27.123C67.493 27.2285 67.5762 27.3339 67.6484 27.4504C67.6373 27.123 67.6262 26.7735 67.6262 26.363V23.5723H68.4861V28.8485H67.6983Z" fill="#861F41"/>
<path d="M61.3388 26.5349L61.2223 26.2298L61.0947 25.908C60.9393 25.4864 60.8339 25.2145 60.6786 24.815L60.1515 26.2298C60.1238 26.3075 60.096 26.3574 60.0738 26.4129C60.0572 26.4517 60.0406 26.4906 60.0184 26.5405H61.3388V26.5349ZM62.2432 28.8485L61.6384 27.3283H59.7021C59.6189 27.5391 59.5357 27.7666 59.4525 27.983C59.347 28.2604 59.2416 28.5489 59.1251 28.8208L59.114 28.8485H58.1875L60.3346 23.5723H61.0448L63.1919 28.8485H62.2432Z" fill="#861F41"/>
<path d="M55.6387 25.7585C55.7552 25.7585 55.8551 25.753 55.9383 25.7419C56.016 25.7308 56.0937 25.7197 56.1547 25.6919C56.3156 25.642 56.4321 25.5532 56.5042 25.4478C56.5763 25.3369 56.6152 25.1982 56.6152 25.0373C56.6152 24.8764 56.5763 24.7488 56.5042 24.6545C56.4266 24.5546 56.3045 24.4825 56.1325 24.4325C56.0493 24.4048 55.9439 24.3881 55.8274 24.377C55.7053 24.366 55.5611 24.3604 55.3946 24.3604H54.8232V25.7474H55.6387V25.7585ZM55.4445 28.061C55.6221 28.061 55.7774 28.0554 55.9217 28.0388C56.0659 28.0221 56.1824 27.9999 56.2823 27.9667C56.3877 27.9334 56.4765 27.889 56.5431 27.8391C56.6152 27.7891 56.6707 27.7281 56.7095 27.6671C56.7483 27.6116 56.7761 27.545 56.7983 27.4784C56.8149 27.4063 56.826 27.3342 56.826 27.2621C56.826 27.1788 56.8149 27.0956 56.7983 27.0235C56.7816 26.9514 56.7483 26.8959 56.7095 26.8348C56.6651 26.7794 56.6096 26.735 56.5375 26.6906C56.4654 26.6518 56.3711 26.6129 56.2601 26.5852C56.188 26.5685 56.1048 26.5574 56.0215 26.5519C55.9272 26.5464 55.8107 26.5408 55.672 26.5408H54.8287V28.0499H55.4445V28.061ZM53.9688 28.8599V23.5781H55.3336C55.4445 23.5781 55.5555 23.5837 55.6498 23.5837C55.7441 23.5892 55.8274 23.5948 55.9161 23.6003C55.9938 23.6059 56.0715 23.617 56.1436 23.6281C56.2157 23.6392 56.2768 23.6503 56.3433 23.6669C56.5098 23.7113 56.6651 23.7779 56.7983 23.8555C56.937 23.9332 57.059 24.0331 57.1533 24.1496C57.2477 24.2605 57.3309 24.3937 57.3808 24.5379C57.4363 24.6822 57.4585 24.8375 57.4585 25.004C57.4585 25.1371 57.4419 25.2647 57.4141 25.3868C57.3808 25.5144 57.3309 25.6309 57.2588 25.7363C57.1866 25.8417 57.0979 25.9416 56.9814 26.0248C56.9536 26.047 56.9148 26.0692 56.8815 26.0914C56.9259 26.1081 56.9703 26.1247 57.0146 26.1469C57.1533 26.2135 57.2699 26.3022 57.3697 26.4021C57.4696 26.5075 57.5473 26.6351 57.5972 26.7794C57.6527 26.9181 57.6804 27.0845 57.6804 27.2621C57.6804 27.3897 57.6582 27.5284 57.6194 27.6671C57.5805 27.8058 57.5195 27.9445 57.4308 28.0776C57.3475 28.2108 57.231 28.3328 57.0868 28.4438C56.9481 28.5548 56.7705 28.6435 56.5653 28.7157C56.4099 28.7656 56.2324 28.8044 56.0437 28.8266C55.8606 28.8433 55.6387 28.8599 55.378 28.8599H53.9688Z" fill="#861F41"/>
<path d="M73 4.12012H73.7989V9.35196L73.0499 9.79581L73 9.82355V4.12012Z" fill="#861F41"/>
<path d="M58.4666 9.38494C57.5956 9.38494 57.1406 8.92445 57.1406 8.0534V6.77734L57.9395 6.25027V8.08114C57.9395 8.4695 58.0672 8.60821 58.4167 8.60821H62.6332V4.11426H63.4211V8.60821H65.3795V5.75094H66.1507V8.61375H68.1147V5.75094H68.897V8.61375H70.3506C70.7445 8.61375 70.8666 8.48615 70.8666 8.08669V4.11981H71.6655V8.14217C71.6655 8.94109 71.205 9.38494 70.3673 9.38494H58.4666Z" fill="#861F41"/>
<path d="M68.522 10.939C68.2779 10.939 68.0781 10.7392 68.0781 10.4951C68.0781 10.251 68.2779 10.0513 68.522 10.0513C68.7661 10.0513 68.9658 10.251 68.9658 10.4951C68.9658 10.7392 68.7661 10.939 68.522 10.939Z" fill="#861F41"/>
<path d="M65.7642 4.98539C65.5089 4.98539 65.3203 4.78566 65.3203 4.51935C65.3203 4.27524 65.5145 4.08105 65.7642 4.08105C65.9972 4.08105 66.1914 4.28079 66.1914 4.51935C66.1914 4.77457 65.9916 4.98539 65.7642 4.98539Z" fill="#861F41"/>
<path d="M59.5234 6.68834V6.32217H59.8286C59.7897 6.22785 59.7676 6.10579 59.7676 6.02257C59.7676 5.69523 59.9784 5.3457 60.3778 5.3457H60.7884V5.72297H60.4999C60.2835 5.72297 60.167 5.82839 60.167 6.02257C60.167 6.2112 60.2891 6.32217 60.4999 6.32217H61.0381V6.68834H59.5234Z" fill="#861F41"/>
<path d="M53.9297 4.12012H54.7286V9.35196L53.9297 9.82355V4.12012Z" fill="#861F41"/>
<path d="M43.2924 9.38525C42.6321 9.38525 42.1328 8.87483 42.1328 8.20351V4.12012H42.9151V8.17577C42.9151 8.28118 42.9428 8.61406 43.2646 8.61406H46.2606V7.02176C46.2606 6.67224 46.1219 6.53353 45.7724 6.53353H44.1967V5.75125H45.7557C46.5435 5.75125 47.0373 6.23394 47.0373 7.01067V8.61406H48.9958V5.75125H49.767V8.61406H51.1928C51.5923 8.61406 51.7199 8.48646 51.7199 8.087V4.12012H52.5022V8.14248C52.5022 8.9414 52.0417 9.38525 51.215 9.38525H43.2924Z" fill="#861F41"/>
<path d="M45.4204 10.9443C45.1763 10.9443 44.9766 10.7446 44.9766 10.5005C44.9766 10.2564 45.1763 10.0566 45.4204 10.0566C45.6645 10.0566 45.8643 10.2564 45.8643 10.5005C45.8698 10.7446 45.6701 10.9443 45.4204 10.9443Z" fill="#861F41"/>
<path d="M35.5041 11.9427C35.2544 11.9427 35.0547 11.743 35.0547 11.4933C35.0547 11.2437 35.2544 11.0439 35.5041 11.0439C35.7537 11.0439 35.9535 11.2437 35.9535 11.4933C35.9535 11.7375 35.7482 11.9427 35.5041 11.9427Z" fill="#861F41"/>
<path d="M36.6056 11.9427C36.356 11.9427 36.1562 11.743 36.1562 11.4933C36.1562 11.2437 36.356 11.0439 36.6056 11.0439C36.8553 11.0439 37.055 11.2437 37.055 11.4933C37.0495 11.7375 36.8498 11.9427 36.6056 11.9427Z" fill="#861F41"/>
<path d="M48.2541 4.99107C48.01 4.99107 47.8047 4.79134 47.8047 4.54168C47.8047 4.29202 48.0044 4.09229 48.2541 4.09229C48.5037 4.09229 48.7035 4.29756 48.7035 4.54168C48.7035 4.7858 48.5037 4.99107 48.2541 4.99107Z" fill="#861F41"/>
<path d="M49.368 4.99662C49.1239 4.99662 48.9297 4.79134 48.9297 4.53058C48.9297 4.28647 49.1239 4.09229 49.368 4.09229C49.6066 4.09229 49.7952 4.28647 49.7952 4.53058C49.7952 4.79689 49.6121 4.99662 49.368 4.99662Z" fill="#861F41"/>
<path d="M35.9055 10.6114C33.309 10.6114 33.2812 8.40882 33.2812 8.38663V7.4601L34.0191 6.95522L34.0746 6.92193V8.38663C34.0746 8.44211 34.0968 9.81249 35.911 9.81249C37.5644 9.81249 37.7086 8.65294 37.7253 8.43101H37.0484C36.2273 8.43101 35.8056 7.98162 35.8056 7.10502C35.8056 6.45035 36.133 5.75684 37.0484 5.75684H38.3078V6.53912H37.0484C36.7377 6.53912 36.5879 6.7222 36.5879 7.10502C36.5879 7.49339 36.7266 7.66538 37.0484 7.66538H38.5131V8.40327C38.5131 8.42546 38.5075 8.96363 38.1913 9.51289C37.8973 10.0178 37.2648 10.6225 35.9277 10.6225H35.9055V10.6114Z" fill="#861F41"/>
<path d="M39.5079 10.6166L38.9531 9.92868L39.0142 9.92314C39.8408 9.83437 40.1793 9.47929 40.1793 8.69146V5.75098H40.9615V8.91338C40.9615 9.93423 40.379 10.6166 39.519 10.6166H39.5079Z" fill="#861F41"/>
<path d="M37.6691 19.1063C36.8923 19.1063 36.6094 18.6458 36.6094 18.0688V16.5209C36.6094 15.7664 37.081 15.4834 37.7023 15.4834H39.0117V18.7457H39.45V19.1063H38.6566V18.8899L38.3848 19.1063H37.6691ZM38.6511 15.844H37.6469C37.1475 15.844 36.97 16.1159 36.97 16.5431V18.0799C36.97 18.5182 37.1864 18.7457 37.6358 18.7457H38.6511V15.844ZM37.4083 14.3072C37.2751 14.3072 37.1586 14.2073 37.1586 14.0797C37.1586 13.9355 37.2807 13.8301 37.4083 13.8301C37.5415 13.8301 37.6469 13.941 37.6469 14.0797C37.6469 14.2073 37.5359 14.3072 37.4083 14.3072ZM38.2461 14.3072C38.1018 14.3072 37.9964 14.2073 37.9964 14.0797C37.9964 13.9355 38.1074 13.8301 38.2461 13.8301C38.3792 13.8301 38.4735 13.941 38.4735 14.0797C38.4735 14.2073 38.3792 14.3072 38.2461 14.3072Z" fill="#861F41"/>
<path d="M39.3984 18.7457H40.6856V15.4834H41.0462V18.7457H41.4734V19.1063H39.404V18.7457H39.3984ZM40.0254 21.0148C39.8922 21.0148 39.7868 20.9039 39.7868 20.7763C39.7868 20.6431 39.8978 20.5266 40.0254 20.5266C40.1585 20.5266 40.275 20.6487 40.275 20.7763C40.275 20.9039 40.153 21.0148 40.0254 21.0148ZM40.8631 21.0148C40.73 21.0148 40.6246 20.9039 40.6246 20.7763C40.6246 20.6431 40.7355 20.5266 40.8631 20.5266C40.9963 20.5266 41.1017 20.6487 41.1017 20.7763C41.1017 20.9039 40.9907 21.0148 40.8631 21.0148Z" fill="#861F41"/>
<path d="M42.6059 14.0127V18.1571C42.6059 18.7896 42.2453 19.1058 41.7237 19.1058H41.4297V18.7452H41.6904C42.1787 18.7452 42.2564 18.4068 42.2564 18.1349V14.0127H42.6059Z" fill="#861F41"/>
<path d="M43.9957 14.0127V18.2015C43.9957 18.5288 44.1677 18.7341 44.434 18.7341V19.1058C43.9458 19.1058 43.6406 18.6897 43.6406 18.1904V14.0127H43.9957Z" fill="#861F41"/>
<path d="M44.375 19.1056V18.745H45.2017V16.498C45.2017 15.6714 45.8563 15.4272 46.4001 15.4272C46.9438 15.4272 47.6095 15.6658 47.6095 16.498V18.745H48.0478V19.1056H47.5929C47.4819 19.7492 46.9049 19.9656 46.4056 19.9656C45.9174 19.9656 45.296 19.7714 45.2183 19.1056H44.375ZM45.5512 18.7894C45.5512 19.4663 45.9673 19.605 46.4001 19.605C46.8273 19.605 47.2378 19.4829 47.2378 18.7894V16.5424C47.2378 15.9432 46.8217 15.7879 46.4001 15.7879C45.9618 15.7879 45.5512 15.9432 45.5512 16.5424V18.7894Z" fill="#861F41"/>
<path d="M49.1762 14.0127V18.1571C49.1762 18.7896 48.8156 19.1058 48.294 19.1058H48V18.7452H48.2608C48.749 18.7452 48.8267 18.4068 48.8267 18.1349V14.0127H49.1762Z" fill="#861F41"/>
<path d="M50.5559 19.1058L50.1953 19.3111V14.0127H50.5559V19.1058Z" fill="#861F41"/>
<path d="M53.3216 16.421V18.0577C53.3216 18.5681 53.5712 18.7457 54.0317 18.7457H57.4216C57.9653 18.7457 58.1318 18.496 58.1318 18.0466V15.4834H58.4924V18.0355C58.4924 18.7901 58.0985 19.1063 57.3994 19.1063H53.9873C53.2439 19.1063 52.9609 18.6791 52.9609 18.0355V16.6596L53.3216 16.421ZM55.391 14.3072C55.2578 14.3072 55.1524 14.2073 55.1524 14.0797C55.1524 13.9355 55.2634 13.8301 55.391 13.8301C55.5353 13.8301 55.6407 13.941 55.6407 14.0797C55.6407 14.2073 55.5353 14.3072 55.391 14.3072ZM56.2288 14.3072C56.0956 14.3072 55.9902 14.2073 55.9902 14.0797C55.9902 13.9355 56.1012 13.8301 56.2288 13.8301C56.3619 13.8301 56.4673 13.941 56.4673 14.0797C56.4729 14.2073 56.3619 14.3072 56.2288 14.3072Z" fill="#861F41"/>
<path d="M59.8707 14.0127V18.2015C59.8707 18.5288 60.0427 18.7341 60.309 18.7341V19.1058C59.8208 19.1058 59.5156 18.6897 59.5156 18.1904V14.0127H59.8707Z" fill="#861F41"/>
<path d="M60.25 19.1056V18.745H61.0767V16.498C61.0767 15.6714 61.7313 15.4272 62.2751 15.4272C62.8188 15.4272 63.4845 15.6658 63.4845 16.498V18.8671C63.4845 19.7048 62.8299 19.9711 62.2751 19.9711C61.7868 19.9711 61.1654 19.7769 61.0878 19.1112H60.25V19.1056ZM61.4262 18.7894C61.4262 19.4663 61.8423 19.605 62.2751 19.605C62.7023 19.605 63.1128 19.4829 63.1128 18.7894V16.5424C63.1128 15.9432 62.6967 15.7879 62.2751 15.7879C61.8368 15.7879 61.4262 15.9432 61.4262 16.5424V18.7894Z" fill="#861F41"/>
<path d="M66.7182 17.0424C66.7182 16.1825 66.2466 15.844 65.5642 15.844H65.1148V15.4834H65.5531C66.6738 15.4834 67.0899 16.2157 67.0899 16.9869V18.7401H67.5171V19.1007H64.5156V18.7457H66.7182V17.0424Z" fill="#861F41"/>
<path d="M70.3316 16.5098C70.3316 16.0493 70.0375 15.844 69.6547 15.844H68.2788V15.4834H69.6103C70.3427 15.4834 70.6922 15.8995 70.6922 16.5098V18.7457H71.1305V19.1063H67.4688V18.7457H70.3371V16.5098H70.3316ZM69.2941 14.3072C69.1498 14.3072 69.0555 14.2073 69.0555 14.0797C69.0555 13.9355 69.1554 13.8301 69.2941 13.8301C69.4272 13.8301 69.5326 13.941 69.5326 14.0797C69.5382 14.2073 69.4272 14.3072 69.2941 14.3072Z" fill="#861F41"/>
<path d="M71.0859 18.7452H71.9126V14.0127H72.2621V18.7452H72.7004V19.1058H71.0859V18.7452Z" fill="#861F41"/>
<path d="M73.8324 14.0127V18.1571C73.8324 18.7896 73.4718 19.1058 72.9503 19.1058H72.6562V18.7452H72.917C73.4052 18.7452 73.4829 18.4068 73.4829 18.1349V14.0127H73.8324Z" fill="#861F41"/>
<path d="M24.6343 32.5435H22.3984V34.5963H24.4179L24.3514 34.9236H22.3984V37.2982H22.0156V32.2051H24.7009L24.6343 32.5435Z" fill="#861F41"/>
<path d="M25.6436 32.7879C25.4993 32.7879 25.3828 32.6658 25.3828 32.516C25.3828 32.3607 25.5049 32.2441 25.6436 32.2441C25.7989 32.2441 25.9265 32.3662 25.9265 32.516C25.9321 32.6658 25.7989 32.7879 25.6436 32.7879ZM25.4605 33.6811H25.8322V36.8324C25.8322 36.9656 25.8766 37.0377 26.0042 37.0377C26.0486 37.0377 26.093 37.0266 26.1595 37.0044L26.2261 37.2652C26.0652 37.3206 25.9432 37.3428 25.8544 37.3428C25.6158 37.3428 25.4605 37.2652 25.4605 36.8324V33.6811Z" fill="#861F41"/>
<path d="M27.2445 34.2467C27.4719 34.0304 28.1044 33.6143 28.7036 33.6143C29.4692 33.6143 29.6856 33.9305 29.6856 34.857V36.8321C29.6856 36.9653 29.73 37.0374 29.8576 37.0374C29.902 37.0374 29.9464 37.0263 30.013 37.0041L30.0795 37.2649C29.9186 37.3204 29.7966 37.3426 29.7078 37.3426C29.5358 37.3426 29.3139 37.3093 29.3139 36.8432V34.8792C29.3139 34.2689 29.2251 33.9749 28.6481 33.9749C28.0378 33.9749 27.361 34.4964 27.2389 34.6407V37.3037H26.8672V33.6808H27.2389V34.2467H27.2445Z" fill="#861F41"/>
<path d="M33.2841 37.3426C33.1121 37.3426 32.8791 37.3204 32.8791 36.8543V36.7656C32.6294 37.215 32.0857 37.3537 31.6807 37.3537C30.9373 37.3537 30.5156 36.9487 30.5156 36.3051C30.5156 35.3564 31.248 35.1622 32.0303 35.1622C32.3132 35.1622 32.5962 35.1844 32.8791 35.2066V34.7572C32.8791 34.0026 32.3243 33.9527 31.775 33.9527C31.4588 33.9527 31.1537 34.0304 30.7597 34.158L30.8374 33.7973C31.1869 33.6753 31.603 33.6143 31.947 33.6143C32.8292 33.6143 33.2564 33.8861 33.2564 34.9569V36.8321C33.2564 36.9653 33.3008 37.0374 33.4284 37.0374C33.4728 37.0374 33.5171 37.0263 33.5837 37.0041L33.6503 37.2649C33.4949 37.3204 33.3729 37.3426 33.2841 37.3426ZM32.8847 35.5117C32.6239 35.4895 32.3077 35.4673 32.0469 35.4673C31.4144 35.4673 30.9151 35.545 30.9151 36.2219C30.9151 36.8321 31.2757 37.0097 31.6918 37.0097C32.5518 37.0097 32.8902 36.4549 32.8902 35.9389V35.5117H32.8847Z" fill="#861F41"/>
<path d="M34.6585 34.2467C34.886 34.0304 35.5185 33.6143 36.1177 33.6143C36.8833 33.6143 37.0997 33.9305 37.0997 34.857V36.8321C37.0997 36.9653 37.1441 37.0374 37.2717 37.0374C37.3161 37.0374 37.3604 37.0263 37.427 37.0041L37.4936 37.2649C37.3327 37.3204 37.2106 37.3426 37.1219 37.3426C36.9499 37.3426 36.728 37.3093 36.728 36.8432V34.8792C36.728 34.2689 36.6392 33.9749 36.0622 33.9749C35.4519 33.9749 34.775 34.4964 34.653 34.6407V37.3037H34.2812V33.6808H34.653V34.2467H34.6585Z" fill="#861F41"/>
<path d="M40.7218 34.158C40.45 34.0692 40.0894 33.9749 39.7287 33.9749C38.9132 33.9749 38.3861 34.5297 38.3861 35.5006C38.3861 36.9265 39.4014 36.993 39.8231 36.993C40.1504 36.993 40.4666 36.9043 40.7496 36.7989L40.6719 37.1928C40.4888 37.2815 40.0949 37.3537 39.7565 37.3537C39.0352 37.3537 37.9922 37.0707 37.9922 35.4562C37.9922 34.4298 38.547 33.6143 39.7065 33.6143C40.2281 33.6143 40.5221 33.6919 40.7995 33.7973L40.7218 34.158Z" fill="#861F41"/>
<path d="M41.7451 32.7879C41.6009 32.7879 41.4844 32.6658 41.4844 32.516C41.4844 32.3607 41.6064 32.2441 41.7451 32.2441C41.9005 32.2441 42.0281 32.3662 42.0281 32.516C42.0281 32.6658 41.8949 32.7879 41.7451 32.7879ZM41.5565 33.6811H41.9282V36.8324C41.9282 36.9656 41.9726 37.0377 42.1002 37.0377C42.1446 37.0377 42.189 37.0266 42.2556 37.0044L42.3221 37.2652C42.1612 37.3206 42.0392 37.3428 41.9504 37.3428C41.7118 37.3428 41.5565 37.2652 41.5565 36.8324V33.6811Z" fill="#861F41"/>
<path d="M45.5497 37.3426C45.3778 37.3426 45.1447 37.3204 45.1447 36.8543V36.7656C44.8951 37.215 44.3514 37.3537 43.9463 37.3537C43.2029 37.3537 42.7812 36.9487 42.7812 36.3051C42.7812 35.3564 43.5136 35.1622 44.2959 35.1622C44.5788 35.1622 44.8618 35.1844 45.1447 35.2066V34.7572C45.1447 34.0026 44.5899 33.9527 44.0407 33.9527C43.7244 33.9527 43.4193 34.0304 43.0254 34.158L43.103 33.7973C43.4526 33.6753 43.8687 33.6143 44.2127 33.6143C45.0948 33.6143 45.522 33.8861 45.522 34.9569V36.8321C45.522 36.9653 45.5664 37.0374 45.694 37.0374C45.7384 37.0374 45.7828 37.0263 45.8493 37.0041L45.9159 37.2649C45.755 37.3204 45.6385 37.3426 45.5497 37.3426ZM45.1447 35.5117C44.884 35.4895 44.5677 35.4673 44.307 35.4673C43.6745 35.4673 43.1752 35.545 43.1752 36.2219C43.1752 36.8321 43.5358 37.0097 43.9519 37.0097C44.8118 37.0097 45.1503 36.4549 45.1503 35.9389V35.5117H45.1447Z" fill="#861F41"/>
<path d="M46.5703 32.2109H46.942V36.8325C46.942 36.9656 46.9864 37.0378 47.114 37.0378C47.1584 37.0378 47.2028 37.0267 47.2694 37.0045L47.3359 37.2652C47.1751 37.3207 47.053 37.3429 46.9642 37.3429C46.7257 37.3429 46.5703 37.2652 46.5703 36.8325V32.2109Z" fill="#861F41"/>
<path d="M50.4944 37.3761C49.9063 37.3761 49.4125 37.254 49.1406 37.1042L49.2183 36.7214C49.5123 36.8823 49.9285 37.0377 50.4944 37.0377C51.027 37.0377 51.7593 36.8823 51.7593 36.0446C51.7593 34.7796 49.1517 34.7685 49.1517 33.3426C49.1517 32.3828 49.9174 32.1221 50.7995 32.1221C51.1934 32.1221 51.6373 32.233 51.9757 32.3939L51.898 32.7324C51.5485 32.5881 51.1657 32.4605 50.7662 32.4605C50.1559 32.4605 49.5456 32.5826 49.5456 33.3316C49.5456 34.4356 52.1532 34.5299 52.1532 35.9946C52.1532 36.9655 51.4764 37.3761 50.4944 37.3761Z" fill="#861F41"/>
<path d="M55.9764 35.5897H53.2634C53.2634 36.8768 53.9624 37.01 54.6726 37.01C55.0998 37.01 55.5103 36.9323 55.9043 36.7603L55.8266 37.1432C55.4881 37.304 55.0332 37.3595 54.6393 37.3595C53.3299 37.3595 52.875 36.7381 52.875 35.5398C52.875 34.4579 53.3743 33.6201 54.4784 33.6201C55.527 33.6201 56.0041 34.3081 56.0041 35.2124C55.9986 35.4343 55.9764 35.5675 55.9764 35.5897ZM54.4728 33.953C53.513 33.953 53.2745 34.7797 53.2634 35.2845H55.6324C55.6712 34.3469 55.183 33.953 54.4728 33.953Z" fill="#861F41"/>
<path d="M58.7749 34.1358C58.6307 34.047 58.4365 33.9749 58.1757 33.9749C57.7818 33.9749 57.3879 34.4243 57.2936 34.6074V37.3037H56.9219V33.6808H57.2936V34.1802C57.4767 33.8972 57.804 33.6143 58.2201 33.6143C58.4809 33.6143 58.7084 33.7141 58.8526 33.7973L58.7749 34.1358Z" fill="#861F41"/>
<path d="M60.857 37.3036H60.4631L59.1094 33.6807H59.5033L60.6573 36.7876L61.8113 33.6807H62.1941L60.857 37.3036Z" fill="#861F41"/>
<path d="M63.0186 32.7879C62.8743 32.7879 62.7578 32.6658 62.7578 32.516C62.7578 32.3607 62.8799 32.2441 63.0186 32.2441C63.1739 32.2441 63.3015 32.3662 63.3015 32.516C63.3015 32.6658 63.1684 32.7879 63.0186 32.7879ZM62.8299 33.6811H63.2017V36.8324C63.2017 36.9656 63.246 37.0377 63.3737 37.0377C63.418 37.0377 63.4624 37.0266 63.529 37.0044L63.5956 37.2652C63.4347 37.3206 63.3126 37.3428 63.2238 37.3428C62.9853 37.3428 62.8299 37.2652 62.8299 36.8324V33.6811Z" fill="#861F41"/>
<path d="M66.839 34.158C66.5672 34.0692 66.2066 33.9749 65.8459 33.9749C65.0304 33.9749 64.5033 34.5297 64.5033 35.5006C64.5033 36.9265 65.5186 36.993 65.9402 36.993C66.2676 36.993 66.5838 36.9043 66.8668 36.7989L66.7891 37.1928C66.606 37.2815 66.2121 37.3537 65.8737 37.3537C65.1524 37.3537 64.1094 37.0707 64.1094 35.4562C64.1094 34.4298 64.6642 33.6143 65.8237 33.6143C66.3453 33.6143 66.6393 33.6919 66.9167 33.7973L66.839 34.158Z" fill="#861F41"/>
<path d="M70.5467 35.5897H67.8337C67.8337 36.8768 68.5327 37.01 69.2429 37.01C69.6701 37.01 70.0807 36.9323 70.4746 36.7603L70.3969 37.1432C70.0585 37.304 69.6035 37.3595 69.2096 37.3595C67.9003 37.3595 67.4453 36.7381 67.4453 35.5398C67.4453 34.4579 67.9446 33.6201 69.0487 33.6201C70.0973 33.6201 70.5744 34.3081 70.5744 35.2124C70.5689 35.4343 70.5467 35.5675 70.5467 35.5897ZM69.0432 33.953C68.0833 33.953 67.8448 34.7797 67.8337 35.2845H70.2027C70.2415 34.3469 69.7533 33.953 69.0432 33.953Z" fill="#861F41"/>
<path d="M72.3896 37.3538C71.8237 37.3538 71.4631 37.2762 71.2578 37.1929L71.3466 36.8101C71.5519 36.9211 71.9347 37.0154 72.3841 37.0154C72.8335 37.0154 73.4327 36.8934 73.4327 36.272C73.4327 35.473 71.3688 35.584 71.3688 34.5687C71.3688 33.8475 71.968 33.6089 72.6559 33.6089C73.0942 33.6089 73.3994 33.6866 73.6712 33.792L73.5936 34.1415C73.355 34.0305 73.0055 33.9473 72.6226 33.9473C72.0124 33.9473 71.7516 34.1526 71.7516 34.5354C71.7516 35.29 73.8099 35.1679 73.8099 36.272C73.8099 36.8989 73.2995 37.3538 72.3896 37.3538Z" fill="#861F41"/>
</svg>
