<svg width="130" height="32" viewBox="0 0 130 32" fill="none" xmlns="http://www.w3.org/2000/svg">
<path d="M15.3359 22.0446C21.3386 21.5405 26.0024 18.0352 26.0024 13.7954C26.0024 13.7011 25.9964 13.6065 25.9915 13.5115H25.2465H22.5979H16.4253C16.4253 15.4019 18.0052 15.8958 19.9542 15.8958H22.2983C22.2333 18.2054 18.3013 21.5188 15.3359 22.0446Z" fill="white"/>
<path d="M9.46961 5.68896C5.0068 6.9064 1.82422 10.0131 1.82422 13.646C1.82422 17.8789 6.14426 21.3973 11.7795 22.0441C8.19753 21.281 5.39671 18.2194 4.98402 14.4432C4.57268 10.6833 6.5012 7.32389 9.46961 5.68896Z" fill="white"/>
<path d="M25.2908 10.6666C24.0824 8.32958 21.164 6.47508 17.4688 5.68896C19.6903 6.69314 21.3896 8.49138 22.0861 10.6666H25.2908Z" fill="white"/>
<rect x="0.398438" width="27.0216" height="27.0216" fill="#06867B"/>
<path d="M15.3359 21.3329C20.9386 20.8284 25.2913 17.324 25.2913 13.0851C25.2913 12.99 25.2853 12.8949 25.2817 12.7998H24.5863H22.1141H16.3522C16.3522 14.6892 17.8276 15.1842 19.6459 15.1842H21.8344C21.7735 17.4943 18.1027 20.8071 15.3359 21.3329Z" fill="white"/>
<path d="M9.46911 5.68896C5.0063 6.85246 1.82422 9.82432 1.82422 13.2991C1.82422 17.348 6.14404 20.7143 11.7795 21.3331C8.19696 20.6025 5.39549 17.6735 4.98299 14.0625C4.5722 10.4652 6.50099 7.25224 9.46911 5.68896Z" fill="white"/>
<path d="M24.5797 10.6666C23.4816 8.32848 20.8277 6.47412 17.4688 5.68896C19.4876 6.69405 21.0329 8.49199 21.6662 10.6666H24.5797Z" fill="white"/>
<path d="M51.5977 7.13728L50.182 9.92858C49.0183 7.97392 47.0465 6.99694 44.2645 6.99694C42.3426 6.99694 40.825 7.59855 39.7122 8.80347C38.6675 9.94515 38.145 11.4314 38.145 13.2616C38.145 15.1703 38.7088 16.6718 39.8385 17.7661C40.9676 18.8618 42.5532 19.4087 44.5927 19.4087C45.8071 19.4087 46.8518 19.2044 47.7286 18.7976V13.4483H51.522V19.9714C49.2966 20.8797 46.7675 21.3332 43.9355 21.3332C41.2378 21.3332 38.919 20.6298 36.9812 19.2203C34.8737 17.7039 33.8203 15.7168 33.8203 13.2613C33.8203 10.7744 34.8401 8.7497 36.8806 7.18462C38.8018 5.71491 41.1289 4.97803 43.8596 4.97803C46.8935 4.97803 49.4739 5.69834 51.5977 7.13728Z" fill="#06867B"/>
<path d="M67.9521 19.1251L66.9352 21.3331H55.1523V5.68896H65.616L66.7328 7.87415C65.278 7.68753 63.5423 7.59539 61.5271 7.59539H59.2408V12.4536H60.0029C62.1024 12.4536 63.8127 12.3923 65.1337 12.268L65.0567 14.4991C63.3642 14.4217 61.832 14.3821 60.4605 14.3821H59.2151V19.4038L62.1366 19.4273C64.2709 19.444 66.2077 19.3419 67.9521 19.1251Z" fill="#06867B"/>
<path d="M81.1494 4.97803C83.8918 4.97803 86.2423 5.68136 88.2051 7.08936C90.35 8.62269 91.4219 10.6401 91.4219 13.144C91.4219 15.7085 90.3741 17.75 88.2812 19.2671C86.3683 20.6435 84.0072 21.3335 81.1982 21.3335C78.3718 21.3335 75.9864 20.6668 74.042 19.3374C71.8801 17.8677 70.8008 15.8415 70.8008 13.2612C70.8008 10.7573 71.8796 8.71561 74.042 7.13525C76.037 5.69731 78.4051 4.97803 81.1494 4.97803ZM81.1484 6.99561C79.236 6.99566 77.74 7.59805 76.6592 8.80225C75.6284 9.94457 75.1134 11.4298 75.1133 13.2603C75.1133 14.9957 75.6696 16.4442 76.7842 17.6011C77.8972 18.7597 79.3692 19.3374 81.1973 19.3374C82.9924 19.3374 84.4469 18.7195 85.5605 17.4839C86.6078 16.3257 87.1327 14.8811 87.1328 13.144C87.1328 11.3138 86.6244 9.84941 85.6113 8.75537C84.5476 7.58206 83.0581 6.99561 81.1484 6.99561Z" fill="#06867B"/>
<path d="M99.9508 14.4761C99.9508 16.2598 99.4899 17.7944 98.5741 19.0795C98.0225 19.8355 97.1625 20.4863 95.9953 21.0324C95.0109 21.515 93.9579 21.8513 92.8398 22.0441V20.5492C94.9086 19.731 95.9445 17.9796 95.9445 15.2943V5.68896H99.9504V14.4761H99.9508Z" fill="#06867B"/>
<rect x="104.93" y="5.68896" width="4.26657" height="15.6441" fill="#06867B"/>
<path d="M129.105 5.68896L129.082 7.59569H122.869V21.3331H118.938V7.59569H112.75L113.356 5.68896H129.105Z" fill="#06867B"/>
<path d="M36.2881 27.0217C36.5972 27.0217 36.8337 27.0372 36.9971 27.0686C37.2255 27.1096 37.4166 27.188 37.5713 27.302C37.726 27.4154 37.8509 27.5762 37.9453 27.7815C38.0397 27.9883 38.0869 28.2149 38.0869 28.4612C38.0869 28.8846 37.9601 29.2428 37.708 29.5354C37.4559 29.8283 37.0014 29.9758 36.3428 29.9758H35.1475V31.9993H34.5312V27.0217H36.2881ZM35.1445 29.3889H36.3477C36.7462 29.3889 37.0292 29.3093 37.1963 29.1506C37.3637 28.992 37.4473 28.7693 37.4473 28.4817C37.4472 28.2737 37.3984 28.0957 37.2998 27.9475C37.2015 27.7993 37.072 27.7017 36.9111 27.6536C36.8078 27.6236 36.6157 27.6086 36.3359 27.6086H35.1445V29.3889Z" fill="#2B2B36"/>
<path d="M38.7969 31.9994V27.0217H42.2418V27.6078H39.4271V29.1336H42.063V29.7175H39.4271V31.4115H42.3523V31.9994H38.7969Z" fill="#2B2B36"/>
<path d="M45.207 27.0217C45.6191 27.0218 45.9906 27.1283 46.3213 27.3401C46.6515 27.5525 46.9037 27.8481 47.0771 28.2278C47.2503 28.6073 47.3369 29.0374 47.3369 29.5188C47.3369 30.0072 47.2462 30.4436 47.0635 30.8284C46.881 31.2124 46.6223 31.504 46.2871 31.7024C45.9522 31.8999 45.5917 31.9992 45.2041 31.9993C44.7847 31.9993 44.4088 31.8891 44.0781 31.6711C43.7478 31.4524 43.4968 31.1545 43.3262 30.7756C43.1559 30.3964 43.0703 29.9964 43.0703 29.5745C43.0704 28.7757 43.2694 28.1506 43.667 27.6995C44.0645 27.2486 44.5782 27.0217 45.207 27.0217ZM45.2109 27.5686C44.7925 27.5686 44.4328 27.7239 44.1318 28.0334C43.8302 28.3424 43.6797 28.8612 43.6797 29.5842C43.6797 30.1634 43.8248 30.6199 44.1143 30.9543C44.4031 31.2873 44.7648 31.4543 45.2012 31.4543C45.6456 31.4543 46.0116 31.285 46.2988 30.9485C46.5853 30.6113 46.7295 30.1337 46.7295 29.5149C46.7294 29.1234 46.6679 28.7815 46.5449 28.4895C46.4219 28.1976 46.2431 27.9709 46.0068 27.8108C45.7707 27.6493 45.5052 27.5686 45.2109 27.5686Z" fill="#2B2B36"/>
<path d="M50.5146 27.0217C50.8238 27.0217 51.0602 27.0372 51.2236 27.0686C51.4526 27.1096 51.6438 27.188 51.7988 27.302C51.9531 27.4154 52.0779 27.5763 52.1719 27.7815C52.2665 27.9882 52.3135 28.2149 52.3135 28.4612C52.3134 28.8845 52.1873 29.2428 51.9355 29.5354C51.6835 29.8284 51.2272 29.9748 50.5693 29.9749H49.375V31.9993H48.7578V27.0217H50.5146ZM49.375 29.3889H50.5791C50.9767 29.3889 51.2597 29.3093 51.4268 29.1506C51.5944 28.992 51.6777 28.7693 51.6777 28.4817C51.6777 28.2737 51.6285 28.0957 51.5303 27.9475C51.4315 27.7992 51.3014 27.7017 51.1406 27.6536C51.0369 27.6237 50.8457 27.6087 50.5664 27.6086H49.375V29.3889Z" fill="#2B2B36"/>
<path d="M53.0195 31.9994V27.0217H53.6219V31.4115H55.8639V31.9994H53.0195Z" fill="#2B2B36"/>
<path d="M56.5742 31.9994V27.0217H60.0192V27.6078H57.2051V29.1336H59.8404V29.7175H57.2051V31.4115H60.1297V31.9994H56.5742Z" fill="#2B2B36"/>
<path d="M64.056 31.9994V29.8913L62.2617 27.0221H63.011L63.928 28.5224C64.098 28.803 64.2557 29.0835 64.4013 29.3648C64.541 29.1038 64.711 28.8112 64.91 28.4847L65.811 27.0217H66.5283L64.672 29.8909V31.999H64.056V31.9994Z" fill="#2B2B36"/>
<path d="M69.3828 27.0217C69.7944 27.0217 70.166 27.1283 70.4961 27.3401C70.827 27.5526 71.0791 27.848 71.2529 28.2278C71.4264 28.6073 71.5127 29.0374 71.5127 29.5188C71.5127 30.0072 71.4217 30.4436 71.2393 30.8284C71.0565 31.2124 70.7978 31.504 70.4629 31.7024C70.1281 31.9 69.7667 31.9992 69.3799 31.9993C68.96 31.9993 68.584 31.8892 68.2529 31.6711C67.922 31.4524 67.6726 31.1544 67.502 30.7756C67.332 30.3964 67.2461 29.9964 67.2461 29.5745C67.2462 28.7757 67.4445 28.1506 67.8418 27.6995C68.24 27.2486 68.7543 27.0217 69.3828 27.0217ZM69.3857 27.5686C68.9683 27.5687 68.6091 27.724 68.3076 28.0334C68.0066 28.3424 67.8555 28.8612 67.8555 29.5842C67.8555 30.1633 67.9997 30.62 68.2891 30.9543C68.5776 31.2874 68.9414 31.4543 69.3779 31.4543C69.8222 31.4542 70.1874 31.2849 70.4746 30.9485C70.7611 30.6113 70.9053 30.1338 70.9053 29.5149C70.9052 29.1234 70.8437 28.7815 70.7207 28.4895C70.598 28.1977 70.4189 27.9709 70.1826 27.8108C69.9462 27.6493 69.6803 27.5686 69.3857 27.5686Z" fill="#2B2B36"/>
<path d="M75.1757 27.0217H75.7742V29.849C75.7742 30.3411 75.7221 30.7309 75.6198 31.0211C75.5172 31.3106 75.3311 31.5455 75.0631 31.727C74.795 31.9086 74.4429 31.9994 74.0072 31.9994C73.5828 31.9994 73.2368 31.9198 72.9675 31.7624C72.6985 31.6044 72.5062 31.3751 72.391 31.0765C72.2764 30.7768 72.2188 30.3674 72.2188 29.849V27.0217H72.8166V29.8458C72.8166 30.271 72.8532 30.5844 72.9267 30.7859C72.9995 30.9871 73.1251 31.1427 73.3022 31.2514C73.4802 31.3604 73.6977 31.4151 73.9551 31.4151C74.395 31.4151 74.708 31.3075 74.8947 31.0912C75.0822 30.8756 75.1757 30.4599 75.1757 29.8458V27.0217Z" fill="#2B2B36"/>
<path d="M80.3789 27.0217C80.6879 27.0217 80.9239 27.0373 81.0869 27.0686C81.3154 27.1096 81.5077 27.1879 81.6621 27.302C81.8167 27.4153 81.9408 27.5763 82.0352 27.7815C82.1292 27.9883 82.1768 28.2148 82.1768 28.4612C82.1767 28.8846 82.0503 29.2428 81.7979 29.5354C81.546 29.8283 81.0902 29.9749 80.4316 29.9749H79.2373V31.9993H78.6211V27.0217H80.3789ZM79.2383 29.3889H80.4424C80.8403 29.3889 81.1239 29.3093 81.291 29.1506C81.4582 28.992 81.541 28.7692 81.541 28.4817C81.541 28.2737 81.4925 28.0957 81.3936 27.9475C81.2962 27.7993 81.1658 27.7017 81.0049 27.6536C80.9018 27.6236 80.7094 27.6087 80.4297 27.6086H79.2383V29.3889Z" fill="#2B2B36"/>
<path d="M85.748 27.0217C86.1793 27.0217 86.5074 27.0655 86.7324 27.1545C86.9568 27.2444 87.1363 27.4038 87.2705 27.6301C87.4049 27.8564 87.4717 28.1065 87.4717 28.3801C87.4716 28.7327 87.3612 29.0305 87.1396 29.2727C86.9164 29.5143 86.5725 29.6683 86.1084 29.7346C86.2778 29.8173 86.4061 29.9012 86.4951 29.9817C86.6817 30.1585 86.8585 30.3796 87.0264 30.6448L87.8682 31.9993H87.0625L86.4219 30.9631C86.2344 30.6645 86.0807 30.4358 85.959 30.2776C85.8381 30.1191 85.7304 30.0088 85.6348 29.9446C85.5384 29.8812 85.4402 29.8367 85.3418 29.8118C85.2686 29.7964 85.1498 29.7893 84.9844 29.7893H84.2422V31.9993H83.6016V27.0217H85.748ZM84.2422 29.218H85.6201C85.9124 29.218 86.1416 29.1873 86.3066 29.1252C86.4716 29.0625 86.5969 28.9635 86.6836 28.8264C86.7685 28.6893 86.8124 28.5408 86.8125 28.3801C86.8125 28.1441 86.7289 27.9502 86.5625 27.7991C86.3964 27.6473 86.1338 27.5716 85.7754 27.5715H84.2422V29.218Z" fill="#2B2B36"/>
<path d="M90 27.0217C90.4117 27.0218 90.7823 27.1284 91.1133 27.3401C91.444 27.5526 91.6956 27.8488 91.8691 28.2288C92.042 28.6083 92.1299 29.0383 92.1299 29.5198C92.1298 30.008 92.0385 30.4438 91.8555 30.8284C91.6737 31.2124 91.4149 31.504 91.0801 31.7024C90.745 31.9 90.3842 32.0002 89.9971 32.0002C89.5762 32.0002 89.2002 31.8892 88.8691 31.6711C88.5392 31.4524 88.2881 31.1544 88.1172 30.7756C87.9483 30.3966 87.8633 29.9972 87.8633 29.5754C87.8633 28.7763 88.0624 28.1507 88.46 27.6995C88.8575 27.2488 89.3706 27.0217 90 27.0217ZM90 27.5686C89.582 27.5686 89.2213 27.7238 88.9199 28.0334C88.6189 28.3424 88.4688 28.8612 88.4688 29.5842C88.4688 30.1634 88.6132 30.62 88.9023 30.9543C89.1912 31.2874 89.5543 31.4543 89.9902 31.4543C90.4347 31.4543 90.8009 31.285 91.0879 30.9485C91.375 30.6113 91.5186 30.1336 91.5186 29.5149C91.5185 29.1234 91.457 28.7815 91.334 28.4895C91.2116 28.1976 91.0323 27.9709 90.7959 27.8108C90.5595 27.6493 90.2942 27.5686 90 27.5686Z" fill="#2B2B36"/>
<path d="M92.8398 30.37L93.3973 30.3177C93.4236 30.5586 93.485 30.7564 93.5819 30.9109C93.6782 31.0649 93.8282 31.1904 94.0313 31.2852C94.2338 31.38 94.4631 31.4279 94.7167 31.4279C94.9419 31.4279 95.1412 31.391 95.3133 31.3197C95.4863 31.2476 95.6149 31.1487 95.699 31.0229C95.7834 30.8964 95.8257 30.7595 95.8257 30.611C95.8257 30.4597 95.7854 30.3276 95.7041 30.2153C95.6222 30.1022 95.4882 30.0078 95.3017 29.9313C95.1815 29.8809 94.917 29.8027 94.5069 29.6969C94.0959 29.5904 93.8087 29.4901 93.6446 29.396C93.4309 29.276 93.2716 29.1261 93.1677 28.9482C93.0631 28.7697 93.0106 28.5697 93.0106 28.3484C93.0106 28.1054 93.0743 27.8793 93.2026 27.667C93.3305 27.4557 93.517 27.2961 93.7633 27.1861C94.0095 27.0762 94.2821 27.0217 94.583 27.0217C94.9134 27.0217 95.2058 27.0789 95.4591 27.1941C95.7115 27.3092 95.9059 27.4781 96.0422 27.7011C96.1781 27.9252 96.2507 28.1778 96.2616 28.4598L95.6948 28.5056C95.6645 28.2019 95.5611 27.971 95.3852 27.8169C95.2099 27.6608 94.9509 27.5839 94.6077 27.5839C94.2491 27.5839 93.9888 27.6539 93.8256 27.7952C93.6615 27.9358 93.5803 28.1061 93.5803 28.306C93.5803 28.4777 93.6382 28.6204 93.754 28.7321C93.8678 28.8438 94.1647 28.9582 94.6448 29.0754C95.1255 29.1919 95.4553 29.295 95.6341 29.3818C95.8941 29.5118 96.0857 29.6748 96.2101 29.8733C96.3339 30.0712 96.3953 30.2994 96.3953 30.5572C96.3953 30.8137 96.3272 31.0546 96.1913 31.2817C96.055 31.5079 95.8599 31.6843 95.605 31.8102C95.3497 31.936 95.0631 31.9994 94.7446 31.9994C94.3396 31.9994 94.0015 31.936 93.7287 31.8088C93.4552 31.6823 93.2409 31.4903 93.0855 31.2352C92.9291 30.9808 92.8478 30.692 92.8398 30.37Z" fill="#2B2B36"/>
<path d="M99.5771 27.0217C99.8864 27.0217 100.122 27.0373 100.285 27.0686C100.515 27.1096 100.707 27.1879 100.861 27.302C101.015 27.4153 101.14 27.5763 101.234 27.7815C101.328 27.9882 101.376 28.2149 101.376 28.4612C101.376 28.8845 101.25 29.2428 100.998 29.5354C100.745 29.8284 100.29 29.9758 99.6309 29.9758H98.4365V32.0002H97.8203V27.0217H99.5771ZM98.4375 29.3889H99.6406C100.039 29.3889 100.322 29.3093 100.489 29.1506C100.657 28.992 100.74 28.7694 100.74 28.4817C100.74 28.2738 100.692 28.0957 100.594 27.9475C100.495 27.7992 100.365 27.7017 100.204 27.6536C100.1 27.6236 99.9081 27.6086 99.6289 27.6086H98.4375V29.3889Z" fill="#2B2B36"/>
<path d="M102.086 31.9994V27.0217H105.531V27.6078H102.717V29.1336H105.352V29.7175H102.717V31.4115H105.641V31.9994H102.086Z" fill="#2B2B36"/>
<path d="M108.501 27.0217C108.932 27.0217 109.261 27.0654 109.486 27.1545C109.711 27.2444 109.89 27.4039 110.024 27.6301C110.158 27.8564 110.226 28.1065 110.226 28.3801C110.225 28.7327 110.115 29.0305 109.893 29.2727C109.67 29.5144 109.326 29.6683 108.861 29.7346C109.03 29.8173 109.159 29.9012 109.248 29.9817C109.435 30.1585 109.612 30.3795 109.78 30.6448L110.622 31.9993H109.816L109.175 30.9631C108.988 30.6646 108.834 30.4358 108.712 30.2776C108.591 30.1191 108.483 30.0087 108.388 29.9446C108.291 29.8811 108.194 29.8367 108.095 29.8118C108.022 29.7965 107.903 29.7893 107.738 29.7893H106.995V31.9993H106.355V27.0217H108.501ZM106.996 29.218H108.374C108.667 29.218 108.895 29.1872 109.061 29.1252C109.226 29.0625 109.351 28.9636 109.438 28.8264C109.523 28.6893 109.566 28.5408 109.566 28.3801C109.566 28.1441 109.482 27.9502 109.316 27.7991C109.15 27.6473 108.887 27.5715 108.528 27.5715H106.996V29.218Z" fill="#2B2B36"/>
<path d="M114.071 31.9994L112.75 27.0224H113.426L114.183 30.2846C114.264 30.6264 114.334 30.9661 114.393 31.3029C114.519 30.7711 114.595 30.4639 114.617 30.3826L115.564 27.0221H116.359L117.072 29.54C117.251 30.1652 117.379 30.7519 117.459 31.3026C117.522 30.9878 117.605 30.6271 117.707 30.2193L118.488 27.0217H119.15L117.785 31.9987H117.15L116.101 28.2065C116.013 27.8897 115.96 27.694 115.945 27.6216C115.892 27.8508 115.844 28.0451 115.8 28.2065L114.743 31.9987H114.071V31.9994Z" fill="#2B2B36"/>
<rect x="119.863" y="27.0217" width="0.739702" height="4.97766" fill="#2B2B36"/>
<path d="M122.767 31.9994V27.6078H121.289V27.0217H124.845V27.6078H123.36V31.9994H122.767Z" fill="#2B2B36"/>
<path d="M125.551 31.9994V27.0217H126.15V29.0651H128.507V27.0217H129.106V31.9994H128.507V29.6523H126.15V31.9994H125.551Z" fill="#2B2B36"/>
</svg>
