<svg width="127" height="32" viewBox="0 0 127 32" fill="none" xmlns="http://www.w3.org/2000/svg">
<path d="M15.9879 18.8844V24.7759H11.5145V19.1938C13.0158 19.0815 14.5069 18.9783 15.9879 18.8844ZM4.50627 19.7781V24.7759H0.015625L0.0257971 20.2124C1.52883 20.059 3.02232 19.9143 4.50627 19.7781ZM30.5937 18.2477L36.6337 24.7759H31.0172L25.1658 18.4145C26.9915 18.3441 28.8008 18.2885 30.5937 18.2477ZM23.3628 18.4886V24.7759H18.8398V18.714C20.3583 18.6291 21.866 18.554 23.3628 18.4886ZM64.5198 19.2837V24.7759H59.9636V18.999C61.4682 19.0987 62.9888 19.1936 64.5198 19.2837ZM53.0216 18.5533L53.0217 24.7759H48.4655V18.3502C49.9978 18.4056 51.5166 18.4733 53.0216 18.5533ZM41.4407 18.1837V24.7759H36.901V18.165C38.4267 18.16 39.9399 18.1662 41.4407 18.1837ZM85.0994 20.1818V24.7759H80.5929V22.8658C79.7093 23.7074 78.8229 24.3136 77.9338 24.6846C77.0446 25.0555 76.0809 25.241 75.0427 25.241C72.7121 25.241 70.6964 24.3358 68.9954 22.5253C68.132 21.6063 67.4877 20.574 67.0626 19.4282C68.8649 19.5271 70.6771 19.6192 72.4901 19.7043C73.4118 20.6271 74.5332 21.0885 75.8545 21.0885C77.0852 21.0885 78.1346 20.7188 79.0027 19.9795C81.0526 20.0565 83.0893 20.1241 85.0994 20.1818ZM105.944 20.3942V22.1848C105.944 25.241 105.331 27.4889 104.105 28.9284C102.459 30.8773 99.9797 31.8518 96.6661 31.8518C94.8988 31.8518 93.4132 31.6303 92.2093 31.1874C91.0053 30.7444 89.9892 30.0939 89.1608 29.2357C88.3324 28.3775 87.7194 27.3339 87.3217 26.1047H92.3087C92.7505 26.6141 93.3193 26.9989 94.0152 27.2591C94.7111 27.5193 95.5339 27.6494 96.4838 27.6494C97.6988 27.6494 98.6763 27.4612 99.4163 27.0847C100.156 26.7082 100.678 26.221 100.982 25.623C101.286 25.0251 101.438 23.9953 101.438 22.5336C100.642 23.3309 99.8085 23.9039 98.9359 24.2527C98.0633 24.6015 97.0748 24.7759 95.9702 24.7759C93.5513 24.7759 91.5079 23.9011 89.8401 22.1516C89.2903 21.5748 88.8311 20.9475 88.4625 20.2696C90.7138 20.3226 92.9207 20.3624 95.0636 20.3886C95.6051 20.5784 96.1945 20.6733 96.8317 20.6733C97.4268 20.6733 97.9777 20.5886 98.4843 20.4192C101.105 20.4336 103.605 20.4256 105.944 20.3942ZM121.401 19.4811L126.3 24.7759H120.683L116.312 20.0242C118.386 19.8826 120.108 19.7022 121.401 19.4811ZM113.029 20.2043V24.7759H108.506V20.349C110.111 20.3135 111.624 20.2654 113.029 20.2043Z" fill="#01A6FF"/>
<path d="M104.007 0C104.637 0 105.178 0.22201 105.629 0.666036C106.079 1.11006 106.305 1.64801 106.305 2.27989C106.305 2.90324 106.082 3.43478 105.635 3.87454C105.189 4.31429 104.655 4.53417 104.033 4.53417C103.394 4.53417 102.85 4.31002 102.399 3.86173C101.948 3.41343 101.723 2.86908 101.723 2.22866C101.723 1.61385 101.946 1.08871 102.392 0.653228C102.839 0.21774 103.377 0 104.007 0Z" fill="#01A6FF"/>
<path d="M2.2845 0C2.91471 0 3.45519 0.22201 3.90597 0.666036C4.35674 1.11006 4.58213 1.64801 4.58213 2.27989C4.58213 2.90324 4.35893 3.43478 3.91253 3.87454C3.46613 4.31429 2.93221 4.53417 2.31076 4.53417C1.67179 4.53417 1.12693 4.31002 0.676159 3.86173C0.225384 3.41343 0 2.86908 0 2.22866C0 1.61385 0.223196 1.08871 0.669594 0.653228C1.11599 0.21774 1.65429 0 2.2845 0Z" fill="#01A6FF"/>
<path d="M15.9879 18.9064C14.507 18.9991 13.0159 19.1009 11.5146 19.2118V16.9015C11.5146 14.7703 11.4179 13.3551 11.2246 12.6556C11.0314 11.9562 10.6945 11.4234 10.214 11.0573C9.73355 10.6912 9.13988 10.5081 8.43298 10.5081C7.51623 10.5081 6.72927 10.8114 6.07208 11.4179C5.41489 12.0245 4.95928 12.8633 4.70524 13.9343C4.5727 14.4917 4.50643 15.6993 4.50643 17.5572V19.7885C3.02251 19.9228 1.52904 20.0657 0.026022 20.2171L0.01585 24.7211H0V6.88518H4.50643V8.70483C5.53363 7.85238 6.46418 7.2595 7.29809 6.92616C8.132 6.59283 8.98524 6.42617 9.85781 6.42617C11.6471 6.42617 13.1658 7.04364 14.4139 8.27861C15.4632 9.32779 15.9879 10.8797 15.9879 12.9343V18.9064ZM30.5936 18.278C28.8007 18.3183 26.9914 18.3732 25.1657 18.4427L23.3627 16.508V18.5158C21.866 18.5803 20.3583 18.6544 18.8397 18.7383V0H23.3627V14.2458L30.023 6.88518H35.6891L27.9354 15.4425L30.5936 18.278ZM64.5192 19.3005C62.9883 19.2116 61.4676 19.1179 59.9631 19.0195V15.672C59.9631 13.6501 59.709 12.2813 59.201 11.5655C58.6929 10.8496 57.9308 10.4917 56.9146 10.4917C56.1415 10.4917 55.4484 10.7103 54.8354 11.1474C54.2224 11.5846 53.7667 12.1884 53.4685 12.9589C53.1703 13.7294 53.0212 14.9671 53.0212 16.672V18.5796C51.5161 18.5007 49.9974 18.4339 48.4651 18.3792V16.0818C48.4651 14.4862 48.3463 13.3305 48.1089 12.6146C47.8714 11.8988 47.5152 11.366 47.0402 11.0163C46.5653 10.6666 45.991 10.4917 45.3172 10.4917C44.5661 10.4917 43.8841 10.713 43.2711 11.1556C42.6581 11.5983 42.1997 12.2185 41.896 13.0163C41.5922 13.8141 41.4403 15.0709 41.4403 16.7867V18.2148C39.9396 18.1976 38.4264 18.1915 36.9008 18.1964V6.88518H41.4403V8.93434C42.2135 8.09281 43.0723 7.46441 44.0166 7.04911C44.961 6.63381 45.9909 6.42617 47.1065 6.42617C48.2331 6.42617 49.2493 6.69939 50.155 7.24583C51.0607 7.79228 51.7897 8.59008 52.3419 9.63925C53.0599 8.59008 53.9407 7.79228 54.9845 7.24583C56.0282 6.69939 57.1686 6.42617 58.4057 6.42617C59.687 6.42617 60.8136 6.72124 61.7855 7.31141C62.7575 7.90157 63.4561 8.67204 63.8814 9.62286C64.3066 10.5737 64.5192 12.1201 64.5192 14.2622V19.3005ZM85.0986 20.1869C83.0885 20.1299 81.0518 20.0633 79.0019 19.9872C79.1389 19.8721 79.2713 19.7479 79.3993 19.6146C80.3381 18.6364 80.8075 17.355 80.8075 15.7703C80.8075 14.2184 80.3381 12.9616 79.3993 11.9999C78.4604 11.0381 77.2731 10.5573 75.8372 10.5573C74.4344 10.5573 73.2692 11.0463 72.3414 12.0245C71.4136 13.0026 70.9497 14.2567 70.9497 15.7867C70.9497 17.3277 71.4219 18.5954 72.3662 19.59C72.4069 19.6328 72.4479 19.6746 72.4894 19.7156C70.6764 19.6317 68.8643 19.5407 67.0619 19.4431C66.6495 18.346 66.4433 17.1437 66.4433 15.8359C66.4433 13.0818 67.2661 10.825 68.9119 9.06549C70.5576 7.30593 72.5568 6.42617 74.9094 6.42617C75.9918 6.42617 77.008 6.62835 77.9579 7.03272C78.9078 7.43709 79.7858 8.04363 80.5921 8.85237V6.88518H85.0986V20.1869ZM105.943 20.3965C103.604 20.4275 101.104 20.4353 98.4833 20.4212C99.1709 20.1943 99.777 19.8134 100.302 19.2785C101.213 18.3495 101.669 17.131 101.669 15.6228C101.669 14.1365 101.21 12.9288 100.293 11.9999C99.3766 11.0709 98.1948 10.6065 96.7479 10.6065C95.3231 10.6065 94.1468 11.0791 93.219 12.0245C92.2912 12.9698 91.8273 14.1583 91.8273 15.59C91.8273 17.0763 92.3022 18.2949 93.2521 19.2457C93.7804 19.7746 94.3839 20.1563 95.0626 20.391C92.9197 20.3651 90.7128 20.3258 88.4616 20.2736C87.7121 18.9132 87.3374 17.3465 87.3374 15.5736C87.3374 12.743 88.221 10.4699 89.9883 8.75401C91.5898 7.20211 93.5006 6.42617 95.7207 6.42617C96.7589 6.42617 97.7392 6.61469 98.6615 6.99174C99.5837 7.36878 100.509 7.98899 101.437 8.85237V6.88518H105.943V20.3965ZM121.399 19.4953C120.107 19.7136 118.385 19.8916 116.311 20.0314L113.027 16.508V20.2091C111.622 20.2693 110.11 20.3168 108.504 20.3519V0H113.027V14.2458L119.688 6.88518H125.354L117.6 15.4425L121.399 19.4953Z" fill="#E72D5D"/>
</svg>
